 <svg xmlns="http://www.w3.org/2000/svg" viewBox="0 0 100 100">
                        <path d="M5.8 35.6h7.8c1.9 9.6 3.9 19.1 5.8 28.7h-5.7c-.4-2-.8-4.1-1.2-6.1H7c-.4 2-.8 4.1-1.2 6.1H.1c1.8-9.5 3.8-19.1 5.7-28.7zM8 53.3h3.4c-.6-2.8-1.2-5.7-1.7-8.5-.6 2.8-1.2 5.6-1.7 8.5zM20.6 35.6h9.2c1.3 0 2.6.1 3.9.6 1.2.4 2.3 1.2 2.9 2.3.9 1.4 1.1 3.1 1.1 4.8 0 1.6-.5 3.2-1.6 4.5-.6.7-1.4 1.3-2.3 1.6 1 .3 1.9.9 2.5 1.7 1 1.4 1.2 3.2 1.3 4.8.1 1.9-.2 3.9-1.2 5.5-.8 1.2-2 2.1-3.4 2.5-1.1.3-2.3.4-3.5.4h-8.9V35.6zm6.7 5v6.5h2.1c.5 0 .9-.2 1.2-.7.4-.7.5-1.5.5-2.2 0-.9 0-1.8-.4-2.6-.3-.6-.8-1-1.5-1.1-.6.1-1.3.1-1.9.1zm0 11.5v7.3h1.9c.6 0 1.2-.3 1.6-.8.5-.8.6-1.8.6-2.7 0-.9 0-1.8-.3-2.7-.2-.6-.8-.9-1.4-1-.8-.2-1.6-.1-2.4-.1zM39.5 35.6H49c1.8 0 3.7.3 5.1 1.4 1.3.9 2 2.5 2.3 4 .3 1.8.3 3.7-.5 5.4-.7 1.3-1.8 2.4-3.2 3 1 .3 1.9.9 2.5 1.7 1 1.3 1.2 2.9 1.3 4.4.1 1.9-.1 3.9-1 5.6-.7 1.2-1.8 2.1-3.1 2.6-1.1.4-2.4.6-3.6.6h-9.3V35.6zm6.7 5v6.5h2.1c.5 0 .9-.2 1.1-.6.4-.6.5-1.4.6-2.1 0-.9 0-1.9-.4-2.7-.3-.6-.8-1-1.4-1-.7-.1-1.4-.1-2-.1zm0 11.5v7.3h2.1c.6 0 1.2-.4 1.5-1 .5-1 .5-2.1.5-3.2 0-.8-.1-1.6-.5-2.3-.3-.5-1-.7-1.6-.8-.7-.1-1.4 0-2 0zM56.4 35.6h6.2c.6 2.5 1.2 4.9 1.8 7.4.3 1.4.7 2.7 1.1 4.1 1.1-3.8 2.1-7.6 3.1-11.5h5.9c-1.9 6.2-3.7 12.4-5.6 18.5 0 .1-.1.3-.1.4v9.8h-6.7V55c0-.3 0-.6-.1-.9-1.9-6.1-3.7-12.3-5.6-18.5zM75.1 35.6h6.2c.9 3.8 1.8 7.7 2.9 11.5 1.1-3.8 2.1-7.6 3.1-11.5h5.9c-1.8 5.8-3.5 11.6-5.3 17.4-.1.5-.3.9-.4 1.4v9.9h-6.7V55v-.8l-5.7-18.6zM96.7 35.8c.8-.2 1.8 0 2.4.5 1.2 1 1.2 3 0 4-1 .9-2.6.8-3.6 0-1.1-1-1.1-3 0-4 .4-.2.7-.4 1.2-.5zm.2.6c-.3.1-.5.2-.7.4-.9.8-.9 2.5.1 3.2.6.5 1.6.5 2.2 0 1-.7 1-2.3.1-3.2-.4-.4-1.1-.6-1.7-.4z"/>
                        <path d="M96.3 36.9c.6 0 1.2-.1 1.8.1.5.2.6.8.4 1.2-.1.2-.4.2-.6.3.2.4.5.8.7 1.2h-.7c-.2-.4-.4-.8-.7-1.2h-.3v1.2h-.6v-2.8zm.6.5v.7h.7c.3-.1.3-.6 0-.6-.2-.1-.4-.1-.7-.1z"/>
                    </svg>