<svg id="svg" viewBox="0 0 400 100" version="1.1" xmlns="http://www.w3.org/2000/svg"
                         style="display: block;">
                        <g id="svgg">
                            <path id="path0"
                                  d="M42.909 14.709 C 42.863 14.830,42.846 16.201,42.871 17.756 L 42.917 20.583 44.712 20.631 L 46.508 20.678 46.462 17.631 L 46.417 14.583 44.705 14.536 C 43.406 14.500,42.974 14.541,42.909 14.709 M53.101 14.764 C 52.970 15.105,52.973 19.801,53.105 20.292 C 53.203 20.656,53.268 20.667,55.333 20.667 C 57.399 20.667,57.464 20.656,57.562 20.292 C 57.693 19.801,57.696 15.105,57.566 14.764 C 57.415 14.370,53.252 14.370,53.101 14.764 M150.792 16.899 C 150.631 17.020,150.500 17.201,150.500 17.299 C 150.500 17.398,150.256 17.502,149.958 17.531 C 149.477 17.578,149.411 17.646,149.363 18.149 C 149.308 18.720,149.008 19.167,148.679 19.167 C 148.561 19.167,148.500 19.880,148.500 21.250 L 148.500 23.333 148.917 23.333 C 149.306 23.333,149.333 23.389,149.333 24.167 C 149.333 24.974,149.348 25.000,149.814 25.000 C 150.153 25.000,150.320 25.097,150.381 25.331 C 150.624 26.260,155.872 26.318,156.104 25.394 C 156.173 25.117,156.321 25.000,156.601 25.000 C 156.912 25.000,157.000 24.911,157.000 24.595 C 157.000 24.302,157.104 24.175,157.375 24.137 C 157.747 24.084,157.750 24.061,157.750 21.250 C 157.750 18.439,157.747 18.416,157.375 18.363 C 157.104 18.325,157.000 18.198,157.000 17.905 C 157.000 17.583,156.914 17.500,156.579 17.500 C 156.284 17.500,156.111 17.376,156.000 17.083 L 155.842 16.667 153.462 16.672 C 151.749 16.676,151.002 16.739,150.792 16.899 M360.500 17.083 C 360.500 17.416,360.416 17.500,360.087 17.500 C 359.787 17.500,359.645 17.612,359.571 17.907 C 359.509 18.155,359.328 18.334,359.109 18.365 C 358.759 18.415,358.749 18.491,358.704 21.292 L 358.659 24.167 359.068 24.167 C 359.365 24.167,359.491 24.269,359.530 24.542 C 359.568 24.810,359.713 24.932,360.042 24.969 C 360.395 25.010,360.500 25.111,360.500 25.410 C 360.500 25.948,360.735 26.000,363.149 26.000 L 365.271 26.000 365.632 25.511 C 365.879 25.177,366.167 25.005,366.539 24.969 C 367.017 24.923,367.090 24.852,367.135 24.379 C 367.167 24.051,367.346 23.716,367.594 23.522 C 368.228 23.023,368.220 19.471,367.583 18.970 C 367.354 18.790,367.167 18.475,367.167 18.271 C 367.167 17.798,366.869 17.500,366.395 17.500 C 366.191 17.500,365.877 17.313,365.696 17.083 C 365.374 16.673,365.332 16.667,362.934 16.667 L 360.500 16.667 360.500 17.083 M111.942 19.457 C 111.602 23.058,111.814 24.167,112.844 24.167 C 113.546 24.167,113.650 24.212,113.697 24.542 C 113.746 24.886,113.850 24.921,114.958 24.966 L 116.167 25.015 116.167 36.575 L 116.167 48.135 115.342 48.249 C 114.888 48.311,114.429 48.468,114.321 48.598 C 114.191 48.755,113.777 48.833,113.075 48.833 L 112.024 48.833 111.906 49.777 C 111.588 52.322,111.965 54.615,112.724 54.754 C 114.440 55.070,131.475 54.749,131.862 54.394 C 132.148 54.131,132.529 54.018,133.310 53.965 C 134.131 53.909,134.432 53.814,134.644 53.546 C 134.806 53.339,135.212 53.151,135.645 53.081 C 136.150 53.000,136.399 52.870,136.454 52.658 C 136.501 52.478,136.716 52.331,136.975 52.301 C 137.282 52.266,137.432 52.139,137.469 51.885 C 137.501 51.658,137.658 51.501,137.885 51.469 C 138.112 51.436,138.270 51.279,138.302 51.052 C 138.334 50.825,138.491 50.668,138.719 50.635 C 138.976 50.599,139.099 50.449,139.136 50.125 C 139.177 49.765,139.276 49.667,139.594 49.667 C 139.913 49.667,140.000 49.580,140.000 49.262 C 140.000 48.968,140.104 48.842,140.375 48.803 C 140.719 48.754,140.754 48.650,140.799 47.542 C 140.846 46.380,140.864 46.333,141.261 46.333 L 141.674 46.333 141.629 43.375 C 141.584 40.450,141.579 40.416,141.208 40.363 C 140.877 40.316,140.833 40.214,140.833 39.477 C 140.833 38.551,140.614 38.000,140.244 38.000 C 140.084 38.000,140.000 37.828,140.000 37.500 C 140.000 37.082,139.934 37.000,139.595 37.000 C 139.302 37.000,139.175 36.896,139.137 36.625 C 139.102 36.381,138.949 36.231,138.699 36.196 C 138.477 36.164,138.251 35.971,138.162 35.737 C 138.074 35.507,137.873 35.333,137.694 35.333 C 137.230 35.333,137.413 34.536,137.893 34.468 C 138.116 34.436,138.270 34.276,138.303 34.042 C 138.336 33.808,138.509 33.629,138.762 33.566 C 139.049 33.493,139.167 33.348,139.167 33.065 C 139.167 32.751,139.255 32.667,139.583 32.667 C 139.972 32.667,140.000 32.611,140.000 31.833 C 140.000 31.056,140.028 31.000,140.417 31.000 L 140.833 31.000 140.833 27.670 L 140.833 24.340 140.417 24.235 C 140.043 24.141,140.000 24.046,140.000 23.315 C 140.000 22.557,139.971 22.500,139.583 22.500 C 139.277 22.500,139.167 22.411,139.167 22.165 C 139.167 21.691,138.351 20.833,137.901 20.833 C 137.636 20.833,137.507 20.721,137.470 20.458 C 137.427 20.158,137.294 20.073,136.796 20.032 C 136.377 19.997,136.071 19.848,135.855 19.574 C 135.570 19.211,135.408 19.167,134.363 19.167 C 133.273 19.167,133.186 19.140,133.137 18.792 L 133.083 18.417 122.566 18.374 L 112.048 18.331 111.942 19.457 M170.667 18.750 L 170.667 19.167 169.000 19.167 L 167.333 19.167 167.333 19.583 C 167.333 19.935,167.256 20.000,166.833 20.000 L 166.333 20.000 166.333 23.833 L 166.333 27.667 164.247 27.667 L 162.160 27.667 162.205 31.042 L 162.250 34.417 164.292 34.463 L 166.333 34.510 166.333 42.919 L 166.333 51.327 166.750 51.432 C 167.089 51.517,167.167 51.638,167.167 52.088 C 167.167 52.893,167.319 53.167,167.768 53.167 C 168.082 53.167,168.167 53.255,168.167 53.583 C 168.167 53.935,168.244 54.000,168.667 54.000 C 169.004 54.000,169.167 54.083,169.167 54.254 C 169.167 54.670,169.916 54.833,171.824 54.833 C 173.222 54.833,173.672 54.889,173.833 55.083 C 173.947 55.221,174.247 55.333,174.500 55.333 C 174.753 55.333,175.053 55.221,175.167 55.083 C 175.331 54.886,175.805 54.833,177.425 54.833 C 179.435 54.833,180.000 54.690,180.000 54.182 C 180.000 54.111,180.188 53.968,180.417 53.864 L 180.833 53.674 180.833 51.184 C 180.833 48.487,180.781 48.167,180.341 48.167 C 180.182 48.167,179.916 48.017,179.750 47.833 C 179.392 47.438,178.954 47.404,178.667 47.750 C 178.509 47.940,178.081 48.000,176.884 48.000 C 175.121 48.000,174.890 47.887,174.804 46.983 C 174.762 46.543,174.666 46.405,174.375 46.363 L 174.000 46.310 174.000 40.405 L 174.000 34.500 176.808 34.500 C 180.990 34.500,180.833 34.636,180.833 31.004 C 180.833 27.531,181.001 27.672,176.875 27.669 L 174.000 27.667 174.000 23.000 L 174.000 18.333 172.333 18.333 L 170.667 18.333 170.667 18.750 M183.419 19.208 C 183.361 19.690,183.337 20.983,183.365 22.083 L 183.417 24.083 184.281 24.133 C 185.026 24.176,185.153 24.234,185.198 24.550 C 185.245 24.884,185.358 24.921,186.458 24.966 L 187.667 25.015 187.667 36.507 C 187.667 47.772,187.660 48.000,187.343 48.000 C 187.165 48.000,186.973 48.075,186.917 48.167 C 186.860 48.258,186.640 48.333,186.427 48.333 C 186.215 48.333,185.947 48.446,185.833 48.583 C 185.689 48.758,185.305 48.833,184.566 48.833 C 183.580 48.833,183.499 48.862,183.404 49.242 C 183.213 50.004,183.399 54.299,183.633 54.534 C 183.949 54.849,198.393 54.931,199.000 54.621 C 199.416 54.407,199.417 54.405,199.462 51.620 L 199.508 48.833 198.608 48.833 C 198.025 48.833,197.637 48.748,197.507 48.592 C 197.397 48.459,197.050 48.266,196.737 48.162 L 196.167 47.974 196.167 41.594 L 196.167 35.213 196.575 35.291 C 196.918 35.357,196.991 35.478,197.033 36.059 C 197.072 36.588,197.171 36.789,197.458 36.915 C 197.688 37.015,197.833 37.225,197.833 37.456 C 197.833 37.745,197.929 37.833,198.241 37.833 C 198.609 37.833,198.653 37.910,198.699 38.625 C 198.742 39.298,198.806 39.425,199.121 39.469 C 199.428 39.513,199.510 39.662,199.601 40.344 C 199.696 41.068,199.757 41.167,200.105 41.167 C 200.414 41.167,200.500 41.256,200.500 41.580 C 200.500 41.880,200.612 42.022,200.908 42.096 C 201.258 42.184,201.324 42.310,201.367 42.974 C 201.409 43.628,201.474 43.758,201.783 43.802 C 202.092 43.846,202.157 43.977,202.200 44.635 C 202.242 45.300,202.306 45.425,202.625 45.470 C 202.896 45.508,203.000 45.635,203.000 45.928 C 203.000 46.249,203.087 46.333,203.417 46.333 C 203.806 46.333,203.833 46.389,203.833 47.167 C 203.833 47.939,203.863 48.000,204.241 48.000 C 204.609 48.000,204.653 48.077,204.699 48.792 C 204.743 49.467,204.805 49.591,205.125 49.637 C 205.395 49.675,205.500 49.802,205.500 50.092 C 205.500 50.379,205.616 50.523,205.908 50.596 C 206.258 50.684,206.324 50.810,206.367 51.474 C 206.408 52.115,206.477 52.259,206.765 52.300 C 207.036 52.338,207.148 52.525,207.265 53.133 C 207.387 53.763,207.490 53.927,207.792 53.970 C 207.998 53.999,208.167 54.128,208.167 54.256 C 208.167 54.875,217.432 55.136,218.034 54.533 C 218.207 54.360,218.259 51.407,218.294 39.658 L 218.339 25.000 219.169 25.000 C 219.944 25.000,220.000 24.972,220.000 24.583 C 220.000 24.194,220.056 24.167,220.833 24.167 L 221.667 24.167 221.667 21.583 C 221.667 17.954,222.568 18.333,213.937 18.333 C 205.490 18.333,206.417 17.945,206.417 21.484 L 206.417 24.083 207.292 24.134 C 208.095 24.180,208.167 24.217,208.167 24.592 C 208.167 24.970,208.227 25.000,209.000 25.000 L 209.833 25.000 209.833 31.477 L 209.833 37.954 209.442 37.879 C 209.127 37.819,209.021 37.652,208.900 37.027 C 208.780 36.404,208.676 36.239,208.375 36.197 C 208.101 36.158,208.000 36.032,208.000 35.731 C 208.000 35.504,207.813 35.131,207.583 34.902 C 207.354 34.672,207.167 34.301,207.167 34.076 C 207.167 33.751,207.081 33.667,206.750 33.667 C 206.362 33.667,206.333 33.610,206.333 32.845 C 206.333 32.124,206.288 32.017,205.965 31.970 C 205.694 31.931,205.564 31.762,205.478 31.337 C 205.413 31.019,205.204 30.632,205.013 30.477 C 204.823 30.323,204.667 30.002,204.667 29.765 C 204.667 29.418,204.586 29.333,204.259 29.333 C 203.891 29.333,203.847 29.256,203.801 28.542 C 203.758 27.880,203.692 27.742,203.395 27.699 C 203.123 27.661,203.015 27.494,202.935 26.991 C 202.872 26.599,202.696 26.250,202.498 26.127 C 202.316 26.013,202.167 25.750,202.167 25.543 C 202.167 25.253,202.072 25.167,201.750 25.167 C 201.376 25.167,201.333 25.099,201.333 24.512 C 201.333 23.896,201.010 23.333,200.657 23.333 C 200.573 23.333,200.455 23.027,200.395 22.654 C 200.314 22.148,200.186 21.936,199.893 21.824 C 199.623 21.722,199.500 21.543,199.500 21.254 C 199.500 20.916,199.418 20.833,199.083 20.833 C 198.694 20.833,198.667 20.778,198.667 20.000 C 198.667 19.222,198.639 19.167,198.250 19.167 C 197.917 19.167,197.833 19.083,197.833 18.750 L 197.833 18.333 190.679 18.333 L 183.524 18.333 183.419 19.208 M341.000 18.750 C 340.850 19.144,340.772 19.167,339.580 19.167 C 338.456 19.167,338.273 19.212,337.902 19.583 C 337.672 19.813,337.301 20.000,337.076 20.000 L 336.667 20.000 336.667 23.833 L 336.667 27.667 334.497 27.667 L 332.326 27.667 332.372 31.042 L 332.417 34.417 334.542 34.463 L 336.667 34.510 336.667 42.658 C 336.667 51.179,336.676 51.333,337.184 51.333 C 337.433 51.333,337.500 51.455,337.500 51.903 C 337.500 52.679,337.646 53.000,338.000 53.000 C 338.174 53.000,338.338 53.164,338.397 53.397 C 338.494 53.785,338.906 53.993,339.585 53.998 C 339.772 53.999,339.994 54.166,340.085 54.375 C 340.239 54.725,340.366 54.753,342.026 54.797 C 343.339 54.832,343.855 54.908,344.005 55.089 C 344.268 55.407,345.068 55.403,345.333 55.083 C 345.498 54.885,345.990 54.833,347.729 54.830 C 349.840 54.828,349.930 54.813,350.309 54.414 C 350.525 54.186,350.769 54.000,350.851 54.000 C 350.933 54.000,351.000 52.654,351.000 51.000 L 351.000 48.000 350.367 48.000 C 350.018 48.000,349.643 47.910,349.533 47.800 C 349.378 47.644,349.289 47.644,349.133 47.800 C 348.754 48.179,345.889 48.065,345.785 47.667 C 345.737 47.483,345.578 47.333,345.432 47.333 C 345.264 47.333,345.167 47.189,345.167 46.938 C 345.167 46.064,344.962 45.500,344.646 45.500 C 344.347 45.500,344.333 45.267,344.333 40.000 L 344.333 34.500 347.292 34.498 C 351.453 34.495,351.000 34.924,351.000 30.981 L 351.000 27.667 347.667 27.667 L 344.333 27.667 344.331 23.375 C 344.328 17.880,344.480 18.333,342.643 18.333 C 341.213 18.333,341.153 18.349,341.000 18.750 M30.033 24.033 C 29.809 24.258,29.736 31.150,29.958 31.188 C 30.027 31.199,31.168 31.255,32.494 31.313 L 34.905 31.417 35.286 31.983 L 35.667 32.549 35.667 49.246 L 35.667 65.942 35.292 66.285 C 35.085 66.473,34.692 66.666,34.417 66.713 C 34.142 66.760,33.392 66.917,32.750 67.063 C 32.108 67.208,31.308 67.329,30.972 67.330 C 29.771 67.336,29.833 67.113,29.833 71.431 L 29.833 75.327 30.210 75.421 C 31.332 75.703,58.966 75.416,59.294 75.119 C 59.520 74.914,60.107 74.767,61.176 74.648 C 62.249 74.528,62.855 74.376,63.133 74.157 C 63.355 73.983,63.906 73.791,64.358 73.731 C 64.903 73.659,65.233 73.520,65.341 73.318 C 65.431 73.151,65.784 72.963,66.127 72.899 C 66.470 72.836,66.915 72.627,67.116 72.434 C 67.318 72.241,67.720 71.896,68.010 71.667 C 68.496 71.283,70.290 69.543,71.022 68.744 C 71.193 68.558,71.333 68.318,71.333 68.212 C 71.333 68.106,71.477 67.918,71.652 67.795 C 71.828 67.673,72.025 67.287,72.090 66.940 C 72.155 66.592,72.350 66.176,72.522 66.015 C 72.735 65.817,72.884 65.338,72.986 64.522 C 73.070 63.858,73.274 63.117,73.444 62.868 C 73.904 62.189,73.905 57.039,73.444 56.530 C 73.255 56.321,73.085 55.766,73.000 55.080 C 72.898 54.261,72.774 53.906,72.529 53.735 C 72.339 53.602,72.148 53.214,72.083 52.834 C 72.013 52.416,71.881 52.167,71.730 52.167 C 71.598 52.167,71.442 52.035,71.385 51.875 C 71.200 51.360,69.141 49.500,68.756 49.500 C 68.557 49.500,68.230 49.313,68.031 49.083 C 67.776 48.789,67.499 48.667,67.094 48.667 C 66.719 48.667,66.442 48.557,66.298 48.352 C 66.177 48.179,65.807 47.924,65.476 47.786 C 64.313 47.300,64.541 46.691,65.941 46.545 C 66.500 46.487,66.868 46.338,67.132 46.064 C 67.342 45.845,67.692 45.667,67.911 45.667 C 68.165 45.667,68.613 45.365,69.151 44.833 C 69.614 44.375,70.068 44.000,70.160 44.000 C 70.252 44.000,70.373 43.815,70.430 43.589 C 70.487 43.363,70.668 43.136,70.832 43.084 C 71.010 43.027,71.175 42.755,71.239 42.416 C 71.298 42.101,71.489 41.743,71.663 41.621 C 71.877 41.471,72.015 41.106,72.089 40.491 C 72.151 39.979,72.355 39.366,72.558 39.083 C 73.077 38.361,73.107 33.745,72.597 33.181 C 72.411 32.977,72.223 32.429,72.148 31.880 C 72.061 31.239,71.912 30.850,71.687 30.675 C 71.503 30.533,71.302 30.204,71.239 29.944 C 71.175 29.685,70.946 29.294,70.728 29.077 C 70.511 28.860,70.333 28.608,70.333 28.519 C 70.333 28.429,70.187 28.309,70.009 28.253 C 69.830 28.196,69.637 28.003,69.581 27.825 C 69.524 27.646,69.376 27.500,69.252 27.500 C 69.127 27.500,68.803 27.313,68.530 27.083 C 68.258 26.854,67.949 26.667,67.843 26.667 C 67.738 26.667,67.471 26.486,67.251 26.266 C 67.030 26.045,66.544 25.814,66.167 25.750 C 65.791 25.686,65.348 25.490,65.183 25.312 C 64.987 25.102,64.570 24.959,63.983 24.901 C 62.664 24.770,62.387 24.696,62.082 24.391 C 61.552 23.861,30.551 23.515,30.033 24.033 M129.000 25.397 C 129.000 25.817,129.351 25.993,130.197 25.998 C 130.497 25.999,130.679 26.110,130.750 26.333 C 130.808 26.517,130.996 26.667,131.166 26.667 C 131.361 26.667,131.497 26.806,131.530 27.042 C 131.559 27.248,131.752 27.491,131.958 27.581 C 132.297 27.730,132.333 27.861,132.333 28.945 C 132.333 30.061,132.308 30.147,131.958 30.197 C 131.714 30.231,131.564 30.384,131.529 30.634 C 131.497 30.856,131.305 31.083,131.071 31.172 C 130.848 31.256,130.667 31.431,130.667 31.560 C 130.667 31.712,130.394 31.836,129.898 31.911 C 129.338 31.995,129.106 32.113,129.045 32.346 C 128.968 32.641,128.792 32.667,126.814 32.667 L 124.667 32.667 124.667 28.833 L 124.667 25.000 126.833 25.000 L 129.000 25.000 129.000 25.397 M233.782 26.940 C 233.719 27.004,233.667 27.193,233.667 27.361 C 233.667 27.637,233.505 27.667,232.012 27.667 C 230.422 27.667,230.354 27.682,230.303 28.042 C 230.258 28.360,230.124 28.429,229.417 28.500 C 228.710 28.571,228.575 28.640,228.530 28.958 C 228.492 29.226,228.364 29.333,228.086 29.333 C 227.867 29.333,227.487 29.554,227.223 29.833 C 226.963 30.108,226.660 30.333,226.548 30.333 C 226.436 30.333,226.266 30.482,226.169 30.663 C 226.072 30.844,225.806 31.178,225.579 31.405 C 225.352 31.632,225.167 32.008,225.167 32.239 C 225.167 32.549,225.057 32.688,224.750 32.765 C 224.453 32.839,224.333 32.982,224.333 33.262 C 224.333 33.478,224.191 33.731,224.018 33.824 C 223.642 34.025,223.333 34.831,223.333 35.608 C 223.333 36.044,223.264 36.167,223.019 36.167 C 222.538 36.167,222.505 36.537,222.502 41.852 C 222.500 46.782,222.500 46.787,222.898 47.374 C 223.117 47.697,223.349 48.345,223.414 48.814 C 223.518 49.571,223.576 49.667,223.932 49.667 C 224.265 49.667,224.333 49.750,224.333 50.155 C 224.333 50.471,224.474 50.753,224.734 50.958 C 224.955 51.132,225.161 51.449,225.193 51.664 C 225.236 51.960,225.413 52.100,225.917 52.239 C 226.333 52.354,226.645 52.563,226.748 52.795 C 226.846 53.016,227.060 53.167,227.278 53.167 C 227.530 53.167,227.660 53.283,227.697 53.542 C 227.743 53.868,227.863 53.923,228.625 53.967 C 229.262 54.004,229.500 54.084,229.500 54.263 C 229.500 54.672,230.263 54.833,232.189 54.833 C 233.598 54.833,234.082 54.891,234.274 55.083 C 234.411 55.221,234.697 55.333,234.908 55.333 C 235.120 55.333,235.386 55.221,235.500 55.083 C 235.662 54.888,236.119 54.833,237.579 54.833 C 239.345 54.833,239.477 54.810,239.901 54.417 C 240.172 54.165,240.548 54.000,240.849 54.000 C 241.160 54.000,241.506 53.842,241.765 53.583 C 241.994 53.354,242.366 53.167,242.591 53.167 C 242.916 53.167,243.000 53.081,243.000 52.750 C 243.000 52.417,243.083 52.333,243.417 52.333 C 243.750 52.333,243.833 52.250,243.833 51.917 C 243.833 51.583,243.917 51.500,244.250 51.500 C 244.580 51.500,244.667 51.416,244.667 51.095 C 244.667 50.802,244.770 50.675,245.042 50.637 C 245.310 50.598,245.432 50.453,245.469 50.125 C 245.511 49.765,245.609 49.667,245.928 49.667 C 246.303 49.667,246.333 49.605,246.333 48.833 C 246.333 48.056,246.361 48.000,246.750 48.000 C 247.139 48.000,247.167 47.944,247.167 47.167 C 247.167 46.402,247.199 46.333,247.561 46.333 C 248.030 46.333,248.167 45.668,248.167 43.393 C 248.167 42.132,248.197 42.000,248.485 42.000 C 249.137 42.000,249.131 39.823,248.478 39.366 C 248.212 39.180,248.167 38.922,248.167 37.597 C 248.167 35.163,248.037 34.500,247.561 34.500 C 247.191 34.500,247.167 34.440,247.167 33.514 C 247.167 32.312,247.060 32.000,246.649 32.000 C 246.409 32.000,246.333 31.879,246.333 31.500 C 246.333 31.078,246.269 31.000,245.917 31.000 C 245.583 31.000,245.500 30.917,245.500 30.583 C 245.500 30.250,245.417 30.167,245.083 30.167 C 244.750 30.167,244.667 30.083,244.667 29.750 C 244.667 29.420,244.583 29.333,244.262 29.333 C 243.968 29.333,243.842 29.230,243.803 28.958 C 243.758 28.640,243.634 28.576,242.974 28.533 C 242.310 28.490,242.184 28.425,242.096 28.075 C 241.996 27.676,241.956 27.667,240.342 27.667 C 238.756 27.667,238.688 27.652,238.637 27.292 C 238.583 26.914,234.131 26.591,233.782 26.940 M291.905 26.961 C 291.806 27.028,291.677 27.215,291.618 27.375 C 291.529 27.615,291.302 27.667,290.321 27.667 C 289.251 27.667,289.098 27.708,288.804 28.083 C 288.572 28.378,288.314 28.500,287.924 28.500 C 287.519 28.500,287.299 28.611,287.099 28.917 C 286.908 29.208,286.675 29.333,286.326 29.333 C 285.957 29.333,285.777 29.440,285.640 29.741 C 285.538 29.966,285.296 30.172,285.102 30.200 C 284.887 30.230,284.730 30.392,284.698 30.615 C 284.666 30.842,284.509 30.999,284.281 31.031 C 284.026 31.068,283.901 31.218,283.865 31.531 C 283.829 31.845,283.704 31.995,283.448 32.031 C 283.140 32.075,283.075 32.206,283.033 32.875 C 282.987 33.590,282.942 33.667,282.574 33.667 C 282.196 33.667,282.167 33.727,282.167 34.500 C 282.167 35.278,282.139 35.333,281.750 35.333 L 281.333 35.333 281.333 37.083 C 281.333 38.509,281.288 38.833,281.089 38.833 C 280.622 38.833,280.500 39.481,280.500 41.971 L 280.500 44.464 280.917 44.568 C 281.326 44.671,281.333 44.701,281.333 46.337 C 281.333 48.000,281.333 48.000,281.750 48.000 C 282.139 48.000,282.167 48.056,282.167 48.833 C 282.167 49.606,282.196 49.667,282.575 49.667 C 282.949 49.667,282.987 49.738,283.033 50.542 C 283.076 51.296,283.134 51.424,283.448 51.469 C 283.675 51.501,283.832 51.658,283.865 51.885 C 283.897 52.112,284.054 52.270,284.281 52.302 C 284.509 52.334,284.666 52.491,284.698 52.719 C 284.739 53.009,284.879 53.094,285.378 53.135 C 285.824 53.172,286.083 53.305,286.272 53.594 C 286.460 53.881,286.691 54.000,287.061 54.000 C 287.378 54.000,287.774 54.164,288.068 54.417 C 288.514 54.800,288.682 54.833,290.204 54.833 C 291.451 54.833,291.919 54.895,292.107 55.083 C 292.433 55.409,293.832 55.412,294.260 55.089 C 294.486 54.918,295.026 54.842,296.053 54.839 C 297.571 54.833,298.167 54.666,298.167 54.244 C 298.167 54.061,298.385 54.000,299.044 54.000 C 299.794 54.000,299.945 53.946,300.085 53.625 C 300.205 53.352,300.432 53.227,300.917 53.167 C 301.450 53.100,301.594 53.008,301.637 52.708 C 301.675 52.437,301.802 52.333,302.095 52.333 C 302.416 52.333,302.500 52.247,302.500 51.917 C 302.500 51.583,302.583 51.500,302.917 51.500 C 303.245 51.500,303.333 51.415,303.333 51.101 C 303.333 50.820,303.451 50.673,303.732 50.603 C 303.973 50.542,304.171 50.338,304.235 50.085 C 304.300 49.823,304.457 49.667,304.654 49.667 C 304.905 49.667,304.992 49.499,305.082 48.843 C 305.175 48.169,305.261 48.010,305.556 47.968 C 305.876 47.923,305.922 47.798,305.966 46.874 C 306.009 45.979,306.074 45.792,306.425 45.563 L 306.833 45.295 306.833 40.337 L 306.833 35.379 306.427 34.973 C 306.129 34.674,306.007 34.348,305.969 33.742 C 305.925 33.042,305.862 32.909,305.556 32.865 C 305.261 32.823,305.175 32.665,305.083 32.000 C 304.993 31.341,304.904 31.176,304.618 31.135 C 304.399 31.103,304.226 30.924,304.167 30.667 C 304.106 30.408,303.934 30.230,303.712 30.198 C 303.492 30.166,303.334 30.006,303.302 29.781 C 303.269 29.553,303.112 29.397,302.883 29.364 C 302.681 29.336,302.472 29.175,302.419 29.007 C 302.320 28.694,301.869 28.506,301.208 28.502 C 301.002 28.501,300.833 28.430,300.833 28.345 C 300.833 27.854,300.278 27.667,298.821 27.667 C 297.472 27.667,297.333 27.637,297.333 27.351 C 297.333 27.178,297.215 26.990,297.070 26.934 C 296.694 26.790,292.119 26.814,291.905 26.961 M319.042 26.944 C 318.927 26.990,318.833 27.172,318.833 27.347 C 318.833 27.641,318.698 27.667,317.170 27.667 C 315.544 27.667,315.504 27.676,315.404 28.075 C 315.316 28.425,315.190 28.490,314.526 28.533 C 313.866 28.576,313.742 28.640,313.697 28.958 C 313.658 29.230,313.532 29.333,313.238 29.333 C 312.917 29.333,312.833 29.420,312.833 29.750 C 312.833 30.083,312.750 30.167,312.417 30.167 C 312.083 30.167,312.000 30.250,312.000 30.583 C 312.000 30.886,311.911 31.000,311.673 31.000 C 311.260 31.000,311.000 31.475,311.000 32.227 C 311.000 32.705,310.932 32.820,310.625 32.863 C 309.938 32.961,309.975 39.500,310.663 39.500 C 310.862 39.500,310.996 39.638,311.030 39.875 C 311.064 40.116,311.217 40.269,311.458 40.303 C 311.692 40.336,311.871 40.509,311.934 40.762 C 312.007 41.049,312.152 41.167,312.435 41.167 C 312.748 41.167,312.833 41.255,312.833 41.580 C 312.833 41.878,312.946 42.022,313.234 42.094 C 313.455 42.150,313.670 42.327,313.712 42.489 C 313.795 42.807,314.474 43.000,315.509 43.000 C 316.040 43.000,316.152 43.061,316.197 43.375 C 316.246 43.719,316.350 43.754,317.442 43.799 C 318.551 43.844,318.641 43.876,318.737 44.257 C 318.829 44.623,318.928 44.667,319.659 44.667 C 320.324 44.667,320.497 44.728,320.580 44.991 C 320.654 45.222,320.897 45.347,321.425 45.427 L 322.167 45.538 322.167 46.436 C 322.167 47.113,322.107 47.333,321.923 47.333 C 321.788 47.333,321.598 47.483,321.500 47.667 C 321.402 47.850,321.185 48.000,321.017 48.000 C 320.850 48.000,320.573 48.188,320.400 48.417 C 320.106 48.808,319.996 48.833,318.550 48.833 L 317.012 48.833 316.964 47.208 L 316.917 45.583 316.458 45.531 C 316.192 45.500,316.000 45.376,316.000 45.235 C 316.000 44.500,311.868 44.470,311.297 45.201 C 310.912 45.693,310.915 54.148,311.300 54.534 C 311.453 54.687,312.260 54.765,314.080 54.803 C 316.052 54.844,316.691 54.912,316.843 55.095 C 317.117 55.426,318.723 55.417,319.000 55.083 C 319.161 54.889,319.619 54.833,321.062 54.831 C 323.213 54.828,323.605 54.753,323.719 54.318 C 323.787 54.058,323.956 54.000,324.651 54.000 C 325.144 54.000,325.500 53.925,325.500 53.821 C 325.500 53.532,325.950 53.167,326.308 53.167 C 326.860 53.167,327.167 52.981,327.167 52.649 C 327.167 52.423,327.286 52.333,327.583 52.333 C 327.917 52.333,328.000 52.250,328.000 51.917 C 328.000 51.627,328.091 51.500,328.300 51.500 C 328.705 51.500,329.000 51.178,329.000 50.734 C 329.000 50.533,329.112 50.326,329.250 50.273 C 329.387 50.220,329.500 50.062,329.500 49.922 C 329.500 49.782,329.575 49.667,329.667 49.667 C 329.758 49.667,329.833 49.297,329.833 48.845 C 329.833 48.120,329.877 48.017,330.208 47.970 C 330.772 47.890,330.794 43.640,330.232 43.186 C 330.012 43.008,329.838 42.610,329.764 42.118 C 329.671 41.496,329.580 41.333,329.326 41.333 C 329.124 41.333,328.968 41.180,328.901 40.915 C 328.839 40.668,328.640 40.458,328.414 40.401 C 328.204 40.348,327.995 40.167,327.951 39.999 C 327.895 39.782,327.648 39.659,327.102 39.577 C 326.519 39.490,326.333 39.390,326.333 39.166 C 326.333 38.811,326.011 38.667,325.221 38.667 C 324.822 38.667,324.544 38.552,324.343 38.304 C 324.115 38.022,323.820 37.925,323.011 37.866 C 322.204 37.808,321.885 37.703,321.577 37.396 C 321.266 37.084,321.004 37.000,320.341 37.000 C 319.555 37.000,319.500 36.973,319.500 36.583 C 319.500 36.250,319.417 36.167,319.083 36.167 C 318.689 36.167,318.667 36.117,318.667 35.250 C 318.667 34.455,318.709 34.333,318.989 34.333 C 319.166 34.333,319.356 34.192,319.410 34.020 C 319.532 33.636,320.147 33.500,321.755 33.500 L 322.968 33.500 323.026 35.070 C 323.098 37.049,322.876 36.917,326.139 36.917 L 328.917 36.917 328.964 32.667 C 329.024 27.167,329.204 27.667,327.163 27.667 C 326.249 27.667,325.500 27.597,325.500 27.512 C 325.500 26.931,325.003 26.833,322.113 26.846 C 320.538 26.854,319.156 26.897,319.042 26.944 M145.167 28.127 C 145.167 28.445,145.050 28.639,144.792 28.752 C 144.442 28.906,144.413 29.035,144.368 30.667 C 144.293 33.352,144.533 33.667,146.655 33.667 C 147.469 33.667,147.687 33.726,147.825 33.985 C 147.928 34.177,148.260 34.348,148.664 34.416 L 149.333 34.529 149.333 41.265 C 149.333 47.167,149.302 48.000,149.081 48.000 C 148.827 48.000,148.706 48.048,147.695 48.555 C 147.362 48.722,146.741 48.833,146.146 48.833 C 144.514 48.833,144.310 49.152,144.370 51.623 C 144.414 53.474,144.438 53.592,144.792 53.748 C 144.998 53.838,145.167 54.030,145.167 54.173 C 145.167 54.820,145.330 54.833,153.085 54.833 C 162.247 54.833,161.250 55.223,161.250 51.639 L 161.250 48.917 160.139 48.868 C 159.421 48.836,158.958 48.733,158.827 48.576 C 158.716 48.443,158.456 48.333,158.247 48.333 C 157.664 48.333,157.667 48.383,157.667 38.411 C 157.667 29.199,157.614 28.167,157.140 28.167 C 157.063 28.167,157.000 28.054,157.000 27.917 C 157.000 27.699,156.231 27.667,151.083 27.667 L 145.167 27.667 145.167 28.127 M249.833 30.564 C 249.833 33.873,249.722 33.660,251.458 33.664 L 252.333 33.667 252.333 34.337 C 252.333 34.887,252.407 35.041,252.743 35.194 C 253.109 35.361,253.158 35.497,253.201 36.482 C 253.244 37.440,253.299 37.605,253.625 37.748 C 253.915 37.875,254.000 38.050,254.000 38.519 C 254.000 39.530,254.186 40.150,254.520 40.256 C 254.769 40.335,254.833 40.519,254.833 41.154 C 254.833 41.774,254.926 42.052,255.250 42.401 C 255.512 42.684,255.668 43.048,255.669 43.384 C 255.673 44.316,255.837 44.667,256.269 44.667 C 256.653 44.667,256.667 44.711,256.667 45.917 C 256.667 47.139,256.676 47.167,257.083 47.167 C 257.491 47.167,257.500 47.194,257.500 48.417 C 257.500 49.639,257.509 49.667,257.917 49.667 C 258.326 49.667,258.333 49.689,258.333 51.000 C 258.333 52.311,258.340 52.333,258.750 52.333 C 259.142 52.333,259.167 52.385,259.167 53.218 C 259.167 54.795,259.010 54.743,263.888 54.800 L 268.136 54.849 268.560 54.425 C 268.794 54.191,269.063 54.000,269.159 54.000 C 269.255 54.000,269.333 53.775,269.333 53.500 C 269.333 53.172,269.417 53.000,269.577 53.000 C 269.956 53.000,270.167 52.442,270.167 51.439 C 270.167 50.616,270.205 50.518,270.542 50.470 C 270.885 50.421,270.921 50.317,270.965 49.219 C 271.010 48.128,271.047 48.017,271.382 47.969 C 271.717 47.921,271.754 47.810,271.799 46.719 C 271.843 45.630,271.881 45.517,272.214 45.469 C 272.617 45.412,272.780 44.933,272.814 43.703 C 272.828 43.188,272.914 42.960,273.125 42.882 C 273.581 42.714,273.661 42.491,273.664 41.387 C 273.666 40.446,273.699 40.352,274.042 40.303 C 274.385 40.254,274.421 40.150,274.465 39.052 C 274.510 37.962,274.547 37.850,274.882 37.802 C 275.196 37.758,275.258 37.629,275.302 36.935 C 275.339 36.352,275.453 36.040,275.702 35.838 C 275.959 35.630,276.072 35.305,276.130 34.611 L 276.208 33.667 277.062 33.664 C 278.775 33.660,278.667 33.869,278.667 30.564 L 278.667 27.667 271.917 27.667 L 265.167 27.667 265.167 30.564 L 265.167 33.461 266.417 33.578 L 267.667 33.695 267.661 34.223 C 267.656 34.782,267.339 35.333,267.023 35.333 C 266.904 35.333,266.833 35.672,266.833 36.239 C 266.833 36.981,266.776 37.162,266.518 37.244 C 266.153 37.360,266.005 37.799,266.002 38.784 C 266.001 39.307,265.894 39.590,265.583 39.902 C 265.209 40.276,265.167 40.452,265.167 41.640 L 265.167 42.962 264.674 43.034 C 264.189 43.106,264.181 43.094,264.133 42.262 C 264.090 41.530,264.033 41.410,263.708 41.363 C 263.361 41.314,263.333 41.226,263.333 40.152 C 263.333 39.083,263.302 38.978,262.924 38.806 C 262.557 38.639,262.509 38.503,262.465 37.518 C 262.423 36.560,262.368 36.395,262.042 36.252 C 261.720 36.111,261.667 35.961,261.667 35.200 C 261.667 34.711,261.591 34.170,261.499 33.997 C 261.345 33.711,261.418 33.674,262.332 33.570 L 263.333 33.457 263.333 30.562 L 263.333 27.667 256.583 27.667 L 249.833 27.667 249.833 30.564 M355.116 27.783 C 354.622 27.911,354.500 28.563,354.500 31.071 L 354.500 33.454 355.375 33.559 C 355.856 33.616,356.606 33.664,357.042 33.665 C 357.639 33.666,357.833 33.729,357.833 33.921 C 357.833 34.205,358.476 34.500,359.094 34.500 L 359.500 34.500 359.500 41.250 C 359.500 47.166,359.469 48.000,359.248 48.000 C 358.993 48.000,358.873 48.048,357.861 48.555 C 357.505 48.734,356.898 48.833,356.167 48.833 C 354.396 48.833,354.500 48.666,354.500 51.518 C 354.500 53.133,354.561 54.000,354.674 54.000 C 354.770 54.000,355.036 54.188,355.265 54.417 L 355.682 54.833 362.935 54.833 L 370.189 54.833 370.842 54.292 L 371.494 53.750 371.497 51.393 C 371.500 48.750,371.542 48.833,370.231 48.833 C 369.822 48.833,369.322 48.727,369.119 48.596 C 368.916 48.466,368.394 48.307,367.958 48.244 L 367.167 48.129 367.167 37.898 L 367.167 27.667 361.292 27.686 C 358.060 27.697,355.281 27.740,355.116 27.783 M55.621 32.542 C 55.798 32.702,56.170 32.833,56.447 32.833 C 57.058 32.833,58.000 33.144,58.000 33.345 C 58.000 33.426,58.225 33.608,58.500 33.750 C 58.775 33.892,59.000 34.107,59.000 34.228 C 59.000 34.348,59.188 34.532,59.417 34.636 C 59.646 34.741,59.833 34.954,59.833 35.111 C 59.833 35.267,60.002 35.575,60.208 35.794 C 60.716 36.335,60.789 40.376,60.298 40.735 C 60.141 40.850,59.934 41.151,59.838 41.405 C 59.742 41.658,59.514 41.905,59.331 41.952 C 59.149 42.000,59.000 42.140,59.000 42.264 C 59.000 42.387,58.852 42.568,58.670 42.665 C 58.489 42.762,58.155 43.027,57.928 43.254 C 57.701 43.481,57.328 43.667,57.098 43.667 C 56.869 43.667,56.494 43.854,56.265 44.083 L 55.848 44.500 52.289 44.500 C 49.705 44.500,48.653 44.443,48.446 44.292 C 48.186 44.101,48.165 43.607,48.206 38.598 L 48.250 33.112 48.833 32.783 C 49.809 32.232,50.157 32.183,52.775 32.217 C 54.915 32.245,55.348 32.294,55.621 32.542 M237.863 34.875 C 237.898 35.116,238.051 35.269,238.292 35.303 C 238.507 35.334,238.667 35.473,238.667 35.630 C 238.667 35.781,238.862 36.060,239.101 36.251 C 239.464 36.540,239.555 36.785,239.654 37.739 C 239.745 38.622,239.855 38.948,240.136 39.175 C 240.718 39.647,240.680 42.273,240.083 42.833 C 239.815 43.085,239.666 43.408,239.665 43.737 C 239.661 44.818,239.467 45.500,239.163 45.500 C 238.991 45.500,238.827 45.668,238.768 45.906 C 238.712 46.129,238.524 46.356,238.351 46.411 C 238.178 46.466,237.997 46.659,237.950 46.839 C 237.901 47.025,237.723 47.167,237.535 47.167 C 237.353 47.167,237.082 47.354,236.932 47.583 C 236.684 47.961,236.552 48.000,235.505 48.000 C 234.505 48.000,234.291 47.944,233.901 47.583 C 233.654 47.354,233.314 47.167,233.146 47.167 C 232.958 47.167,232.799 47.005,232.735 46.750 C 232.660 46.451,232.518 46.333,232.232 46.333 C 231.918 46.333,231.833 46.245,231.833 45.917 C 231.833 45.583,231.750 45.500,231.417 45.500 L 231.000 45.500 231.000 43.417 L 231.000 41.333 230.583 41.333 C 230.231 41.333,230.167 41.256,230.167 40.833 C 230.167 40.411,230.231 40.333,230.583 40.333 L 231.000 40.333 231.000 38.667 L 231.000 37.000 231.417 37.000 C 231.750 37.000,231.833 36.917,231.833 36.583 C 231.833 36.251,231.917 36.167,232.247 36.167 C 232.546 36.167,232.688 36.054,232.762 35.760 C 232.825 35.512,233.005 35.332,233.224 35.301 C 233.449 35.269,233.603 35.110,233.637 34.875 C 233.689 34.509,233.740 34.500,235.750 34.500 C 237.760 34.500,237.811 34.509,237.863 34.875 M295.833 34.826 C 295.833 35.070,295.989 35.181,296.454 35.268 C 297.263 35.420,297.500 35.678,297.500 36.405 C 297.500 36.929,297.550 37.000,297.917 37.000 L 298.333 37.000 298.333 40.833 L 298.333 44.667 297.917 44.667 C 297.528 44.667,297.500 44.722,297.500 45.500 C 297.500 46.278,297.472 46.333,297.083 46.333 C 296.755 46.333,296.667 46.418,296.667 46.731 C 296.667 47.076,296.565 47.144,295.898 47.244 C 295.338 47.328,295.106 47.446,295.045 47.680 C 294.902 48.226,292.771 48.148,292.401 47.583 C 292.251 47.354,291.990 47.167,291.822 47.167 C 291.420 47.167,290.739 46.476,290.602 45.931 C 290.531 45.649,290.380 45.500,290.163 45.500 C 289.891 45.500,289.833 45.387,289.833 44.854 C 289.833 43.788,289.642 43.129,289.308 43.042 C 288.771 42.901,288.856 39.666,289.417 38.931 C 289.704 38.555,289.833 38.174,289.833 37.704 C 289.833 37.125,289.889 37.015,290.208 36.970 C 290.475 36.932,290.598 36.786,290.635 36.466 C 290.666 36.197,290.817 35.975,291.010 35.913 C 291.188 35.857,291.333 35.713,291.333 35.593 C 291.333 35.473,291.558 35.330,291.833 35.275 C 292.191 35.203,292.333 35.079,292.333 34.837 C 292.333 34.520,292.437 34.500,294.083 34.500 C 295.709 34.500,295.833 34.523,295.833 34.826 M129.919 39.875 C 130.046 40.165,130.245 40.262,130.792 40.301 C 131.418 40.347,131.500 40.400,131.500 40.760 C 131.500 41.083,131.586 41.167,131.917 41.167 C 132.280 41.167,132.333 41.240,132.333 41.736 C 132.333 42.522,132.480 42.833,132.851 42.833 C 133.091 42.833,133.167 42.954,133.167 43.333 C 133.167 43.661,133.083 43.833,132.923 43.833 C 132.602 43.833,132.333 44.354,132.333 44.978 C 132.333 45.327,132.235 45.509,132.009 45.581 C 131.830 45.637,131.640 45.822,131.586 45.992 C 131.532 46.161,131.303 46.347,131.077 46.403 C 130.828 46.466,130.667 46.626,130.667 46.812 C 130.667 47.170,129.331 47.333,126.392 47.333 L 124.667 47.333 124.667 43.417 L 124.667 39.500 127.210 39.500 C 129.689 39.500,129.759 39.510,129.919 39.875 M56.997 53.792 C 57.229 54.040,57.540 54.167,57.919 54.167 C 58.337 54.167,58.562 54.273,58.748 54.558 C 58.889 54.773,59.191 55.034,59.419 55.137 C 59.647 55.241,59.833 55.440,59.833 55.580 C 59.833 55.719,59.903 55.833,59.988 55.833 C 60.288 55.833,60.667 56.362,60.667 56.780 C 60.667 57.012,60.854 57.425,61.083 57.697 C 61.792 58.539,61.670 61.354,60.890 62.133 C 60.767 62.256,60.667 62.486,60.667 62.644 C 60.667 62.801,60.348 63.211,59.958 63.553 C 59.569 63.896,59.100 64.315,58.917 64.485 C 58.733 64.655,58.300 64.844,57.954 64.905 C 57.607 64.967,57.082 65.154,56.787 65.322 C 55.776 65.897,48.967 65.943,48.402 65.378 C 48.076 65.053,48.051 53.849,48.375 53.525 C 48.802 53.098,56.575 53.338,56.997 53.792 M129.500 61.785 C 129.121 61.934,129.005 62.188,129.003 62.875 C 129.001 63.376,128.938 63.500,128.684 63.500 C 128.052 63.500,127.971 64.585,128.583 64.864 C 128.855 64.987,129.000 65.189,129.000 65.443 C 129.000 66.072,132.162 66.047,132.500 65.417 C 132.623 65.188,132.826 65.000,132.952 65.000 C 133.395 65.000,133.168 62.595,132.719 62.531 C 132.491 62.499,132.334 62.342,132.302 62.115 C 132.249 61.744,130.212 61.504,129.500 61.785 M214.403 62.082 C 214.009 62.475,213.990 62.581,214.036 64.123 L 214.083 65.750 215.934 65.797 C 218.225 65.855,218.250 65.834,218.250 63.933 C 218.250 62.678,218.225 62.580,217.891 62.532 C 217.672 62.501,217.491 62.322,217.429 62.074 C 217.273 61.451,215.028 61.456,214.403 62.082 M116.167 71.417 L 116.167 80.333 116.982 80.333 C 117.715 80.333,117.808 80.376,117.903 80.754 L 118.008 81.175 120.879 81.129 C 123.714 81.084,123.751 81.079,123.803 80.708 C 123.850 80.377,123.953 80.333,124.678 80.333 C 125.444 80.333,125.500 80.305,125.500 79.917 C 125.500 79.583,125.583 79.500,125.917 79.500 C 126.247 79.500,126.333 79.416,126.333 79.095 C 126.333 78.802,126.437 78.675,126.708 78.637 C 127.052 78.588,127.087 78.484,127.132 77.376 C 127.178 76.252,127.209 76.162,127.591 76.067 L 128.000 75.964 128.000 73.482 L 128.000 71.000 127.583 71.000 C 127.176 71.000,127.167 70.972,127.167 69.750 C 127.167 68.528,127.157 68.500,126.750 68.500 C 126.417 68.500,126.333 68.417,126.333 68.083 C 126.333 67.750,126.250 67.667,125.917 67.667 C 125.590 67.667,125.500 67.582,125.500 67.274 C 125.500 66.522,119.810 66.400,119.611 67.147 C 119.571 67.295,119.530 66.310,119.519 64.958 L 119.500 62.500 117.833 62.500 L 116.167 62.500 116.167 71.417 M135.833 64.493 C 135.833 64.673,135.651 64.992,135.428 65.202 C 135.183 65.432,135.001 65.815,134.969 66.167 C 134.919 66.724,134.883 66.754,134.173 66.833 C 133.316 66.929,133.211 67.128,133.183 68.696 C 133.163 69.841,133.418 70.167,134.336 70.167 L 134.981 70.167 135.032 73.680 C 135.076 76.657,135.124 77.224,135.348 77.389 C 135.526 77.520,135.650 77.986,135.726 78.813 C 135.856 80.216,135.902 80.333,136.332 80.333 C 136.528 80.333,136.663 80.472,136.697 80.708 C 136.749 81.075,136.802 81.084,139.208 81.129 L 141.667 81.176 141.667 80.754 C 141.667 80.415,141.748 80.333,142.089 80.333 L 142.512 80.333 142.464 78.708 L 142.417 77.083 141.714 77.032 C 141.080 76.986,141.000 77.023,140.904 77.407 C 140.808 77.792,140.717 77.833,139.982 77.833 L 139.167 77.833 139.167 74.000 L 139.167 70.167 140.833 70.167 L 142.500 70.167 142.500 68.500 L 142.500 66.833 140.833 66.833 L 139.167 66.833 139.167 65.500 L 139.167 64.167 137.500 64.167 C 135.956 64.167,135.833 64.191,135.833 64.493 M205.768 64.422 C 205.577 64.613,205.500 65.000,205.500 65.762 L 205.500 66.833 204.667 66.833 C 203.889 66.833,203.833 66.861,203.833 67.250 C 203.833 67.583,203.750 67.667,203.417 67.667 C 203.090 67.667,203.000 67.582,203.000 67.274 C 203.000 66.832,202.064 66.670,199.483 66.668 C 197.042 66.666,196.167 66.825,196.167 67.274 C 196.167 67.582,196.077 67.667,195.750 67.667 C 195.417 67.667,195.333 67.750,195.333 68.083 C 195.333 68.417,195.250 68.500,194.917 68.500 L 194.500 68.500 194.500 70.583 C 194.500 72.207,194.549 72.667,194.722 72.667 C 194.968 72.667,195.254 73.173,195.407 73.875 C 195.497 74.291,195.575 74.333,196.242 74.333 C 196.877 74.333,196.984 74.384,197.030 74.708 C 197.076 75.034,197.196 75.090,197.948 75.133 C 198.692 75.176,198.820 75.234,198.865 75.549 C 198.906 75.841,199.075 75.943,199.708 76.059 C 200.606 76.222,200.905 76.919,200.125 77.030 C 199.884 77.064,199.731 77.217,199.697 77.458 C 199.609 78.076,197.000 78.036,197.000 77.417 C 197.000 77.009,196.972 77.000,195.750 77.000 L 194.500 77.000 194.500 78.667 C 194.500 80.287,194.511 80.333,194.877 80.333 C 195.108 80.333,195.318 80.478,195.419 80.708 C 195.581 81.078,195.626 81.083,198.750 81.083 C 201.907 81.083,201.917 81.082,201.970 80.708 C 202.011 80.417,202.132 80.333,202.512 80.333 C 202.921 80.333,203.000 80.266,203.000 79.917 C 203.000 79.583,203.083 79.500,203.417 79.500 L 203.833 79.500 203.833 76.587 L 203.833 73.673 203.426 73.571 C 203.178 73.509,202.999 73.328,202.968 73.109 C 202.925 72.809,202.789 72.742,202.141 72.700 C 201.476 72.657,201.351 72.591,201.263 72.242 C 201.171 71.878,201.071 71.833,200.341 71.833 C 199.669 71.833,199.504 71.774,199.417 71.500 C 199.358 71.317,199.166 71.167,198.989 71.167 C 198.742 71.167,198.667 71.050,198.667 70.667 L 198.667 70.167 200.000 70.167 C 201.060 70.167,201.333 70.217,201.333 70.411 C 201.333 71.070,202.275 71.142,203.031 70.542 C 203.535 70.141,203.725 70.090,204.553 70.140 L 205.500 70.198 205.500 74.526 C 205.500 78.854,205.577 79.500,206.089 79.500 C 206.238 79.500,206.333 79.662,206.333 79.917 C 206.333 80.249,206.417 80.333,206.747 80.333 C 207.050 80.333,207.189 80.446,207.266 80.754 L 207.372 81.175 209.811 81.129 C 212.197 81.084,212.251 81.075,212.303 80.708 C 212.342 80.432,212.468 80.333,212.778 80.333 L 213.200 80.333 213.142 78.827 C 213.076 77.133,212.990 77.005,211.917 77.005 C 211.172 77.005,210.942 77.114,210.785 77.542 C 210.596 78.054,209.834 77.921,209.831 77.375 C 209.827 76.590,209.646 76.167,209.314 76.167 C 209.018 76.167,209.000 75.994,209.000 73.167 L 209.000 70.167 210.667 70.167 L 212.333 70.167 212.333 68.500 L 212.333 66.833 210.674 66.833 L 209.014 66.833 208.965 65.542 L 208.917 64.250 207.476 64.202 C 206.330 64.164,205.982 64.209,205.768 64.422 M148.083 66.776 C 147.900 66.815,147.587 66.881,147.387 66.923 C 147.188 66.966,146.989 67.131,146.947 67.292 C 146.881 67.539,146.850 67.526,146.748 67.208 C 146.635 66.855,146.538 66.833,145.076 66.833 L 143.524 66.833 143.416 67.708 C 143.184 69.587,143.396 80.832,143.667 81.007 C 143.804 81.096,144.554 81.149,145.333 81.126 L 146.750 81.083 146.794 76.470 L 146.839 71.856 147.211 71.803 C 147.446 71.770,147.603 71.615,147.635 71.385 C 147.668 71.158,147.825 71.001,148.052 70.969 C 148.283 70.936,148.436 70.779,148.470 70.542 C 148.520 70.191,148.604 70.167,149.762 70.167 L 151.000 70.167 151.000 70.842 C 151.000 71.542,151.388 72.500,151.671 72.500 C 151.771 72.500,151.834 73.826,151.835 75.958 C 151.836 77.860,151.884 79.810,151.941 80.292 L 152.046 81.167 153.123 81.167 C 154.119 81.167,154.239 81.126,154.725 80.625 L 155.250 80.083 155.303 75.917 C 155.367 70.912,155.272 69.663,154.818 69.544 C 154.608 69.489,154.499 69.313,154.498 69.022 C 154.494 68.304,154.125 67.760,153.579 67.667 C 153.286 67.617,153.019 67.436,152.926 67.224 C 152.709 66.730,149.642 66.446,148.083 66.776 M160.209 66.787 C 159.806 66.837,159.642 66.956,159.568 67.252 C 159.483 67.590,159.351 67.657,158.692 67.700 C 158.009 67.744,157.910 67.800,157.858 68.164 C 157.826 68.392,157.620 68.759,157.400 68.979 C 157.089 69.290,157.000 69.557,157.000 70.178 C 157.000 70.880,156.954 70.983,156.625 71.030 C 155.937 71.128,155.985 76.534,156.676 76.753 C 156.945 76.838,157.000 77.011,157.000 77.761 C 157.000 78.603,157.028 78.667,157.395 78.667 C 157.727 78.667,157.808 78.773,157.896 79.328 C 158.014 80.062,158.353 80.333,159.156 80.333 C 159.591 80.333,159.667 80.396,159.667 80.754 L 159.667 81.175 162.542 81.129 C 165.304 81.085,165.419 81.070,165.466 80.739 C 165.502 80.485,165.698 80.353,166.212 80.239 C 166.796 80.109,166.933 79.999,167.057 79.560 C 167.138 79.272,167.384 78.940,167.602 78.823 C 167.888 78.670,168.001 78.466,168.002 78.097 C 168.006 77.273,168.181 76.833,168.505 76.833 C 169.185 76.833,169.180 71.418,168.499 70.866 C 168.246 70.661,168.106 70.305,168.028 69.662 C 167.940 68.941,167.840 68.716,167.548 68.588 C 167.346 68.500,167.158 68.275,167.132 68.088 C 167.092 67.811,166.940 67.741,166.292 67.699 C 165.591 67.654,165.500 67.604,165.500 67.264 C 165.500 66.732,162.694 66.479,160.209 66.787 M185.042 66.789 C 184.419 66.845,184.333 66.902,184.333 67.260 C 184.333 67.601,184.252 67.667,183.833 67.667 C 183.411 67.667,183.333 67.731,183.333 68.083 C 183.333 68.417,183.250 68.500,182.917 68.500 C 182.587 68.500,182.500 68.584,182.500 68.905 C 182.500 69.198,182.396 69.325,182.125 69.363 L 181.750 69.417 181.706 73.714 C 181.661 78.019,181.731 78.667,182.244 78.667 C 182.372 78.667,182.501 78.835,182.530 79.042 C 182.563 79.277,182.717 79.436,182.943 79.468 C 183.161 79.499,183.342 79.678,183.404 79.926 C 183.475 80.207,183.623 80.333,183.880 80.333 C 184.108 80.333,184.319 80.480,184.419 80.708 C 184.579 81.073,184.661 81.085,187.375 81.129 L 190.167 81.175 190.167 80.754 C 190.167 80.360,190.220 80.333,191.000 80.333 C 191.771 80.333,191.833 80.303,191.833 79.928 C 191.833 79.635,191.937 79.508,192.208 79.470 C 192.510 79.427,192.613 79.262,192.736 78.625 C 192.825 78.166,192.980 77.833,193.105 77.833 C 193.830 77.833,193.932 70.299,193.208 70.197 C 192.905 70.154,192.833 70.037,192.833 69.585 C 192.833 68.773,192.682 68.500,192.232 68.500 C 191.918 68.500,191.833 68.412,191.833 68.083 C 191.833 67.755,191.749 67.667,191.435 67.667 C 191.155 67.667,191.007 67.550,190.938 67.274 C 190.801 66.731,188.125 66.511,185.042 66.789 M228.626 66.789 C 227.951 66.842,227.820 66.911,227.733 67.259 C 227.660 67.549,227.516 67.667,227.232 67.667 C 226.918 67.667,226.833 67.755,226.833 68.083 C 226.833 68.417,226.750 68.500,226.417 68.500 C 226.087 68.500,226.000 68.584,226.000 68.905 C 226.000 69.198,225.896 69.325,225.625 69.363 L 225.250 69.417 225.206 73.878 L 225.161 78.340 225.581 78.499 C 225.876 78.611,226.000 78.783,226.000 79.079 C 226.000 79.417,226.082 79.500,226.417 79.500 C 226.750 79.500,226.833 79.583,226.833 79.917 C 226.833 80.269,226.911 80.333,227.333 80.333 C 227.712 80.333,227.833 80.410,227.833 80.647 C 227.833 81.364,233.414 81.457,233.970 80.750 C 234.194 80.465,234.462 80.333,234.816 80.333 L 235.333 80.333 235.333 78.667 L 235.333 77.000 234.083 77.000 C 232.861 77.000,232.833 77.009,232.833 77.417 C 232.833 77.826,232.811 77.833,231.500 77.833 C 230.189 77.833,230.167 77.826,230.167 77.417 C 230.167 77.083,230.083 77.000,229.750 77.000 C 229.437 77.000,229.333 76.912,229.333 76.649 C 229.333 76.456,229.146 76.150,228.917 75.970 C 228.516 75.655,228.500 75.571,228.500 73.738 L 228.500 71.833 228.917 71.833 C 229.245 71.833,229.333 71.749,229.333 71.435 C 229.333 71.149,229.451 71.007,229.750 70.932 C 230.019 70.864,230.167 70.710,230.167 70.497 C 230.167 69.990,232.756 69.993,232.917 70.500 C 232.996 70.750,233.169 70.833,233.610 70.833 C 234.058 70.833,234.219 70.754,234.285 70.500 C 234.333 70.317,234.498 70.167,234.653 70.167 C 235.157 70.167,235.333 69.791,235.333 68.717 C 235.333 67.708,235.317 67.667,234.917 67.667 C 234.590 67.667,234.500 67.582,234.500 67.273 C 234.500 66.712,232.105 66.515,228.626 66.789 M239.667 66.817 C 239.053 66.899,238.907 66.985,238.863 67.292 C 238.822 67.583,238.701 67.667,238.322 67.667 C 237.912 67.667,237.833 67.734,237.833 68.083 C 237.833 68.417,237.750 68.500,237.417 68.500 C 237.083 68.500,237.000 68.583,237.000 68.917 C 237.000 69.171,236.905 69.333,236.756 69.333 C 235.990 69.333,235.823 77.247,236.572 78.055 C 236.795 78.296,237.001 78.700,237.030 78.955 C 237.068 79.282,237.190 79.432,237.448 79.469 C 237.675 79.501,237.832 79.658,237.865 79.885 C 237.906 80.174,238.045 80.261,238.537 80.301 C 238.956 80.336,239.262 80.485,239.478 80.760 C 239.831 81.208,244.667 81.421,244.667 80.988 C 244.667 80.632,245.156 80.333,245.738 80.333 C 246.262 80.333,246.333 80.283,246.333 79.917 C 246.333 79.583,246.417 79.500,246.750 79.500 C 247.139 79.500,247.167 79.444,247.167 78.667 C 247.167 77.902,247.199 77.833,247.560 77.833 C 248.478 77.833,248.431 70.388,247.508 69.640 C 247.320 69.488,247.167 69.169,247.167 68.932 C 247.167 68.582,247.087 68.500,246.750 68.500 C 246.417 68.500,246.333 68.417,246.333 68.083 C 246.333 67.750,246.250 67.667,245.917 67.667 C 245.590 67.667,245.500 67.582,245.500 67.274 C 245.500 66.721,242.278 66.469,239.667 66.817 M254.042 66.789 C 253.468 66.840,253.317 66.925,253.238 67.239 L 253.141 67.626 252.745 67.230 C 252.397 66.882,252.193 66.833,251.089 66.833 L 249.830 66.833 249.873 73.958 L 249.917 81.083 251.542 81.131 L 253.167 81.179 253.167 80.710 C 253.167 80.447,253.313 80.115,253.500 79.955 C 253.815 79.686,253.833 79.462,253.835 75.877 C 253.837 71.558,253.905 70.886,254.354 70.743 C 254.526 70.689,254.667 70.537,254.667 70.405 C 254.667 70.225,254.910 70.167,255.667 70.167 L 256.667 70.167 256.667 70.837 C 256.667 71.390,256.739 71.540,257.083 71.697 L 257.500 71.887 257.500 76.543 L 257.500 81.200 258.986 81.142 C 260.903 81.066,260.743 81.530,260.799 75.903 L 260.848 71.000 261.257 71.000 C 261.583 71.000,261.667 70.915,261.667 70.583 C 261.667 70.189,261.717 70.167,262.583 70.167 C 263.294 70.167,263.500 70.224,263.500 70.421 C 263.500 70.561,263.688 70.746,263.917 70.833 L 264.333 70.992 264.333 76.085 L 264.333 81.179 265.958 81.131 L 267.583 81.083 267.627 74.820 L 267.671 68.557 266.913 67.755 C 266.039 66.829,265.552 66.683,263.333 66.678 C 261.588 66.674,260.654 66.877,260.355 67.324 C 260.027 67.815,259.208 67.793,259.137 67.292 C 259.059 66.746,256.889 66.532,254.042 66.789 M129.000 73.813 C 129.000 81.891,128.825 81.203,130.859 81.132 L 132.250 81.083 132.293 73.958 L 132.337 66.833 130.668 66.833 L 129.000 66.833 129.000 73.813 M169.000 68.500 C 169.000 70.158,169.002 70.167,169.409 70.167 C 169.798 70.167,169.821 70.222,169.867 71.292 C 169.910 72.274,169.964 72.438,170.292 72.581 C 170.605 72.719,170.667 72.876,170.667 73.540 C 170.667 74.275,170.697 74.333,171.083 74.333 C 171.471 74.333,171.500 74.390,171.500 75.147 C 171.500 75.832,171.566 76.005,171.917 76.235 C 172.277 76.471,172.333 76.631,172.333 77.424 C 172.333 78.235,172.380 78.362,172.742 78.527 C 173.076 78.679,173.159 78.853,173.200 79.481 C 173.242 80.126,173.309 80.258,173.615 80.302 C 173.842 80.334,173.999 80.491,174.031 80.719 C 174.079 81.054,174.177 81.083,175.248 81.083 L 176.413 81.083 176.557 80.298 C 176.653 79.775,176.800 79.480,176.997 79.418 C 177.274 79.330,177.500 78.688,177.500 77.988 C 177.500 77.821,177.688 77.482,177.917 77.234 C 178.240 76.885,178.333 76.607,178.333 75.987 C 178.333 75.287,178.379 75.183,178.708 75.137 C 179.025 75.092,179.091 74.966,179.134 74.333 C 179.169 73.806,179.289 73.502,179.538 73.310 C 179.811 73.100,179.909 72.806,179.966 72.028 C 180.029 71.152,180.086 71.011,180.394 70.967 C 180.692 70.925,180.758 70.787,180.801 70.117 C 180.844 69.446,180.918 69.293,181.259 69.163 C 181.634 69.021,181.667 68.921,181.667 67.921 L 181.667 66.833 179.583 66.833 L 177.500 66.833 177.500 68.083 C 177.500 69.306,177.491 69.333,177.083 69.333 C 176.695 69.333,176.667 69.390,176.667 70.155 C 176.667 70.880,176.623 70.983,176.292 71.030 C 175.960 71.077,175.899 71.221,175.765 72.277 C 175.566 73.847,174.833 74.269,174.833 72.813 C 174.833 72.092,174.789 71.995,174.417 71.902 C 174.043 71.808,174.000 71.713,174.000 70.982 C 174.000 70.227,173.970 70.167,173.591 70.167 C 173.198 70.167,173.179 70.117,173.132 68.958 C 173.087 67.850,173.052 67.746,172.708 67.697 C 172.437 67.658,172.333 67.532,172.333 67.238 C 172.333 66.836,172.321 66.833,170.667 66.833 L 169.000 66.833 169.000 68.500 M214.071 67.056 C 214.024 67.178,214.008 70.331,214.034 74.062 C 214.091 81.863,213.902 81.160,215.939 81.164 C 217.648 81.167,217.495 81.908,217.498 73.625 L 217.500 66.833 215.828 66.833 C 214.588 66.833,214.134 66.891,214.071 67.056 M123.000 70.583 C 123.000 70.917,123.083 71.000,123.417 71.000 L 123.833 71.000 123.833 73.572 C 123.833 76.112,123.829 76.144,123.458 76.197 C 123.217 76.231,123.064 76.384,123.030 76.625 C 122.992 76.896,122.865 77.000,122.572 77.000 C 122.251 77.000,122.167 77.087,122.167 77.417 C 122.167 77.989,120.466 78.060,120.167 77.500 C 120.069 77.317,119.878 77.167,119.744 77.167 C 119.540 77.167,119.500 76.733,119.500 74.518 L 119.500 71.869 119.917 71.765 C 120.146 71.707,120.333 71.544,120.333 71.403 C 120.333 70.783,121.208 70.183,122.125 70.175 C 122.949 70.167,123.000 70.191,123.000 70.583 M163.833 70.583 C 163.833 70.917,163.917 71.000,164.250 71.000 L 164.667 71.000 164.667 74.000 L 164.667 77.000 164.250 77.000 C 163.917 77.000,163.833 77.083,163.833 77.417 C 163.833 78.281,162.365 78.015,161.303 76.958 L 160.424 76.083 160.360 74.289 C 160.276 71.936,160.413 71.000,160.840 71.000 C 161.043 71.000,161.199 70.847,161.265 70.583 C 161.365 70.186,161.426 70.167,162.601 70.167 C 163.804 70.167,163.833 70.176,163.833 70.583 M188.530 70.542 C 188.564 70.783,188.717 70.936,188.958 70.970 C 189.262 71.013,189.333 71.129,189.333 71.581 C 189.333 72.355,189.482 72.667,189.851 72.667 C 190.382 72.667,190.324 75.288,189.792 75.363 C 189.472 75.409,189.409 75.533,189.366 76.208 C 189.320 76.923,189.275 77.000,188.908 77.000 C 188.584 77.000,188.500 77.086,188.500 77.417 C 188.500 78.024,186.889 78.063,186.803 77.458 C 186.770 77.221,186.616 77.064,186.385 77.031 C 186.158 76.999,186.001 76.842,185.969 76.615 C 185.936 76.384,185.779 76.230,185.542 76.197 C 184.989 76.118,184.950 71.925,185.500 71.750 C 185.683 71.692,185.833 71.511,185.833 71.349 C 185.833 70.323,188.390 69.558,188.530 70.542 M243.167 70.500 C 243.265 70.683,243.446 70.833,243.568 70.833 C 243.691 70.833,243.837 71.058,243.892 71.333 C 243.963 71.691,244.088 71.833,244.329 71.833 C 244.648 71.833,244.666 71.935,244.661 73.708 C 244.656 75.564,244.500 76.167,244.023 76.167 C 243.919 76.167,243.833 76.349,243.833 76.572 C 243.833 76.865,243.730 76.992,243.458 77.030 C 243.217 77.064,243.064 77.217,243.030 77.458 C 242.983 77.788,242.880 77.833,242.167 77.833 C 241.453 77.833,241.350 77.788,241.303 77.458 C 241.270 77.221,241.116 77.064,240.885 77.031 C 240.658 76.999,240.501 76.842,240.469 76.615 C 240.432 76.357,240.282 76.235,239.958 76.197 L 239.500 76.145 239.500 73.989 L 239.500 71.833 239.917 71.833 C 240.242 71.833,240.333 71.748,240.333 71.443 C 240.333 71.189,240.478 70.987,240.750 70.864 C 240.979 70.759,241.167 70.560,241.167 70.420 C 241.167 69.996,242.935 70.067,243.167 70.500 M220.000 77.405 C 220.000 77.658,219.880 77.849,219.682 77.912 C 219.071 78.106,219.062 79.224,219.671 79.383 C 219.909 79.445,219.992 79.651,220.032 80.273 L 220.083 81.083 221.708 81.131 L 223.333 81.179 223.333 80.756 C 223.333 80.422,223.417 80.333,223.729 80.333 C 224.219 80.333,224.403 79.473,224.234 77.977 L 224.124 77.000 222.062 77.000 L 220.000 77.000 220.000 77.405 M42.871 81.625 L 42.917 84.750 44.708 84.797 L 46.500 84.845 46.500 81.672 L 46.500 78.500 44.663 78.500 L 42.826 78.500 42.871 81.625 M53.076 78.709 C 53.030 78.830,53.012 80.238,53.038 81.839 L 53.083 84.750 55.333 84.750 L 57.583 84.750 57.583 81.667 L 57.583 78.583 55.372 78.537 C 53.665 78.501,53.141 78.540,53.076 78.709 "
                                  stroke="none" fill-rule="evenodd"></path>
                            <path id="path1"
                                  d="M42.759 14.204 C 42.397 14.721,42.373 20.687,42.732 20.985 C 42.886 21.113,43.604 21.162,44.856 21.131 L 46.747 21.083 46.854 20.583 C 47.080 19.525,47.010 15.013,46.759 14.411 L 46.517 13.833 44.768 13.833 C 43.149 13.833,43.000 13.861,42.759 14.204 M52.921 14.325 C 52.652 14.846,52.570 19.782,52.816 20.667 L 52.932 21.083 55.339 21.083 L 57.747 21.083 57.854 20.583 C 58.080 19.526,58.010 15.014,57.759 14.411 L 57.517 13.833 55.346 13.833 L 53.175 13.833 52.921 14.325 M46.462 17.631 L 46.508 20.678 44.712 20.631 L 42.917 20.583 42.871 17.756 C 42.813 14.176,42.640 14.478,44.705 14.536 L 46.417 14.583 46.462 17.631 M57.566 14.764 C 57.696 15.105,57.693 19.801,57.562 20.292 C 57.464 20.656,57.399 20.667,55.333 20.667 C 53.268 20.667,53.203 20.656,53.105 20.292 C 52.973 19.801,52.970 15.105,53.101 14.764 C 53.252 14.370,57.415 14.370,57.566 14.764 M29.606 23.512 L 29.167 23.858 29.167 27.508 L 29.167 31.158 29.698 31.433 C 30.077 31.629,30.847 31.733,32.373 31.795 C 34.298 31.873,34.540 31.917,34.758 32.228 C 35.086 32.696,35.127 65.806,34.800 66.133 C 34.690 66.243,34.325 66.333,33.988 66.333 C 33.039 66.333,30.486 66.806,29.792 67.110 L 29.167 67.384 29.167 71.435 L 29.167 75.487 29.792 75.671 C 31.008 76.029,59.088 75.817,60.000 75.442 C 60.413 75.273,61.271 75.064,61.908 74.977 C 62.545 74.891,63.295 74.679,63.575 74.507 C 63.854 74.335,64.365 74.142,64.710 74.079 C 65.054 74.015,65.510 73.825,65.723 73.658 C 65.936 73.491,66.303 73.306,66.539 73.246 C 66.775 73.187,67.139 72.957,67.347 72.736 C 67.555 72.514,67.786 72.333,67.861 72.333 C 68.278 72.333,70.163 70.601,71.001 69.448 C 71.321 69.007,71.747 68.439,71.948 68.187 C 72.148 67.934,72.366 67.508,72.433 67.239 C 72.500 66.970,72.694 66.561,72.863 66.331 C 73.033 66.100,73.240 65.500,73.324 64.998 C 73.407 64.495,73.612 63.821,73.780 63.500 C 74.232 62.632,74.233 56.872,73.781 56.000 C 73.615 55.679,73.408 55.046,73.321 54.592 C 73.234 54.138,73.023 53.613,72.853 53.425 C 72.683 53.237,72.496 52.881,72.438 52.634 C 72.316 52.118,69.496 49.167,69.124 49.167 C 68.989 49.167,68.694 49.021,68.468 48.844 C 68.242 48.666,67.838 48.468,67.570 48.404 C 67.037 48.277,65.500 47.350,65.500 47.156 C 65.500 46.979,65.958 46.833,66.514 46.833 C 66.781 46.833,67.139 46.695,67.308 46.525 C 67.478 46.355,67.867 46.129,68.173 46.023 C 68.801 45.804,71.398 43.252,71.582 42.672 C 71.647 42.467,71.880 42.034,72.100 41.710 C 72.320 41.385,72.500 40.940,72.500 40.720 C 72.500 40.500,72.668 40.004,72.874 39.618 C 73.441 38.552,73.442 33.616,72.875 32.537 C 72.669 32.144,72.499 31.657,72.497 31.453 C 72.495 31.250,72.270 30.753,71.997 30.350 C 71.724 29.947,71.500 29.534,71.500 29.433 C 71.500 29.037,68.612 26.333,68.189 26.333 C 68.099 26.333,67.802 26.145,67.529 25.916 C 67.256 25.686,66.782 25.449,66.475 25.388 C 66.168 25.327,65.729 25.141,65.500 24.973 C 65.271 24.806,64.708 24.621,64.250 24.561 C 63.792 24.501,63.133 24.310,62.786 24.137 C 62.328 23.907,61.528 23.776,59.869 23.659 C 58.612 23.570,57.176 23.423,56.678 23.332 C 54.639 22.960,30.101 23.123,29.606 23.512 M58.445 23.984 C 61.226 24.094,61.854 24.164,62.082 24.391 C 62.387 24.696,62.664 24.770,63.983 24.901 C 64.570 24.959,64.987 25.102,65.183 25.312 C 65.348 25.490,65.791 25.686,66.167 25.750 C 66.544 25.814,67.030 26.045,67.251 26.266 C 67.471 26.486,67.738 26.667,67.843 26.667 C 67.949 26.667,68.258 26.854,68.530 27.083 C 68.803 27.313,69.127 27.500,69.252 27.500 C 69.376 27.500,69.524 27.646,69.581 27.825 C 69.637 28.003,69.830 28.196,70.009 28.253 C 70.187 28.309,70.333 28.429,70.333 28.519 C 70.333 28.608,70.511 28.860,70.728 29.077 C 70.946 29.294,71.175 29.685,71.239 29.944 C 71.302 30.204,71.503 30.533,71.687 30.675 C 71.912 30.850,72.061 31.239,72.148 31.880 C 72.223 32.429,72.411 32.977,72.597 33.181 C 73.107 33.745,73.077 38.361,72.558 39.083 C 72.355 39.366,72.151 39.979,72.089 40.491 C 72.015 41.106,71.877 41.471,71.663 41.621 C 71.489 41.743,71.298 42.101,71.239 42.416 C 71.175 42.755,71.010 43.027,70.832 43.084 C 70.668 43.136,70.487 43.363,70.430 43.589 C 70.373 43.815,70.252 44.000,70.160 44.000 C 70.068 44.000,69.614 44.375,69.151 44.833 C 68.613 45.365,68.165 45.667,67.911 45.667 C 67.692 45.667,67.342 45.845,67.132 46.064 C 66.868 46.338,66.500 46.487,65.941 46.545 C 64.541 46.691,64.313 47.300,65.476 47.786 C 65.807 47.924,66.177 48.179,66.298 48.352 C 66.442 48.557,66.719 48.667,67.094 48.667 C 67.499 48.667,67.776 48.789,68.031 49.083 C 68.230 49.313,68.557 49.500,68.756 49.500 C 69.141 49.500,71.200 51.360,71.385 51.875 C 71.442 52.035,71.598 52.167,71.730 52.167 C 71.881 52.167,72.013 52.416,72.083 52.834 C 72.148 53.214,72.339 53.602,72.529 53.735 C 72.774 53.906,72.898 54.261,73.000 55.080 C 73.085 55.766,73.255 56.321,73.444 56.530 C 73.905 57.039,73.904 62.189,73.444 62.868 C 73.274 63.117,73.070 63.858,72.986 64.522 C 72.884 65.338,72.735 65.817,72.522 66.015 C 72.350 66.176,72.155 66.592,72.090 66.940 C 72.025 67.287,71.828 67.673,71.652 67.795 C 71.477 67.918,71.333 68.106,71.333 68.212 C 71.333 68.318,71.193 68.558,71.022 68.744 C 70.290 69.543,68.496 71.283,68.010 71.667 C 67.720 71.896,67.318 72.241,67.116 72.434 C 66.915 72.627,66.470 72.836,66.127 72.899 C 65.784 72.963,65.431 73.151,65.341 73.318 C 65.233 73.520,64.903 73.659,64.358 73.731 C 63.906 73.791,63.355 73.983,63.133 74.157 C 62.855 74.376,62.249 74.528,61.176 74.648 C 60.107 74.767,59.520 74.914,59.294 75.119 C 58.966 75.416,31.332 75.703,30.210 75.421 L 29.833 75.327 29.833 71.431 C 29.833 67.113,29.771 67.336,30.972 67.330 C 31.308 67.329,32.108 67.208,32.750 67.063 C 33.392 66.917,34.142 66.760,34.417 66.713 C 34.692 66.666,35.085 66.473,35.292 66.285 L 35.667 65.942 35.667 49.246 L 35.667 32.549 35.286 31.983 L 34.905 31.417 32.494 31.313 C 31.168 31.255,30.027 31.199,29.958 31.188 C 29.736 31.150,29.809 24.258,30.033 24.033 C 30.267 23.799,52.744 23.761,58.445 23.984 M49.833 32.319 C 49.604 32.393,49.154 32.602,48.833 32.783 L 48.250 33.112 48.206 38.598 C 48.165 43.607,48.186 44.101,48.446 44.292 C 48.653 44.443,49.705 44.500,52.289 44.500 L 55.848 44.500 56.265 44.083 C 56.494 43.854,56.869 43.667,57.098 43.667 C 57.328 43.667,57.701 43.481,57.928 43.254 C 58.155 43.027,58.489 42.762,58.670 42.665 C 58.852 42.568,59.000 42.387,59.000 42.264 C 59.000 42.140,59.149 42.000,59.331 41.952 C 59.514 41.905,59.742 41.658,59.838 41.405 C 59.934 41.151,60.141 40.850,60.298 40.735 C 60.789 40.376,60.716 36.335,60.208 35.794 C 60.002 35.575,59.833 35.267,59.833 35.111 C 59.833 34.954,59.646 34.741,59.417 34.636 C 59.188 34.532,59.000 34.348,59.000 34.228 C 59.000 34.107,58.775 33.892,58.500 33.750 C 58.225 33.608,58.000 33.426,58.000 33.345 C 58.000 33.144,57.058 32.833,56.447 32.833 C 56.170 32.833,55.798 32.702,55.621 32.542 C 55.266 32.220,50.683 32.043,49.833 32.319 M54.668 32.843 C 54.988 32.940,55.666 33.082,56.174 33.159 C 57.536 33.364,59.282 34.647,59.588 35.667 C 59.656 35.896,59.852 36.262,60.023 36.481 C 60.272 36.799,60.333 37.167,60.333 38.333 C 60.333 39.499,60.272 39.867,60.023 40.186 C 59.852 40.404,59.663 40.742,59.602 40.936 C 59.414 41.536,57.368 43.333,56.874 43.333 C 56.634 43.333,56.259 43.502,56.039 43.708 C 55.567 44.153,49.228 44.397,48.737 43.989 C 48.395 43.705,48.384 33.637,48.725 33.354 C 49.381 32.810,53.414 32.463,54.668 32.843 M48.375 53.525 C 48.051 53.849,48.076 65.053,48.402 65.378 C 48.967 65.943,55.776 65.897,56.787 65.322 C 57.082 65.154,57.607 64.967,57.954 64.905 C 58.300 64.844,58.733 64.655,58.917 64.485 C 59.100 64.315,59.569 63.896,59.958 63.553 C 60.348 63.211,60.667 62.801,60.667 62.644 C 60.667 62.486,60.767 62.256,60.890 62.133 C 61.670 61.354,61.792 58.539,61.083 57.697 C 60.854 57.425,60.667 57.012,60.667 56.780 C 60.667 56.362,60.288 55.833,59.988 55.833 C 59.903 55.833,59.833 55.719,59.833 55.580 C 59.833 55.440,59.647 55.241,59.419 55.137 C 59.191 55.034,58.889 54.773,58.748 54.558 C 58.562 54.273,58.337 54.167,57.919 54.167 C 57.540 54.167,57.229 54.040,56.997 53.792 C 56.575 53.338,48.802 53.098,48.375 53.525 M56.371 53.994 C 56.600 54.174,57.105 54.393,57.493 54.480 C 57.881 54.567,58.397 54.813,58.641 55.027 C 59.936 56.164,60.328 56.613,60.331 56.966 C 60.332 57.176,60.521 57.701,60.750 58.131 C 61.284 59.135,61.321 60.513,60.833 61.250 C 60.651 61.525,60.502 61.892,60.501 62.066 C 60.499 62.721,58.504 64.438,57.587 64.575 C 57.131 64.643,56.456 64.858,56.087 65.052 C 55.290 65.473,49.183 65.583,48.784 65.184 C 48.500 64.901,48.403 54.235,48.680 53.900 C 49.026 53.484,55.828 53.567,56.371 53.994 M42.611 78.278 C 42.401 78.488,42.484 84.751,42.700 84.967 C 43.022 85.289,46.406 85.237,46.738 84.905 C 47.052 84.591,47.129 79.052,46.827 78.489 C 46.653 78.162,42.914 77.975,42.611 78.278 M52.867 78.367 C 52.610 78.623,52.586 84.371,52.839 84.844 C 52.997 85.139,53.209 85.167,55.333 85.167 C 58.196 85.167,58.000 85.424,58.000 81.667 C 58.000 77.913,58.191 78.167,55.361 78.167 C 53.799 78.167,53.003 78.230,52.867 78.367 M46.500 81.672 L 46.500 84.845 44.708 84.797 L 42.917 84.750 42.871 81.625 L 42.826 78.500 44.663 78.500 L 46.500 78.500 46.500 81.672 M57.583 81.667 L 57.583 84.750 55.333 84.750 L 53.083 84.750 53.038 81.839 C 52.979 78.125,52.728 78.481,55.372 78.537 L 57.583 78.583 57.583 81.667 "
                                  stroke="none" fill-rule="evenodd"></path>
                            <path id="path2"
                                  d="M42.500 13.667 C 42.095 14.071,41.976 20.909,42.367 21.300 C 42.610 21.544,46.622 21.576,47.000 21.337 C 47.426 21.068,47.365 14.162,46.933 13.684 C 46.464 13.166,43.014 13.152,42.500 13.667 M52.762 13.595 C 52.493 13.864,52.352 20.587,52.601 21.236 C 52.732 21.576,57.632 21.634,57.967 21.300 C 58.336 20.931,58.241 13.952,57.862 13.609 C 57.423 13.212,53.157 13.200,52.762 13.595 M46.759 14.411 C 47.010 15.013,47.080 19.525,46.854 20.583 L 46.747 21.083 44.856 21.131 C 42.331 21.194,42.500 21.440,42.500 17.683 C 42.500 13.670,42.404 13.833,44.768 13.833 L 46.517 13.833 46.759 14.411 M57.759 14.411 C 58.010 15.014,58.080 19.526,57.854 20.583 L 57.747 21.083 55.339 21.083 L 52.932 21.083 52.816 20.667 C 52.570 19.782,52.652 14.846,52.921 14.325 L 53.175 13.833 55.346 13.833 L 57.517 13.833 57.759 14.411 M29.501 22.815 C 28.734 23.029,28.665 23.446,28.709 27.583 L 28.750 31.417 29.290 31.686 C 29.587 31.835,29.948 32.055,30.094 32.176 C 30.267 32.319,31.093 32.428,32.471 32.489 L 34.583 32.583 34.626 49.266 L 34.668 65.948 32.530 66.051 C 30.184 66.163,29.805 66.256,29.125 66.890 L 28.667 67.317 28.667 71.472 C 28.667 75.132,28.699 75.653,28.942 75.855 C 29.703 76.486,60.129 76.192,61.528 75.539 C 61.925 75.354,62.625 75.156,63.083 75.100 C 63.542 75.044,64.104 74.860,64.333 74.692 C 64.563 74.523,65.035 74.332,65.384 74.267 C 65.733 74.202,66.164 74.002,66.343 73.824 C 66.521 73.646,66.773 73.500,66.904 73.500 C 67.034 73.500,67.353 73.323,67.612 73.107 C 67.871 72.891,68.327 72.589,68.625 72.436 C 68.923 72.283,69.167 72.083,69.167 71.992 C 69.167 71.900,69.354 71.754,69.583 71.667 C 69.813 71.580,70.000 71.392,70.000 71.250 C 70.000 71.108,70.188 70.920,70.417 70.833 C 70.646 70.746,70.833 70.562,70.833 70.425 C 70.833 70.287,71.021 70.051,71.250 69.901 C 71.479 69.751,71.667 69.535,71.667 69.420 C 71.667 69.306,71.892 68.929,72.167 68.583 C 72.442 68.237,72.667 67.855,72.667 67.734 C 72.667 67.614,72.854 67.239,73.083 66.901 C 73.313 66.563,73.500 66.119,73.500 65.914 C 73.500 65.708,73.699 65.105,73.943 64.572 C 74.382 63.613,74.387 63.567,74.390 59.731 L 74.393 55.858 73.947 54.997 C 73.701 54.523,73.500 53.966,73.500 53.759 C 73.500 53.552,73.318 53.186,73.096 52.946 C 72.873 52.706,72.667 52.338,72.637 52.130 C 72.608 51.921,72.415 51.676,72.208 51.585 C 72.002 51.495,71.833 51.287,71.833 51.123 C 71.833 50.959,71.656 50.758,71.439 50.675 C 71.223 50.593,71.005 50.370,70.955 50.179 C 70.904 49.986,70.728 49.833,70.555 49.833 C 70.385 49.833,70.172 49.665,70.081 49.459 C 69.991 49.254,69.783 49.060,69.619 49.029 C 69.456 48.999,69.140 48.792,68.918 48.570 C 68.678 48.329,68.321 48.167,68.033 48.167 C 67.762 48.167,67.419 48.020,67.248 47.831 C 67.081 47.646,66.713 47.434,66.430 47.359 C 65.931 47.227,65.939 47.219,66.745 47.096 C 67.227 47.022,67.771 46.802,68.049 46.568 C 68.311 46.347,68.631 46.167,68.759 46.167 C 68.887 46.167,69.115 45.979,69.265 45.750 C 69.415 45.521,69.649 45.333,69.785 45.333 C 69.920 45.333,70.068 45.192,70.113 45.020 C 70.158 44.848,70.376 44.625,70.597 44.524 C 70.819 44.423,71.000 44.207,71.000 44.043 C 71.000 43.880,71.168 43.672,71.374 43.581 C 71.580 43.491,71.774 43.267,71.805 43.083 C 71.836 42.900,71.955 42.675,72.070 42.583 C 72.382 42.334,72.667 41.735,72.667 41.328 C 72.667 41.130,72.832 40.735,73.035 40.451 C 73.772 39.415,73.772 32.675,73.035 31.678 C 72.832 31.404,72.667 30.995,72.667 30.770 C 72.667 30.544,72.489 30.147,72.273 29.888 C 72.056 29.629,71.827 29.252,71.764 29.050 C 71.701 28.849,71.512 28.640,71.343 28.586 C 71.174 28.533,70.996 28.336,70.947 28.149 C 70.898 27.962,70.709 27.770,70.528 27.722 C 70.346 27.675,70.160 27.493,70.115 27.319 C 70.069 27.144,69.905 26.953,69.749 26.893 C 69.594 26.834,69.290 26.608,69.074 26.392 C 68.858 26.177,68.566 26.000,68.424 26.000 C 68.283 26.000,68.167 25.927,68.167 25.838 C 68.167 25.644,67.289 25.167,66.932 25.167 C 66.794 25.167,66.405 24.979,66.067 24.750 C 65.730 24.521,65.241 24.333,64.982 24.333 C 64.722 24.333,64.198 24.170,63.815 23.971 C 63.365 23.737,62.644 23.568,61.768 23.493 C 61.025 23.429,60.209 23.293,59.956 23.191 C 58.783 22.720,31.073 22.378,29.501 22.815 M56.678 23.332 C 57.176 23.423,58.612 23.570,59.869 23.659 C 61.528 23.776,62.328 23.907,62.786 24.137 C 63.133 24.310,63.792 24.501,64.250 24.561 C 64.708 24.621,65.271 24.806,65.500 24.973 C 65.729 25.141,66.168 25.327,66.475 25.388 C 66.782 25.449,67.256 25.686,67.529 25.916 C 67.802 26.145,68.099 26.333,68.189 26.333 C 68.612 26.333,71.500 29.037,71.500 29.433 C 71.500 29.534,71.724 29.947,71.997 30.350 C 72.270 30.753,72.495 31.250,72.497 31.453 C 72.499 31.657,72.669 32.144,72.875 32.537 C 73.442 33.616,73.441 38.552,72.874 39.618 C 72.668 40.004,72.500 40.500,72.500 40.720 C 72.500 40.940,72.320 41.385,72.100 41.710 C 71.880 42.034,71.647 42.467,71.582 42.672 C 71.398 43.252,68.801 45.804,68.173 46.023 C 67.867 46.129,67.478 46.355,67.308 46.525 C 67.139 46.695,66.781 46.833,66.514 46.833 C 65.958 46.833,65.500 46.979,65.500 47.156 C 65.500 47.350,67.037 48.277,67.570 48.404 C 67.838 48.468,68.242 48.666,68.468 48.844 C 68.694 49.021,68.989 49.167,69.124 49.167 C 69.496 49.167,72.316 52.118,72.438 52.634 C 72.496 52.881,72.683 53.237,72.853 53.425 C 73.023 53.613,73.234 54.138,73.321 54.592 C 73.408 55.046,73.615 55.679,73.781 56.000 C 74.233 56.872,74.232 62.632,73.780 63.500 C 73.612 63.821,73.407 64.495,73.324 64.998 C 73.240 65.500,73.033 66.100,72.863 66.331 C 72.694 66.561,72.500 66.970,72.433 67.239 C 72.366 67.508,72.148 67.934,71.948 68.187 C 71.747 68.439,71.321 69.007,71.001 69.448 C 70.163 70.601,68.278 72.333,67.861 72.333 C 67.786 72.333,67.555 72.514,67.347 72.736 C 67.139 72.957,66.775 73.187,66.539 73.246 C 66.303 73.306,65.936 73.491,65.723 73.658 C 65.510 73.825,65.054 74.015,64.710 74.079 C 64.365 74.142,63.854 74.335,63.575 74.507 C 63.295 74.679,62.545 74.891,61.908 74.977 C 61.271 75.064,60.413 75.273,60.000 75.442 C 59.088 75.817,31.008 76.029,29.792 75.671 L 29.167 75.487 29.167 71.435 L 29.167 67.384 29.792 67.110 C 30.486 66.806,33.039 66.333,33.988 66.333 C 34.325 66.333,34.690 66.243,34.800 66.133 C 35.127 65.806,35.086 32.696,34.758 32.228 C 34.540 31.917,34.298 31.873,32.373 31.795 C 30.847 31.733,30.077 31.629,29.698 31.433 L 29.167 31.158 29.167 27.508 L 29.167 23.858 29.606 23.512 C 30.101 23.123,54.639 22.960,56.678 23.332 M50.017 32.933 C 49.431 33.062,48.849 33.251,48.725 33.354 C 48.384 33.637,48.395 43.705,48.737 43.989 C 49.228 44.397,55.567 44.153,56.039 43.708 C 56.259 43.502,56.634 43.333,56.874 43.333 C 57.368 43.333,59.414 41.536,59.602 40.936 C 59.663 40.742,59.852 40.404,60.023 40.186 C 60.272 39.867,60.333 39.499,60.333 38.333 C 60.333 37.167,60.272 36.799,60.023 36.481 C 59.852 36.262,59.656 35.896,59.588 35.667 C 59.282 34.647,57.536 33.364,56.174 33.159 C 55.666 33.082,54.988 32.940,54.668 32.843 C 53.869 32.601,51.310 32.651,50.017 32.933 M57.029 33.826 C 57.210 34.021,57.584 34.225,57.859 34.280 C 58.177 34.344,58.414 34.524,58.509 34.773 C 58.591 34.990,58.765 35.167,58.895 35.167 C 59.166 35.167,59.333 35.518,59.333 36.088 C 59.333 36.304,59.493 36.593,59.688 36.730 C 60.299 37.158,60.358 39.230,59.773 39.772 C 59.531 39.996,59.333 40.321,59.333 40.493 C 59.333 40.986,59.152 41.333,58.895 41.333 C 58.766 41.333,58.574 41.521,58.470 41.750 C 58.365 41.979,58.181 42.167,58.060 42.167 C 57.940 42.167,57.724 42.345,57.582 42.562 C 57.407 42.829,57.111 42.986,56.669 43.045 C 56.310 43.093,55.794 43.290,55.524 43.483 C 55.066 43.809,54.815 43.833,51.933 43.833 L 48.833 43.833 48.833 38.676 L 48.833 33.519 49.542 33.443 C 51.701 33.212,56.695 33.467,57.029 33.826 M48.680 53.900 C 48.403 54.235,48.500 64.901,48.784 65.184 C 49.183 65.583,55.290 65.473,56.087 65.052 C 56.456 64.858,57.131 64.643,57.587 64.575 C 58.504 64.438,60.499 62.721,60.501 62.066 C 60.502 61.892,60.651 61.525,60.833 61.250 C 61.321 60.513,61.284 59.135,60.750 58.131 C 60.521 57.701,60.332 57.176,60.331 56.966 C 60.328 56.613,59.936 56.164,58.641 55.027 C 58.397 54.813,57.881 54.567,57.493 54.480 C 57.105 54.393,56.600 54.174,56.371 53.994 C 55.828 53.567,49.026 53.484,48.680 53.900 M55.892 54.245 C 56.007 54.402,56.468 54.599,56.916 54.683 C 57.364 54.767,57.885 54.976,58.074 55.148 C 58.262 55.321,58.585 55.513,58.792 55.575 C 58.998 55.638,59.167 55.763,59.167 55.853 C 59.167 55.942,59.347 56.183,59.568 56.388 C 59.839 56.639,60.029 57.080,60.151 57.741 C 60.251 58.281,60.445 58.847,60.583 58.999 C 60.929 59.382,60.896 60.056,60.501 60.704 C 60.318 61.004,60.168 61.533,60.167 61.879 C 60.167 62.397,60.093 62.536,59.750 62.667 C 59.521 62.754,59.333 62.941,59.333 63.083 C 59.333 63.225,59.152 63.411,58.930 63.495 C 58.708 63.579,58.457 63.772,58.373 63.924 C 58.264 64.118,57.860 64.239,57.007 64.333 C 56.199 64.421,55.637 64.582,55.321 64.816 C 54.586 65.359,49.800 65.350,49.219 64.804 L 48.833 64.442 48.833 59.249 C 48.833 56.392,48.890 53.997,48.958 53.924 C 49.231 53.639,55.666 53.936,55.892 54.245 M42.367 78.033 C 42.143 78.257,42.076 84.773,42.294 85.100 C 43.026 86.196,47.031 85.810,47.254 84.622 C 47.471 83.466,47.268 78.165,47.000 77.996 C 46.622 77.758,42.610 77.790,42.367 78.033 M52.700 78.033 C 52.279 78.455,52.432 85.100,52.870 85.407 C 53.414 85.788,57.172 85.780,57.756 85.397 L 58.167 85.128 58.167 81.681 C 58.167 77.481,58.426 77.833,55.333 77.833 C 53.663 77.833,52.837 77.896,52.700 78.033 M46.827 78.489 C 47.129 79.052,47.052 84.591,46.738 84.905 C 46.406 85.237,43.022 85.289,42.700 84.967 C 42.484 84.751,42.401 78.488,42.611 78.278 C 42.914 77.975,46.653 78.162,46.827 78.489 M57.827 78.489 C 57.927 78.675,58.000 80.017,58.000 81.667 C 58.000 85.424,58.196 85.167,55.333 85.167 C 53.209 85.167,52.997 85.139,52.839 84.844 C 52.586 84.371,52.610 78.623,52.867 78.367 C 53.244 77.989,57.618 78.097,57.827 78.489 "
                                  stroke="none" fill-rule="evenodd"></path>
                            <path id="path4"
                                  d="M29.945 93.125 C 41.510 93.149,60.485 93.149,72.112 93.125 C 83.738 93.101,74.275 93.082,51.083 93.082 C 27.892 93.082,18.379 93.101,29.945 93.125 "
                                  stroke="none" fill="#ffff00" fill-rule="evenodd"></path>
                        </g>
                    </svg>