<svg version="1.1" id="Layer_1" xmlns="http://www.w3.org/2000/svg"  x="0px" y="0px"
	 viewBox="0 0 514.9 154.4" enable-background="new 0 0 514.9 154.4" xml:space="preserve">
<polygon fill="#FFFFFF" points="67.6,10.5 58.4,3.5 44.5,8.9 35.3,12.1 18.8,26.8 17.5,40.4 12,46.4 10.5,56.1 4.7,63.6 3.3,97.4
	10.5,121.5 14.9,128 14.8,132.4 26.5,144.4 38.3,145.6 43.3,150.5 62.5,150.5 73.1,143 77.8,147.7 100.3,150.9 103,145.9 111,145.7
	125.3,135.5 127.1,126.6 133.9,116.6 136.8,98.6 136.8,82.9 127,76.1 137.9,68.6 132.8,55.7 133.3,47.4 125.9,40.4 126.4,31.2
	105.5,11.1 99.5,10.8 91.6,3.7 78.8,3.7 "/>
<g>
	<path  d="M141.7,96.6l0-13.5l0-2.1l-1.7-1.2l-4.5-3.2l-1.4-1l1.3-1.1l4.5-3.9l1.5-1.3l0.4-1.5L141,66l-4.4-11.3
		l-0.1-0.2v-0.2v-7.1v-1.7l-1.2-1.2h0l-4.9-4.9l-0.4-0.4v-0.6v-7v-1.7l-1.2-1.2l-10.9-11.1l-0.1-0.2l0,0l-9.3-9.3v0l-1.2-1.2h-1.7
		h-4.4h-0.6l-0.4-0.4l-5-5L94,0h-1.7H77.5h-0.6L66.8,10.1v0.6v30l-8.3-2.3V25.3c0.5-0.2,0.9-0.5,1.2-0.9l0,0c0.8-0.8,1.4-2,1.4-3.3
		c0-1.3-0.5-2.4-1.4-3.3c-0.8-0.8-2-1.4-3.3-1.4c-1.3,0-2.4,0.5-3.3,1.4c-0.8,0.8-1.4,2-1.4,3.3c0,1.3,0.5,2.4,1.4,3.3h0
		c0.4,0.4,0.8,0.7,1.2,0.9V31l-6.8-1.9l0,0c-0.2-1-0.6-1.9-1.3-2.5c-0.8-0.8-2-1.4-3.3-1.4c-1.3,0-2.4,0.5-3.3,1.4l0,0
		c-0.8,0.8-1.4,2-1.4,3.3c0,1.3,0.5,2.4,1.4,3.3v0c0.8,0.8,2,1.4,3.3,1.4c1.3,0,2.4-0.5,3.3-1.4l0.1-0.1c0,0,0.1,0,0.1,0l7.9,2.2
		v4.4c-0.2,1,0.4,2.1,1.5,2.4l10.9,3v6.8c-0.1,0.1-0.3,0.1-0.4,0.2l-12.7,10H46c-0.2-0.4-0.5-0.9-0.9-1.2c-0.8-0.8-2-1.4-3.3-1.4
		c-1.3,0-2.4,0.5-3.3,1.4c-0.8,0.8-1.4,2-1.4,3.3c0,1.3,0.5,2.4,1.4,3.3l0,0c0.8,0.8,2,1.4,3.3,1.4s2.4-0.5,3.3-1.4l0,0
		c0.3-0.3,0.6-0.8,0.9-1.2h8.3c0.5,0,1-0.2,1.4-0.6l11-8.6v2.2v3.7l1.3,1.3h5.7l1.3-1.3v-3.7V42.3l9.9-4.1c0.5-0.1,1-0.4,1.3-0.9
		l0,0l0,0c0.2-0.3,0.3-0.7,0.3-1.1l0.5-5l7.5-0.2v0c0.3,0,0.6-0.1,0.9-0.2l4.4-2.3c0.1-0.1,0.2-0.1,0.4-0.2c0.8,0.5,1.6,0.7,2.5,0.7
		c1.2,0,2.4-0.5,3.2-1.4l0,0c0.9-0.9,1.3-2.1,1.3-3.3c0-1.2-0.5-2.4-1.4-3.2l0,0c-0.9-0.9-2.1-1.3-3.3-1.3c-1.2,0-2.4,0.5-3.2,1.4
		l0,0c-0.9,0.9-1.3,2.1-1.3,3.3c0,0.1,0,0.3,0,0.4l0,0l-4,2l-6.6,0.1l0.3-2.9c0-0.1,0-0.2,0-0.4c0.6-0.2,1.1-0.6,1.5-1l0,0
		c0.8-0.8,1.4-2,1.4-3.3c0-1.3-0.5-2.4-1.4-3.3c-0.8-0.8-2-1.4-3.3-1.4c-1.3,0-2.4,0.5-3.3,1.4c-0.8,0.8-1.4,2-1.4,3.3
		c0,1.3,0.5,2.4,1.4,3.3h0c0.3,0.3,0.6,0.6,1,0.8c0,0,0,0.1,0,0.2l-1.2,11L75,37.8V14v-0.6l0.4-0.4l4.5-4.5l0.4-0.4h0.6H90h0.6
		L91,8.6l5,5l1.2,1.2h1.7h4.4h0.6l0.4,0.4l6.9,6.9l0,0l1,1l9.3,9.5l0.4,0.4v0.6v7.1v1.7l1.2,1.2l0,0l4.9,4.9l0.4,0.4v0.6v4.1h-6.9
		h-1.6l-4.1-8.9c0.6-0.8,1-1.8,1-2.8c0-1.3-0.5-2.4-1.4-3.3c-0.8-0.8-2-1.4-3.3-1.4c-1.3,0-2.4,0.5-3.3,1.4c-0.8,0.8-1.4,2-1.4,3.3
		c0,1.3,0.5,2.4,1.4,3.3h0c0.8,0.8,2,1.4,3.3,1.4h0l4.6,9.9c0.3,0.8,1.1,1.3,1.9,1.3h0.8l0,7.1l-8.9,7.6c-0.6-0.3-1.2-0.4-1.9-0.4
		c-1.3,0-2.4,0.5-3.3,1.4c-0.8,0.8-1.4,2-1.4,3.3s0.5,2.4,1.4,3.3c0.8,0.8,2,1.4,3.3,1.4c1.3,0,2.4-0.5,3.3-1.4
		c0.8-0.8,1.4-2,1.4-3.3c0-0.4,0-0.7-0.1-1l0,0l9.5-8c0.6-0.4,0.9-1,0.9-1.7v0l0,0l0,0l0-8h5.4l3,7.9l0.3,0.9l-0.7,0.6l-6.9,5.9
		l-3.7,3.2l0,0.5l4,2.8l7.9,5.6l0.6,0.4l0,0.7l0,10l0,0.2l0,0.2l-1.1,4.1l-8.3-1.6l-2.1-6.2l0,0c0.8-0.8,1.4-2,1.4-3.3
		c0-1.3-0.5-2.4-1.4-3.3c-0.8-0.8-2-1.4-3.3-1.4c-1.3,0-2.4,0.5-3.3,1.4c-0.8,0.8-1.4,2-1.4,3.3c0,1.3,0.5,2.4,1.4,3.3
		c0.7,0.7,1.7,1.2,2.7,1.3l2.2,6.4l-3.6,5.3c-0.1,0.1-0.2,0.3-0.2,0.5c-0.3-0.1-0.6-0.1-1-0.1c-1.3,0-2.4,0.5-3.3,1.4
		c-0.8,0.8-1.4,2-1.4,3.3c0,1.3,0.5,2.4,1.4,3.3c0.8,0.8,2,1.4,3.3,1.4s2.4-0.5,3.3-1.4c0.8-0.8,1.4-2,1.4-3.3
		c0-0.8-0.2-1.5-0.5-2.1c0.2-0.1,0.3-0.3,0.4-0.5l3.5-5l7.9,1.5l-4,15.5l-0.1,0.4l-0.3,0.3l-3.6,3.6l-1.2,1.2v1.7v3.4v0.6l-0.4,0.4
		l-3,3c0,0-0.1-0.1-0.1-0.1l-6.5-6.5c0.2-0.5,0.3-1,0.3-1.6c0-1.3-0.5-2.4-1.4-3.3c-0.8-0.8-2-1.4-3.3-1.4c-1.3,0-2.4,0.5-3.3,1.4
		c-0.8,0.8-1.4,2-1.4,3.3c0,1.3,0.5,2.4,1.3,3.2l0,0c0.8,0.8,2,1.4,3.3,1.4c0.5,0,0.9-0.1,1.4-0.2l6.6,6.6c0,0,0.1,0.1,0.1,0.1
		l-3.5,3.5l-0.4,0.4h-0.6h-7.8H102l-1.2,1.2l-3.6,3.6l-0.4,0.4l-0.6,0l-12,0v0h-5.1l-1.5,1.2l6.9,6.9h13.9h1.7l1.2-1.2l3.5-3.5
		l0.4-0.4h0.6h7.8h1.7l1.2-1.2v0l12.6-12.6h0l1.2-1.2v-1.7v-3.4v-0.6l0.4-0.4l3-3l0,0l0.8-0.8l0.3-1.1l6.7-25.7l0.1-0.5L141.7,96.6z
		 M44.2,31c-0.3,0.3-0.7,0.5-1.2,0.5c-0.5,0-0.9-0.2-1.2-0.5l0,0c-0.3-0.3-0.5-0.7-0.5-1.2s0.2-0.9,0.5-1.2l0,0
		c0.3-0.3,0.7-0.5,1.2-0.5c0.5,0,0.9,0.2,1.2,0.5c0.3,0.3,0.5,0.7,0.5,1.2C44.7,30.3,44.5,30.7,44.2,31z M57.6,22.4L57.6,22.4
		c-0.3,0.3-0.7,0.5-1.2,0.5c-0.5,0-0.9-0.2-1.2-0.5l0,0c-0.3-0.3-0.5-0.7-0.5-1.2c0-0.5,0.2-0.9,0.5-1.2c0.3-0.3,0.7-0.5,1.2-0.5
		c0.5,0,0.9,0.2,1.2,0.5c0.3,0.3,0.5,0.7,0.5,1.2C58.1,21.6,57.9,22.1,57.6,22.4z M43.1,65.3L43.1,65.3c-0.3,0.3-0.7,0.5-1.2,0.5
		s-0.9-0.2-1.2-0.5l0,0c-0.3-0.3-0.5-0.7-0.5-1.2c0-0.5,0.2-0.9,0.5-1.2c0.3-0.3,0.7-0.5,1.2-0.5c0.5,0,0.9,0.2,1.2,0.5
		c0.3,0.3,0.5,0.7,0.5,1.2C43.6,64.6,43.4,65,43.1,65.3z M101.4,23.2L101.4,23.2c0.3-0.3,0.7-0.5,1.2-0.5c0.4,0,0.9,0.1,1.2,0.5l0,0
		c0.3,0.3,0.5,0.8,0.5,1.2c0,0.4-0.1,0.9-0.5,1.2l0,0c-0.3,0.3-0.7,0.5-1.2,0.5c-0.4,0-0.9-0.1-1.2-0.5l0,0
		c-0.3-0.3-0.5-0.8-0.5-1.2C100.9,23.9,101.1,23.5,101.4,23.2z M84.9,18.3c0.3-0.3,0.7-0.5,1.2-0.5c0.5,0,0.9,0.2,1.2,0.5
		c0.3,0.3,0.5,0.7,0.5,1.2c0,0.5-0.2,0.9-0.5,1.2l0,0c-0.3,0.3-0.7,0.5-1.2,0.5c-0.5,0-0.9-0.2-1.2-0.5l0,0
		c-0.3-0.3-0.5-0.7-0.5-1.2C84.4,19.1,84.5,18.6,84.9,18.3z M113.3,42.9L113.3,42.9c-0.3,0.3-0.7,0.5-1.2,0.5
		c-0.5,0-0.9-0.2-1.2-0.5l0,0c-0.3-0.3-0.5-0.7-0.5-1.2c0-0.5,0.2-0.9,0.5-1.2c0.3-0.3,0.7-0.5,1.2-0.5c0.5,0,0.9,0.2,1.2,0.5
		c0.3,0.3,0.5,0.7,0.5,1.2C113.8,42.2,113.6,42.6,113.3,42.9z M109.8,77.6c-0.3,0.3-0.7,0.5-1.2,0.5c-0.5,0-0.9-0.2-1.2-0.5
		c-0.3-0.3-0.5-0.7-0.5-1.2s0.2-0.9,0.5-1.2c0.3-0.3,0.7-0.5,1.2-0.5c0.5,0,0.9,0.2,1.2,0.5c0.3,0.3,0.5,0.7,0.5,1.2
		S110.1,77.3,109.8,77.6z M116.7,111.6c-0.3,0.3-0.7,0.5-1.2,0.5c-0.5,0-0.9-0.2-1.2-0.5c-0.3-0.3-0.5-0.7-0.5-1.2
		c0-0.5,0.2-0.9,0.5-1.2c0.3-0.3,0.7-0.5,1.2-0.5c0.5,0,0.9,0.2,1.2,0.5c0.3,0.3,0.5,0.7,0.5,1.2C117.2,110.9,117,111.3,116.7,111.6
		z M120,90.4c-0.3,0.3-0.7,0.5-1.2,0.5c-0.5,0-0.9-0.2-1.2-0.5c-0.3-0.3-0.5-0.7-0.5-1.2c0-0.5,0.2-0.9,0.5-1.2
		c0.3-0.3,0.7-0.5,1.2-0.5c0.5,0,0.9,0.2,1.2,0.5c0.3,0.3,0.5,0.7,0.5,1.2C120.5,89.6,120.3,90.1,120,90.4z M109,127.3L109,127.3
		c-0.3,0.3-0.7,0.5-1.2,0.5c-0.5,0-0.9-0.2-1.2-0.5l0,0c-0.3-0.3-0.5-0.7-0.5-1.2c0-0.5,0.2-0.9,0.5-1.2c0.3-0.3,0.7-0.5,1.2-0.5
		c0.5,0,0.9,0.2,1.2,0.5c0.3,0.3,0.5,0.7,0.5,1.2C109.5,126.5,109.3,127,109,127.3z"/>
	<polygon points="96.8,89.2 95.6,90.5 95.6,93.3 95.6,98.8 95.6,116.3 95.6,119.2 96.7,120.3 99.3,120.3 100.2,119
		107.1,92.3 105.9,89.2 104.6,89.2 99.1,89.2 	"/>
	<polygon  points="106,63.1 100.2,37.5 99.3,36.2 96.7,36.2 95.6,37.4 95.6,40.2 95.6,56.6 95.6,62.1 95.6,64.9
		96.8,66.2 99.1,66.2 103.5,66.2 104.8,66.2 	"/>
	<path d="M82.5,117.4v10.4c0,0.6,0.3,1.2,0.7,1.6l3.1,3c0.1,0.1,0.2,0.2,0.4,0.3c-0.1,0.3-0.1,0.7-0.1,1
		c0,1.3,0.5,2.4,1.4,3.3c0.8,0.8,2,1.4,3.3,1.4c1.3,0,2.4-0.5,3.3-1.4c0.8-0.8,1.4-2,1.4-3.3c0-1.3-0.5-2.4-1.4-3.3
		c-0.8-0.8-2-1.4-3.3-1.4c-0.7,0-1.3,0.2-1.9,0.4l-0.1-0.1l-2.5-2.5v-24.2c0.4-0.2,0.8-0.5,1.1-0.8c0.8-0.8,1.4-2,1.4-3.3
		c0-1.3-0.5-2.4-1.4-3.3c-0.8-0.8-2-1.4-3.3-1.4c-1.3,0-2.4,0.5-3.3,1.4c-0.8,0.8-1.4,2-1.4,3.3c0,1.3,0.5,2.4,1.4,3.3
		c0.4,0.4,0.8,0.7,1.3,0.9v10.5H75V86.9h9.5c0.1,0,0.1,0,0.2,0c0.5,0,0.9-0.2,1.3-0.6l5.5-5.5c0.4,0.1,0.8,0.2,1.2,0.2
		c1.3,0,2.4-0.5,3.3-1.4c0.8-0.8,1.4-2,1.4-3.3s-0.5-2.4-1.4-3.3c-0.8-0.8-2-1.4-3.3-1.4c-0.5,0-1,0.1-1.5,0.3l-4.6-4.6V55.3
		c0.5-0.2,0.9-0.5,1.2-0.9c0.8-0.8,1.4-2,1.4-3.3c0-1.3-0.5-2.4-1.4-3.3c-0.8-0.8-2-1.4-3.3-1.4c-1.3,0-2.4,0.5-3.3,1.4
		c-0.8,0.8-1.4,2-1.4,3.3c0,1.3,0.5,2.4,1.4,3.3c0.4,0.4,0.8,0.7,1.2,0.9v12.6c-0.1,0.4,0,0.8,0.2,1.2l0,0c0.2,0.4,0.4,0.7,0.7,0.9
		l4.9,4.9c-0.2,0.5-0.2,1-0.2,1.5c0,0.6,0.1,1.2,0.3,1.7l-4.7,4.7H75v-4.2v-2.8l-1.3-1.3h-2.8H40.4H35h-2.8l-1.3,1.3v2.8V84v13.2
		v2.3v1.7l1.2,1.2l1.6,1.6l13.2,4.4l1.5-1.3l-2-2l-6.9-6.9l-0.4-0.4v-0.6V84v-1.4h1.4h25h1.4V84v13.6h-7.1L55.9,94l-0.1-0.1
		c0.1-0.3,0.1-0.7,0.1-1c0-1.3-0.5-2.4-1.3-3.2l0,0c-0.8-0.8-2-1.4-3.3-1.4c-1.3,0-2.4,0.5-3.3,1.4c-0.8,0.8-1.4,2-1.4,3.3
		c0,1.3,0.5,2.4,1.4,3.2l0,0c0.8,0.8,2,1.4,3.3,1.4c0.7,0,1.3-0.1,1.9-0.4l3.5,3.5v10.2l-4,4c-0.5-0.2-1.1-0.3-1.7-0.3
		c-1.3,0-2.4,0.5-3.2,1.4l0,0c-0.8,0.8-1.4,2-1.4,3.3c0,1.3,0.5,2.4,1.4,3.3l0,0c0.8,0.8,2,1.4,3.2,1.4c1.3,0,2.4-0.5,3.3-1.4
		c0.8-0.8,1.4-2,1.4-3.3c0-0.4-0.1-0.8-0.2-1.2l0.1-0.1l4.3-4.3c0.6-0.4,1-1.1,1-1.9v-9.8h5.9v38.5v0.6l-0.4,0.4l-4.5,4.5l-0.4,0.4
		h-0.6h-7.6v-6.4l2.5-2.5c0.1-0.1,0.2-0.2,0.3-0.4c0.4,0.1,0.9,0.2,1.4,0.2c1.3,0,2.4-0.5,3.3-1.4c0.8-0.8,1.4-2,1.4-3.3
		c0-1.3-0.5-2.4-1.4-3.3c-0.8-0.8-2-1.4-3.3-1.4c-1.3,0-2.4,0.5-3.2,1.3l0,0c-0.8,0.8-1.4,2-1.4,3.3c0,0.6,0.1,1.1,0.3,1.6
		c-0.1,0.1-0.2,0.1-0.3,0.2l-1.7,1.7l-7.7-7.7c-0.1-0.1-0.2-0.2-0.3-0.3l0,0l0,0c-0.5-0.3-1-0.5-1.6-0.4h-6.7l-4.1-8.9
		c0.7-0.8,1.1-1.8,1.1-3c0-1.3-0.5-2.4-1.4-3.2l0,0c-0.8-0.8-2-1.4-3.3-1.4c-1.3,0-2.4,0.5-3.3,1.4l0,0c-0.8,0.8-1.4,2-1.4,3.2
		c0,1.3,0.5,2.4,1.4,3.2l0,0c0.8,0.8,1.9,1.3,3.1,1.4l4.5,9.8c0.2,0.6,0.6,1.1,1.1,1.3l0,0l0,0c0.3,0.2,0.7,0.2,1.1,0.2h7.2l8.1,8.1
		v6.4h-3.7h-0.6l-0.4-0.4l-3.6-3.6l-1.2-1.2h-1.7h-7.8h-0.6l-0.4-0.4l-9.4-9.4l-0.4-0.4v-0.6v-3.4v-1.7l-1.2-1.2h0l-3.6-3.6
		l-0.3-0.3l-0.1-0.4L8.2,96.3l0-0.2v-0.2v-1.3l7.1,3.3l0,0.1c0,1.3,0.5,2.4,1.4,3.2l0,0c0.8,0.8,2,1.4,3.3,1.4
		c1.3,0,2.4-0.5,3.3-1.4c0.8-0.8,1.4-2,1.4-3.3s-0.5-2.4-1.4-3.3c-0.8-0.8-2-1.4-3.3-1.4c-1,0-1.9,0.3-2.7,0.9l-9-4.1l0-24.5l0-0.6
		l0.4-0.4l5.1-5.1l0,0l1.2-1.2v-1.7v-1.3h6.3l2.7,6.9c0,0.1,0.1,0.2,0.2,0.3L17.6,69c-0.4,0.4-0.6,0.9-0.6,1.4l0,0v0h0v4.7
		c-0.4,0.2-0.9,0.5-1.2,0.9c-0.8,0.8-1.4,2-1.4,3.3s0.5,2.4,1.4,3.3c0.8,0.8,2,1.4,3.3,1.4c1.3,0,2.4-0.5,3.3-1.4
		c0.8-0.8,1.4-2,1.4-3.3s-0.5-2.4-1.4-3.3c-0.4-0.4-0.8-0.6-1.2-0.9v-3.8L34,58.4c0.1-0.1,0.1-0.1,0.2-0.2l0,0l0.1-0.1l0,0l0,0l0,0
		l0,0c0.2-0.3,0.3-0.7,0.3-1.1V43.1l12.1,7c0,0.2,0,0.3,0,0.5c0,1.3,0.5,2.4,1.3,3.2l0,0c0.8,0.8,2,1.4,3.3,1.4
		c1.3,0,2.4-0.5,3.3-1.4c0.8-0.8,1.4-2,1.4-3.3c0-1.3-0.5-2.4-1.4-3.3c-0.8-0.8-2-1.4-3.3-1.4c-0.9,0-1.7,0.2-2.4,0.7l-15.2-8.8
		c-0.3-0.2-0.7-0.4-1.2-0.4c-1.1,0-2.1,0.9-2.1,2.1v16.5l-3.3,3.3l-2.7-6.8l0,0c-0.3-0.8-1.1-1.3-1.9-1.3h-7.7V49v-0.6l0.4-0.4
		l5.9-5.9l0,0l1.2-1.2v-1.7v-8.3v-0.6l0.4-0.4l14.8-14.8l0.4-0.4h0.6h4.4h1.7l1.2-1.2l5-5l0.4-0.4h0.6h10.9L63.1,7l-9.2-7h-4.5h-1.7
		l-1.2,1.2l0,0l-5,5l-0.4,0.4h-0.6h-4.4h-1.7l-1.2,1.2v0l-18,18h0L14.1,27v1.7V37v0.6l-0.4,0.4l-5.9,5.9l0,0L6.7,45v1.7v7.7V55
		l-0.4,0.4l-5.1,5.1L0,61.6v1.7v33.3v0.6l0.1,0.5l6.7,25.7l0.3,1.1l0.8,0.8l3,3l0.4,0.4v0.6v3.4v1.7l1.2,1.2L25.1,148l1.2,1.2H28
		h7.8h0.6l0.4,0.4l3.5,3.5l1.2,1.2h1.7h21h0.6L75,144.3v-0.6v-26.3H82.5z M90,132.5c0.3-0.3,0.7-0.5,1.2-0.5c0.5,0,0.9,0.2,1.2,0.5
		c0.3,0.3,0.5,0.7,0.5,1.2c0,0.5-0.2,0.9-0.5,1.2c-0.3,0.3-0.7,0.5-1.2,0.5c-0.5,0-0.9-0.2-1.2-0.5c-0.3-0.3-0.5-0.7-0.5-1.2
		C89.5,133.3,89.7,132.8,90,132.5z M83.3,97.4c0.3-0.3,0.7-0.5,1.2-0.5c0.5,0,0.9,0.2,1.2,0.5c0.3,0.3,0.5,0.7,0.5,1.2
		s-0.2,0.9-0.5,1.2c-0.3,0.3-0.7,0.5-1.2,0.5c-0.5,0-0.9-0.2-1.2-0.5c-0.3-0.3-0.5-0.7-0.5-1.2S83,97.7,83.3,97.4z M85.6,52.3
		c-0.3,0.3-0.7,0.5-1.2,0.5c-0.5,0-0.9-0.2-1.2-0.5c-0.3-0.3-0.5-0.7-0.5-1.2c0-0.5,0.2-0.9,0.5-1.2c0.3-0.3,0.7-0.5,1.2-0.5
		c0.5,0,0.9,0.2,1.2,0.5c0.3,0.3,0.5,0.7,0.5,1.2C86.1,51.6,85.9,52,85.6,52.3z M91.4,75.2c0.3-0.3,0.7-0.5,1.2-0.5
		c0.5,0,0.9,0.2,1.2,0.5c0.3,0.3,0.5,0.7,0.5,1.2s-0.2,0.9-0.5,1.2c-0.3,0.3-0.7,0.5-1.2,0.5c-0.5,0-0.9-0.2-1.2-0.5
		c-0.3-0.3-0.5-0.7-0.5-1.2S91.1,75.5,91.4,75.2z M52.6,94.1L52.6,94.1c-0.3,0.3-0.7,0.5-1.2,0.5c-0.5,0-0.9-0.2-1.2-0.5l0,0
		c-0.3-0.3-0.5-0.7-0.5-1.2c0-0.5,0.2-0.9,0.5-1.2c0.3-0.3,0.7-0.5,1.2-0.5c0.5,0,0.9,0.2,1.2,0.5l0,0c0.3,0.3,0.5,0.7,0.5,1.2
		C53.1,93.3,52.9,93.8,52.6,94.1z M52.2,120.2c-0.3,0.3-0.7,0.5-1.2,0.5c-0.5,0-0.9-0.2-1.2-0.5l0,0c-0.3-0.3-0.5-0.7-0.5-1.2
		c0-0.5,0.2-0.9,0.5-1.2l0,0c0.3-0.3,0.7-0.5,1.2-0.5c0.5,0,0.9,0.2,1.2,0.5c0.3,0.3,0.5,0.7,0.5,1.2
		C52.7,119.4,52.5,119.9,52.2,120.2z M56.2,131.4L56.2,131.4c0.3-0.3,0.7-0.5,1.2-0.5c0.5,0,0.9,0.2,1.2,0.5
		c0.3,0.3,0.5,0.7,0.5,1.2c0,0.5-0.2,0.9-0.5,1.2c-0.3,0.3-0.7,0.5-1.2,0.5c-0.5,0-0.9-0.2-1.2-0.5l0,0c-0.3-0.3-0.5-0.7-0.5-1.2
		C55.8,132.1,55.9,131.7,56.2,131.4z M28.5,117L28.5,117c-0.3,0.3-0.7,0.5-1.2,0.5c-0.5,0-0.9-0.2-1.2-0.5l0,0
		c-0.3-0.3-0.5-0.7-0.5-1.2c0-0.5,0.2-0.9,0.5-1.2l0,0c0.3-0.3,0.7-0.5,1.2-0.5c0.5,0,0.9,0.2,1.2,0.5l0,0c0.3,0.3,0.5,0.7,0.5,1.2
		C29,116.3,28.8,116.7,28.5,117z M18.7,96.8c0.3-0.3,0.7-0.5,1.2-0.5c0.5,0,0.9,0.2,1.2,0.5c0.3,0.3,0.5,0.7,0.5,1.2
		c0,0.5-0.2,0.9-0.5,1.2c-0.3,0.3-0.7,0.5-1.2,0.5c-0.5,0-0.9-0.2-1.2-0.5l0,0c-0.3-0.3-0.5-0.7-0.5-1.2
		C18.2,97.5,18.4,97.1,18.7,96.8z M20.2,80.5C19.9,80.8,19.5,81,19,81c-0.5,0-0.9-0.2-1.2-0.5c-0.3-0.3-0.5-0.7-0.5-1.2
		s0.2-0.9,0.5-1.2c0.3-0.3,0.7-0.5,1.2-0.5c0.5,0,0.9,0.2,1.2,0.5c0.3,0.3,0.5,0.7,0.5,1.2S20.5,80.2,20.2,80.5z M50.1,49.4
		L50.1,49.4c0.3-0.3,0.7-0.5,1.2-0.5c0.5,0,0.9,0.2,1.2,0.5c0.3,0.3,0.5,0.7,0.5,1.2c0,0.5-0.2,0.9-0.5,1.2
		c-0.3,0.3-0.7,0.5-1.2,0.5c-0.5,0-0.9-0.2-1.2-0.5l0,0c-0.3-0.3-0.5-0.7-0.5-1.2C49.6,50.2,49.8,49.7,50.1,49.4z"/>
</g>
<path fill-rule="evenodd" clip-rule="evenodd"  d="M194.9,75.6h17.8v23.2c-2.9,0.9-5.6,1.6-8.1,2
	c-2.5,0.4-5.1,0.6-7.8,0.6c-6.8,0-11.9-2-15.5-6c-3.6-4-5.3-9.7-5.3-17.1c0-7.2,2.1-12.9,6.2-16.9c4.1-4,9.9-6.1,17.2-6.1
	c4.6,0,9,0.9,13.3,2.8l-3.2,7.6c-3.3-1.6-6.7-2.4-10.2-2.4c-4.1,0-7.4,1.4-9.9,4.1c-2.5,2.7-3.7,6.5-3.7,11.1c0,4.9,1,8.6,3,11.1
	c2,2.6,4.9,3.8,8.7,3.8c2,0,4-0.2,6-0.6v-9.4h-8.5V75.6L194.9,75.6z M235.2,72.5c-2,0-3.5,0.6-4.7,1.9c-1.1,1.3-1.8,3-1.9,5.3h13.1
	c0-2.3-0.6-4.1-1.8-5.3C238.7,73.1,237.1,72.5,235.2,72.5L235.2,72.5z M236.5,101.3c-5.5,0-9.8-1.5-12.9-4.6
	c-3.1-3-4.7-7.3-4.7-12.9c0-5.7,1.4-10.2,4.3-13.3c2.9-3.1,6.8-4.7,11.9-4.7c4.8,0,8.6,1.4,11.3,4.1c2.7,2.8,4,6.6,4,11.4v4.5h-22.1
	c0.1,2.7,0.9,4.7,2.4,6.2c1.5,1.5,3.5,2.2,6.2,2.2c2.1,0,4-0.2,5.9-0.6c1.8-0.4,3.8-1.1,5.8-2v7.2c-1.6,0.8-3.4,1.4-5.2,1.8
	C241.4,101.1,239.2,101.3,236.5,101.3L236.5,101.3z M270.6,72.5c-2,0-3.5,0.6-4.7,1.9c-1.1,1.3-1.8,3-1.9,5.3h13.1
	c0-2.3-0.6-4.1-1.8-5.3C274.1,73.1,272.6,72.5,270.6,72.5L270.6,72.5z M271.9,101.3c-5.5,0-9.8-1.5-12.9-4.6
	c-3.1-3-4.7-7.3-4.7-12.9c0-5.7,1.4-10.2,4.3-13.3c2.9-3.1,6.8-4.7,11.9-4.7c4.8,0,8.6,1.4,11.3,4.1c2.7,2.8,4,6.6,4,11.4v4.5h-22.1
	c0.1,2.7,0.9,4.7,2.4,6.2c1.5,1.5,3.5,2.2,6.2,2.2c2.1,0,4-0.2,5.9-0.6c1.8-0.4,3.8-1.1,5.8-2v7.2c-1.6,0.8-3.4,1.4-5.2,1.8
	C276.9,101.1,274.6,101.3,271.9,101.3L271.9,101.3z M300.8,82.1l4.1-5.2l9.6-10.4H325l-13.6,14.9l14.4,19.4H315l-9.9-13.9l-4,3.2
	v10.7h-9.3V53h9.3v21.3l-0.5,7.8H300.8L300.8,82.1z M332.4,55.9h13.9c6.4,0,11,0.9,13.8,2.7c2.9,1.8,4.3,4.7,4.3,8.6
	c0,2.7-0.6,4.9-1.9,6.6c-1.3,1.7-2.9,2.7-5,3.1v0.3c2.8,0.6,4.9,1.8,6.1,3.6c1.3,1.7,1.9,4,1.9,6.9c0,4.1-1.5,7.3-4.4,9.6
	c-2.9,2.3-7,3.4-12,3.4h-16.8V55.9L332.4,55.9z M341.9,73.7h5.5c2.6,0,4.4-0.4,5.6-1.2c1.1-0.8,1.7-2.1,1.7-4c0-1.7-0.6-2.9-1.9-3.7
	c-1.3-0.7-3.2-1.1-6-1.1h-5V73.7L341.9,73.7z M341.9,81.2v11.7h6.2c2.6,0,4.5-0.5,5.8-1.5c1.3-1,1.9-2.5,1.9-4.6
	c0-3.7-2.7-5.6-8-5.6H341.9L341.9,81.2z M391.2,65.8c1.3,0,2.3,0.1,3.2,0.3l-0.7,8.8c-0.8-0.2-1.7-0.3-2.8-0.3c-3,0-5.3,0.8-7,2.3
	c-1.7,1.5-2.5,3.7-2.5,6.4v17.4h-9.3V66.5h7.1l1.4,5.8h0.5c1.1-1.9,2.5-3.5,4.3-4.6C387.2,66.4,389.1,65.8,391.2,65.8L391.2,65.8z
	 M419.5,100.7l-1.8-4.7h-0.2c-1.6,2-3.2,3.4-4.9,4.1c-1.7,0.8-3.8,1.1-6.5,1.1c-3.3,0-5.9-0.9-7.8-2.8c-1.9-1.9-2.8-4.6-2.8-8
	c0-3.6,1.3-6.3,3.8-8c2.5-1.7,6.4-2.7,11.5-2.9l5.9-0.2v-1.5c0-3.5-1.8-5.2-5.3-5.2c-2.7,0-5.9,0.8-9.6,2.5l-3.1-6.3
	c3.9-2.1,8.3-3.1,13.1-3.1c4.6,0,8.1,1,10.6,3c2.5,2,3.7,5,3.7,9.1v22.8H419.5L419.5,100.7z M416.7,84.8l-3.6,0.1
	c-2.7,0.1-4.7,0.6-6.1,1.5c-1.3,0.9-2,2.3-2,4.1c0,2.6,1.5,4,4.5,4c2.2,0,3.9-0.6,5.2-1.9c1.3-1.2,1.9-2.9,1.9-5V84.8L416.7,84.8z
	 M433.6,57.6c0-3,1.7-4.6,5.1-4.6c3.4,0,5.1,1.5,5.1,4.6c0,1.5-0.4,2.6-1.3,3.4c-0.8,0.8-2.1,1.2-3.8,1.2
	C435.3,62.2,433.6,60.7,433.6,57.6L433.6,57.6z M443.3,100.7H434V66.5h9.3V100.7L443.3,100.7z M483.1,100.7h-9.3v-20
	c0-2.5-0.4-4.3-1.3-5.6c-0.9-1.2-2.3-1.9-4.2-1.9c-2.6,0-4.5,0.9-5.7,2.6c-1.2,1.7-1.7,4.6-1.7,8.7v16.1h-9.3V66.5h7.1l1.3,4.4h0.5
	c1-1.7,2.5-2.9,4.3-3.8c1.8-0.8,3.9-1.3,6.2-1.3c4,0,7,1.1,9.1,3.2c2.1,2.2,3.1,5.3,3.1,9.3V100.7L483.1,100.7z M514.9,90.5
	c0,3.5-1.2,6.2-3.7,8c-2.4,1.8-6.1,2.8-10.9,2.8c-2.5,0-4.6-0.2-6.4-0.5c-1.8-0.3-3.4-0.8-4.9-1.5v-7.7c1.7,0.8,3.7,1.5,5.9,2
	c2.2,0.6,4.1,0.8,5.7,0.8c3.4,0,5.1-1,5.1-2.9c0-0.7-0.2-1.3-0.7-1.8c-0.4-0.5-1.2-1-2.3-1.6c-1.1-0.6-2.6-1.3-4.4-2
	c-2.6-1.1-4.6-2.1-5.8-3.1c-1.2-0.9-2.1-2-2.7-3.2c-0.6-1.2-0.8-2.7-0.8-4.5c0-3,1.2-5.4,3.5-7c2.4-1.7,5.7-2.5,10-2.5
	c4.1,0,8.1,0.9,12,2.7l-2.8,6.7c-1.7-0.7-3.3-1.3-4.8-1.8c-1.5-0.5-3-0.7-4.6-0.7c-2.8,0-4.1,0.7-4.1,2.2c0,0.8,0.4,1.6,1.3,2.2
	c0.9,0.6,2.8,1.5,5.8,2.7c2.7,1.1,4.6,2.1,5.9,3c1.2,0.9,2.2,2,2.8,3.2C514.6,87.4,514.9,88.8,514.9,90.5z"/>
</svg>