<svg xmlns="http://www.w3.org/2000/svg" viewBox="0 0 100 100">
                        <path d="M61.3 17c.5.1.7.6.6 1.1-.1.5-.6.7-1.1.6-.5-.1-.7-.6-.6-1.1.1-.5.6-.8 1.1-.6zM50.2 83.4c.5.1.7.6.6 1.1-.1.5-.6.7-1.1.6-.5-.1-.7-.6-.6-1.1.2-.5.6-.7 1.1-.6zM17.5 33.9zm.1.1c.1 0 .1 0 .1-.1 0 0 0-.1.1-.1l.1-.1h.2l.5.4c.1.1.2.1.3.2s.2.2.3.2l.9.6c.1.1.2.2.4.2.1.1.2.2.3.2.2.1.3.2.4.2 0 0 .1 0 .1.1v.1l-.1.2v.2h.1s.1 0 .2-.1l.3-.5 1.4-2.3s0-.1.1-.1l.1-.1c0-.1.1-.2.2-.3v-.2-.1l1-1.6s0-.1.1-.1l.1-.2s.1-.1.1-.2.1-.2.2-.2v-.2s0-.1-.1-.2l-.2.2h-.1-.1s-.1 0-.2-.1c-.1 0-.2-.1-.3-.2h-.2c-.1-.1-.2-.2-.3-.2-.1-.1-.2-.2-.4-.2l-.9-.6-.7-.4-.5-.3c-.1-.1-.2-.1-.2-.2l.1-.2v-.1s0-.1-.1-.1h-.1s-.1 0-.1.1l-.3.5-.1.9v.1s0 .1.1.2h.2s.1 0 .1-.1c0 0 .1-.1.1-.2h.1l.2.1.4.2.7.4.9.5c.2.1.3.2.4.2.1.1.2.2.4.2.1.1.2.1.3.2.1 0 .1.1.2.1l.1.1-1 1.5c-.1 0-.2-.1-.4-.2h-.2c-.1-.1-.2-.2-.3-.2s-.2-.1-.4-.2l-.9-.6c-.2-.1-.4-.2-.5-.4l-.3.1c-.2-.2-.4-.2-.4-.3l-.2-.2.1-.2v-.1s0-.1-.1-.1h-.1s-.1 0-.1.1l-.3.5-.4.7v.1s0 .1.1.2h.2s.1 0 .1-.1h.1s.1 0 .2.1l.2.2.3.2.3.2.4.2.9.6c.2.1.4.2.5.4l.1.1h.1c.2.1.3.2.4.2 0 0 .1 0 .1.1l-1 1.3c-.1 0-.2-.1-.2-.1-.1 0-.2-.1-.3-.2-.1-.1-.2-.1-.3-.2-.1 0-.2-.1-.4-.2l-.9-.5c-.1 0-.2-.1-.3-.2-.2-.1-.3-.2-.4-.3l-.4-.2c-.1 0-.1-.1-.2-.1-.1-.1-.1-.1-.1-.2l.1-.2v-.1s0-.1-.1-.1h-.1-.1s-.1 0-.1.1l-.3.5-.4.6c.1.1.1.1.1.2.1.1.1.2.2.2-.3-.2-.3-.2-.2-.2zm6.8-2.8zM22 35.1zm2-2.4zm-2.6 3.1zm2.8-5.7zm.2 1.2zm20.4-12c-.1 0-.1 0 0 0zm.1-.2zm3.4-.5s0-.1-.1-.1h-.1-.1s-.1 0-.1-.1l-.2-.2c-.1-.1-.1-.2-.2-.3-.2-.2-.3-.5-.4-.7-.1-.2-.2-.4-.4-.6-.2-.2-.3-.6-.5-1l-.2-.2-.2-.3-.3-.6-.1-.1-.1-.1s0-.1-.1-.1v-.1s-.1 0-.1-.1H45V14.3l-1 4.2c0 .1-.1.2-.1.3 0 .1-.1.1-.2.1H43.4h-.1v.1c0 .1.1.1.1.2h1.5c.1 0 .2 0 .2-.1s0-.1-.1-.1h-.2v-.1-.2-.1-.1L45 17l.3-1.6.7 1.4.2.3.8 1.5v.1c0 .1.1.1.2.1h.1l1-.1c.1 0 .2 0 .2-.1-.2.1-.2.1-.2 0zm-4.5.3zm.9.1zm2.1-.3zm-11.4-1.4zm3.4 1c0-.1-.1-.2-.1-.3-.2-.4-.4-.6-.6-.9-.2-.2-.5-.4-.9-.5-.2-.1-.5-.1-.7-.1h-.2c-.4 0-.7.1-1 .3-.5.3-1 .6-1.2 1.1 0 .1-.1.2-.1.3 0 .1-.1.2-.1.3-.1.2-.1.5-.1.7v.2c0 .3.1.6.2.9.2.3.3.6.5.8s.5.4.8.5c.3.2.7.2 1 .2.2 0 .4 0 .5-.1.1 0 .2 0 .3-.1.1 0 .2-.1.3-.1.4-.2.7-.4.9-.6.2-.3.4-.6.5-.9.1-.3.2-.5.2-.8 0-.2 0-.4-.1-.6 0-.1 0-.2-.1-.3zm-.5 1.4v.2c0 .2 0 .3-.1.4 0 .1-.2.3-.2.4l-.2.2c-.1.1-.2.1-.3.2-.2.1-.5.2-.7.2-.2 0-.5 0-.7-.2-.4-.2-.7-.4-.9-.8 0-.1-.1-.2-.2-.2 0-.1-.1-.2-.1-.3-.2-.3-.2-.6-.2-.8v-.2c0-.2 0-.4.1-.5.1-.3.3-.5.5-.7 0 0 .1-.1.2-.1s.1-.1.2-.1c.2-.1.5-.2.7-.2.2 0 .4 0 .7.2.4.2.7.4.9.8 0 .1.1.2.2.2 0 .1.1.2.1.3.2.4.3.7.3 1-.3-.1-.3-.1-.3 0 0-.1 0 0 0 0zM29.7 26h-.1-.1l-.2.1h-.1s-.1 0-.1-.1c-.1-.1-.2-.2-.2-.3l-.1-.1-.1-.1c-.1-.1-.2-.2-.2-.3l-.3-.2-.2-.2h.3c.2 0 .5.1.9.2.5.1.9.1 1.1.2h.8c.1 0 .2-.1.3-.1h.2l.2-.1.2-.2s.1 0 .1-.1v-.1-.1l-.1-.1h-.1-.1s-.1 0-.2.1h-.5-.1-1.4c-.3 0-.5-.1-.7-.1h-.4c-.2 0-.4-.1-.5-.1V24c0-.2.1-.5.1-.9 0-.2 0-.4.1-.5v-.1-.4-.2c0-.1 0-.1.1-.2 0-.1.1-.2.1-.2l.1-.1v-.1h-.1-.1l-.3-.1-.4.3-.1.1v.1l.1.1h.1V22.1l-.1.6v1.6-.1l-.2-.2-.4-.5c-.2-.2-.2-.3-.3-.4 0-.1-.1-.1-.1-.2v-.1l.1-.1.1-.1v-.1l-.1-.1h-.1l-.5.4c-.1 0-.2.1-.2.2-.1 0-.2.1-.2.2h-.1l-.1.1v.2l.1.1h.1s.1 0 .1-.1H26.1l.2.2.2.3.4.5.7.9c.1.2.3.4.4.5v.1l.1.1c.1.2.2.3.2.4 0 0 0 .1.1.1l-.1.1v.1l.1.1h.1l.5-.4s.1-.1.2-.1c0 0 .1-.1.2-.1s.1-.1.2-.2l.1-.1c0 .2 0 .2 0 0 .1.1.1.1 0 0zm-2-4.2zm-2.3 1.4zm1.4-.8zm-1.5 1.1zm2.2-1.9zM19 46zm-5 .3v.2s0 .1.1.2c.1.2.2.4.4.5.2.1.4.2.7.2h.2c.2 0 .3 0 .4-.1h.2c.2-.1.3-.2.4-.3l.2-.2c.1.1.2.2.3.2.2.1.3.2.4.3.1.1.3.2.4.3l.3.3c.1.1.1.2.2.2 0 .1.1.2.1.2v.4c.1 0 .1 0 .2-.1V48v-.3-.2-.2c0-.1-.1-.2-.2-.2-.1-.1-.1-.2-.2-.2.1.1 0 .1-.1 0s-.2-.2-.4-.3l-.8-.6.1-.6h.9c.2 0 .3 0 .4.1h.2v.4s.1 0 .2-.1v-.5-.2-.2l.1-.6v-.1c0-.1-.1-.1-.1-.1h-.1s0 .1-.1.1v.2h-.1-.1H17l-1.1-.2c-.2 0-.4 0-.6-.1h-.2l-.5-.1c-.1 0-.1 0-.2-.1v-.2-.1-.1l-.1-.1s-.1 0-.2.1v.1l-.1.7c0 .2 0 .3-.1.4V45.6c0 .3 0 .5.1.7zm.4-.7v-.2-.2c0-.1 0-.2.1-.2l1.9.2V45.5c0 .2-.1.3-.2.4l-.3.3c-.2.1-.4.2-.6.2h-.1-.2c-.2 0-.3-.1-.4-.1l-.2-.2c0-.1-.1-.2-.1-.2v-.2c.1 0 .1 0 .1-.1zm.1-1.7zm-.4 0zm4.4 12.7c.1 0 .2 0 .2.1.1 0 .1 0 .2.1.1 0 .1.1.2.2V57.3h.1c.1 0 .1-.1.1-.1v-.1-.4-.2-.7-.1s-.1-.1-.2-.1-.1 0-.1.1v.1h-.1H18.6l-1.1-.2-.5-1.2 1.4-.8h.1c.1 0 .2-.1.2-.2l-.1-1v-.2s-.1-.1-.2-.1-.1.1-.2.2v.2l-.2.2c-.1.1-.2.1-.3.2-.2.1-.4.2-.7.4-.2.1-.4.2-.6.4-.2.2-.6.3-1 .5l-.2.1-.2.2c-.2.1-.4.2-.6.4l-.1.1-.1.1s-.1 0-.1.1H14s0 .1-.1.1v.1H14.2l4.3 1.2zm.1-2.9zm-1.9 1l.1.9-1.4-.2 1.3-.7zm-.8 7.9zm1.9 4zm-1.7-4zm6.5 4.3h.2l.2.1s0 .1.1.1V67v-.1l-.1-.7-1.1-2.5c0-.1 0-.1-.1-.2 0 0 0-.1-.1-.2 0-.1-.1-.2-.1-.2V63l-.8-1.7c0-.1 0-.1-.1-.2V61c0-.1-.1-.2-.1-.3v-.1s0-.1-.1-.1h-.1-.1v.2l.1.3s-.1 0-.1.1c-.1 0-.2.1-.3.2h-.2c-.1 0-.2.1-.4.2-.1 0-.2.1-.4.2l-1 .5c-.1 0-.3.2-.5.2l-.2.1-.4.2-.2.1h-.2-.1l-.1-.1s0-.1-.1-.1h-.1-.1c-.1 0-.1.1-.1.2v.1l.3.5.3.7s0 .1.1.1h.2s.1-.1.1-.2c0 0 0-.1-.1-.2h.1l.6-.3.6-.3h.1l1-.4c.2-.1.3-.1.4-.2.1-.1.3-.1.4-.2.2-.1.3-.1.4-.2h.1l.8 1.6c-.1 0-.2.1-.2.1-.1 0-.2.1-.3.2-.2.1-.4.2-.5.2h-.2l-1 .5-.4.2H18l-.5.2h-.2s-.1 0-.1-.1l-.1-.1s0-.1-.1-.1h-.1-.1s-.1.1-.1.2v.1l.3.5.3.6s0 .1.1.1h.2l.1-.1v-.1-.1-.1l.3-.1.3-.2h.1c.1 0 .3-.1.5-.3l1-.5.6-.3h.2c.2-.1.3-.1.4-.2h.2L22 66h-.1c-.1 0-.2.1-.3.2l-.1.1-.6.3-.9.4-.8.4-.3.1-.2.1h-.2-.1l-.1-.1s0-.1-.1-.1h-.1-.1c-.1 0-.1.1-.1.2v.1l.3.5.3.7s0 .1.1.1h.2l.1-.1v-.1-.1-.1h.1c.1 0 .2-.1.3-.2l.3-.1.4-.2.3-.2 1-.5.6-.3h.2c.2-.1.3-.1.4-.2h.1zm.9 5.8zm-.1 0zm4.3-.7c0-.1-.1-.2-.2-.3-.1-.1-.2-.2-.2-.3-.1-.1-.2-.2-.2-.3l-.2-.2c-.1-.1-.2-.2-.3-.2-.1-.1-.2-.1-.2-.2-.1 0-.2-.1-.2-.1h-.1-.1-.1c-.1 0-.2.1-.2.2h-.1c-.1.1-.2.1-.2.2l-.1.1s0 .1-.1.1v.2H25.5s.1 0 .2-.1h.4c.1 0 .2 0 .2.1l.3.3.1.1.1.1c.2.2.4.5.5.7.1.2.1.5.1.7v.1c0 .3-.1.6-.2.8s-.3.5-.5.7c-.2.2-.4.4-.7.5-.2.1-.4.2-.6.2h-.2c-.2 0-.4 0-.6-.1-.2-.1-.5-.3-.7-.6-.2-.2-.3-.3-.4-.5-.1-.2-.2-.3-.2-.4v-.2c0-.1 0-.2.1-.4 0 0 0-.1.1-.1 0 0 0-.1.1-.1l.1-.1v-.1-.1h-.1-.1l-.2.2-.1.1s-.1.1-.2.1c0 0-.1.1-.2.1 0 0-.1.1-.2.1 0 0 0 .1-.1.1v.2c.1.2.2.2.2.3l.2.3c.1.1.2.2.2.3l.3.3c.5.5 1 .8 1.5.9h.6c.4 0 .9-.2 1.2-.4.1 0 .2-.1.2-.2.1 0 .1-.1.2-.2.3-.3.5-.6.7-.9.2-.3.2-.7.2-1 .1-.1-.1-.5-.3-1zm5.7 10.5zm.7-2zm-.7 2zm3.6-3.9l-.5-.3-.7-.5c-.4-.2-.7-.3-1-.3h-.4c-.2 0-.4.1-.5.2-.2.1-.3.3-.4.4-.1.2-.2.4-.2.6v.1c0 .2 0 .3.1.5.1.3.3.5.5.7 0 0 .1.1.2.1 0 0 .1.1.2.1l.2.1s.1 0 .1.1c0 0 .1 0 .1.1l-.9 1.5c-.1.1-.1.2-.2.2h-.1-.1s-.1 0-.1.1v.1s0 .1.1.2l.5.3.5.4h.1s.1 0 .1-.1v-.1-.1s0-.1-.1-.1h-.1v-.1-.1l.2-.3.2-.3c.1-.1.2-.4.4-.6l.5-1c.1-.2.2-.3.2-.4.1-.1.2-.2.2-.4.1-.2.2-.3.2-.4 0 0 0-.1.1-.1h.1l.2.1h.2v-.1c.1-.5.1-.5.1-.6zm-2.2 1.7zm.9-1.6s0 .1-.1.2l-.7 1.2-.1.1s-.1 0-.2-.1c-.3-.2-.4-.4-.5-.5v-.2-.2-.2-.3c0-.2.1-.3.2-.4.1-.1.2-.2.2-.3.1-.1.2-.1.3-.1H35.1c.1 0 .2 0 .3.1 0 0 .1.1.2.1 0 0 .1 0 .1.1l.1.1c-.1.3-.1.3-.1.4 0-.1 0 0 0 0zm-2.3 3.8zm-3.4-2zm3.7-3.7zm-.5.4s0-.1 0 0l.1-.1.2.1h.2v-.1s0-.1-.1-.1l-.6-.4s-.1 0-.1-.1l-.2-.1c-.1 0-.2-.1-.3-.2h-.2-.1c-.1 0-.1 0-.2.1v.1l.1.1.2.2V77c0 .1-.1.2-.2.3v.2c0 .1-.1.2-.2.3-.1.2-.2.3-.2.4l-.5 1-.3.5-.1.2-.2.4c0 .1-.1.1-.1.2s-.1.2-.2.2l-.2-.1h-.1s-.1 0-.1.1v.2s0 .1.1.1l.5.3.5.4h.2v-.1-.1l-.1-.1v-.1-.2l.2-.3.2-.2.4-.7.5-1c.1-.2.2-.3.2-.4.1-.1.2-.2.2-.4.1-.2.2-.3.2-.4l.3-.5zm-1 .1zM44.7 81h-.1l-.6-.1-.8-.2c-.2 0-.4-.1-.5-.1s-.4 0-.5.1c-.1 0-.1 0-.2.1 0 0-.1 0-.2.1-.2.1-.3.2-.4.4-.1.2-.2.4-.2.5v.3c0 .2 0 .3.1.5 0 0 0 .1.1.2 0 0 0 .1.1.2.1.2.2.3.3.4l.2.2c-.1.1-.2.2-.3.2h-.1c-.1.1-.2.3-.3.5V85.2c.1.2.4.4.6.5 0 0 .1 0 .2.1h.8l.7.2h.1c.1 0 .1-.1.1-.1v-.1s-.1 0-.1-.1h-.1-.1v-.1-.1-1.2l.1-.4.3-1.1c0-.2.1-.5.2-.7v-.2c0-.2.1-.3.1-.4 0 0 0-.1.1-.1h.1c.4-.3.4-.3.3-.4zm-2.1 4.3c-.1 0-.1 0 0 0h-.1-.1c-.1 0-.2-.1-.3-.2-.1-.1-.2-.2-.2-.3 0-.1-.1-.2-.1-.4v-.1-.1-.1c0-.1 0-.2.1-.2 0-.1.1-.1.1-.2 0 0 .1 0 .1-.1h.6l-.1 1.7zm.8-3.9v.2c0 .1 0 .2-.1.3l-.3 1.4h-.5s-.1 0-.1-.1l-.1-.1c-.1-.1-.2-.3-.3-.5v-.1-.1-.2-.2-.1-.1c0-.2.1-.4.2-.5h.2c.1 0 .2 0 .2-.1h.7l.1.1v.1c0-.1 0-.1 0 0zM57.9 84zm1.6 1zm-2.5.9zm-1.4-5zm5.7 3.7s0-.1-.1-.1h-.1-.1-.1-.1V84.2c0-.1-.1-.2-.1-.4v-.2l-.3-.6-.7-2.9V80s0-.1-.1-.1l-.1-.1s-.1 0-.1.1v.2l-.5.9-.6 1.2c0 .1-.1.2-.1.3 0 .1-.1.2-.1.3-.2.3-.3.6-.4.9-.1.2-.2.5-.4.7l-.4-1.6c0-.2-.1-.3-.1-.4 0-.1-.1-.3-.1-.4 0-.1 0-.2-.1-.3v-.2-.1-.1l.2-.1s.1 0 .1-.1-.1-.1-.1-.1h-1.4c-.1 0-.2 0-.3.1 0 0-.1 0-.1.1l-.1.1h.4v.1c0 .1 0 .1.1.2 0 .1 0 .2.1.2s0 .2.1.3c0 .1 0 .2.1.4 0 .2.1.3.1.4l.3 1.1.4 1.7c0 .1 0 .2.1.2s.1 0 .1-.1v-.1c.2-.4.4-.8.5-1.2l.1-.2.1-.2c.2-.3.3-.7.5-1l.1-.2.1-.2c.2-.4.4-.7.5-1v-.1l.7 3v.2h-.2s-.1 0-.1.1v.1l.1.1h.1l.6-.2.7-.2c.1 0 .2 0 .2-.1h.6zm7.2-3.4zm-.8.5zm2.2-1.5h-.1-.1-.1-.1l-.1-.1c-.1-.1-.1-.2-.2-.3l-.2-.2c-.1-.2-.2-.3-.3-.5v-.2l-.6-.9c-.1-.1-.2-.3-.2-.4-.1-.1-.2-.2-.2-.4-.1-.2-.2-.3-.2-.4v-.1-.1l.2-.1s0-.1.1-.1c0 0-.1-.1-.2-.1h-.1l-.5.4s-.1 0-.1.1l-.2.1c-.1 0-.2.1-.3.2h-.1l-.1.1v.2h.1l.2-.1h.1l.1.1c0 .1.1.2.2.3v.2l.2.3c.1.1.1.2.2.4l.2.3c-.2 0-.4-.1-.6-.2-.1 0-.2 0-.2-.1-.1 0-.2-.1-.3-.1-.4-.1-.7-.2-.9-.2-.2 0-.4-.1-.5-.1h-.4-.5-.1-.1-.1-.1l-.2.1-.3.2-.1.1v.2l.1.1h1.2c.1 0 .2 0 .4.1.1 0 .2 0 .4.1H65.5c.3.1.5.1.7.2.2 0 .3.1.4.1.2 0 .3.1.4.1h.1c0 .1 0 .2-.1.3 0 .2-.1.5-.2.9 0 .2-.1.4-.2.5v.4c0 .1 0 .2-.1.2 0 .1-.1.1-.1.2-.1.1-.1.2-.2.2 0 0-.1 0-.1.1v.2s.1.1.2.1h.1l.5-.4.4-.2s.1 0 .1-.1v-.1-.1l-.1-.1v-.4l.1-.3.1-.3.1-.3c0-.2.1-.4.2-.6 0-.1 0-.2.1-.2v.1c.1.1.1.2.2.3l.2.4.1.2.2.3V81.1l-.1.1-.1.1v.2l.1.1h.1l.5-.4s.1 0 .1-.1l.2-.1c.1 0 .2-.1.2-.2 0 0 .1 0 .1-.1v-.1-.1c.3-.3.3-.3.2-.3zm8.4-7.4c-.1-.1-.1-.1-.2-.1 0 0-.1 0-.1.1l-.1.1h-.1-.1l-.1-.1-.5-.4-.4-.4h-.2l-2.2-2-.1-.1h-.1V70.2l.2.9c.1.4.2.9.2 1.4v.6c0 .3.1.6.2.9 0 .3.1.5.1.8l-1.2-1.1-.3-.3-.3-.3-.2-.2-.2-.2c0-.1-.1-.1-.1-.2l.1-.2v-.1-.1h-.1-.1s-.1 0-.1.1l-.4.5-.1.1-.1.1-.2.2-.2.2-.1.1v.1h.1l.2-.2h.1l.1.1.2.2c.1 0 .2.1.2.2.1.1.2.2.3.2s.2.2.3.3l.8.7 1.3 1.2s.1.1.2.1v-.2c-.1-.4-.2-.9-.2-1.3v-.6c0-.3-.1-.7-.2-1.1v-.4c0-.4-.1-.7-.2-1.1v-.1l2.3 2c.1.1.1.1.1.2l-.1.1v.1h.2c.1 0 .1 0 .1-.1l.4-.5.5-.5s.1-.1.1-.2c.3.3.3.2.3.2zm-6.9.7zm12.4-10.4L80.1 61h-.2v-.1-.1-.1h-.1-.1l-.1.1-.2.5-.2.5v.1c0 .1 0 .1.1.2V62v-.1l.3.1 2.2 1.2H80.3l-1.5-.2h-.2-.1s-.1 0-.1.1V63.4l.1.1.1.1 2.1 2.4-2.7-.8s0-.1-.1-.1h-.1c-.1 0-.2 0-.2.1l-.2.4-.3.6v.2c0 .1 0 .2.1.2h.1l.1-.1v-.1-.1s0-.1.1-.1c0 0 .1-.1.2-.1h.4l3.8 1.1h.2v-.1-.1s0-.1-.1-.1l-2.8-3.1 4.2-.2h.2v-.1c0-.1.2-.2.2-.4.1.1 0 .1 0 0zm-5.8 2zm3.5-10.5zm4.6-1.4c-.1-.4-.3-.7-.6-.9-.2-.2-.5-.4-.7-.5-.3-.1-.6-.2-.9-.2h-.4c-.4 0-.7.1-1 .2-.1 0-.2.1-.2.1-.1 0-.2.1-.2.1-.5.3-.8.7-.9 1.2 0 .1-.1.2-.1.3v.8c0 .3 0 .5.1.7.1.4.3.7.5.9.4.4.7.7 1.2.8.1 0 .2 0 .3.1h.7c.4 0 .8-.1 1.1-.3.1 0 .2-.1.2-.2.1 0 .2-.1.2-.2.4-.3.6-.7.7-1.2 0-.1 0-.2.1-.3v-.3-.4c0-.2-.1-.5-.1-.7zm-4.6 1.4zm4.2-.3c0 .2-.1.5-.2.7-.1.2-.3.4-.5.5-.2.2-.5.3-.7.4-.2 0-.4.1-.6.1h-.4c-.4 0-.7-.1-1-.3 0 0-.1 0-.2-.1 0 0-.1-.1-.2-.1-.2-.1-.3-.3-.4-.5v-.1-.2c0-.1-.1-.2-.1-.4v-.2-.2c0-.4.2-.7.4-1l.2-.2.2-.2c.2-.2.5-.3.8-.3h1c.3 0 .6.1.9.2.2.1.4.2.6.4.2.2.2.4.3.6 0 .2.1.3.1.5-.2.2-.2.3-.2.4zm-4.4-7.4zm3.9-5.9zm-4.3 2.5zm.9-1.5c-.1 0-.3 0-.4.1-.2 0-.3 0-.4.1h-.2V42v-.1c-.1 0-.2.1-.2.2l.2.6V43.7l.1.1s0-.1.1-.1v-.3H81.3c.1 0 .2 0 .2-.1.1 0 .2 0 .3-.1.1 0 .2 0 .4-.1.1 0 .3 0 .4-.1l.5-.1.5 2.5-.5.1c-.2 0-.3.1-.4.1-.2 0-.3 0-.4.1-.2 0-.3 0-.4.1h-.1-.1v-.2s0-.1-.1-.1-.1.1-.1.1v.2l.2.6V47.3c0 .1 0 .2.1.2 0 0 0-.1.1-.1v-.3-.1s.1 0 .1-.1c.1 0 .1 0 .2-.1.1 0 .2 0 .3-.1.1 0 .2 0 .4-.1.1 0 .3 0 .4-.1l1.1-.2.4-.1.4-.1.4-.1h.4V46.3h.1c.1 0 .1-.1.2-.1v-.1-.1l-.2-.6-.1-.7v-.1l-.1-.1s-.1 0-.1.1v.4h-.1c-.1 0-.2 0-.3.1l-.4.1c-.1 0-.3 0-.4.1l-.4.1-.5-2.5.5-.1H84.5l.6-.1h.2l.1.1V43.1h.1c.1 0 .1-.1.1-.1v-.1-.9l-.1-.7v-.1l-.1-.1s-.1 0-.1.1v.4h-.1c-.2 0-.4.1-.6.1h-.1c-.2 0-.4.1-.7.1l-1.1.2c-.6-.1-.7 0-.9 0zm-4.5-8.9c-.1.3-.2.6-.2.9v.2c0 .4.2.7.4 1.1.2.4.4.6.7.9.3.2.6.4.9.5.2.1.5.1.7.1.3 0 .5 0 .8-.1.1 0 .2-.1.3-.1.1 0 .2-.1.3-.1.5-.3.9-.6 1.1-1 0-.1.1-.2.1-.2 0-.1.1-.2.1-.3 0-.2.1-.4.1-.6 0-.3 0-.5-.1-.8 0-.1-.1-.2-.1-.3 0-.1-.1-.2-.1-.3-.3-.5-.7-.9-1.1-1.2-.1 0-.2-.1-.3-.1-.1 0-.2-.1-.3-.1h-.9c-.3 0-.6.2-.9.3-.4.2-.8.5-1 .9 0 .1-.1.2-.1.2-.3 0-.4.1-.4.1zm4.4 0zm-3.8.6c.1-.3.3-.5.5-.7.2-.2.5-.4.8-.6.4-.2.8-.3 1.1-.3h.4c.3.1.5.3.8.5 0 0 .1.1.1.2s.1.1.1.2c.1.2.2.4.2.7v.1c0 .2 0 .4-.1.6-.1.4-.4.7-.7 1-.1 0-.2.1-.2.2-.1 0-.2.1-.2.2-.4.2-.7.3-1 .4h-.2-.1-.1c-.2 0-.4-.1-.6-.2 0 0-.1 0-.1-.1 0 0-.1 0-.1-.1l-.2-.2s-.1-.2-.2-.3c-.1-.2-.2-.5-.2-.7v-.1c-.1-.3-.1-.5 0-.8zm2.8-1.5zM72.4 28zm2.3-4.6zm0 0zm-1.2 5.7zm-1.8-1.5l.1.1.2.2.2.2s.1.1.2.1v-.1l-.2-.2v-.1-.1s0-.1.1-.1l.2-.2c.1-.1.1-.2.2-.2l.3-.3.3-.3.2-.2v3c0 .2.1.3.2.4v.2l.1.1.1.1.2.2.1.1h.2v-.1-.1s0-.1-.1-.1l-.1-.1-.1-.1c0-.1-.1-.2-.1-.3v-.3-.2-.4-.3-.5-.7-.4-.5H76.7c.1 0 .2.1.2.1s.1.1.2.1v-.1-.1c0-.1 0-.1-.1-.1l-.4-.4-.3-.4s-.1 0-.1-.1h-.1v.2h-2.4l.1-.1.3-.3.3-.3.4-.4c.1-.1.1-.1.2-.1h.1l.1.1h.2v-.1-.1s0-.1-.1-.1l-.5-.4-.1-.1-.1-.1c0-.1-.1-.1-.2-.2l-.1-.1h-.1v.2l.1.1s0 .1.1.1v.1l-.1.1-.4.4-.4.4-.2.2-.8.8-.4.4-.1-.1-.1.1-.3.3s-.1.1-.2.1l-.2-.1h-.1v.1s0 .1.1.1l.4.4.1.6zm4.7-2.1zm0-.2zm-11.6-4.4zm-.7 1.1c0 .1.1.2.2.2.1.1.2.2.3.2.2.1.3.2.5.3 0 0 .1 0 .1.1h.1c.4.2.9.4 1.3.4h.5c.1 0 .2 0 .3-.1.4-.1.7-.3.9-.5.3-.2.5-.5.7-.8.2-.4.3-.7.4-1v-.3c0-.2 0-.5-.1-.7-.1-.4-.3-.6-.5-.9-.2-.2-.5-.5-.8-.7-.2-.1-.4-.2-.7-.3h-.1H66.9h-.5c0 .1-.1.2-.1.2v.1c0 .1-.1.2-.1.2v.2H66.5l.1-.1s0-.1.1-.1c0 0 0-.1.1-.1l.1-.1c.1 0 .2-.1.4-.1h.2c.2 0 .3.1.5.2h.2c.3.2.5.4.6.6 0 0 0 .1.1.2 0 0 0 .1.1.2 0 .2.1.4.1.5v.5c0 .1 0 .2-.1.2v.1l-1.1-.6-.9.3s-.1 0-.1-.1c0 0-.1 0-.1-.1h-.1V20l-.1-.1h-.1-.1s0 .1-.1.1c0 0-.1.1-.1.2-.1.1-.1.2-.2.2l-.1.1v.2h.5s.1 0 .2.1h.2l.6.4.6.4c-.2.4-.5.7-.8.9 0 0-.1.1-.2.1 0 0-.1 0-.2.1-.2 0-.3.1-.5.1s-.3 0-.5-.1c-.1 0-.1 0-.2-.1-.1 0-.1-.1-.2-.1-.2-.1-.4-.2-.5-.4l-.1-.1c-.1-.1-.1-.2-.2-.3v-.1-.2l.1-.2v-.1c0-.1 0-.1-.1-.2h-.1s-.1 0-.2.1l-.1.1-.1.2c0 .1-.1.2-.2.2v.1c0 .1 0 .1-.1.2.2.1.2.1.3.2-.1 0-.1 0 0 0zm3.4-3.3zm-1.3 1.4zm-11.1-.9l1 .1h.2s0-.1-.1-.1h-.1-.1-.1l-.1-.1c0-.1-.1-.1-.1-.2s-.1-.2-.1-.3c-.1-.3-.2-.5-.2-.7-.1-.2-.1-.5-.2-.7-.1-.3-.2-.7-.3-1.1l-.1-.3-.1-.3c0-.2-.1-.3-.1-.5s-.1-.3-.1-.5v-.2-.1h-.1-.1l-.1.1s0 .1-.1.2l-1.9 3.8c-.2-.1-.2 0-.2.1 0 0-.1.1-.2.1H51.5l-.1.1c0 .1 0 .1.1.2h.7l.5.1h.1l.1-.1s0-.1-.1-.1h-.2-.1c0-.1 0-.2.1-.2v-.1-.1l.5-1.1 1.3.1.4 1.6v.1c0 .1 0 .1.1.2h.2zm-1.6-2.5l.6-1.3.4 1.4-1-.1zm1.4 2.2zm-3.6-.2zm5 .6zM18 38.5c.5.1.7.6.6 1.1-.1.5-.6.7-1.1.6-.5-.1-.7-.6-.6-1.1.1-.5.6-.7 1.1-.6zM50.1 21.4c-15.8 0-28.6 12.8-28.6 28.6s12.8 28.6 28.6 28.6S78.6 65.7 78.6 50 65.8 21.4 50.1 21.4zm-2.2 9.1h2.2c3.9 0 5.5.7 7.3 2.1 2.7 2.1 3.1 5.1 3.1 6.7 0 1.9-.6 3.9-2 5.5-1.1 1.2-2.9 3.1-6.4 3.5-2.5.3-4.3.2-5.1.1v-1.9c.4 0 1 .1 1.8.1 2.4 0 4.2-1.2 5.2-2.5 1.2-1.4 1.4-2.8 1.5-4h-6.7v-1.9h6.6c-.2-1.3-.7-2.3-1.4-3.2-1.5-1.9-3.7-2.2-5.1-2.2h-9.6l-1.1-2.2 9.7-.1zm-9.3 38.2l1.2-2.3V34.3H45v32.1h3.7V53.8h4.8v12.5h4.2v-5.7c0-3.5-.2-8.3-4.1-10.8l2.3-.8c4.7 1.8 7.1 6.3 7.1 12.3v5l1.2 2.3-25.6.1z"/>
                    </svg>