 <svg xmlns="http://www.w3.org/2000/svg" viewBox="0 0 100 100">
                        <path d="M81.8 23.3s0-.1 0 0c1.2-.1 2.4-.1 3.6-.1.1 0 .2 0 .3.1h.6v.1h.4v.1h.6v.1h.6v.1c.1 0 .3-.1.5.1.1 0 .2 0 .2.1.1 0 .4-.1.4.1h.2v.1c.1 0 .3-.1.4.1.1 0 .2 0 .3.1.1 0 .3-.1.3.1.1 0 .3-.1.3.1.1 0 .2 0 .2.1.2 0 .4.1.6.1.1.1.2 0 .3.1h.2v.1h.2v.1h.2v.1h.2v.1h.2v.1h.2v.1h.2v.1h.2v.1c.1 0 .2 0 .3.1-.2-.1-.4 0-.6-.1h-.3v-.1h-2H89.8v-.1h-3.6v-.1h-3.1c-.1.1-.2.1-.3.1h-3.4v.1H78v.1h-.4c-.1.1-.2 0-.3.1h-1.5v.1h-.4c-.1.1-.2 0-.3.1H74v.1h-.4l-.1.1c-.3 0-.5 0-.8.1.1 0 .2-.1.4-.1V26c.1 0 .2 0 .2-.1h.1v-.1h.2v-.1h.2v-.1h.2v-.1h.2v-.1h.2v-.1h.2v-.1c.1 0 .2-.1.4-.1 0-.1.1-.1.2-.1v-.1h.3v-.1h.1c0-.1.1-.1.2-.1 0-.1.2-.1.3-.1.1-.1.1-.1.2-.1 0-.1.2-.1.3-.1.1-.1.1-.1.2-.1 0-.1.2-.1.3-.1v-.1h.3c.1-.1.1-.1.2-.1.1-.1.4-.1.5-.1v-.1h.2c.2-.1.4-.1.6-.1.1-.2.4-.1.5-.1 0-.1.1-.1.2-.1h1c.9-.3 1.1-.2 1.2-.2zM79.6 27h4.2c.2 0 .4 0 .6.1h4.7v.1h2.5c.4 0 .9 0 1.3.1.4 0 .8 0 1.1.1.3 0 .6 0 .9.1.3 0 .7 0 1 .1.3 0 .6 0 .8.1.3 0 .6 0 .8.1.1.1.2.1.2.2h-1.9v.1c-.9 0-1.7.1-2.6.1-.1.1-.2 0-.3 0h-1.2c-.1.1-.2 0-.3 0h-1.5v.1h-1.1v.1h-.9c-.1.1-.3.1-.5.1-.3.1-.6 0-1 .1-.2.1-.5 0-.7.1-.3.1-.6.1-.9.1-.2.1-.5.1-.7.1-.2.1-.5 0-.7.1-.2.1-.5 0-.7.1-.1.1-.2 0-.3.1h-.7v.1h-.6c-.1-.2-.3-.3-.5-.3-.2.1-.5.1-.7.1v.1h-.5v.1h-.5c-.1.1-.2.1-.4.1-.2.1-.5.1-.8.1v.1h-.3c-.2.1-.4.1-.6.1-.1.1-.4 0-.5.1-.1.1-.3 0-.4.1-.2.1-.4.1-.7.1-.1.1-.3.1-.4.1-.1.1-.4.1-.5.1v.1c-.2-.1-.4.1-.7.1-.1.1-.3 0-.4.1-.2.1-.4.1-.5.1-.1.1-.2.1-.3.1-.2.1-.4.1-.5.1-.1.1-.3.1-.5.1v.1H71v.1h-.3c-.1.1-.4.1-.5.1v.1H70c-.1.1-.2.1-.3.1v-3.1c.2-.1.4-.3.6-.4h1.4v-.1h.6c.1-.1.2 0 .3 0h1.2c.1-.1.2 0 .3 0h1.4c.1-.1.2 0 .3 0h3.7c0-.8.1-.8.1-.8z"/>
                        <path d="M99.8 26.9c.2.2.4.4.7.5 0 3.7-.2 7.4-.6 11.1-.5 3.6-1.2 7.3-2.4 10.7-.9 2.7-2.2 5.3-3.8 7.6-1.5 2.1-3.2 4-5.2 5.5-1.5 1.2-3.1 2.2-4.8 3.1-2.3-1.2-4.5-2.7-6.3-4.5-2.6-2.5-4.7-5.5-6.2-8.8-1.1-2.4-1.9-4.8-2.5-7.3-1.3-5.6-1.7-11.4-1.8-17.2v-.4c.2-.2.4-.4.6-.5v1.1c0 1 .1 1.9.1 2.9.2 4.9.8 9.9 2.1 14.6.4 1.3.8 2.6 1.3 3.8.7 1.8 1.6 3.4 2.6 5 .1.2.3.4.4.6.9 1.3 2 2.6 3.1 3.7 1.9 1.9 4.1 3.4 6.4 4.7.1-.1.2-.1.3-.2.3-.2.7-.4 1-.6l.9-.6s.1-.1.2-.1c0 0 .1-.1.2-.1 0 0 .1-.1.2-.1 2.3-1.6 4.4-3.6 6.1-5.9.1-.2.2-.3.3-.5 0 0 .1-.1.1-.2 0 0 .1-.1.1-.2 0 0 .1-.1.1-.2 2.1-3.2 3.5-6.8 4.4-10.5 1.1-4.5 1.6-9.1 1.8-13.7.6-1 .6-2.2.6-3.3z"/>
                        <path d="M88.9 29.9c2.9-.2 5.9-.4 8.9-.4 0 1.5-.1 3-.2 4.5-2.5.3-5 .6-7.5 1.1-6.4 1.1-12.8 2.7-18.8 5.2-.2.1-.4.2-.6.2 0-.4-.2-.8-.2-1.3-.1-.5-.2-1-.2-1.5-.1-.4-.1-.8-.1-1.3-.1-.5-.1-1-.2-1.6 0-.6-.1-1.3-.1-1.9-.1-.1 0-.3-.1-.4.3-.1.6-.1.9-.2.7-.1 1.3-.3 2-.4.6-.1 1.1-.2 1.7-.3.4-.1.9-.1 1.4-.2.8-.1 1.7-.3 2.5-.3 1-.2 2.1-.3 3.1-.4.8-.1 1.6-.2 2.4-.2.2-.1.3 0 .5-.1 1.5-.2 3-.3 4.6-.5zM96.6 36.7c.2-.1.4-.1.6-.1-.2.2 0 .6-.1.8-.1.1 0 .4-.1.4v.5c-.1.2 0 .4-.1.6-.1.2 0 .4-.1.6 0 .1 0 .3-.1.4 0 .1 0 .3-.1.4 0 .1 0 .3-.1.3 0 .1.1.3-.1.4 0 .2-.1.5-.1.7-.1.1 0 .3-.1.5 0 .2 0 .4-.2.6 0 .1.1.3-.1.3 0 .2-.1.4-.1.6h-.1c0 .1.1.3-.1.3 0 .2-.1.4-.1.5-.1.2-.1.4-.2.6 0 .1 0 .2-.1.2 0 .3-.1.5-.2.8 0 .1 0 .2-.1.2 0 .1 0 .2-.1.2 0 .1 0 .2-.1.2 0 .1 0 .3-.2.4 0 .2 0 .3-.1.4 0 .1 0 .2-.1.2-.1.4-.3.9-.5 1.3 0 .2-.2.4-.2.7-.1 0-.3-.1-.4-.1-1.4-.7-2.8-1.3-4.2-1.9h-.1c-.4-.2-.9-.3-1.3-.5-.3-.1-.5-.2-.7-.3-.3-.1-.5-.2-.7-.3-.3-.1-.7-.2-1-.4-.2 0-.4-.1-.6-.2-.2-.1-.4-.1-.6-.2-.3-.1-.6-.2-.8-.3-.1 0-.2 0-.2-.1-.2 0-.4-.1-.6-.2-.2 0-.3 0-.4-.2-.1 0-.2 0-.2-.1-.1 0-.2 0-.2-.1-.1 0-.2 0-.2-.1-.1 0-.2 0-.2-.1-.1 0-.2 0-.2-.1-.1 0-.2 0-.2-.1-.1 0-.2 0-.2-.1-.1 0-.2 0-.2-.1-.1 0-.2 0-.2-.1-.1 0-.2 0-.2-.1-.1 0-.2 0-.2-.1-.1 0-.2 0-.2-.1-.1 0-.2 0-.2-.1-.2 0-.3-.1-.4-.1v-.1c-.2 0-.3-.1-.5-.1-.1 0-.2 0-.3-.1-.2 0-.5-.2-.7-.2-.1 0-.2 0-.2-.1-.4 0-.7-.2-1-.3-.1 0-.2 0-.2-.1-.2 0-.4 0-.5-.1-.2 0-.3-.1-.5-.1v-.1c-.4 0-.9-.2-1.3-.3v-.1h-.2c.4-.1.9-.4 1.3-.5.1-.1.2-.1.4-.1.1-.1.1-.1.2-.1.2-.1.5-.2.8-.3.1-.1.1-.1.2-.1.5-.2 1-.4 1.6-.5.1 0 .3-.1.4-.1 0-.1.1-.1.2-.1 0-.1.1-.1.2-.1.1-.1.2-.1.3-.1.4-.1.8-.3 1.2-.3 0-.1.1-.1.2-.1.1-.1.2-.1.3-.1.1-.1.4-.1.5-.1v-.1c.3 0 .5-.2.8-.2 0-.1.2 0 .3-.1.4-.1.7-.2 1.1-.3v-.1c.6-.1 1.2-.3 1.8-.4V38l1.2-.3c.1-.1.3-.1.4-.1.1-.1.2-.1.3-.1.1-.1.3-.1.4-.1.1-.1.2-.1.3-.1.1-.1.3-.1.4-.1.1-.1.3-.1.4-.1 0-.1.2-.1.3-.1.1-.1.3 0 .5-.1.1-.1.3 0 .4 0 0-.1.2-.1.3-.1.2-.1.4-.1.5-.1 0-.1.2-.1.3-.1.2 0 .3-.1.5-.1.5-.1.9-.2 1.4-.2.2-.1.3-.1.5-.1.1-.1.2-.1.4-.1.2-.1.4-.1.6-.1.2-.1.3-.1.5-.1.2-.1.3-.1.5-.1.1-.1.3 0 .5-.1.3 1 .5 1 .6 1zM71.5 44.4v-.1c1.9.5 3.9 1.1 5.8 1.7 5.3 1.6 10.5 3.6 15.5 6 0 .2-.1.3-.2.4-1.4 2.4-3.1 4.6-5.3 6.4-1.2 1-2.4 1.9-3.7 2.6-2.6-1.5-5-3.5-6.9-5.9-2.5-3.3-4.1-7.2-5.2-11.1zM49.1 62.3c.3-.4.8-.6 1.4-.6v6.5c0 .5.5 1 1 1h2.2v1.3h-2.2c-.5 0-1 .1-1.4-.1-.7-.2-1.3-.8-1.3-1.6v-5.6c0-.3.1-.6.3-.9zM18.9 64.6c.5-.2 1.1-.1 1.7-.1-.2.1-.3.1-.4.3-.2.2-.2.5-.2.7v4.1c0 .4-.2.8-.5.9h-1.8c-.3-.1-.5-.3-.6-.5-1.3-1.3-2.6-2.5-3.8-3.8-.2-.2-.4-.3-.5-.5v-.6 4.5c0 .3-.1.6-.4.8-.2.2-.4.1-.6.1h-1.2c-.3 0-.5-.2-.7-.4-1.5-1.5-3-2.9-4.5-4.4v4.8H3.7v-4.9c0-.6.4-1.1 1-1.2.4-.1.9 0 1.3 0 .2 0 .4.1.5.3 1.5 1.5 3 2.9 4.5 4.4v-3.6c0-.3.1-.7.4-.9.4-.3 1-.2 1.5-.2 0 .1 0 .1.1.2 0 0 .1-.1.1-.2.2 0 .5 0 .6.1 1.6 1.5 3.1 3 4.6 4.5v-3.7c0-.2.2-.6.6-.7zM.7 65.7c.1-.8.9-1.3 1.7-1.2v6.1H.7v-4.9zM22.8 64.5c.3-.1.6 0 .9 0h3.6c.9 0 1.8.7 1.9 1.6V69c-.1.9-1 1.6-1.9 1.6h-3.7c-.3 0-.7 0-1-.1-.7-.2-1.3-.8-1.3-1.6v-2.7c0-.9.8-1.5 1.5-1.7m.7 1.3c-.3 0-.6.3-.5.6v2.2c0 .3.3.6.7.6h3.4c.3 0 .6-.3.6-.6v-2.2c0-.3-.3-.6-.6-.6h-3.6zM30.4 66.1c.1-.9 1-1.6 1.9-1.7h4.1c.9 0 1.9.6 2 1.6v2.8c0 .7-.6 1.3-1.2 1.6-.4.2-.9.1-1.4.1h-3.6v2.1c0 .4 0 .7-.3 1-.3.5-.9.7-1.4.6-.1-2.6-.1-5.3-.1-8.1m2.2-.3c-.3 0-.5.3-.5.6v2.2c0 .3.3.6.7.6h3.4c.3 0 .6-.3.6-.6v-2.2c0-.3-.3-.6-.6-.6h-3.6zM41.1 64.5c.3-.1.7-.1 1-.1h3.6c.9.1 1.8.7 1.9 1.6v2.8c0 1-1.1 1.8-2.1 1.7h-4c-.9 0-1.8-.7-1.9-1.6v-2.8c.1-.8.8-1.4 1.5-1.6m.7 1.3c-.3.1-.5.3-.5.6v2.2c0 .3.3.6.6.6h3.4c.3 0 .7-.3.7-.6v-2.2c0-.4-.3-.7-.7-.6h-3.5zM55.1 65.7c.1-.8.9-1.3 1.7-1.2v6.1h-1.7v-4.9zM58.2 65.9c.2-.8 1.1-1.4 2-1.4h5.7v1.3h-5.5c-.3 0-.6.3-.5.6 0 .3.3.5.6.5h3.7c.9.1 1.9.8 1.9 1.8.1 1.1-1 1.9-2 1.9h-5.9v-1.3h5.5c.3 0 .6-.1.7-.3.1-.3-.1-.6-.4-.7-.2-.1-.5 0-.7 0h-3.1c-.7 0-1.5-.4-1.9-1-.2-.5-.2-1-.1-1.4zM84.6 70.7c-.1-.9.8-1.7 1.7-1.6v2.8h2v1.3h-2v2c0 .2 0 .5.1.7.1.4.5.6.9.6h1.5v1.3h-2.3c-.9-.1-1.8-.7-1.8-1.6-.1-1.8-.1-3.6-.1-5.5zM44.4 72c.5-.2 1.1-.1 1.7-.1-.2.1-.4.1-.5.3-.2.4-.1.9-.1 1.3v3.6c0 .4-.2.8-.6.9h-1.6c-.5 0-.7-.4-1-.7-1.4-1.4-2.8-2.7-4.2-4.1V78h-1.7v-4.8c0-.5.2-.9.6-1.2.4-.2.8-.1 1.2-.1.3 0 .6-.1.8.2 1.2 1.1 2.3 2.3 3.5 3.4l1.1 1.1v-3.7c.2-.4.4-.8.8-.9z"/>
                        <path d="M27.3 73.5c0-.9.8-1.5 1.6-1.6v3.9c-.1.4.2.9.7.8H33c.3 0 .6-.3.6-.6v-2.5c.1-.8.9-1.4 1.6-1.6v4.4c-.1.9-1 1.6-1.9 1.6h-4.1c-.9 0-1.8-.7-1.9-1.6v-2.8zM46.7 73.1c.1-.8.9-1.3 1.7-1.2V78h-1.7v-4.9zM48.7 71.9c.7 0 1.6 0 2.1.6.9 1.3 1.7 2.6 2.6 3.9.9-1.3 1.7-2.6 2.6-3.9.5-.7 1.4-.7 2.2-.6-1.1 1.7-2.2 3.5-3.4 5.2-.3.5-.8.9-1.4.9-.6 0-1-.5-1.3-1-1.2-1.7-2.3-3.4-3.4-5.1zM58.1 73.5c.1-.9 1-1.6 1.9-1.6h4c1 0 2 .8 1.9 1.8.1 1-.9 1.8-1.9 1.9h-3.8c-.4 0-.7.4-.5.8.1.3.5.3.8.3h5.4V78h-5.7c-1 .1-2.1-.7-2.2-1.7.1-1 .1-1.9.1-2.8m1.8-.1c-.2.2-.1.5-.1.8h4c.3 0 .6-.3.5-.6 0-.3-.3-.5-.6-.5h-3.3c-.2.1-.4.2-.5.3zM68.2 72c.4-.2.8-.1 1.3-.1h2.6v1.3h-2c-.5 0-1 .5-1 1v3.7h-1.7v-4.8c-.1-.5.3-.9.8-1.1zM72.6 73.8c-.1-1.1 1-1.9 2-1.9h5.7v1.3h-5.5c-.3 0-.6.3-.5.6 0 .3.3.5.6.5h3.8c.9.1 1.9.8 1.8 1.8.1.8-.5 1.4-1.2 1.7-.5.2-1.1.1-1.6.2h-5v-1.3h5.6c.3 0 .6-.2.6-.5s-.4-.5-.7-.5h-3.4c-1.1-.1-2.3-.9-2.2-1.9zM81.7 73.1c.1-.8.9-1.3 1.7-1.2V78h-1.7v-4.9zM89.2 73.5c.1-.8.9-1.4 1.6-1.6v4c0 .3.3.7.6.7h3.2c.4.1.8-.2.9-.6v-2.5c.1-.8.9-1.4 1.6-1.6v9.8c-.8.1-1.6-.6-1.7-1.4v-2.4H92c-.5 0-1.1.1-1.6-.2-.6-.3-1.2-.8-1.2-1.6v-2.6z"/>
                        <g>
                            <path d="M98 42.8zM69.7 44.3zM71.1 48.1c0 .1 0 .1 0 0 0 .1 0 .1 0 0zM73.7 53.2s0 .1 0 0c0 .1 0 0 0 0zM93.6 53.3zM93.4 53.6s.1-.1 0 0c.1-.1 0 0 0 0zM93.3 53.8zM74.1 53.9zM93.1 54s.1 0 0 0c.1 0 0 0 0 0zM92.8 54.5zM86.7 60.5zM86.4 60.6zM86.2 60.8zM86 60.9zM85 61.5zM84 62.1z"/>
                        </g>
                    </svg>