 <svg xmlns="http://www.w3.org/2000/svg" height="70px" class="block_center" viewBox="0 0 100 100">
                        <path d="M48.2 18.7c7.8-1.6 15.9-2.2 23.9-1.3 3.6.4 7.2 1.1 10.7 2.2C86.9 21 90.9 23 94.1 26c2.4 2.2 4.2 5.1 5.1 8.2 1 3.4 1.1 7 .3 10.4-.8 3.3-2.3 6.4-4.4 9-2.7 3.3-6.1 6-10.1 7.5v-5.5c2.8-1.7 5.3-4 7.1-6.8 1.9-2.9 3-6.4 2.8-9.8-.1-2.6-.9-5.2-2.3-7.4-1-1.7-2.4-3.1-3.9-4.4-2.1-1.7-4.4-2.9-6.9-3.9-3.3-1.3-6.7-2-10.2-2.4-4.6-.6-9.2-.6-13.8-.3-8 .6-15.9 2.3-23.5 4.8-4.3 1.5-8.5 3.2-12.5 5.3v-1.9c8.1-4.9 17.1-8.2 26.4-10.1z"/>
                        <path d="M76.3 32.4h5.2V61c-1.4-.1-2.8-.6-3.8-1.6s-1.4-2.4-1.4-3.8V32.4zM86.5 32.5c.6-.2 1.3-.1 1.8.3.6.4.9 1.2.8 2-.1.8-.7 1.5-1.5 1.7-.7.2-1.4 0-1.9-.5s-.8-1.2-.6-1.9c.1-.8.7-1.4 1.4-1.6m.1.3c-.6.2-1.1.8-1.2 1.5-.1.6.2 1.2.7 1.6.5.4 1.2.4 1.8.2.6-.3.9-.8 1-1.5 0-.6-.3-1.2-.8-1.5-.5-.4-1-.4-1.5-.3zM14.5 33.1h5.2V38h-5.2v-4.9z"/>
                        <path d="M86.2 33.5c0-.1 0-.3.1-.3.4 0 .9-.1 1.3.1.6.2.6 1.2 0 1.4.2.3.5.7.6 1h-.5c-.2-.3-.4-.7-.6-1h-.3v1h-.5c-.1-.7-.1-1.5-.1-2.2m.5.1v.7h.6c.3-.1.3-.6 0-.6-.2-.1-.4-.1-.6-.1zM44.8 35.3h5.1v5.5h3.9V45h-3.9v10.1c0 .5.1 1 .5 1.4.3.3.8.4 1.3.5h2.2v4.3h-3.3c-1.4 0-2.9-.5-3.9-1.5-1.2-1.1-1.8-2.8-1.7-4.4-.2-6.8-.2-13.4-.2-20.1z"/>
                        <path d="M1.8 47.8c2-4.6 5.2-8.6 9-11.9v2.6c0 .1 0 .2-.1.2-2 2.2-3.5 4.6-4.7 7.3-1.4 3.2-2.3 6.8-2.2 10.4C4 59.8 5 63.2 7 66c1.8 2.6 4.3 4.5 7.1 5.9 3.3 1.7 6.8 2.7 10.5 3.4 4.5.8 9.2 1.1 13.8 1.1 4.2-.1 8.5-.3 12.7-.9 6.1-.8 12.1-2.3 18-4.2 4.9-1.6 9.7-3.5 14.1-6.2v7.6c-3 1.6-6.1 3-9.3 4.1-4.2 1.5-8.5 2.7-12.9 3.7-5.8 1.3-11.7 2.1-17.6 2.4-4.6.2-9.2.1-13.8-.4-3.8-.5-7.7-1.2-11.3-2.5-3.3-1.1-6.5-2.7-9.3-4.7-2.5-1.8-4.6-4.1-6.2-6.8-.9-1.5-1.6-3.2-2-4.9-.5-1.9-.8-3.9-.8-5.9-.2-3.4.5-6.8 1.8-9.9z"/>
                        <path d="M63.1 40.6c1.6-.2 3.3-.1 4.8.5 1.2.5 2.3 1.3 3.1 2.3 1.1 1.3 1.7 2.9 2 4.6.3 1.5.3 3.1.3 4.6H60.2c0 1.3.5 2.7 1.5 3.6 1 .8 2.3 1.1 3.5 1 .9 0 1.8-.2 2.6-.6.6-.3 1.2-.8 1.7-1.3 1.1 1 2.1 2 3.2 3-.9.9-1.9 1.7-3.1 2.3-1.6.8-3.4 1-5.2.9-1.8-.1-3.7-.5-5.2-1.5-1.2-.8-2.2-1.9-2.9-3.3-.8-1.6-1.1-3.4-1.2-5.2-.1-1.8.2-3.6.8-5.2.5-1.4 1.4-2.7 2.6-3.7a8.7 8.7 0 0 1 4.6-2M61.3 46c-.7.8-1 2-1.1 3.1h7.9c-.1-1.1-.3-2.2-1-3-.5-.7-1.3-1.2-2.2-1.3-1.2-.2-2.7.2-3.6 1.2zM14.5 40.8h5.2v20.6c-1.4-.1-2.8-.6-3.8-1.6s-1.4-2.4-1.4-3.8V40.8zM24.3 40.8h9.2c1.1 0 2.1-.1 3.2.2 1.2.3 2.3.9 3 1.8.9 1.2 1.3 2.7 1.3 4.2v14.2h-5.1V47c0-.5-.1-1.1-.5-1.5-.4-.4-1.1-.5-1.6-.5h-4.3v16.2h-5.1c-.1-6.8-.1-13.6-.1-20.4z"/>
                    </svg>