 <svg
                           height="49px"
   class="block_center"
   xmlns:dc="http://purl.org/dc/elements/1.1/"
   xmlns:cc="http://creativecommons.org/ns#"
   xmlns:rdf="http://www.w3.org/1999/02/22-rdf-syntax-ns#"
   xmlns="http://www.w3.org/2000/svg"
   xmlns:sodipodi="http://sodipodi.sourceforge.net/DTD/sodipodi-0.dtd"
   xmlns:inkscape="http://www.inkscape.org/namespaces/inkscape"
   viewBox="0 0 241.66666 106.66666"
   xml:space="preserve"
   id="svg2"
   version="1.1"
   sodipodi:docname="itmo_logo_rus_vert_white.svg"
   inkscape:version="0.92.2 5c3e80d, 2017-08-06"><sodipodi:namedview
     pagecolor="#ffffff"
     bordercolor="#666666"
     borderopacity="1"
     objecttolerance="10"
     gridtolerance="10"
     guidetolerance="10"
     inkscape:pageopacity="0"
     inkscape:pageshadow="2"
     inkscape:window-width="2536"
     inkscape:window-height="1544"
     id="namedview852"
     showgrid="false"
     inkscape:zoom="3.8317122"
     inkscape:cx="171.33333"
     inkscape:cy="150.45493"
     inkscape:window-x="10"
     inkscape:window-y="10"
     inkscape:window-maximized="0"
     inkscape:current-layer="svg2" /><metadata
     id="metadata8"><rdf:RDF><cc:Work
         rdf:about=""><dc:format>image/svg+xml</dc:format><dc:type
           rdf:resource="http://purl.org/dc/dcmitype/StillImage" /><dc:title></dc:title></cc:Work></rdf:RDF></metadata><defs
     id="defs6" /><path
     inkscape:connector-curvature="0"
     id="path16"
     style="fill-opacity:1;fill-rule:evenodd;stroke:none;stroke-width:0.13333333"
     d="m 76.572973,38.418174 c 0,1.72667 -1.4,3.12667 -3.1276,3.12667 -1.7276,0 -3.1276,-1.4 -3.1276,-3.12667 0,-1.728 1.4,-3.12933 3.1276,-3.12933 1.7276,0 3.1276,1.40133 3.1276,3.12933 z M 235.50671,101.31691 c -0.776,1.02653 -1.90667,1.54747 -3.35867,1.54747 -1.436,0 -2.55867,-0.52094 -3.33467,-1.54747 -0.78266,-1.03531 -1.17866,-2.386364 -1.17866,-4.01449 0,-1.628122 0.396,-2.979178 1.17866,-4.015046 0.776,-1.02653 1.89867,-1.54787 3.33467,-1.54787 1.452,0 2.58267,0.52134 3.35867,1.54787 0.78133,1.035868 1.17866,2.385864 1.17866,4.015046 0,1.629196 -0.39733,2.97971 -1.17866,4.01449 z m 2.25333,-9.890736 c -1.32,-1.53467 -3.20667,-2.31333 -5.612,-2.31333 -2.404,0 -4.288,0.77866 -5.6,2.31466 -1.30933,1.52907 -1.97333,3.506668 -1.97333,5.874916 0,2.383312 0.664,4.36396 1.97333,5.88742 1.312,1.52705 3.196,2.30212 5.6,2.30212 2.404,0 4.292,-0.77507 5.612,-2.30212 1.31733,-1.52346 1.984,-3.504108 1.984,-5.88742 0,-2.368778 -0.66667,-4.345316 -1.984,-5.876246 z m -18.01733,-2.08533 c -0.564,0 -1.04267,0.30666 -1.424,0.912 l -4.48267,7.238636 -4.572,-7.215976 c -0.38133,-0.62 -0.88533,-0.93466 -1.49333,-0.93466 -0.40534,0 -0.73734,0.128 -0.98934,0.38133 -0.25333,0.252 -0.38133,0.64 -0.38133,1.14933 V 103.7789 c 0,0.98439 0.46133,1.48439 1.37067,1.48439 0.90933,0 1.37066,-0.5 1.37066,-1.48385 v -8.849398 l 3.20267,5.02076 c 0.352,0.559328 0.80667,0.842658 1.356,0.842658 0.53333,0 0.98267,-0.2916 1.33333,-0.865058 l 3.15734,-5.10303 v 8.953528 c 0,0.43226 0.13066,0.79266 0.38933,1.06666 0.26,0.2776 0.62,0.41773 1.07067,0.41773 0.468,0 0.832,-0.14066 1.084,-0.41826 0.25066,-0.27494 0.37733,-0.63387 0.37733,-1.06559 l 0.001,-12.930596 c 0,-0.44667 -0.11866,-0.812 -0.35333,-1.088 -0.23733,-0.27734 -0.58,-0.42 -1.01733,-0.42 z m -17.12667,0 h -10.80933 c -0.416,0 -0.756,0.116 -1.00934,0.344 -0.25466,0.22933 -0.384,0.55333 -0.384,0.95866 0,0.38934 0.12934,0.712 0.38267,0.956 0.252,0.244 0.592,0.368 1.01067,0.368 h 3.944 V 103.7789 c 0,0.43226 0.12666,0.79173 0.37733,1.06613 0.25333,0.2776 0.61733,0.41826 1.08267,0.41826 0.46666,0 0.832,-0.14066 1.084,-0.41826 0.25066,-0.27494 0.37866,-0.63387 0.37866,-1.06559 V 91.967504 h 3.94267 c 0.43467,0 0.78133,-0.124 1.03467,-0.368 0.25333,-0.24533 0.38133,-0.56666 0.38133,-0.956 0,-0.40533 -0.12933,-0.72933 -0.384,-0.95866 -0.252,-0.228 -0.6,-0.344 -1.032,-0.344 z M 187.86271,103.7789 V 90.848844 c 0,-1 -0.468,-1.508 -1.392,-1.508 -0.53067,0 -1.00134,0.27466 -1.39867,0.81466 l -7.19733,9.960356 v -9.267016 c 0,-0.432 -0.12667,-0.79467 -0.37734,-1.07734 -0.252,-0.28533 -0.61733,-0.43066 -1.084,-0.43066 -0.48266,0 -0.852,0.14533 -1.096,0.432 -0.24266,0.28266 -0.36533,0.64533 -0.36533,1.076 V 103.7789 c 0,0.46359 0.124,0.82973 0.36667,1.08906 0.24533,0.262 0.59066,0.39533 1.02666,0.39533 0.46934,0 0.924,-0.2812 1.352,-0.83653 l 7.24267,-9.895658 v 9.247798 c 0,0.41773 0.12667,0.77186 0.37733,1.05413 0.252,0.28546 0.62534,0.43026 1.10667,0.43026 0.468,0 0.828,-0.14066 1.07467,-0.41933 0.24133,-0.2744 0.364,-0.6328 0.364,-1.06506 z M 166.01737,90.643504 c 0,-0.40533 -0.12933,-0.72933 -0.38533,-0.95866 -0.252,-0.228 -0.59867,-0.344 -1.03067,-0.344 h -10.81066 c -0.416,0 -0.756,0.116 -1.008,0.344 -0.25467,0.22933 -0.38533,0.55333 -0.38533,0.95866 0,0.38934 0.12933,0.712 0.38266,0.956 0.252,0.244 0.59334,0.368 1.01067,0.368 h 3.944 V 103.7789 c 0,0.43226 0.128,0.79173 0.37733,1.06613 0.25334,0.2776 0.61733,0.41826 1.084,0.41826 0.46667,0 0.83067,-0.14066 1.084,-0.41826 0.25067,-0.27494 0.37733,-0.63387 0.37733,-1.06559 V 91.967504 h 3.944 c 0.43334,0 0.78134,-0.124 1.03334,-0.368 0.25333,-0.24533 0.38266,-0.56666 0.38266,-0.956 z m -16.07999,11.993806 h -6.49734 v -4.238094 h 4.992 c 0.43334,0 0.78134,-0.1244 1.03334,-0.36867 0.25333,-0.244796 0.38266,-0.566666 0.38266,-0.956796 0,-0.406266 -0.12933,-0.728126 -0.384,-0.957866 -0.25333,-0.228116 -0.6,-0.343186 -1.032,-0.343186 h -4.992 v -3.805194 h 6.26934 c 0.41866,0 0.75733,-0.11866 1.00933,-0.35466 0.25467,-0.23867 0.38267,-0.556 0.38267,-0.94667 0,-0.40533 -0.128,-0.73067 -0.38267,-0.968 -0.252,-0.23733 -0.592,-0.35733 -1.00933,-0.35733 h -7.708 c -0.46534,0 -0.83467,0.14533 -1.09467,0.42933 -0.25867,0.28267 -0.38933,0.64533 -0.38933,1.07867 v 12.907126 c 0,0.43332 0.13466,0.79692 0.40133,1.07866 0.268,0.28386 0.63867,0.42866 1.10533,0.42866 h 7.91334 c 0.41733,0 0.75733,-0.11986 1.01066,-0.35626 0.25334,-0.23747 0.38267,-0.55574 0.38267,-0.94586 0,-0.4052 -0.12933,-0.73013 -0.38267,-0.96867 -0.25333,-0.23599 -0.59333,-0.35519 -1.01066,-0.35519 z M 137.96671,90.643504 c 0,-0.40533 -0.12933,-0.72933 -0.384,-0.95866 -0.25333,-0.228 -0.6,-0.344 -1.032,-0.344 h -10.80933 c -0.416,0 -0.756,0.116 -1.00934,0.344 -0.25466,0.22933 -0.384,0.55333 -0.384,0.95866 0,0.38934 0.128,0.712 0.38134,0.956 0.25333,0.244 0.59333,0.368 1.012,0.368 h 3.944 V 103.7789 c 0,0.43226 0.12666,0.79173 0.37733,1.06613 0.252,0.2776 0.61733,0.41826 1.08267,0.41826 0.46666,0 0.83066,-0.14066 1.084,-0.41826 0.252,-0.27494 0.37866,-0.63387 0.37866,-1.06559 V 91.967504 h 3.94267 c 0.43467,0 0.78267,-0.124 1.03467,-0.368 0.25333,-0.24533 0.38133,-0.56666 0.38133,-0.956 z m -17.56133,-1.30266 c -0.53067,0 -1.00134,0.27466 -1.39734,0.81466 l -7.19866,9.960356 v -9.267016 c 0,-0.432 -0.12667,-0.79467 -0.376,-1.07734 -0.25467,-0.28533 -0.61867,-0.43066 -1.08534,-0.43066 -0.48133,0 -0.85066,0.14533 -1.09733,0.432 -0.24133,0.28133 -0.364,0.644 -0.364,1.076 V 103.7789 c 0,0.46359 0.12267,0.83026 0.368,1.08906 0.244,0.262 0.59067,0.39533 1.02533,0.39533 0.47067,0 0.92267,-0.2812 1.352,-0.83653 l 7.244,-9.895658 v 9.247798 c 0,0.41773 0.12667,0.77186 0.376,1.05413 0.25334,0.28546 0.62534,0.43026 1.108,0.43026 0.46667,0 0.828,-0.14066 1.07334,-0.41933 0.24266,-0.2744 0.36533,-0.6328 0.36533,-1.06452 V 90.848844 c 0,-1 -0.46933,-1.508 -1.39333,-1.508 z m -16.74134,12.555266 c -1.08933,0.6432 -2.16266,0.96827 -3.19067,0.96827 -1.287998,0 -2.365331,-0.49854 -3.201331,-1.48334 -0.841333,-0.98958 -1.266666,-2.368778 -1.266666,-4.10156 0,-1.672912 0.397333,-3.031178 1.178666,-4.035976 1.268,-1.632 3.358671,-1.952 6.176001,-0.87133 0.948,0.35373 1.572,0.20787 1.84934,-0.41267 0.32666,-0.69866 0.132,-1.29733 -0.57734,-1.78 -1.01466,-0.708 -2.452,-1.06666 -4.272,-1.06666 -2.313334,0 -4.148001,0.752 -5.453334,2.23333 -1.3,1.47707 -1.961333,3.480668 -1.961333,5.956246 0,2.504642 0.622666,4.51502 1.846666,5.97755 1.229334,1.46772 3.072,2.21199 5.477331,2.21199 1.89601,0 3.48001,-0.45987 4.70801,-1.3652 0.396,-0.30146 0.64133,-0.64946 0.72933,-1.03426 0.0893,-0.39172 0.0267,-0.73186 -0.18533,-1.00839 -0.404,-0.58493 -1.03467,-0.6552 -1.85734,-0.188 z M 82.733373,91.934174 c 0.633333,-0.0827 1.270667,-0.12667 1.890667,-0.12667 2.101333,0 3.121333,0.858 3.121333,2.621468 0,1.885982 -1.073334,2.803178 -3.281333,2.803178 -0.722667,-5.3e-4 -1.304,-0.0272 -1.730667,-0.0797 z m 8.072,2.425998 c 0,-1.755198 -0.553334,-3.065998 -1.644,-3.893998 -1.082667,-0.82267 -2.586667,-1.23867 -4.469333,-1.23867 -1.338667,0 -2.525867,0.1 -3.529467,0.29867 -0.897867,0.176 -1.352667,0.744 -1.352667,1.68667 l 5.34e-4,12.566056 c 0,0.43226 0.126666,0.79173 0.377066,1.06613 0.253734,0.2776 0.617734,0.41826 1.083334,0.41826 0.451066,0 0.811466,-0.14013 1.071866,-0.41773 0.258667,-0.274 0.390667,-0.63333 0.390667,-1.06612 v -4.087978 c 0.454667,0.0656 1.089333,0.0995 1.890667,0.0995 1.822666,-5.3e-4 3.322666,-0.4604 4.459999,-1.366646 1.142667,-0.911466 1.721334,-2.278662 1.721334,-4.064114 z M 76.535506,104.90703 c 0.2536,-0.23747 0.3828,-0.55574 0.3828,-0.94586 0,-0.4052 -0.1292,-0.73013 -0.383333,-0.96867 -0.252133,-0.23599 -0.591733,-0.35519 -1.009333,-0.35519 h -6.498 v -4.238094 h 4.992266 c 0.434267,0 0.781734,-0.1244 1.034267,-0.36867 0.2532,-0.244796 0.381333,-0.566666 0.381333,-0.956796 0,-0.406266 -0.128666,-0.728126 -0.383866,-0.957866 -0.252134,-0.228116 -0.598934,-0.343186 -1.031734,-0.343186 H 69.02764 v -3.805194 h 6.269866 c 0.4172,0 0.757734,-0.11866 1.009334,-0.35466 0.254133,-0.23867 0.383333,-0.556 0.383333,-0.94667 0,-0.40533 -0.1292,-0.73067 -0.383333,-0.968 -0.2516,-0.23733 -0.592134,-0.35733 -1.009867,-0.35733 h -7.7084 c -0.4656,0 -0.833866,0.14533 -1.0948,0.42933 -0.257733,0.28267 -0.388533,0.64533 -0.388533,1.07867 v 12.907126 c 0,0.43332 0.1344,0.79692 0.4016,1.07866 0.267733,0.28386 0.6396,0.42866 1.1052,0.42866 h 7.9136 c 0.4176,0 0.7572,-0.11986 1.009866,-0.35626 z m -17.698399,-2.52812 c -0.551067,0.3672 -1.3896,0.55413 -2.490667,0.55413 -0.987466,0 -1.845866,-0.0427 -2.552666,-0.126 v -4.567694 h 2.530266 c 2.239067,0 3.326533,0.75987 3.326533,2.323984 5.34e-4,0.84425 -0.272933,1.45571 -0.813466,1.81558 z m -2.810533,-6.378086 h -2.2328 v -4.20265 c 0.693333,-0.0693 1.367733,-0.104 2.004666,-0.104 2.086,0 3.0996,0.66347 3.0996,2.028 4e-4,1.532794 -0.938666,2.27865 -2.871466,2.27865 z m 3.939599,0.73746 c 0.557334,-0.29573 1.011467,-0.72546 1.351067,-1.280116 0.380267,-0.620796 0.572933,-1.296926 0.572933,-2.009324 0,-2.80134 -1.9656,-4.22134 -5.840133,-4.22134 -1.366666,0 -2.6068,0.092 -3.688,0.276 -0.9136,0.15867 -1.376533,0.704 -1.376533,1.61867 V 103.5737 c 0,0.90106 0.4568,1.42346 1.355733,1.55159 1.078134,0.16667 2.386934,0.25107 3.890534,0.25107 4.254266,0 6.410933,-1.65786 6.410933,-4.92716 0,-0.913998 -0.2604,-1.711454 -0.7728,-2.371324 -0.468267,-0.604656 -1.1084,-1.053596 -1.903734,-1.339592 z m -24.645337,8.525006 c 0.46934,0 0.92347,-0.2812 1.35214,-0.83653 l 7.243198,-9.895658 v 9.247798 c 0,0.41773 0.126133,0.77186 0.376533,1.05413 0.252134,0.28546 0.6256,0.43026 1.107333,0.43026 0.4672,0 0.828134,-0.14066 1.073467,-0.41933 0.242667,-0.2744 0.365067,-0.6328 0.365067,-1.06452 V 90.848844 c 0,-1 -0.468667,-1.508 -1.392667,-1.508 -0.5308,0 -1.001066,0.27466 -1.3984,0.81466 l -7.197471,9.960356 v -9.267016 c 0,-0.432 -0.126,-0.79467 -0.37653,-1.07734 -0.25307,-0.28533 -0.61773,-0.43066 -1.08493,-0.43066 -0.48227,0 -0.85107,0.14533 -1.0968,0.432 -0.2412,0.28133 -0.36467,0.644 -0.36467,1.076 V 103.7789 c 0,0.46359 0.124,0.83026 0.3672,1.08906 0.24587,0.262 0.5912,0.39533 1.02653,0.39533 z m -16.98946,0 c 0.45,0 0.81093,-0.14013 1.0708,-0.41773 0.25826,-0.274 0.39053,-0.63333 0.39053,-1.06612 v -5.334894 h 7.06573 v 5.334354 c 0,0.43226 0.12707,0.79173 0.3776,1.06613 0.25254,0.2776 0.61774,0.41826 1.08334,0.41826 0.45146,0 0.81146,-0.14013 1.07186,-0.41773 0.2588,-0.274 0.3896,-0.63333 0.3896,-1.06612 V 90.848844 c 0,-0.432 -0.1308,-0.79467 -0.38853,-1.07867 -0.26093,-0.284 -0.62187,-0.42933 -1.07293,-0.42933 -0.46614,0 -0.8308,0.14533 -1.0844,0.43066 -0.24947,0.28134 -0.37654,0.64534 -0.37654,1.07734 v 4.968654 h -7.06573 v -4.968654 c 0,-0.43334 -0.1312,-0.796 -0.39,-1.07867 -0.2604,-0.284 -0.6204,-0.42933 -1.07133,-0.42933 -0.46627,0 -0.83134,0.14533 -1.08547,0.43066 -0.25,0.28267 -0.37653,0.64534 -0.37653,1.07734 V 103.7789 c 0,0.43226 0.12653,0.79173 0.37866,1.06613 0.252,0.2776 0.61667,0.41826 1.08334,0.41826 z m -4.2928,-13.763786 c 0.24373,-0.58666 0.29013,-1.06666 0.13746,-1.42533 -0.1176,-0.27333 -0.35093,-0.48 -0.6932,-0.61333 -0.83586,-0.30534 -1.49946,0.0933 -1.94266,1.17066 l -3.1197301,7.567312 -4.30427,-7.728642 c -0.25413,-0.47867 -0.5604,-0.80267 -0.9104,-0.96267 -0.35573,-0.16133 -0.7484,-0.13733 -1.16667,0.08 -0.38906,0.21734 -0.6016,0.552 -0.6328,0.99467 -0.0307,0.43067 0.0833,0.86133 0.3364,1.27867 l 5.28867,9.189396 c -0.23333,0.60467 -0.48333,1.0604 -0.74227,1.35574 -0.25773,0.2932 -0.55573,0.436 -0.91093,0.436 -0.1604,0 -0.31093,-0.0147 -0.4484,-0.0437 -0.13907,-0.0287 -0.30213,-0.0813 -0.486,-0.1548 -0.19627,-0.0791 -0.33227,-0.12547 -0.40467,-0.13947 -0.79586,-0.25947 -1.33853,-0.0349 -1.59946,0.64839 -0.2912,0.7776 -0.008,1.40679 0.84066,1.87079 0.55827,0.3104 1.31094,0.4688 2.23387,0.4688 1.02813,0 1.88427,-0.39173 2.54573,-1.16147 0.64947,-0.75785 1.34174,-1.98958 2.0557401,-3.66196 z M 182.99337,11.487501 c 0,1.009341 -0.81866,1.829341 -1.828,1.829341 -1.01066,0 -1.828,-0.82 -1.828,-1.829341 0,-1.010661 0.81734,-1.8280025 1.828,-1.8280025 1.00934,-10e-4 1.828,0.8173415 1.828,1.8280025 z m -13.464,-6.732003 c 0,1.0093405 -0.81866,1.827998 -1.828,1.827998 -1.012,0 -1.82933,-0.8186575 -1.82933,-1.827998 0,-1.0093305 0.81733,-1.8280005 1.82933,-1.8280005 1.00934,0 1.828,0.81867 1.828,1.8280005 z m -40.39599,6.732003 c 0,1.009341 -0.81867,1.829341 -1.828,1.829341 -1.01067,0 -1.82934,-0.82 -1.82934,-1.829341 0,-1.010661 0.81867,-1.8280025 1.82934,-1.8280025 1.00933,-10e-4 1.828,0.8173415 1.828,1.8280025 z m 41.69333,20.197343 c 0,1.728 -1.39867,3.128 -3.12667,3.128 -1.72667,0 -3.128,-1.4 -3.128,-3.128 0.001,-1.72667 1.40133,-3.12667 3.128,-3.12667 1.728,0 3.12667,1.4 3.12667,3.12667 z m -1.29734,13.464 c 0,1.01066 -0.81866,1.82933 -1.82933,1.82933 -1.01067,0 -1.828,-0.81867 -1.828,-1.828 0,-1.00933 0.81733,-1.828 1.828,-1.828 1.01067,0 1.82933,0.81867 1.82933,1.82667 z m -10.60266,-20.196 c 0,2.59066 -2.10133,4.69066 -4.692,4.69066 -2.59067,0 -4.69067,-2.1 -4.69067,-4.69066 0,-2.59067 2.1,-4.692 4.69067,-4.692 2.592,0 4.692,2.10133 4.692,4.692 z m 13.46533,-6.732 c 0,2.58933 -2.10133,4.69066 -4.692,4.69066 -2.59067,0 -4.692,-2.10133 -4.692,-4.69066 0,-2.590671 2.1,-4.692002 4.692,-4.692002 2.59067,0 4.692,2.101331 4.692,4.692002 z m -16.328,33.66133 c 0,1.01067 -0.81866,1.828 -1.82933,1.828 -1.008,0 -1.828,-0.81733 -1.828,-1.828 0,-1.00933 0.82,-1.82933 1.828,-1.82933 1.012,0 1.82933,0.82 1.82933,1.82933 z m 26.92933,-26.92933 c 0,1.00933 -0.81866,1.828 -1.828,1.828 -1.00933,0 -1.828,-0.81867 -1.828,-1.828 0,-1.00934 0.81867,-1.828 1.828,-1.828 1.00934,0 1.828,0.81866 1.828,1.828 z M 102.20404,11.487501 c 0,1.009341 -0.81867,1.829341 -1.82933,1.829341 -1.009338,0 -1.826671,-0.82 -1.826671,-1.829341 0,-1.010661 0.817333,-1.8280025 1.826671,-1.8280025 1.01066,-10e-4 1.828,0.8173415 1.82933,1.8280025 z m -26.93,0 c 0,1.009341 -0.817734,1.829341 -1.828667,1.829341 -1.009867,0 -1.828133,-0.82 -1.828133,-1.829341 0,-1.010661 0.818266,-1.8280025 1.828133,-1.8280025 1.010933,-10e-4 1.828667,0.8173415 1.828667,1.8280025 z m 40.29934,47.128003 c 0,1.00934 -0.81867,1.828 -1.828,1.828 -1.00934,0 -1.828,-0.81866 -1.828,-1.828 0,-1.00933 0.81866,-1.82933 1.828,-1.82933 1.00933,0 1.828,0.82 1.828,1.82933 z M 88.738706,4.755498 c 0,1.0093405 -0.818667,1.827998 -1.828,1.827998 -1.009333,0 -1.828,-0.8186575 -1.828,-1.827998 0,-1.0093305 0.817333,-1.8280005 1.828,-1.8280005 1.010667,0 1.828,0.81867 1.828,1.8280005 z m 0,40.300006 c 0,1.00934 -0.818667,1.828 -1.828,1.828 -1.009333,0 -1.828,-0.81866 -1.828,-1.828 0,-1.01066 0.817333,-1.82933 1.828,-1.82933 1.010667,0 1.828,0.81867 1.828,1.82933 z M 61.808973,31.684844 c 0,1.00933 -0.819866,1.82933 -1.828666,1.82933 -1.009467,0 -1.8276,-0.82 -1.8276,-1.82933 0,-1.01067 0.818133,-1.828 1.8276,-1.828 1.0088,-10e-4 1.828666,0.81733 1.828666,1.828 z m 0,13.464 c 0,1.01066 -0.819866,1.82933 -1.828666,1.82933 -1.009467,0 -1.8276,-0.81867 -1.8276,-1.828 0,-1.00933 0.818133,-1.828 1.8276,-1.828 1.0088,0 1.828666,0.81867 1.828666,1.82667 z m 29.7924,-13.464 c 0,2.592 -2.1,4.692 -4.690667,4.692 -2.590666,0 -4.691333,-2.1 -4.691333,-4.692 0,-2.59067 2.100667,-4.692 4.691333,-4.692 2.590667,0 4.690667,2.10133 4.690667,4.692 z m 11.901337,20.19733 c 0,1.728 -1.39867,3.128 -3.12667,3.128 -1.728001,0 -3.128001,-1.4 -3.128001,-3.128 0,-1.72667 1.4,-3.12667 3.128001,-3.12667 1.728,-0.001 3.12667,1.4 3.12667,3.12667 z m 13.46533,-33.66133 c 0,1.72666 -1.4,3.12666 -3.12666,3.12666 -1.728,0 -3.12934,-1.4 -3.12934,-3.12666 0,-1.728 1.40134,-3.128001 3.12934,-3.128001 1.72666,-10e-4 3.12666,1.401331 3.12666,3.128001 z m 40.39467,20.19733 c 0,1.72667 -1.40133,3.12667 -3.128,3.12667 -1.72667,0 -3.128,-1.4 -3.128,-3.12667 0,-1.728 1.40133,-3.128 3.128,-3.128 1.72667,0 3.128,1.4 3.128,3.128 z m 0,-26.930673 c 0,1.728001 -1.40133,3.128002 -3.128,3.128002 -1.728,0 -3.128,-1.400001 -3.128,-3.128002 0,-1.7266625 1.4,-3.126663 3.128,-3.126663 1.72667,0 3.128,1.4000005 3.128,3.126663 z m -11.90133,6.733343 c 0,2.58933 -2.1,4.69066 -4.692,4.69066 -2.588,0 -4.69067,-2.10133 -4.69067,-4.69066 0,-2.592001 2.10267,-4.692002 4.69067,-4.692002 2.592,0 4.692,2.100001 4.692,4.692002 z m -28.49334,26.928 c 0,1.728 -1.4,3.12933 -3.12666,3.12933 -1.728,0 -3.12934,-1.40133 -3.12934,-3.128 0,-1.728 1.40134,-3.128 3.12934,-3.128 1.72666,0 3.12666,1.4 3.12666,3.12667 z m 15.028,-20.196 c 0,2.59066 -2.10133,4.69066 -4.69333,4.69066 -2.58933,0 -4.68933,-2.1 -4.68933,-4.69066 0,-2.592 2.1,-4.692 4.68933,-4.692 2.592,0 4.69333,2.1 4.69333,4.692 z m 13.46534,6.732 c 0,2.592 -2.10134,4.69066 -4.69067,4.69066 -2.59067,0 -4.692,-2.09866 -4.692,-4.69066 0,-2.59067 2.10133,-4.69067 4.692,-4.69067 2.58933,0 4.69067,2.1 4.69067,4.69067 z m -1.56267,13.464 c 0,1.728 -1.40133,3.12933 -3.128,3.12933 -1.728,0 -3.128,-1.40133 -3.128,-3.128 0,-1.728 1.4,-3.128 3.128,-3.128 1.72667,0 3.128,1.4 3.128,3.12667 z m -13.46533,6.73333 c 0,1.728 -1.40134,3.128 -3.128,3.128 -1.72667,0 -3.12934,-1.4 -3.12934,-3.128 0,-1.72667 1.40267,-3.12667 3.12934,-3.12667 1.72666,-0.001 3.128,1.4 3.128,3.12667 z m 1.56266,-13.464 c 0,2.59067 -2.10133,4.692 -4.69333,4.692 -2.58933,0 -4.68933,-2.10133 -4.68933,-4.692 0,-2.59067 2.1,-4.692 4.68933,-4.692 2.592,0 4.69333,2.10133 4.69333,4.692 z m -26.92933,0 c 0,2.59067 -2.1,4.692 -4.69067,4.692 -2.590667,0 -4.692001,-2.10133 -4.692001,-4.692 0,-2.59067 2.101334,-4.692 4.692001,-4.692 2.59067,0 4.69067,2.10133 4.69067,4.692 z m 13.46533,-6.73333 c 0,2.592 -2.10133,4.692 -4.69066,4.692 -2.59067,0 -4.692,-2.1 -4.692,-4.692 0,-2.59067 2.10133,-4.692 4.692,-4.692 2.59066,0 4.68933,2.10133 4.69066,4.692 z m -13.46533,-6.732 c 0,2.59066 -2.1,4.69066 -4.69067,4.69066 -2.590667,0 -4.692001,-2.1 -4.692001,-4.69066 0,-2.59067 2.101334,-4.692 4.692001,-4.692 2.59067,0 4.69067,2.10133 4.69067,4.692 z m -13.465337,-6.732 c 0,2.58933 -2.101334,4.692 -4.690667,4.692 -2.590666,0 -4.691333,-2.10267 -4.691333,-4.692 0,-2.592001 2.100667,-4.692002 4.691333,-4.692002 2.589333,0 4.690667,2.100001 4.690667,4.692002" /><path
     inkscape:connector-curvature="0"
     id="path18"
     style="fill-opacity:1;fill-rule:evenodd;stroke:none;stroke-width:0.13333333"
     d="m 78.137106,24.952844 c 0,2.59066 -2.1,4.69066 -4.691733,4.69066 -2.590133,0 -4.6912,-2.1 -4.6912,-4.69066 0,-2.59067 2.101067,-4.692 4.6912,-4.692 2.591733,0 4.691733,2.10133 4.691733,4.692" />
                    </svg>