 <svg
   xmlns:dc="http://purl.org/dc/elements/1.1/"
   xmlns:cc="http://creativecommons.org/ns#"
   xmlns:rdf="http://www.w3.org/1999/02/22-rdf-syntax-ns#"
   xmlns="http://www.w3.org/2000/svg"
   viewBox="0 0 932.09332 138.2"
   xml:space="preserve"
   id="svg2"
   version="1.1"><metadata
     id="metadata8"><rdf:RDF><cc:Work
         rdf:about=""><dc:format>image/svg+xml</dc:format><dc:type
           rdf:resource="http://purl.org/dc/dcmitype/StillImage" /></cc:Work></rdf:RDF></metadata><defs
     id="defs6" /><g
     transform="matrix(1.3333333,0,0,-1.3333333,0,138.2)"
     id="g10"><g
       transform="scale(0.1)"
       id="g12"><path
         id="path14"
         style="fill-opacity:1;fill-rule:nonzero;stroke:none"
         d="m 5958.78,683.773 v 150.676 h 509.68 V 683.773 h -157.24 v -444.05 h -195.2 v 444.05 h -157.24" /><path
         id="path16"
         style="fill-opacity:1;fill-rule:nonzero;stroke:none"
         d="m 5958.78,683.773 v 150.676 h 509.68 V 683.773 h -509.68" /><path
         id="path18"
         style="fill-opacity:1;fill-rule:nonzero;stroke:none"
         d="M 0,1036.5 H 201.707 V 711.168 h 2.172 L 431.605,1036.5 H 674.523 L 394.734,665.508 696.211,239.723 H 439.199 l -235.32,361.859 h -2.172 V 239.723 H 0 V 1036.5" /><path
         id="path20"
         style="fill-opacity:1;fill-rule:nonzero;stroke:none"
         d="m 1064.6,536.516 c 0,89.039 -36.88,167.804 -126.881,167.804 -90.008,0 -126.879,-78.765 -126.879,-167.804 0,-87.899 36.871,-166.661 126.879,-166.661 90.001,0 126.881,78.762 126.881,166.661 z m -455.467,0 c 0,197.484 142.062,311.632 328.586,311.632 186.521,0 328.581,-114.148 328.581,-311.632 0,-196.344 -142.06,-310.496 -328.581,-310.496 -186.524,0 -328.586,114.152 -328.586,310.496" /><path
         id="path22"
         style="fill-opacity:1;fill-rule:nonzero;stroke:none"
         d="m 1889.65,239.723 6.51,428.07 h -2.18 l -104.1,-428.07 h -199.53 l -104.11,428.07 h -2.17 l 6.51,-428.07 h -195.2 v 594.726 h 293.88 l 99.77,-430.351 h 2.17 l 99.77,430.351 h 293.88 V 239.723 h -195.2" /><path
         id="path24"
         style="fill-opacity:1;fill-rule:nonzero;stroke:none"
         d="m 2735.48,239.723 6.51,428.07 h -2.18 l -104.1,-428.07 h -199.54 l -104.1,428.07 h -2.17 l 6.5,-428.07 h -195.19 v 594.726 h 293.88 l 99.76,-430.351 h 2.18 l 99.76,430.351 h 293.88 V 239.723 h -195.19" /><path
         id="path26"
         style="fill-opacity:1;fill-rule:nonzero;stroke:none"
         d="m 3373.85,593.594 c 0,68.492 -30.37,124.426 -108.44,124.426 -70.5,0 -104.12,-55.934 -108.45,-124.426 z M 3159.13,477.152 c 10.84,-82.183 70.49,-114.148 165.92,-114.148 53.13,0 113.86,12.559 172.42,45.664 V 263.691 C 3434.58,237.438 3363,226.02 3290.35,226.02 c -186.53,0 -328.59,115.293 -328.59,311.636 0,196.344 126.88,310.492 302.56,310.492 209.29,0 285.21,-156.382 285.21,-333.324 v -37.672 h -390.4" /><path
         id="path28"
         style="fill-opacity:1;fill-rule:nonzero;stroke:none"
         d="m 3885.21,690.621 c -71.58,0 -119.29,-66.207 -119.29,-155.242 0,-86.762 54.22,-151.828 119.29,-151.828 73.74,0 118.2,65.066 118.2,159.812 0,78.766 -42.29,147.258 -118.2,147.258 z m -314.49,143.828 h 180.02 V 727.148 h 2.17 c 39.03,83.332 121.45,121 210.38,121 156.15,0 241.82,-156.382 241.82,-300.218 0,-175.789 -90,-321.91 -258.09,-321.91 -68.32,0 -142.06,26.257 -178.93,97.027 h -2.17 V 0 h -195.2 v 834.449" /><path
         id="path30"
         style="fill-opacity:1;fill-rule:nonzero;stroke:none"
         d="m 4696.68,664.367 c -35.78,22.832 -71.57,33.106 -118.19,33.106 -84.59,0 -149.66,-61.649 -149.66,-164.379 0,-94.746 75.91,-156.391 160.5,-156.391 44.46,0 88.92,10.277 121.46,28.535 l 4.33,-152.961 c -48.8,-17.125 -107.36,-26.257 -159.41,-26.257 -186.53,0 -328.58,114.152 -328.58,310.496 0,197.484 142.05,311.632 328.58,311.632 58.56,0 110.61,-10.269 155.08,-33.097 l -14.11,-150.684" /><path
         id="path32"
         style="fill-opacity:1;fill-rule:nonzero;stroke:none"
         d="m 4991.52,364.48 c 73.74,0 120.37,70.774 120.37,140.411 -24.94,1.14 -53.14,3.422 -82.42,3.422 -66.14,0 -118.2,-21.684 -118.2,-78.766 0,-41.094 34.7,-65.067 80.25,-65.067 z m 134.47,-123.285 c -1.09,31.965 -4.34,62.785 -4.34,93.606 h -2.17 C 5075.02,260.602 5020.8,227.5 4940.55,227.5 c -111.7,0 -211.47,58.219 -211.47,187.207 0,181.504 187.61,203.188 291.72,203.188 31.45,0 66.15,-3.422 91.09,-7.989 -1.08,81.047 -58.56,102.739 -129.05,102.739 -62.89,0 -125.79,-12.555 -180.02,-44.52 l -3.25,139.266 c 69.4,29.675 142.07,42.238 225.57,42.238 144.23,0 268.94,-65.066 268.94,-246.57 V 381.602 c 0,-46.801 2.17,-93.598 10.84,-140.407 h -178.93" /><path
         id="path34"
         style="fill-opacity:1;fill-rule:nonzero;stroke:none"
         d="m 5741.14,834.449 h 195.2 V 239.723 h -195.2 V 468.027 H 5529.68 V 239.723 h -195.2 v 594.726 h 195.2 V 618.703 h 211.46 v 215.746" /><path
         id="path36"
         style="fill:#ffffff;fill-opacity:1;fill-rule:nonzero;stroke:none"
         d="m 6637.7,205.633 c 192.8,0 349.1,156.262 349.1,349.019 0,192.762 -156.3,349.028 -349.1,349.028 -192.8,0 -349.1,-156.266 -349.1,-349.028 0,-192.757 156.3,-349.019 349.1,-349.019" /><path
         id="path38"
         style="fill:none;stroke:#231f20;stroke-width:7.87300014;stroke-linecap:butt;stroke-linejoin:round;stroke-miterlimit:4;stroke-dasharray:none;stroke-opacity:1"
         d="m 6637.7,205.633 c 192.8,0 349.1,156.262 349.1,349.019 0,192.762 -156.3,349.028 -349.1,349.028 -192.8,0 -349.1,-156.266 -349.1,-349.028 0,-192.757 156.3,-349.019 349.1,-349.019 z" /><path
         id="path40"
         style="fill-opacity:1;fill-rule:nonzero;stroke:none"
         d="m 6430.94,571.813 148.5,259.914 54.45,-10.223 c 9.72,-129.941 202.07,48.535 202.07,6.379 1.3,-26.832 -157.18,-175.414 -215.49,-269.52 -58.32,-94.093 -87.48,-156.824 -92.34,-210.593 -9.72,-58.25 9.72,-112.024 48.6,-94.098 77.76,35.848 160.37,129.941 184.68,228.519 14.57,62.731 -9.73,112.024 -34.03,103.059 -58.31,-22.402 -116.63,-156.824 -121.49,-197.152 -9.72,-53.77 -9.72,-103.063 38.88,-67.219 0,-22.399 -87.48,-76.172 -82.62,53.773 0,80.657 77.76,201.637 170.1,233.004 24.29,13.446 72.89,22.403 97.19,-22.406 34.02,-76.172 -68.03,-201.637 -82.62,-224.043 -19.44,-22.398 -122.01,-127.402 -199.79,-131.234 -52.03,0.257 -118.87,59.261 -111.23,140.199 14.58,134.426 155.51,259.887 335.32,407.754 -9.71,22.406 -177.42,-128.899 -173.53,10.359 0,49.289 -35.44,-216.472 -84.04,-216.472 h -82.61" /><path
         id="path42"
         style="fill:none;stroke:#231f20;stroke-width:7.87300014;stroke-linecap:butt;stroke-linejoin:round;stroke-miterlimit:4;stroke-dasharray:none;stroke-opacity:1"
         d="m 6430.94,571.813 148.5,259.914 54.45,-10.223 c 9.72,-129.941 202.07,48.535 202.07,6.379 1.3,-26.832 -157.18,-175.414 -215.49,-269.52 -58.32,-94.093 -87.48,-156.824 -92.34,-210.593 -9.72,-58.25 9.72,-112.024 48.6,-94.098 77.76,35.848 160.37,129.941 184.68,228.519 14.57,62.731 -9.73,112.024 -34.03,103.059 -58.31,-22.402 -116.63,-156.824 -121.49,-197.152 -9.72,-53.77 -9.72,-103.063 38.88,-67.219 0,-22.399 -87.48,-76.172 -82.62,53.773 0,80.657 77.76,201.637 170.1,233.004 24.29,13.446 72.89,22.403 97.19,-22.406 34.02,-76.172 -68.03,-201.637 -82.62,-224.043 -19.44,-22.398 -122.01,-127.402 -199.79,-131.234 -52.03,0.257 -118.87,59.261 -111.23,140.199 14.58,134.426 155.51,259.887 335.32,407.754 -9.71,22.406 -177.42,-128.899 -173.53,10.359 0,49.289 -35.44,-216.472 -84.04,-216.472 z" /><path
         id="path44"
         style="fill-opacity:1;fill-rule:nonzero;stroke:none"
         d="m 5958.78,683.773 v 150.676 h 509.68 V 683.773 h -509.68" /></g></g>
                </svg>