               <svg xmlns="http://www.w3.org/2000/svg" viewBox="0 0 100 100">
                        <path d="M58.2 37.3c4.1-.8 8.6.3 11.7 3 4.3 3.7 5.2 10.3 3 15.4-1.4 3.1-4.1 5.5-7.3 6.5-4.3 1.4-9.3.8-12.9-1.9-5.1-3.7-6.4-11.3-3.3-16.7 1.7-3.3 5.1-5.6 8.8-6.3zm.4 5.5c-4.7 1.4-6.2 7.8-3.5 11.7 2.2 3.4 7.5 4 10.5 1.3 3.4-2.9 3.3-8.9-.1-11.8-1.9-1.5-4.6-1.9-6.9-1.2zM0 37.5h5.9v10.8c3-3.6 6-7.2 8.9-10.8h6.9c-3.4 4-6.8 7.9-10.1 11.9 3.5 4.4 7 8.8 10.6 13.2h-7.5c-2.9-3.8-5.9-7.5-8.8-11.3v11.3H0V37.5zM24.7 62.6V37.5h10.7c2.7.1 5.5.8 7.6 2.6 4.1 3.6 3.6 11.1-1 14.1-3.3 2.3-7.5 2-11.4 2v6.4c-2 0-4 .1-5.9 0zm5.9-19.9v8.4c2.5-.1 5.1.4 7.4-.8 2.4-1.3 2.4-5.4 0-6.8-2.3-1.3-5-.6-7.4-.8zM77.9 37.5h5.9v10.8c3-3.6 5.9-7.2 8.9-10.8h6.9c-3.4 4-6.8 7.9-10.2 11.9 3.5 4.4 7.1 8.8 10.5 13.2h-7.5c-2.9-3.8-5.8-7.5-8.8-11.3v11.3h-5.9c.2-8.3.2-16.7.2-25.1z"/>
                    </svg>