<svg height="20px" class="block_center" version="1.0" xmlns="http://www.w3.org/2000/svg"
                         viewBox="0 0 2790 800"
                         preserveAspectRatio="xMidYMid meet">
                        <g id="layer1" stroke="none">
                            <path d="M1357 785 c-63 -18 -105 -45 -159 -102 -169 -182 -132 -492 75 -627 29 -19 77 -40 108 -46 64 -14 234 -9 291 9 50 16 153 113 184 173 33 65 56 168 52 237 l-3 56 -262 3 c-181 1 -263 6 -263 13 0 23 68 78 111 89 52 15 144 0 197 -31 18 -10 39 -19 46 -19 18 0 120 156 111 169 -13 23 -100 64 -158 77 -78 17 -266 16 -330 -1z m283 -499 c0 -24 -47 -64 -89 -77 -51 -15 -112 0 -147 38 -45 49 -36 53 106 53 103 0 130 -3 130 -14z"/>
                            <path d="M1950 702 l0 -99 38 -24 c50 -32 65 -81 97 -315 14 -104 28 -204 32 -221 l5 -33 334 0 334 0 0 390 0 390 -135 0 -135 0 0 -275 0 -276 -82 3 -82 3 -17 125 c-27 209 -60 294 -142 367 -50 43 -110 63 -192 63 l-55 0 0 -98z"/>
                            <path d="M0 400 l0 -390 166 2 167 3 71 186 72 187 71 -187 71 -186 176 -3 176 -2 0 390 0 390 -135 0 -135 0 -2 -190 -3 -190 -71 188 -71 187 -76 3 -75 3 -36 -93 c-19 -51 -51 -133 -70 -183 l-35 -90 0 183 -1 182 -130 0 -130 0 0 -390z"/>
                        </g>

                    </svg>