 <svg id="svg" viewBox="0 0 400 50" version="1.1" xmlns="http://www.w3.org/2000/svg"
                         style="display: block;">
                        <g id="svgg">
                            <path id="path0"
                                  d="M119.048 2.000 C 119.000 2.184,118.821 2.333,118.647 2.333 C 118.109 2.333,118.294 2.811,118.875 2.919 C 120.075 3.143,125.409 2.934,125.462 2.661 C 125.527 2.322,124.961 2.287,124.374 2.593 C 123.160 3.226,118.898 2.790,119.175 2.061 C 119.258 1.844,119.282 1.667,119.230 1.667 C 119.178 1.667,119.096 1.817,119.048 2.000 M224.173 2.067 C 224.089 2.287,223.929 2.524,223.818 2.593 C 223.689 2.673,223.658 2.648,223.734 2.526 C 223.799 2.420,223.774 2.333,223.677 2.333 C 223.579 2.333,223.500 2.437,223.500 2.564 C 223.500 2.691,223.350 2.834,223.167 2.882 C 222.974 2.932,222.842 3.099,222.853 3.276 C 222.870 3.555,222.879 3.557,222.948 3.292 C 222.990 3.131,223.150 2.995,223.304 2.989 C 223.458 2.983,225.331 2.977,227.468 2.976 C 231.553 2.975,231.814 3.020,231.853 3.729 C 231.867 3.997,231.890 4.015,231.947 3.800 C 232.045 3.425,231.718 2.833,231.411 2.833 C 231.277 2.833,231.167 2.729,231.167 2.602 C 231.167 2.462,230.940 2.343,230.595 2.303 C 230.281 2.266,230.058 2.292,230.099 2.359 C 230.395 2.837,225.703 3.033,224.825 2.579 C 224.263 2.288,224.208 2.089,224.625 1.847 C 224.902 1.686,224.901 1.677,224.621 1.672 C 224.458 1.669,224.257 1.847,224.173 2.067 M261.238 1.929 C 261.584 2.274,261.571 2.585,261.208 2.638 C 259.130 2.941,255.488 2.757,255.733 2.360 C 255.775 2.292,255.553 2.266,255.238 2.303 C 254.919 2.340,254.667 2.464,254.667 2.583 C 254.667 2.701,254.479 2.844,254.250 2.902 C 254.013 2.961,253.833 3.127,253.833 3.285 C 253.833 3.534,253.856 3.532,254.053 3.263 C 254.255 2.987,254.624 2.962,258.595 2.959 C 261.548 2.957,262.771 2.906,262.457 2.797 C 262.205 2.710,262.041 2.568,262.095 2.482 C 262.148 2.396,262.095 2.346,261.977 2.371 C 261.859 2.396,261.685 2.248,261.592 2.042 C 261.498 1.835,261.321 1.667,261.199 1.667 C 261.030 1.667,261.039 1.730,261.238 1.929 M314.083 2.000 C 313.896 2.207,313.570 2.333,313.224 2.333 C 312.166 2.333,312.552 2.795,313.708 2.912 C 315.914 3.135,324.583 2.940,324.589 2.667 C 324.592 2.529,324.517 2.362,324.422 2.294 C 324.171 2.116,323.500 2.140,323.500 2.327 C 323.500 2.713,322.020 2.855,318.523 2.803 C 314.581 2.745,313.874 2.599,314.449 1.964 C 314.597 1.801,314.643 1.667,314.552 1.667 C 314.460 1.667,314.249 1.817,314.083 2.000 M1.462 2.652 C 1.540 3.185,2.024 3.422,2.506 3.163 C 2.663 3.079,5.985 2.989,9.888 2.964 L 16.985 2.917 17.048 3.500 C 17.096 3.944,17.117 3.879,17.139 3.230 L 17.167 2.377 16.542 2.274 C 16.198 2.217,12.648 2.170,8.654 2.169 L 1.391 2.167 1.462 2.652 M18.085 2.331 C 18.025 2.427,17.907 2.462,17.822 2.410 C 17.732 2.354,17.678 2.688,17.693 3.198 C 17.711 3.797,17.742 3.908,17.787 3.542 L 17.854 3.000 25.766 3.000 C 33.889 3.000,34.352 2.963,33.757 2.368 C 33.558 2.169,18.207 2.133,18.085 2.331 M46.676 2.445 C 46.457 2.599,46.332 2.636,46.399 2.529 C 46.465 2.421,46.440 2.333,46.343 2.333 C 46.246 2.333,46.167 2.436,46.167 2.563 C 46.167 2.935,47.036 3.010,51.122 2.993 L 54.995 2.977 55.414 3.430 C 55.665 3.701,55.832 3.789,55.831 3.649 C 55.827 3.327,55.636 3.078,55.294 2.952 C 55.100 2.881,55.042 2.749,55.117 2.548 C 55.219 2.277,55.201 2.273,54.916 2.500 C 54.744 2.637,54.654 2.664,54.717 2.559 C 55.021 2.052,47.392 1.944,46.676 2.445 M66.675 2.325 C 66.542 2.409,66.388 2.451,66.334 2.417 C 66.280 2.384,66.225 2.501,66.212 2.678 C 66.188 2.993,66.402 3.000,75.510 3.000 C 84.811 3.000,84.833 2.999,84.833 2.657 C 84.833 2.468,84.764 2.357,84.678 2.410 C 84.593 2.462,84.476 2.429,84.418 2.336 C 84.283 2.118,67.019 2.107,66.675 2.325 M89.082 2.336 C 89.024 2.429,88.907 2.462,88.822 2.410 C 88.736 2.357,88.667 2.469,88.667 2.660 C 88.667 3.121,96.412 3.128,96.422 2.667 C 96.425 2.529,96.350 2.362,96.256 2.294 C 95.983 2.100,89.203 2.140,89.082 2.336 M97.417 2.322 C 97.233 2.395,96.997 2.422,96.892 2.382 C 96.586 2.268,96.474 2.617,96.733 2.876 C 96.863 3.006,97.004 3.294,97.046 3.515 C 97.117 3.893,97.123 3.890,97.144 3.458 L 97.167 3.000 98.958 2.995 C 99.944 2.992,103.800 2.994,107.529 3.000 C 112.574 3.008,114.339 2.960,114.429 2.813 C 114.516 2.673,114.616 2.705,114.775 2.923 C 115.084 3.345,115.057 3.782,114.708 3.998 C 114.442 4.163,114.445 4.175,114.750 4.129 C 115.278 4.050,115.246 2.419,114.717 2.412 C 114.516 2.409,114.297 2.353,114.231 2.287 C 114.067 2.123,97.834 2.157,97.417 2.322 M142.368 2.432 C 142.262 2.621,142.176 2.649,142.097 2.521 C 141.935 2.260,141.667 2.286,141.667 2.563 C 141.667 2.927,142.465 3.000,146.424 3.000 C 150.203 3.000,150.667 2.956,150.667 2.593 C 150.667 2.146,142.616 1.989,142.368 2.432 M173.582 2.336 C 173.524 2.429,173.407 2.462,173.322 2.410 C 173.236 2.357,173.167 2.470,173.167 2.660 C 173.167 3.007,173.169 3.007,181.255 2.994 C 188.754 2.981,189.340 2.960,189.297 2.699 C 189.271 2.544,189.137 2.366,189.000 2.303 C 188.580 2.113,173.700 2.145,173.582 2.336 M190.292 2.282 C 190.131 2.323,190.000 2.502,190.000 2.679 C 190.000 2.991,190.213 3.000,198.023 3.000 C 206.740 3.000,206.978 3.025,206.211 3.875 C 206.067 4.035,206.016 4.166,206.099 4.164 C 206.898 4.151,206.884 2.482,206.083 2.312 C 205.518 2.192,190.743 2.164,190.292 2.282 M234.343 2.445 C 234.124 2.599,233.999 2.636,234.066 2.529 C 234.132 2.421,234.107 2.333,234.010 2.333 C 233.913 2.333,233.833 2.536,233.833 2.783 C 233.833 3.067,233.892 3.175,233.992 3.075 C 234.089 2.978,237.562 2.934,242.981 2.961 L 251.813 3.006 251.880 3.545 C 251.925 3.910,251.955 3.802,251.973 3.208 C 251.989 2.687,251.929 2.333,251.823 2.333 C 251.726 2.333,251.701 2.421,251.768 2.529 C 251.834 2.636,251.709 2.599,251.491 2.445 C 250.883 2.020,234.950 2.020,234.343 2.445 M270.571 2.313 C 270.624 2.399,270.518 2.430,270.334 2.382 C 270.078 2.315,270.000 2.376,270.000 2.647 L 270.000 3.000 278.005 3.000 C 286.227 3.000,286.686 2.964,286.090 2.368 C 285.908 2.185,270.458 2.130,270.571 2.313 M287.341 2.325 C 287.208 2.409,287.055 2.451,287.001 2.417 C 286.947 2.384,286.892 2.501,286.878 2.678 C 286.855 2.992,287.052 3.000,294.844 3.000 C 301.834 3.000,302.833 2.969,302.833 2.750 C 302.833 2.454,303.097 2.419,303.266 2.692 C 303.345 2.820,303.311 2.839,303.167 2.750 C 303.022 2.661,302.989 2.680,303.067 2.808 C 303.251 3.104,303.500 3.036,303.500 2.688 C 303.500 2.458,303.337 2.350,302.875 2.274 C 301.871 2.108,287.610 2.155,287.341 2.325 M333.125 2.284 C 332.759 2.341,332.667 2.444,332.667 2.793 C 332.667 3.215,332.676 3.219,332.917 2.907 C 333.061 2.721,333.131 2.690,333.082 2.833 C 333.006 3.054,333.960 3.078,341.130 3.039 C 348.849 2.996,349.264 2.979,349.286 2.691 C 349.298 2.525,349.220 2.365,349.113 2.337 C 348.804 2.255,333.637 2.205,333.125 2.284 M350.333 2.303 C 350.196 2.366,350.061 2.549,350.034 2.712 C 349.954 3.184,366.048 3.078,366.139 2.605 C 366.174 2.424,366.127 2.338,366.028 2.400 C 365.933 2.458,365.809 2.429,365.752 2.336 C 365.633 2.145,350.753 2.113,350.333 2.303 M369.578 2.294 C 368.747 2.885,369.177 2.917,378.000 2.917 C 385.468 2.917,386.598 2.949,386.697 3.167 C 386.767 3.322,386.814 3.220,386.822 2.896 C 386.832 2.442,386.766 2.362,386.313 2.271 C 385.576 2.124,369.787 2.146,369.578 2.294 M309.748 2.554 C 309.566 2.662,308.854 2.794,308.167 2.847 L 306.917 2.945 308.271 2.972 C 309.892 3.005,310.667 2.873,310.667 2.563 C 310.667 2.436,310.587 2.333,310.490 2.333 C 310.393 2.333,310.370 2.427,310.439 2.542 C 310.536 2.704,310.510 2.707,310.322 2.554 C 310.137 2.405,310.002 2.405,309.748 2.554 M324.782 2.440 C 324.646 2.576,324.802 2.833,325.020 2.833 C 325.111 2.833,325.130 2.740,325.061 2.625 C 324.976 2.483,325.026 2.490,325.218 2.645 C 325.461 2.843,325.500 2.837,325.500 2.604 C 325.500 2.340,324.997 2.225,324.782 2.440 M368.667 3.238 C 368.667 3.749,368.723 4.167,368.792 4.167 C 368.860 4.167,368.905 3.832,368.892 3.422 C 368.878 3.013,368.916 2.694,368.975 2.714 C 369.035 2.734,369.106 2.675,369.134 2.583 C 369.162 2.492,369.068 2.392,368.925 2.363 C 368.716 2.319,368.667 2.486,368.667 3.238 M311.167 3.176 C 311.304 3.318,311.456 3.378,311.505 3.309 C 311.553 3.240,311.775 3.116,311.999 3.033 C 312.337 2.908,312.281 2.886,311.661 2.900 C 310.992 2.915,310.942 2.943,311.167 3.176 M326.281 2.952 C 326.482 2.990,326.681 3.130,326.723 3.263 C 326.771 3.418,326.790 3.399,326.773 3.212 C 326.756 3.020,326.601 2.911,326.332 2.901 C 325.990 2.887,325.981 2.896,326.281 2.952 M150.967 3.200 C 151.077 3.310,151.167 3.547,151.167 3.728 C 151.167 3.908,151.213 4.009,151.270 3.952 C 151.434 3.788,151.181 3.000,150.963 3.000 C 150.814 3.000,150.815 3.048,150.967 3.200 M45.708 3.610 C 45.594 3.657,45.500 3.850,45.500 4.040 C 45.500 4.374,45.510 4.376,45.833 4.083 C 46.332 3.632,46.267 3.385,45.708 3.610 M141.097 3.941 C 140.940 4.351,141.076 4.377,141.416 4.001 C 141.672 3.718,141.678 3.667,141.460 3.667 C 141.318 3.667,141.155 3.790,141.097 3.941 M253.328 4.009 C 253.228 4.198,253.181 4.441,253.226 4.551 C 253.273 4.666,253.313 4.634,253.320 4.476 C 253.327 4.326,253.446 4.159,253.583 4.106 C 253.721 4.054,253.833 3.933,253.833 3.839 C 253.833 3.544,253.521 3.650,253.328 4.009 M95.357 4.514 C 95.088 4.732,95.042 4.833,95.211 4.833 C 95.461 4.833,95.937 4.381,95.815 4.260 C 95.779 4.225,95.573 4.339,95.357 4.514 M288.048 4.917 C 288.049 5.375,288.081 5.543,288.120 5.289 C 288.158 5.036,288.157 4.661,288.117 4.456 C 288.078 4.251,288.046 4.458,288.048 4.917 M314.583 4.500 C 314.344 4.765,314.332 4.833,314.524 4.833 C 314.786 4.833,315.167 4.517,315.167 4.300 C 315.167 4.064,314.893 4.158,314.583 4.500 M371.333 16.083 C 371.333 23.917,371.390 28.000,371.500 28.000 C 371.610 28.000,371.667 23.917,371.667 16.083 C 371.667 8.250,371.610 4.167,371.500 4.167 C 371.390 4.167,371.333 8.250,371.333 16.083 M56.108 4.946 C 56.214 5.021,56.338 5.271,56.385 5.500 C 56.458 5.859,56.466 5.849,56.443 5.430 C 56.428 5.155,56.308 4.913,56.167 4.875 C 56.000 4.830,55.980 4.854,56.108 4.946 M232.500 4.980 C 232.500 5.190,232.989 5.566,233.108 5.448 C 233.279 5.277,233.024 4.833,232.755 4.833 C 232.615 4.833,232.500 4.899,232.500 4.980 M252.667 5.194 C 252.667 5.393,252.688 5.524,252.714 5.486 C 252.740 5.448,252.861 5.285,252.984 5.125 C 253.175 4.875,253.169 4.833,252.937 4.833 C 252.771 4.833,252.667 4.972,252.667 5.194 M317.740 9.333 C 317.740 11.854,317.763 12.885,317.791 11.625 C 317.820 10.365,317.820 8.302,317.791 7.042 C 317.763 5.781,317.740 6.813,317.740 9.333 M151.875 5.917 C 151.877 6.283,151.911 6.414,151.951 6.206 C 151.991 5.999,151.990 5.699,151.948 5.540 C 151.906 5.380,151.874 5.550,151.875 5.917 M44.934 5.764 C 44.744 6.261,44.834 6.385,45.167 6.083 C 45.350 5.917,45.500 5.718,45.500 5.641 C 45.500 5.391,45.039 5.491,44.934 5.764 M115.846 5.875 C 115.855 6.126,115.891 6.167,115.955 6.000 C 116.007 5.862,116.132 5.695,116.233 5.628 C 116.346 5.552,116.305 5.504,116.125 5.503 C 115.929 5.501,115.838 5.623,115.846 5.875 M127.394 7.250 C 127.395 8.167,127.423 8.520,127.456 8.036 C 127.490 7.552,127.490 6.802,127.456 6.369 C 127.421 5.937,127.394 6.333,127.394 7.250 M311.891 6.257 C 311.837 6.399,311.839 6.561,311.896 6.618 C 311.953 6.675,312.000 6.603,312.000 6.457 C 312.000 6.311,312.131 6.157,312.292 6.115 C 312.565 6.043,312.565 6.037,312.286 6.019 C 312.123 6.009,311.945 6.116,311.891 6.257 M287.500 6.520 C 287.500 6.816,287.541 6.840,287.750 6.667 C 287.887 6.553,288.000 6.393,288.000 6.313 C 288.000 6.232,287.887 6.167,287.750 6.167 C 287.606 6.167,287.500 6.317,287.500 6.520 M252.527 6.941 C 252.512 7.233,252.389 7.507,252.250 7.560 C 252.112 7.613,252.000 7.819,252.000 8.017 C 252.000 8.363,252.015 8.360,252.344 7.941 C 252.581 7.640,252.667 7.334,252.621 6.960 L 252.553 6.417 252.527 6.941 M70.013 6.958 C 70.004 7.210,70.096 7.332,70.292 7.331 C 70.472 7.329,70.513 7.281,70.400 7.206 C 70.299 7.138,70.174 6.971,70.121 6.833 C 70.058 6.666,70.022 6.708,70.013 6.958 M329.333 6.904 C 329.333 6.957,329.489 7.156,329.680 7.347 L 330.027 7.693 329.972 7.307 C 329.926 6.984,329.333 6.610,329.333 6.904 M311.167 7.294 C 311.167 7.394,311.049 7.594,310.905 7.738 C 310.677 7.966,310.675 8.000,310.894 8.000 C 311.152 8.000,311.441 7.385,311.265 7.210 C 311.211 7.155,311.167 7.193,311.167 7.294 M44.458 7.513 C 44.298 7.607,44.173 7.848,44.180 8.050 C 44.189 8.295,44.224 8.333,44.285 8.167 C 44.335 8.029,44.491 7.785,44.631 7.625 C 44.919 7.295,44.878 7.269,44.458 7.513 M57.029 7.952 C 57.006 8.503,57.072 8.694,57.333 8.833 C 57.559 8.954,57.667 8.956,57.667 8.839 C 57.667 8.744,57.558 8.667,57.426 8.667 C 57.265 8.667,57.165 8.435,57.122 7.958 L 57.058 7.250 57.029 7.952 M139.746 7.846 C 139.589 8.342,139.704 8.362,140.049 7.900 C 140.296 7.571,140.305 7.500,140.102 7.500 C 139.967 7.500,139.806 7.656,139.746 7.846 M70.667 8.255 C 70.667 8.524,71.110 8.779,71.281 8.608 C 71.400 8.489,71.023 8.000,70.813 8.000 C 70.732 8.000,70.667 8.115,70.667 8.255 M117.718 8.917 C 117.719 9.467,117.750 9.672,117.787 9.372 C 117.825 9.072,117.824 8.622,117.786 8.372 C 117.748 8.122,117.717 8.367,117.718 8.917 M233.348 8.202 C 233.494 8.320,233.660 8.529,233.719 8.667 C 233.781 8.813,233.809 8.744,233.787 8.502 C 233.763 8.231,233.634 8.069,233.417 8.037 C 233.120 7.992,233.113 8.011,233.348 8.202 M310.292 8.615 C 310.131 8.657,310.000 8.798,310.000 8.929 C 310.000 9.276,310.293 9.220,310.500 8.833 C 310.598 8.650,310.657 8.509,310.631 8.519 C 310.605 8.530,310.452 8.573,310.292 8.615 M286.891 8.924 C 286.837 9.065,286.837 9.226,286.892 9.281 C 287.011 9.400,287.500 9.023,287.500 8.813 C 287.500 8.561,286.995 8.653,286.891 8.924 M85.500 9.058 C 85.500 9.209,85.606 9.333,85.736 9.333 C 85.866 9.333,86.010 9.427,86.056 9.542 C 86.105 9.662,86.146 9.673,86.154 9.567 C 86.161 9.467,86.017 9.249,85.833 9.083 C 85.534 8.812,85.500 8.809,85.500 9.058 M92.099 9.218 C 91.905 9.359,91.828 9.577,91.878 9.843 C 91.951 10.232,91.956 10.230,91.977 9.792 C 91.991 9.505,92.094 9.333,92.250 9.333 C 92.388 9.333,92.500 9.258,92.500 9.167 C 92.500 8.951,92.457 8.956,92.099 9.218 M263.784 9.599 C 263.481 10.005,263.563 10.113,263.975 9.852 C 264.098 9.774,264.173 9.595,264.141 9.454 C 264.096 9.255,264.016 9.287,263.784 9.599 M43.570 9.743 C 43.514 9.968,43.506 10.249,43.554 10.368 C 43.605 10.495,43.646 10.452,43.654 10.263 C 43.661 10.087,43.791 9.806,43.942 9.638 C 44.197 9.357,44.197 9.333,43.946 9.333 C 43.795 9.333,43.627 9.517,43.570 9.743 M139.079 9.679 C 138.922 10.175,139.037 10.196,139.383 9.734 C 139.629 9.404,139.639 9.333,139.436 9.333 C 139.300 9.333,139.140 9.489,139.079 9.679 M221.667 9.670 C 221.667 9.766,221.782 9.888,221.924 9.942 C 222.315 10.092,222.361 9.931,221.992 9.701 C 221.786 9.572,221.667 9.561,221.667 9.670 M86.375 10.180 C 86.535 10.273,86.667 10.509,86.667 10.703 C 86.667 10.897,86.713 11.009,86.770 10.952 C 86.975 10.747,86.661 10.000,86.372 10.005 C 86.100 10.010,86.100 10.020,86.375 10.180 M115.278 10.111 C 115.217 10.172,115.167 10.407,115.167 10.634 L 115.167 11.045 115.500 10.621 C 115.926 10.080,115.739 9.650,115.278 10.111 M231.167 10.210 C 231.167 10.356,231.035 10.510,230.875 10.552 C 230.602 10.623,230.602 10.629,230.880 10.647 C 231.182 10.667,231.461 10.239,231.271 10.048 C 231.213 9.991,231.167 10.064,231.167 10.210 M263.096 10.754 C 262.919 10.887,262.822 11.044,262.880 11.102 C 263.055 11.277,263.500 11.029,263.500 10.755 C 263.500 10.448,263.499 10.448,263.096 10.754 M222.333 10.899 C 222.333 11.025,222.483 11.167,222.667 11.215 C 222.850 11.263,223.000 11.288,223.000 11.271 C 223.000 11.255,222.850 11.112,222.667 10.955 C 222.411 10.737,222.333 10.724,222.333 10.899 M91.167 11.127 C 91.167 11.227,91.049 11.427,90.905 11.571 C 90.677 11.800,90.675 11.833,90.894 11.833 C 91.152 11.833,91.441 11.219,91.265 11.043 C 91.211 10.989,91.167 11.027,91.167 11.127 M88.019 11.375 C 88.009 11.535,87.850 11.817,87.667 12.000 C 87.483 12.183,87.333 12.414,87.333 12.513 C 87.333 12.611,87.527 12.463,87.763 12.182 C 88.002 11.898,88.158 11.541,88.115 11.378 C 88.043 11.100,88.038 11.100,88.019 11.375 M42.938 11.854 C 42.880 12.141,42.833 12.553,42.833 12.771 C 42.833 13.012,42.735 13.167,42.583 13.167 C 42.446 13.167,42.333 13.278,42.333 13.415 C 42.333 13.623,42.388 13.617,42.667 13.378 C 42.869 13.205,43.000 12.886,43.000 12.567 C 43.000 12.277,43.112 11.947,43.250 11.833 C 43.562 11.574,43.572 11.333,43.271 11.333 C 43.145 11.333,42.995 11.568,42.938 11.854 M138.404 11.743 C 138.347 11.968,138.340 12.249,138.387 12.368 C 138.435 12.486,138.480 12.392,138.487 12.158 C 138.494 11.925,138.590 11.643,138.700 11.533 C 138.852 11.381,138.853 11.333,138.703 11.333 C 138.595 11.333,138.460 11.518,138.404 11.743 M125.118 12.172 C 124.876 12.454,124.872 12.500,125.090 12.500 C 125.230 12.500,125.388 12.384,125.442 12.243 C 125.595 11.845,125.429 11.808,125.118 12.172 M73.224 12.570 C 73.238 12.845,73.359 13.087,73.500 13.125 C 73.667 13.170,73.687 13.146,73.558 13.054 C 73.453 12.979,73.329 12.729,73.282 12.500 C 73.209 12.141,73.201 12.151,73.224 12.570 M90.261 12.655 C 90.088 12.846,89.998 13.053,90.061 13.116 C 90.219 13.274,90.720 12.744,90.640 12.504 C 90.599 12.380,90.459 12.435,90.261 12.655 M254.094 12.655 C 253.921 12.846,253.831 13.053,253.894 13.116 C 254.052 13.274,254.554 12.744,254.473 12.504 C 254.432 12.380,254.293 12.435,254.094 12.655 M121.667 12.633 C 121.667 12.903,122.079 13.167,122.501 13.167 C 122.997 13.167,123.647 12.758,123.455 12.566 C 123.385 12.496,123.239 12.528,123.131 12.636 C 122.890 12.876,122.225 12.896,122.083 12.667 C 121.960 12.468,121.667 12.444,121.667 12.633 M225.667 12.671 C 225.667 12.924,226.513 13.200,226.952 13.089 C 227.162 13.037,227.333 12.883,227.333 12.747 C 227.333 12.447,227.057 12.419,226.951 12.708 C 226.890 12.875,226.831 12.875,226.654 12.708 C 226.389 12.458,225.667 12.430,225.667 12.671 M234.125 12.806 C 234.457 13.154,234.587 13.134,234.442 12.757 C 234.388 12.616,234.229 12.500,234.089 12.500 C 233.873 12.500,233.878 12.547,234.125 12.806 M258.500 12.726 C 258.500 12.873,258.672 13.037,258.882 13.089 C 259.320 13.200,260.167 12.924,260.167 12.671 C 260.167 12.438,259.446 12.454,259.207 12.693 C 259.061 12.839,258.952 12.834,258.757 12.673 C 258.544 12.495,258.500 12.505,258.500 12.726 M231.336 12.875 C 231.334 13.071,231.456 13.162,231.708 13.154 C 231.959 13.145,232.000 13.109,231.833 13.045 C 231.696 12.993,231.528 12.868,231.461 12.767 C 231.385 12.654,231.337 12.695,231.336 12.875 M384.500 12.917 C 384.317 13.137,384.545 13.167,386.396 13.167 C 388.316 13.167,388.929 13.034,388.236 12.768 C 387.648 12.542,384.714 12.659,384.500 12.917 M140.833 13.288 C 140.833 13.490,140.708 13.670,140.542 13.707 C 140.381 13.742,140.569 13.775,140.959 13.780 C 141.494 13.786,141.617 13.742,141.459 13.602 C 141.344 13.500,141.156 13.308,141.042 13.175 C 140.865 12.970,140.833 12.986,140.833 13.288 M45.339 13.363 C 45.336 13.516,45.202 13.671,45.042 13.707 C 44.881 13.742,45.087 13.774,45.500 13.777 C 45.913 13.780,46.137 13.745,46.000 13.698 C 45.862 13.651,45.659 13.494,45.547 13.348 C 45.363 13.108,45.343 13.109,45.339 13.363 M117.292 13.588 C 117.131 13.803,117.000 14.042,117.000 14.119 C 117.000 14.196,116.850 14.388,116.667 14.545 C 116.320 14.841,116.224 15.167,116.482 15.167 C 116.564 15.167,116.674 15.054,116.727 14.917 C 116.857 14.578,117.278 14.601,117.487 14.958 C 117.638 15.219,117.657 15.210,117.662 14.875 C 117.665 14.611,117.569 14.500,117.339 14.500 C 116.969 14.500,117.046 14.054,117.471 13.735 C 117.604 13.636,117.683 13.474,117.648 13.376 C 117.612 13.278,117.452 13.373,117.292 13.588 M137.833 13.528 C 137.833 13.726,137.855 13.858,137.880 13.819 C 137.906 13.781,138.028 13.619,138.151 13.458 C 138.342 13.209,138.335 13.167,138.104 13.167 C 137.938 13.167,137.833 13.306,137.833 13.528 M188.737 13.576 C 188.680 13.801,188.673 14.083,188.721 14.201 C 188.772 14.328,188.812 14.285,188.820 14.096 C 188.827 13.920,188.957 13.639,189.109 13.471 C 189.363 13.191,189.364 13.167,189.112 13.167 C 188.962 13.167,188.794 13.350,188.737 13.576 M287.972 14.458 C 287.941 15.169,287.956 18.525,288.003 21.917 L 288.089 28.083 288.128 20.625 C 288.164 13.713,288.104 11.344,287.972 14.458 M328.438 13.420 C 328.385 13.559,328.121 13.717,327.852 13.771 C 327.558 13.830,327.329 14.000,327.277 14.197 C 327.197 14.504,327.213 14.508,327.554 14.260 C 327.754 14.115,328.085 13.924,328.292 13.836 C 328.498 13.747,328.667 13.561,328.667 13.421 C 328.667 13.096,328.563 13.095,328.438 13.420 M393.167 13.274 C 393.304 13.328,393.517 13.494,393.640 13.644 C 393.842 13.891,393.858 13.885,393.805 13.583 C 393.767 13.368,393.599 13.237,393.332 13.213 C 393.103 13.192,393.029 13.220,393.167 13.274 M73.879 13.998 C 73.903 14.266,74.035 14.434,74.250 14.472 C 74.552 14.524,74.557 14.509,74.311 14.307 C 74.161 14.184,73.994 13.971,73.940 13.833 C 73.886 13.696,73.859 13.770,73.879 13.998 M113.264 14.107 C 113.106 14.518,113.242 14.543,113.582 14.168 C 113.838 13.885,113.845 13.833,113.627 13.833 C 113.485 13.833,113.322 13.957,113.264 14.107 M395.119 14.170 C 395.167 14.351,395.309 14.500,395.436 14.500 C 395.770 14.500,395.719 14.206,395.350 14.009 C 395.080 13.864,395.046 13.888,395.119 14.170 M137.693 14.542 C 137.675 14.974,137.590 15.167,137.417 15.167 C 137.279 15.167,137.167 15.296,137.167 15.454 C 137.167 15.706,137.208 15.699,137.512 15.395 C 137.765 15.142,137.840 14.898,137.789 14.483 L 137.720 13.917 137.693 14.542 M231.708 14.505 C 231.502 14.588,231.333 14.771,231.333 14.911 C 231.333 15.218,231.608 15.252,231.714 14.958 C 231.775 14.792,231.860 14.792,232.143 14.958 C 232.337 15.073,232.665 15.158,232.873 15.147 C 233.155 15.133,233.177 15.109,232.958 15.052 C 232.798 15.010,232.667 14.877,232.667 14.756 C 232.667 14.585,232.264 14.286,232.111 14.344 C 232.096 14.350,231.915 14.422,231.708 14.505 M253.287 14.436 C 253.053 14.669,253.172 14.833,253.573 14.833 C 253.797 14.833,254.027 14.908,254.083 15.000 C 254.203 15.194,254.501 15.224,254.497 15.042 C 254.489 14.625,253.562 14.160,253.287 14.436 M16.064 14.792 C 15.739 15.115,16.417 15.250,17.786 15.135 C 18.713 15.057,18.097 14.500,17.083 14.500 C 16.615 14.500,16.253 14.603,16.064 14.792 M348.458 14.680 C 347.894 15.009,348.178 15.167,349.333 15.167 C 350.497 15.167,350.679 15.079,350.300 14.700 C 350.058 14.458,348.862 14.445,348.458 14.680 M191.186 14.925 C 191.175 15.113,191.077 15.357,190.967 15.467 C 190.811 15.622,190.812 15.667,190.972 15.667 C 191.231 15.667,191.385 15.278,191.283 14.885 C 191.216 14.625,191.203 14.630,191.186 14.925 M46.169 15.292 C 46.167 15.571,46.262 15.666,46.542 15.664 C 46.818 15.662,46.857 15.624,46.689 15.517 C 46.563 15.438,46.396 15.270,46.316 15.145 C 46.210 14.977,46.171 15.015,46.169 15.292 M74.500 15.255 C 74.500 15.396,74.616 15.555,74.757 15.609 C 75.134 15.754,75.154 15.624,74.806 15.292 C 74.547 15.045,74.500 15.039,74.500 15.255 M325.333 15.333 C 325.194 15.595,324.967 15.673,324.286 15.695 C 323.523 15.719,323.496 15.731,324.067 15.790 C 324.905 15.876,325.500 15.724,325.500 15.424 C 325.500 15.282,325.717 15.161,326.042 15.121 L 326.583 15.053 326.048 15.027 C 325.665 15.008,325.461 15.095,325.333 15.333 M384.542 15.119 C 384.794 15.158,385.206 15.158,385.458 15.119 C 385.710 15.081,385.504 15.050,385.000 15.050 C 384.496 15.050,384.290 15.081,384.542 15.119 M227.550 15.401 C 227.477 15.529,227.229 15.669,227.000 15.711 L 226.583 15.788 227.023 15.811 C 227.265 15.823,227.640 15.686,227.857 15.506 C 228.177 15.238,228.198 15.177,227.967 15.172 C 227.811 15.169,227.623 15.272,227.550 15.401 M257.667 15.313 C 257.667 15.520,258.605 15.885,258.867 15.780 C 258.986 15.732,258.924 15.687,258.729 15.680 C 258.534 15.673,258.281 15.554,258.167 15.417 C 257.938 15.141,257.667 15.085,257.667 15.313 M121.667 15.732 C 121.667 15.768,121.924 15.827,122.238 15.864 C 122.553 15.900,122.773 15.871,122.728 15.799 C 122.648 15.668,121.667 15.606,121.667 15.732 M287.375 16.250 C 287.377 16.617,287.411 16.747,287.451 16.540 C 287.491 16.332,287.490 16.032,287.448 15.873 C 287.406 15.714,287.374 15.883,287.375 16.250 M59.667 15.917 C 59.667 15.963,59.817 16.150,60.000 16.333 C 60.369 16.703,60.422 16.644,60.161 16.156 C 60.007 15.868,59.667 15.703,59.667 15.917 M155.356 16.027 C 155.506 16.150,155.672 16.362,155.726 16.500 C 155.780 16.637,155.808 16.563,155.787 16.335 C 155.763 16.068,155.632 15.899,155.417 15.862 C 155.115 15.809,155.109 15.825,155.356 16.027 M75.342 16.516 C 75.540 16.885,75.833 16.937,75.833 16.603 C 75.833 16.476,75.685 16.333,75.503 16.286 C 75.222 16.212,75.198 16.247,75.342 16.516 M225.021 16.483 C 224.896 16.563,224.821 16.706,224.855 16.801 C 224.890 16.901,225.085 16.838,225.310 16.654 C 225.702 16.334,225.472 16.198,225.021 16.483 M260.523 16.652 C 260.740 16.828,260.946 16.942,260.982 16.906 C 261.104 16.785,260.627 16.333,260.378 16.333 C 260.209 16.333,260.255 16.435,260.523 16.652 M311.365 16.625 C 311.415 16.885,311.697 16.922,313.993 16.963 C 315.407 16.988,316.514 16.959,316.452 16.897 C 316.391 16.835,315.376 16.799,314.197 16.817 C 312.437 16.844,312.017 16.804,311.840 16.592 C 311.553 16.246,311.296 16.264,311.365 16.625 M326.458 16.444 C 326.573 16.490,326.667 16.634,326.667 16.764 C 326.667 16.894,326.779 17.000,326.917 17.000 C 327.054 17.000,327.167 16.952,327.167 16.893 C 327.167 16.741,326.615 16.342,326.417 16.352 C 326.325 16.356,326.344 16.397,326.458 16.444 M188.039 17.000 C 188.039 17.321,188.073 17.452,188.115 17.292 C 188.157 17.131,188.157 16.869,188.115 16.708 C 188.073 16.548,188.039 16.679,188.039 17.000 M41.003 17.292 C 41.004 17.472,41.052 17.513,41.128 17.400 C 41.195 17.299,41.362 17.174,41.500 17.121 C 41.667 17.058,41.626 17.022,41.375 17.013 C 41.123 17.004,41.001 17.096,41.003 17.292 M46.833 17.255 C 46.833 17.396,46.949 17.555,47.091 17.609 C 47.467 17.754,47.487 17.624,47.139 17.292 C 46.880 17.045,46.833 17.039,46.833 17.255 M136.576 17.178 C 136.400 17.464,136.558 17.492,136.907 17.236 C 137.177 17.039,137.186 17.000,136.958 17.000 C 136.809 17.000,136.637 17.080,136.576 17.178 M142.333 17.255 C 142.333 17.396,142.446 17.554,142.583 17.606 C 142.723 17.660,142.844 17.933,142.858 18.226 C 142.880 18.683,142.892 18.695,142.950 18.324 C 143.027 17.824,142.750 17.000,142.504 17.000 C 142.410 17.000,142.333 17.115,142.333 17.255 M250.667 17.255 C 250.667 17.524,251.110 17.779,251.281 17.608 C 251.400 17.489,251.023 17.000,250.813 17.000 C 250.732 17.000,250.667 17.115,250.667 17.255 M386.833 17.255 C 386.833 17.396,386.949 17.555,387.091 17.609 C 387.467 17.754,387.487 17.624,387.139 17.292 C 386.880 17.045,386.833 17.039,386.833 17.255 M398.274 17.625 C 397.904 19.863,398.217 26.667,398.690 26.667 C 399.090 26.667,399.107 25.837,398.735 24.556 C 398.084 22.318,398.727 16.821,399.487 18.125 C 399.642 18.391,399.657 18.392,399.662 18.136 C 399.664 17.982,399.517 17.808,399.333 17.750 C 399.150 17.692,399.000 17.499,399.000 17.322 C 399.000 16.686,398.387 16.941,398.274 17.625 M44.000 17.321 C 44.000 17.406,43.869 17.510,43.708 17.552 C 43.489 17.609,43.509 17.633,43.792 17.647 C 44.022 17.659,44.167 17.571,44.167 17.417 C 44.167 17.279,44.129 17.167,44.083 17.167 C 44.038 17.167,44.000 17.236,44.000 17.321 M139.500 17.321 C 139.500 17.406,139.369 17.510,139.208 17.552 C 138.989 17.609,139.009 17.633,139.292 17.647 C 139.522 17.659,139.667 17.571,139.667 17.417 C 139.667 17.279,139.629 17.167,139.583 17.167 C 139.537 17.167,139.500 17.236,139.500 17.321 M190.284 17.766 C 190.119 17.987,190.060 18.167,190.153 18.167 C 190.322 18.167,190.743 17.518,190.639 17.419 C 190.608 17.390,190.449 17.546,190.284 17.766 M60.536 17.958 C 60.675 18.119,60.831 18.362,60.882 18.500 C 60.957 18.705,60.976 18.700,60.987 18.472 C 61.008 18.016,60.815 17.667,60.540 17.667 C 60.308 17.667,60.308 17.697,60.536 17.958 M156.058 17.971 C 156.209 18.139,156.339 18.420,156.346 18.596 C 156.354 18.785,156.395 18.828,156.446 18.701 C 156.594 18.333,156.341 17.667,156.054 17.667 C 155.803 17.667,155.803 17.691,156.058 17.971 M317.740 22.500 C 317.740 25.204,317.763 26.310,317.791 24.958 C 317.819 23.606,317.819 21.394,317.791 20.042 C 317.763 18.690,317.740 19.796,317.740 22.500 M262.180 18.088 C 262.173 18.182,262.317 18.388,262.500 18.545 C 262.779 18.783,262.833 18.789,262.833 18.582 C 262.833 18.445,262.727 18.333,262.597 18.333 C 262.467 18.333,262.323 18.240,262.277 18.125 C 262.231 18.010,262.187 17.994,262.180 18.088 M307.708 18.444 C 307.485 18.534,307.416 19.000,307.627 19.000 C 307.696 19.000,307.847 18.850,307.961 18.667 C 308.168 18.336,308.108 18.283,307.708 18.444 M114.519 19.380 C 114.506 19.808,114.583 20.042,114.757 20.109 C 115.144 20.257,115.254 20.040,114.961 19.709 C 114.818 19.548,114.665 19.267,114.620 19.083 C 114.574 18.894,114.530 19.023,114.519 19.380 M313.833 19.339 C 313.833 19.519,313.946 19.667,314.083 19.667 C 314.221 19.667,314.333 19.562,314.333 19.434 C 314.333 19.307,314.221 19.159,314.083 19.106 C 313.913 19.041,313.833 19.115,313.833 19.339 M286.659 20.121 C 286.613 20.508,286.639 20.761,286.716 20.684 C 286.794 20.606,286.832 20.289,286.800 19.980 C 286.743 19.431,286.740 19.434,286.659 20.121 M61.487 20.292 C 61.566 20.867,61.578 20.879,61.633 20.438 C 61.666 20.175,61.627 19.894,61.547 19.813 C 61.463 19.729,61.437 19.934,61.487 20.292 M189.609 20.267 C 189.439 20.499,189.352 20.740,189.414 20.803 C 189.550 20.939,190.000 20.361,190.000 20.051 C 190.000 19.757,189.966 19.776,189.609 20.267 M234.360 20.255 C 234.345 20.440,234.213 20.764,234.066 20.974 C 233.749 21.427,233.897 21.674,234.266 21.305 C 234.433 21.138,234.500 20.847,234.456 20.482 C 234.418 20.171,234.375 20.069,234.360 20.255 M69.333 20.583 C 69.333 20.721,69.214 20.833,69.068 20.833 C 68.922 20.833,68.763 20.983,68.715 21.167 C 68.667 21.350,68.524 21.500,68.397 21.500 C 68.270 21.500,68.167 21.578,68.167 21.673 C 68.167 21.790,68.274 21.788,68.500 21.667 C 68.683 21.569,68.833 21.387,68.833 21.264 C 68.833 21.140,68.983 21.000,69.167 20.952 C 69.448 20.878,69.668 20.333,69.417 20.333 C 69.371 20.333,69.333 20.446,69.333 20.583 M76.386 20.581 C 76.406 20.776,76.558 20.927,76.752 20.947 C 76.992 20.972,77.006 20.958,76.802 20.897 C 76.647 20.851,76.483 20.686,76.436 20.531 C 76.376 20.327,76.362 20.341,76.386 20.581 M157.028 20.869 C 157.007 21.336,157.082 21.532,157.333 21.667 C 157.559 21.788,157.667 21.790,157.667 21.673 C 157.667 21.578,157.559 21.500,157.427 21.500 C 157.272 21.500,157.164 21.278,157.121 20.875 L 157.056 20.250 157.028 20.869 M330.000 20.432 C 330.000 20.486,330.150 20.721,330.333 20.955 C 330.680 21.396,330.731 21.341,330.562 20.708 C 330.475 20.386,330.000 20.152,330.000 20.432 M86.013 20.944 C 86.006 21.143,85.906 21.343,85.792 21.390 C 85.628 21.455,85.630 21.477,85.797 21.487 C 86.050 21.502,86.234 21.100,86.112 20.797 C 86.065 20.680,86.020 20.746,86.013 20.944 M39.724 21.091 C 39.580 21.467,39.709 21.487,40.042 21.139 C 40.288 20.880,40.294 20.833,40.078 20.833 C 39.938 20.833,39.778 20.949,39.724 21.091 M251.333 21.153 C 251.333 21.650,251.513 22.000,251.768 22.000 C 252.106 22.000,252.052 21.552,251.667 21.167 C 251.343 20.843,251.333 20.842,251.333 21.153 M42.608 21.372 C 42.503 21.440,43.842 21.482,45.583 21.465 C 48.756 21.436,48.472 21.375,44.775 21.294 C 43.688 21.270,42.713 21.305,42.608 21.372 M77.000 21.335 C 77.000 21.426,77.150 21.650,77.333 21.833 C 77.541 22.041,77.667 22.086,77.667 21.954 C 77.667 21.837,77.517 21.612,77.333 21.455 C 77.150 21.298,77.000 21.244,77.000 21.335 M138.109 21.372 C 138.003 21.440,139.335 21.496,141.069 21.497 C 142.803 21.499,144.182 21.459,144.132 21.410 C 143.992 21.269,138.326 21.234,138.109 21.372 M42.205 22.000 C 42.205 22.321,42.240 22.452,42.282 22.292 C 42.323 22.131,42.323 21.869,42.282 21.708 C 42.240 21.548,42.205 21.679,42.205 22.000 M127.034 21.826 C 127.264 22.194,127.426 22.148,127.276 21.757 C 127.222 21.616,127.099 21.500,127.004 21.500 C 126.894 21.500,126.905 21.620,127.034 21.826 M78.353 22.028 C 78.321 22.481,78.517 22.833,78.800 22.833 C 79.039 22.833,79.038 22.814,78.796 22.625 C 78.649 22.510,78.493 22.267,78.450 22.083 C 78.393 21.840,78.367 21.825,78.353 22.028 M48.723 22.332 C 48.741 22.613,48.857 22.757,49.083 22.780 C 49.323 22.805,49.338 22.791,49.135 22.730 C 48.980 22.684,48.818 22.482,48.775 22.281 C 48.708 21.976,48.700 21.984,48.723 22.332 M68.019 22.357 C 68.009 22.599,67.887 22.841,67.750 22.894 C 67.485 22.995,67.399 23.500,67.646 23.500 C 67.866 23.500,68.208 22.571,68.117 22.222 C 68.063 22.010,68.033 22.052,68.019 22.357 M85.094 22.322 C 84.921 22.512,84.831 22.720,84.894 22.783 C 85.052 22.941,85.554 22.411,85.473 22.170 C 85.432 22.046,85.293 22.102,85.094 22.322 M144.220 22.415 C 144.240 22.609,144.391 22.760,144.585 22.780 C 144.826 22.805,144.839 22.791,144.635 22.730 C 144.480 22.684,144.316 22.520,144.270 22.365 C 144.209 22.161,144.195 22.174,144.220 22.415 M62.209 22.917 C 62.211 23.283,62.245 23.414,62.285 23.206 C 62.324 22.999,62.323 22.699,62.281 22.540 C 62.239 22.380,62.207 22.550,62.209 22.917 M286.019 22.654 C 286.009 22.784,285.876 23.028,285.724 23.195 C 285.572 23.363,285.526 23.500,285.620 23.500 C 285.906 23.500,286.199 23.036,286.116 22.716 C 286.070 22.537,286.031 22.512,286.019 22.654 M134.513 23.208 C 134.522 23.459,134.558 23.500,134.621 23.333 C 134.674 23.196,134.799 23.028,134.900 22.961 C 135.013 22.885,134.972 22.837,134.792 22.836 C 134.596 22.834,134.504 22.956,134.513 23.208 M137.292 23.207 C 137.131 23.405,137.011 23.796,137.025 24.076 L 137.050 24.583 137.119 24.083 C 137.156 23.808,137.303 23.494,137.444 23.386 C 137.586 23.277,137.675 23.111,137.642 23.017 C 137.610 22.923,137.452 23.008,137.292 23.207 M304.846 23.208 C 304.855 23.459,304.891 23.500,304.955 23.333 C 305.007 23.196,305.132 23.028,305.233 22.961 C 305.346 22.885,305.305 22.837,305.125 22.836 C 304.929 22.834,304.838 22.956,304.846 23.208 M79.013 23.278 C 78.988 23.654,79.205 24.000,79.466 24.000 C 79.707 24.000,79.707 23.981,79.468 23.792 C 79.323 23.677,79.165 23.471,79.116 23.333 C 79.067 23.196,79.020 23.171,79.013 23.278 M221.850 23.553 C 221.736 23.765,221.671 24.234,221.705 24.595 L 221.768 25.250 221.905 24.542 C 221.981 24.152,222.108 23.833,222.188 23.833 C 222.268 23.833,222.333 23.683,222.333 23.500 C 222.333 23.053,222.104 23.078,221.850 23.553 M315.626 24.250 C 315.582 24.479,315.611 24.667,315.690 24.667 C 315.769 24.667,315.833 24.479,315.833 24.250 C 315.833 24.021,315.805 23.833,315.769 23.833 C 315.734 23.833,315.670 24.021,315.626 24.250 M41.500 24.377 C 41.500 24.615,41.382 24.927,41.238 25.071 C 41.007 25.303,41.006 25.333,41.231 25.333 C 41.491 25.333,41.805 24.250,41.603 24.048 C 41.547 23.991,41.500 24.139,41.500 24.377 M263.500 24.432 C 263.500 24.578,263.650 24.888,263.833 25.121 C 264.220 25.613,264.341 25.138,263.994 24.489 C 263.785 24.099,263.500 24.066,263.500 24.432 M304.856 24.792 C 304.839 25.206,304.902 25.333,305.125 25.331 C 305.312 25.329,305.348 25.284,305.225 25.206 C 305.120 25.138,304.999 24.896,304.956 24.667 C 304.891 24.314,304.875 24.333,304.856 24.792 M79.842 24.850 C 80.040 25.219,80.333 25.270,80.333 24.936 C 80.333 24.809,80.185 24.667,80.003 24.619 C 79.722 24.546,79.698 24.580,79.842 24.850 M38.508 24.907 C 38.398 25.040,38.341 25.321,38.381 25.532 C 38.447 25.879,38.457 25.873,38.477 25.467 C 38.490 25.219,38.631 24.940,38.792 24.847 C 38.952 24.753,38.999 24.675,38.895 24.672 C 38.792 24.669,38.618 24.775,38.508 24.907 M134.042 24.777 C 133.927 24.823,133.839 25.024,133.846 25.222 C 133.855 25.463,133.890 25.500,133.949 25.333 C 133.998 25.196,134.157 24.990,134.301 24.875 C 134.563 24.667,134.435 24.618,134.042 24.777 M218.346 24.813 C 218.123 24.875,217.911 25.018,217.873 25.130 C 217.784 25.397,217.816 25.391,218.583 25.000 C 219.229 24.671,219.131 24.593,218.346 24.813 M266.042 25.042 C 265.403 25.488,265.331 25.737,265.917 25.470 C 266.146 25.365,266.333 25.214,266.333 25.135 C 266.333 25.055,266.502 24.921,266.708 24.839 C 266.927 24.751,266.978 24.683,266.831 24.677 C 266.692 24.671,266.337 24.835,266.042 25.042 M129.333 25.043 C 129.333 25.159,129.183 25.347,129.000 25.461 C 128.817 25.576,128.667 25.755,128.667 25.861 C 128.667 26.088,129.297 25.547,129.521 25.127 C 129.624 24.934,129.619 24.833,129.506 24.833 C 129.411 24.833,129.333 24.928,129.333 25.043 M130.958 25.139 C 131.291 25.487,131.420 25.467,131.276 25.091 C 131.222 24.949,131.062 24.833,130.922 24.833 C 130.706 24.833,130.712 24.880,130.958 25.139 M219.489 25.146 C 219.581 25.318,219.809 25.498,219.995 25.547 C 220.181 25.596,220.292 25.568,220.240 25.484 C 220.189 25.401,220.039 25.333,219.907 25.333 C 219.775 25.333,219.667 25.221,219.667 25.083 C 219.667 24.946,219.589 24.833,219.494 24.833 C 219.377 24.833,219.375 24.934,219.489 25.146 M267.523 25.152 C 267.957 25.504,268.093 25.484,267.942 25.091 C 267.888 24.949,267.683 24.833,267.487 24.833 C 267.135 24.833,267.135 24.838,267.523 25.152 M285.125 25.423 C 284.769 25.899,284.761 26.000,285.080 26.000 C 285.216 26.000,285.375 25.809,285.434 25.576 C 285.577 25.004,285.476 24.953,285.125 25.423 M252.000 25.323 C 252.000 25.392,252.150 25.622,252.333 25.833 L 252.667 26.218 252.667 25.795 C 252.667 25.512,252.556 25.343,252.333 25.285 C 252.150 25.237,252.000 25.254,252.000 25.323 M78.167 25.654 C 78.167 25.739,78.035 25.843,77.875 25.885 C 77.656 25.942,77.676 25.966,77.958 25.981 C 78.189 25.993,78.333 25.904,78.333 25.750 C 78.333 25.613,78.296 25.500,78.250 25.500 C 78.204 25.500,78.167 25.570,78.167 25.654 M386.896 25.745 C 386.719 26.206,386.917 26.302,387.216 25.901 C 387.477 25.551,387.482 25.500,387.253 25.500 C 387.108 25.500,386.947 25.610,386.896 25.745 M217.705 26.167 C 217.705 26.488,217.740 26.619,217.782 26.458 C 217.823 26.298,217.823 26.035,217.782 25.875 C 217.740 25.715,217.705 25.846,217.705 26.167 M50.019 26.292 C 50.004 26.580,50.086 26.662,50.375 26.647 C 50.641 26.634,50.668 26.606,50.469 26.554 C 50.314 26.513,50.154 26.353,50.113 26.198 C 50.060 25.999,50.033 26.026,50.019 26.292 M127.698 26.112 C 127.853 26.153,128.006 26.314,128.038 26.469 C 128.087 26.701,128.113 26.691,128.190 26.409 C 128.267 26.132,128.204 26.066,127.850 26.053 C 127.612 26.044,127.543 26.071,127.698 26.112 M145.500 26.255 C 145.500 26.396,145.616 26.555,145.757 26.609 C 146.134 26.754,146.154 26.624,145.806 26.292 C 145.547 26.045,145.500 26.039,145.500 26.255 M314.792 26.361 C 314.545 26.620,314.539 26.667,314.755 26.667 C 314.896 26.667,315.055 26.551,315.109 26.409 C 315.254 26.033,315.124 26.013,314.792 26.361 M79.842 26.484 C 79.698 26.753,79.722 26.788,80.003 26.714 C 80.185 26.667,80.333 26.524,80.333 26.397 C 80.333 26.063,80.040 26.115,79.842 26.484 M136.305 26.720 C 136.270 27.025,136.291 27.456,136.354 27.679 C 136.430 27.951,136.472 27.771,136.483 27.125 C 136.502 26.070,136.406 25.854,136.305 26.720 M40.833 26.658 C 40.833 26.837,40.702 27.060,40.542 27.153 C 40.370 27.253,40.338 27.325,40.464 27.328 C 40.581 27.331,40.741 27.502,40.819 27.708 C 40.928 27.996,40.964 27.880,40.971 27.208 C 40.977 26.727,40.948 26.333,40.907 26.333 C 40.867 26.333,40.833 26.480,40.833 26.658 M68.067 27.499 C 68.078 27.768,68.187 27.923,68.378 27.940 C 68.565 27.957,68.584 27.938,68.430 27.889 C 68.296 27.847,68.156 27.649,68.119 27.448 C 68.063 27.148,68.054 27.157,68.067 27.499 M267.505 27.186 C 267.278 27.276,266.943 27.510,266.760 27.707 C 266.465 28.024,266.461 28.051,266.728 27.948 C 266.892 27.885,267.096 27.833,267.180 27.833 C 267.264 27.833,267.333 27.721,267.333 27.583 C 267.333 27.444,267.481 27.333,267.667 27.333 C 267.850 27.333,268.000 27.258,268.000 27.167 C 268.000 27.075,267.981 27.005,267.958 27.011 C 267.935 27.016,267.731 27.095,267.505 27.186 M218.125 27.339 C 218.331 27.421,218.500 27.562,218.500 27.650 C 218.500 27.739,218.650 27.858,218.833 27.917 C 219.017 27.975,219.167 28.130,219.167 28.261 C 219.167 28.393,219.279 28.500,219.417 28.500 C 219.805 28.500,219.712 28.235,219.208 27.905 C 218.956 27.740,218.651 27.507,218.530 27.386 C 218.409 27.265,218.184 27.171,218.030 27.177 C 217.830 27.185,217.857 27.231,218.125 27.339 M328.580 27.836 C 328.083 28.346,328.002 28.500,328.232 28.500 C 328.396 28.500,328.570 28.350,328.618 28.167 C 328.666 27.983,328.801 27.833,328.918 27.833 C 329.117 27.833,329.409 27.353,329.285 27.229 C 329.254 27.198,328.937 27.471,328.580 27.836 M313.333 27.583 C 313.219 27.721,313.010 27.833,312.868 27.833 C 312.727 27.833,312.649 27.871,312.696 27.918 C 312.865 28.087,313.833 27.785,313.833 27.563 C 313.833 27.261,313.593 27.271,313.333 27.583 M77.292 27.782 C 77.131 27.823,77.000 27.964,77.000 28.094 C 77.000 28.281,77.069 28.271,77.333 28.045 C 77.619 27.800,77.764 27.621,77.625 27.686 C 77.602 27.697,77.452 27.740,77.292 27.782 M35.180 28.375 C 35.189 28.626,35.225 28.667,35.288 28.500 C 35.340 28.363,35.466 28.195,35.567 28.128 C 35.680 28.052,35.638 28.004,35.458 28.003 C 35.262 28.001,35.171 28.123,35.180 28.375 M48.087 28.647 C 48.027 29.002,48.028 29.565,48.091 29.897 L 48.204 30.500 57.185 30.500 L 66.167 30.500 66.167 30.125 L 66.167 29.750 57.375 29.763 C 52.540 29.770,48.490 29.743,48.375 29.703 C 48.042 29.588,48.134 28.806,48.529 28.386 L 48.891 28.000 48.544 28.000 C 48.270 28.000,48.173 28.137,48.087 28.647 M114.436 28.458 C 114.497 28.710,114.612 29.000,114.692 29.103 C 115.163 29.705,114.534 29.750,105.724 29.750 L 97.167 29.750 97.167 30.125 L 97.167 30.500 105.994 30.500 L 114.822 30.500 115.013 30.142 C 115.252 29.695,115.114 28.342,114.810 28.149 C 114.421 27.902,114.323 27.984,114.436 28.458 M130.680 28.375 C 130.689 28.626,130.725 28.667,130.788 28.500 C 130.840 28.363,130.966 28.195,131.067 28.128 C 131.180 28.052,131.138 28.004,130.958 28.003 C 130.762 28.001,130.671 28.123,130.680 28.375 M138.478 28.150 C 138.603 28.229,138.771 28.397,138.850 28.522 C 138.957 28.690,138.996 28.651,138.997 28.375 C 138.999 28.096,138.904 28.001,138.625 28.003 C 138.349 28.004,138.310 28.043,138.478 28.150 M143.605 28.375 C 143.550 28.581,143.504 29.025,143.502 29.361 C 143.498 30.598,142.707 30.500,152.684 30.500 L 161.667 30.500 161.667 30.042 L 161.667 29.583 160.042 29.691 C 158.847 29.770,143.990 29.759,143.708 29.679 C 143.511 29.623,143.743 28.691,144.029 28.386 C 144.389 28.003,144.389 28.000,144.048 28.000 C 143.834 28.000,143.668 28.140,143.605 28.375 M161.272 28.112 C 161.376 28.188,161.503 28.400,161.553 28.583 C 161.625 28.846,161.638 28.831,161.614 28.513 C 161.597 28.291,161.471 28.079,161.333 28.042 C 161.168 27.997,161.147 28.021,161.272 28.112 M206.014 28.453 C 206.108 28.702,206.250 28.983,206.329 29.078 C 206.858 29.715,206.381 29.755,198.083 29.776 L 190.083 29.795 190.030 30.148 L 189.977 30.500 197.999 30.500 C 203.211 30.500,206.135 30.440,206.344 30.327 C 206.781 30.094,206.780 28.899,206.343 28.375 C 205.924 27.874,205.804 27.902,206.014 28.453 M233.944 28.111 C 233.883 28.172,233.842 28.416,233.853 28.653 C 233.868 28.999,233.888 29.018,233.954 28.750 C 233.999 28.567,234.112 28.323,234.205 28.208 C 234.381 27.992,234.150 27.906,233.944 28.111 M302.833 28.078 C 302.833 28.134,302.990 28.346,303.181 28.549 L 303.529 28.917 303.473 28.502 C 303.426 28.153,302.833 27.761,302.833 28.078 M316.558 28.257 C 316.412 28.636,316.612 28.745,316.909 28.448 C 317.234 28.123,317.235 28.000,316.911 28.000 C 316.771 28.000,316.612 28.116,316.558 28.257 M332.729 28.245 C 332.552 28.706,332.750 28.802,333.049 28.401 C 333.311 28.051,333.315 28.000,333.086 28.000 C 332.941 28.000,332.781 28.110,332.729 28.245 M348.933 28.128 C 349.034 28.195,349.160 28.363,349.212 28.500 C 349.275 28.667,349.311 28.626,349.320 28.375 C 349.329 28.123,349.238 28.001,349.042 28.003 C 348.862 28.004,348.820 28.052,348.933 28.128 M368.743 28.386 C 368.690 28.598,368.669 29.142,368.698 29.594 L 368.750 30.417 380.583 30.463 C 392.765 30.510,393.167 30.498,393.167 30.080 C 393.167 29.786,393.910 29.802,379.458 29.783 L 368.833 29.769 368.833 29.146 C 368.833 28.803,368.951 28.407,369.095 28.262 C 369.331 28.027,369.331 28.000,369.098 28.000 C 368.956 28.000,368.796 28.174,368.743 28.386 M16.993 29.083 L 16.917 29.750 9.817 29.750 C 4.184 29.750,2.663 29.705,2.453 29.530 C 2.075 29.216,1.500 29.553,1.500 30.089 L 1.500 30.500 9.247 30.500 L 16.994 30.500 17.092 30.109 C 17.146 29.894,17.163 29.425,17.129 29.067 L 17.069 28.417 16.993 29.083 M128.858 28.767 C 128.734 28.907,128.675 29.064,128.726 29.115 C 128.891 29.280,129.333 29.018,129.333 28.755 C 129.333 28.434,129.149 28.438,128.858 28.767 M251.861 29.022 C 251.841 29.451,251.746 29.651,251.532 29.707 C 250.989 29.849,234.256 29.754,234.029 29.607 C 233.860 29.498,233.821 29.577,233.862 29.941 L 233.917 30.417 242.871 30.460 L 251.826 30.503 251.925 30.111 C 251.979 29.895,251.993 29.425,251.956 29.067 L 251.889 28.417 251.861 29.022 M253.833 28.708 C 253.833 28.858,253.913 29.030,254.011 29.090 C 254.297 29.267,254.325 29.109,254.070 28.760 C 253.872 28.489,253.833 28.481,253.833 28.708 M396.033 28.700 C 395.792 28.941,395.773 29.167,395.994 29.167 C 396.083 29.167,396.235 29.017,396.333 28.833 C 396.530 28.466,396.348 28.385,396.033 28.700 M17.690 29.278 C 17.645 30.606,16.936 30.500,25.851 30.500 L 33.833 30.500 33.833 30.124 L 33.833 29.748 25.875 29.772 L 17.917 29.796 17.815 29.190 L 17.714 28.583 17.690 29.278 M308.833 29.399 C 308.833 29.527,308.957 29.678,309.107 29.736 C 309.454 29.869,309.536 29.787,309.403 29.441 C 309.275 29.107,308.833 29.075,308.833 29.399 M73.250 29.676 C 72.058 29.742,70.990 29.804,70.875 29.814 C 70.760 29.825,70.667 29.983,70.667 30.167 C 70.667 30.588,72.184 30.645,72.939 30.251 C 73.633 29.889,77.205 29.894,77.506 30.258 C 77.807 30.620,79.558 30.533,79.631 30.151 C 79.671 29.938,79.412 29.848,78.299 29.693 C 76.837 29.488,76.660 29.488,73.250 29.676 M173.166 30.042 L 173.167 30.500 181.250 30.500 L 189.333 30.500 189.333 30.120 L 189.333 29.739 182.958 29.765 C 179.452 29.779,175.814 29.744,174.875 29.687 L 173.166 29.583 173.166 30.042 M301.583 29.668 C 300.575 29.726,296.844 29.769,293.292 29.762 L 286.833 29.750 286.833 30.125 L 286.833 30.500 295.167 30.500 L 303.500 30.500 303.500 30.000 C 303.500 29.725,303.481 29.514,303.458 29.531 C 303.435 29.547,302.592 29.609,301.583 29.668 M312.125 29.711 C 310.867 29.851,310.667 29.917,310.667 30.187 C 310.667 30.600,313.276 30.646,314.224 30.250 C 314.685 30.057,315.553 30.000,318.000 30.000 C 320.447 30.000,321.315 30.057,321.776 30.250 C 322.714 30.642,324.833 30.595,324.833 30.182 C 324.833 29.901,324.668 29.852,323.458 29.771 C 320.752 29.589,313.556 29.550,312.125 29.711 M332.701 30.000 L 332.750 30.417 341.042 30.460 L 349.333 30.503 349.333 30.127 L 349.333 29.750 342.875 29.764 C 339.323 29.771,335.570 29.734,334.534 29.680 L 332.652 29.583 332.701 30.000 M35.167 30.121 L 35.167 30.500 39.333 30.500 C 43.389 30.500,43.500 30.491,43.500 30.167 C 43.500 29.763,43.803 29.790,39.042 29.764 L 35.167 29.743 35.167 30.121 M119.615 29.789 C 119.128 29.839,118.992 29.920,119.033 30.136 C 119.108 30.532,120.850 30.632,121.160 30.258 C 121.459 29.898,124.540 29.893,125.227 30.251 C 125.997 30.652,127.333 30.550,127.333 30.089 C 127.333 29.724,122.170 29.523,119.615 29.789 M130.833 29.806 C 130.742 29.836,130.667 30.005,130.667 30.181 C 130.667 30.487,130.838 30.500,134.833 30.500 L 139.000 30.500 139.000 30.113 L 139.000 29.727 135.000 29.738 C 132.800 29.745,130.925 29.775,130.833 29.806 M222.792 29.786 C 222.065 29.896,222.159 30.500,222.903 30.500 C 223.216 30.500,223.510 30.594,223.556 30.708 C 223.611 30.844,223.645 30.824,223.654 30.652 C 223.686 30.001,227.048 29.697,228.106 30.249 C 228.824 30.624,230.000 30.586,230.000 30.188 C 230.000 29.722,225.043 29.445,222.792 29.786 M256.292 29.786 C 255.961 29.836,255.833 29.952,255.833 30.201 C 255.833 30.582,257.505 30.562,257.890 30.176 C 258.165 29.901,261.073 29.957,261.776 30.250 C 262.649 30.615,263.500 30.584,263.500 30.188 C 263.500 29.714,258.576 29.440,256.292 29.786 M270.280 29.804 C 270.126 29.834,270.000 30.002,270.000 30.179 C 270.000 30.492,270.214 30.500,278.083 30.500 L 286.167 30.500 286.167 30.125 L 286.167 29.750 278.363 29.750 C 274.071 29.750,270.433 29.774,270.280 29.804 M350.069 29.819 C 349.408 30.480,349.641 30.500,358.083 30.500 L 366.167 30.500 366.167 30.125 L 366.167 29.750 358.153 29.750 C 353.745 29.750,350.108 29.781,350.069 29.819 "
                                  stroke="none" fill-rule="evenodd"></path>
                            <path id="path1"
                                  d="M307.064 1.292 C 306.786 1.570,306.829 1.586,307.989 1.633 C 309.322 1.687,309.486 1.634,309.170 1.254 C 308.866 0.888,307.444 0.914,307.064 1.292 M0.411 3.842 C 0.253 4.098,0.470 4.263,0.684 4.049 C 0.804 3.930,0.807 3.836,0.693 3.766 C 0.599 3.708,0.473 3.742,0.411 3.842 M0.333 28.584 C 0.333 28.947,0.583 29.006,0.780 28.690 C 0.926 28.456,0.901 28.397,0.647 28.378 C 0.474 28.365,0.333 28.457,0.333 28.584 M313.500 30.667 C 313.500 30.758,313.612 30.833,313.750 30.833 C 313.887 30.833,314.000 30.758,314.000 30.667 C 314.000 30.575,313.887 30.500,313.750 30.500 C 313.612 30.500,313.500 30.575,313.500 30.667 "
                                  stroke="none" fill="#ffffff" fill-rule="evenodd"></path>
                            <path id="path2"
                                  d="M119.535 1.958 C 119.403 2.137,119.360 2.153,119.423 2.000 C 119.479 1.863,119.405 1.898,119.258 2.079 C 118.816 2.626,119.817 2.863,122.305 2.801 C 124.531 2.746,125.265 2.448,124.538 1.896 C 124.054 1.528,119.811 1.581,119.535 1.958 M224.716 1.883 C 223.806 2.388,224.930 2.834,227.114 2.832 C 229.551 2.831,230.264 2.637,229.896 2.076 C 229.585 1.601,225.497 1.449,224.716 1.883 M255.936 2.077 C 255.669 2.485,255.671 2.488,256.361 2.674 C 257.232 2.909,261.500 2.759,261.500 2.493 C 261.500 1.575,256.510 1.202,255.936 2.077 M309.000 1.845 C 308.771 1.912,308.308 1.974,307.972 1.983 C 306.755 2.016,306.833 1.662,306.833 7.164 C 306.833 12.834,306.755 12.546,308.278 12.467 L 309.250 12.417 309.302 11.509 C 309.340 10.838,309.438 10.542,309.677 10.374 C 309.912 10.209,310.000 9.952,310.000 9.427 C 310.000 8.846,310.065 8.689,310.333 8.618 C 310.561 8.559,310.667 8.391,310.667 8.089 C 310.667 7.846,310.729 7.686,310.805 7.733 C 310.881 7.780,311.045 7.559,311.170 7.242 C 311.294 6.926,311.494 6.667,311.614 6.667 C 311.735 6.667,311.833 6.547,311.833 6.401 C 311.833 6.255,311.983 6.096,312.167 6.048 C 312.350 6.000,312.500 5.866,312.500 5.750 C 312.500 5.634,312.650 5.500,312.833 5.452 C 313.017 5.404,313.167 5.245,313.167 5.099 C 313.167 4.907,313.327 4.833,313.744 4.833 C 314.151 4.833,314.374 4.735,314.500 4.500 C 314.768 3.999,317.084 3.999,317.215 4.500 C 317.263 4.683,317.422 4.833,317.568 4.833 C 317.804 4.833,317.833 5.327,317.833 9.333 C 317.833 13.722,317.825 13.833,317.500 13.833 C 317.278 13.833,317.167 13.944,317.167 14.167 C 317.167 14.487,317.056 14.500,314.250 14.500 L 311.333 14.500 311.333 15.417 C 311.333 16.084,311.396 16.333,311.563 16.333 C 311.689 16.333,311.886 16.446,312.000 16.583 C 312.248 16.882,314.986 16.942,315.514 16.659 C 315.758 16.529,315.931 16.550,316.207 16.743 C 316.409 16.884,316.707 17.000,316.870 17.000 C 317.033 17.000,317.167 17.107,317.167 17.239 C 317.167 17.370,317.317 17.525,317.500 17.583 C 317.823 17.686,317.833 17.836,317.833 22.471 C 317.833 27.073,317.821 27.261,317.500 27.461 C 317.317 27.576,317.167 27.804,317.167 27.968 C 317.167 28.573,316.833 28.667,314.673 28.667 C 312.787 28.667,312.560 28.635,312.379 28.345 C 312.201 28.060,312.234 28.012,312.673 27.915 C 312.944 27.856,313.167 27.744,313.167 27.666 C 313.167 27.589,313.434 27.437,313.762 27.329 C 314.089 27.221,314.402 27.015,314.457 26.871 C 314.513 26.727,314.695 26.472,314.862 26.304 C 315.053 26.114,315.167 25.757,315.167 25.351 C 315.167 24.942,315.255 24.669,315.405 24.611 C 315.929 24.410,315.926 21.667,315.402 21.667 C 315.239 21.667,315.167 21.463,315.167 21.000 C 315.167 20.444,315.111 20.333,314.833 20.333 C 314.611 20.333,314.500 20.222,314.500 20.000 C 314.500 19.778,314.389 19.667,314.167 19.667 C 313.944 19.667,313.833 19.556,313.833 19.333 C 313.833 19.118,313.722 19.000,313.519 19.000 C 313.346 19.000,313.167 18.851,313.118 18.667 C 312.983 18.151,308.247 18.151,308.083 18.667 C 308.025 18.850,307.839 19.000,307.669 19.000 C 307.209 19.000,306.833 19.177,306.833 19.394 C 306.833 19.500,306.683 19.680,306.500 19.795 C 306.314 19.911,306.167 20.183,306.167 20.412 C 306.167 20.651,306.028 20.896,305.833 21.000 C 305.562 21.145,305.500 21.349,305.500 22.089 C 305.500 22.788,305.442 23.000,305.250 23.000 C 304.980 23.000,304.943 23.185,304.987 24.331 C 305.004 24.787,305.110 25.131,305.258 25.214 C 305.399 25.293,305.500 25.597,305.500 25.941 C 305.500 26.391,305.579 26.552,305.833 26.618 C 306.029 26.669,306.167 26.846,306.167 27.044 C 306.167 27.487,307.216 28.500,307.674 28.500 C 307.891 28.500,308.065 28.631,308.118 28.833 C 308.183 29.082,308.346 29.167,308.758 29.167 C 309.177 29.167,309.338 29.253,309.424 29.524 C 309.536 29.875,309.577 29.879,311.477 29.733 C 313.485 29.578,318.823 29.592,323.352 29.765 C 325.891 29.861,325.955 29.855,326.044 29.515 C 326.115 29.243,326.267 29.167,326.734 29.167 C 327.215 29.167,327.333 29.103,327.333 28.845 C 327.333 28.638,327.467 28.504,327.708 28.470 C 327.915 28.441,328.059 28.345,328.029 28.258 C 328.000 28.171,328.131 28.042,328.321 27.972 C 328.511 27.902,328.667 27.729,328.667 27.589 C 328.667 27.448,328.786 27.333,328.932 27.333 C 329.078 27.333,329.236 27.186,329.284 27.006 C 329.331 26.825,329.511 26.633,329.685 26.578 C 329.900 26.509,330.000 26.322,330.000 25.989 C 330.000 25.720,330.150 25.350,330.333 25.167 C 330.624 24.876,330.667 24.611,330.667 23.083 C 330.667 21.556,330.624 21.291,330.333 21.000 C 330.128 20.795,330.000 20.444,330.000 20.090 C 330.000 19.749,329.875 19.391,329.693 19.215 C 329.525 19.051,329.340 18.785,329.282 18.625 C 329.224 18.465,329.071 18.333,328.941 18.333 C 328.812 18.333,328.666 18.183,328.618 18.000 C 328.570 17.817,328.412 17.667,328.266 17.667 C 328.120 17.667,328.000 17.555,328.000 17.419 C 328.000 17.258,327.765 17.133,327.333 17.064 C 326.963 17.005,326.667 16.864,326.667 16.747 C 326.667 16.510,326.303 16.333,325.814 16.333 C 325.636 16.333,325.446 16.221,325.394 16.083 C 325.326 15.908,325.018 15.824,324.357 15.803 L 323.417 15.772 324.290 15.711 C 324.946 15.665,325.208 15.568,325.338 15.325 C 325.459 15.099,325.687 15.000,326.089 15.000 C 326.491 15.000,326.667 14.924,326.667 14.750 C 326.667 14.612,326.786 14.500,326.932 14.500 C 327.078 14.500,327.237 14.350,327.285 14.167 C 327.333 13.983,327.511 13.833,327.680 13.833 C 328.056 13.833,328.667 13.207,328.667 12.821 C 328.667 12.666,328.817 12.500,329.000 12.452 C 329.247 12.387,329.333 12.224,329.333 11.826 C 329.333 11.505,329.451 11.201,329.625 11.074 C 330.109 10.720,330.154 7.820,329.682 7.349 C 329.442 7.108,329.333 6.788,329.333 6.318 C 329.333 5.787,329.263 5.617,329.015 5.552 C 328.841 5.507,328.660 5.326,328.614 5.151 C 328.569 4.976,328.412 4.833,328.266 4.833 C 328.111 4.833,328.000 4.694,328.000 4.500 C 328.000 4.285,327.889 4.167,327.686 4.167 C 327.512 4.167,327.333 4.018,327.285 3.833 C 327.237 3.650,327.086 3.500,326.950 3.500 C 326.814 3.500,326.659 3.387,326.606 3.250 C 326.554 3.112,326.377 3.000,326.214 2.999 C 326.050 2.998,325.708 2.889,325.453 2.756 C 325.198 2.623,325.039 2.596,325.101 2.695 C 325.168 2.803,325.119 2.842,324.982 2.792 C 324.854 2.746,324.775 2.605,324.806 2.479 C 324.836 2.353,324.799 2.313,324.722 2.389 C 324.646 2.465,324.583 2.615,324.583 2.722 C 324.583 2.866,323.012 2.922,318.500 2.936 C 312.670 2.954,311.500 3.024,311.500 3.351 C 311.500 3.433,311.359 3.359,311.188 3.188 C 310.912 2.912,310.647 2.881,308.896 2.923 C 307.244 2.962,307.124 2.950,308.167 2.850 C 309.679 2.705,309.990 2.581,309.882 2.167 C 309.780 1.778,309.534 1.688,309.000 1.845 M314.719 1.875 C 314.451 2.233,314.566 2.564,315.000 2.684 C 315.671 2.871,322.187 2.849,322.875 2.658 C 323.564 2.466,323.575 2.451,323.327 1.989 C 323.112 1.586,315.015 1.479,314.719 1.875 M1.226 2.958 C 1.283 3.302,1.330 3.715,1.331 3.875 C 1.333 4.123,1.497 4.167,2.417 4.167 L 3.500 4.167 3.500 16.083 L 3.500 28.000 2.375 28.002 L 1.250 28.003 1.216 29.252 C 1.197 29.957,1.251 30.500,1.341 30.500 C 1.428 30.500,1.500 30.315,1.500 30.089 C 1.500 29.553,2.075 29.216,2.453 29.530 C 2.663 29.705,4.184 29.750,9.817 29.750 L 16.917 29.750 16.969 29.113 C 17.030 28.370,16.785 28.000,16.230 28.000 L 15.833 28.000 15.833 22.500 L 15.833 17.000 17.417 17.000 L 19.000 17.000 19.000 22.500 C 19.000 27.811,18.989 28.000,18.680 28.000 C 17.983 28.000,17.833 28.176,17.833 28.997 L 17.833 29.792 25.708 29.751 C 30.040 29.729,33.640 29.701,33.708 29.689 C 33.913 29.653,33.850 28.417,33.633 28.200 C 33.520 28.087,32.978 28.000,32.383 28.000 L 31.333 28.000 31.333 16.083 L 31.333 4.167 32.583 4.167 L 33.833 4.167 33.833 3.542 L 33.833 2.917 25.833 2.961 L 17.833 3.006 17.833 3.586 C 17.833 4.138,17.862 4.167,18.417 4.167 L 19.000 4.167 19.000 9.667 L 19.000 15.167 17.417 15.167 L 15.833 15.167 15.833 9.667 L 15.833 4.167 16.417 4.167 C 16.980 4.167,17.000 4.145,17.000 3.542 L 17.000 2.917 9.896 2.964 C 5.989 2.989,2.663 3.079,2.506 3.163 C 2.039 3.413,1.500 3.181,1.500 2.731 C 1.500 2.512,1.415 2.333,1.312 2.333 C 1.186 2.333,1.158 2.544,1.226 2.958 M96.479 2.417 C 96.468 2.462,96.449 2.594,96.438 2.708 C 96.422 2.867,95.491 2.927,92.531 2.961 L 88.646 3.006 88.698 3.545 L 88.750 4.083 90.042 4.132 L 91.333 4.181 91.333 5.154 C 91.333 5.988,91.285 6.140,91.000 6.215 C 90.747 6.281,90.667 6.442,90.667 6.882 C 90.667 7.321,90.586 7.482,90.333 7.548 C 90.091 7.612,90.000 7.776,90.000 8.151 C 90.000 8.481,89.916 8.667,89.768 8.667 C 89.499 8.667,89.333 9.022,89.333 9.597 C 89.333 9.842,89.236 10.000,89.087 10.000 C 88.951 10.000,88.794 10.182,88.738 10.405 C 88.682 10.627,88.531 10.850,88.402 10.899 C 88.272 10.949,88.164 11.161,88.161 11.370 C 88.157 11.579,87.970 11.975,87.745 12.250 L 87.335 12.750 87.334 12.234 C 87.334 11.931,87.196 11.594,87.000 11.417 C 86.817 11.251,86.667 10.937,86.667 10.719 C 86.667 10.501,86.561 10.282,86.432 10.233 C 86.302 10.183,86.151 9.960,86.095 9.738 C 86.039 9.515,85.883 9.333,85.747 9.333 C 85.584 9.333,85.500 9.164,85.500 8.839 C 85.500 8.516,85.385 8.283,85.167 8.167 C 84.945 8.048,84.833 7.818,84.833 7.479 C 84.833 7.109,84.742 6.945,84.500 6.882 C 84.264 6.820,84.167 6.654,84.167 6.315 C 84.167 6.017,84.041 5.758,83.833 5.628 C 83.627 5.499,83.500 5.239,83.500 4.944 C 83.500 4.595,83.401 4.440,83.125 4.359 C 82.867 4.284,83.063 4.224,83.750 4.167 C 84.737 4.084,84.751 4.076,84.802 3.542 L 84.854 3.000 75.500 3.000 L 66.146 3.000 66.198 3.542 L 66.250 4.083 67.542 4.132 C 68.491 4.168,68.833 4.240,68.833 4.406 C 68.833 4.530,68.936 4.671,69.062 4.719 C 69.188 4.767,69.342 5.075,69.403 5.403 C 69.471 5.763,69.611 6.000,69.758 6.000 C 69.891 6.000,70.000 6.150,70.000 6.333 C 70.000 6.517,70.150 6.817,70.333 7.000 C 70.517 7.183,70.667 7.465,70.667 7.627 C 70.667 7.788,70.817 8.013,71.000 8.128 C 71.194 8.249,71.333 8.517,71.333 8.767 C 71.333 9.058,71.442 9.226,71.667 9.285 C 71.917 9.351,72.000 9.512,72.000 9.936 C 72.000 10.389,72.066 10.500,72.333 10.500 C 72.599 10.500,72.667 10.611,72.667 11.046 C 72.667 11.386,72.793 11.700,73.000 11.878 C 73.183 12.035,73.333 12.352,73.333 12.582 C 73.333 12.812,73.407 13.000,73.498 13.000 C 73.588 13.000,73.768 13.253,73.897 13.563 C 74.027 13.873,74.215 14.177,74.316 14.239 C 74.417 14.302,74.500 14.484,74.500 14.645 C 74.500 14.806,74.650 15.098,74.833 15.295 C 75.017 15.492,75.167 15.775,75.167 15.925 C 75.167 16.075,75.317 16.237,75.500 16.285 C 75.753 16.351,75.833 16.512,75.833 16.952 C 75.833 17.391,75.914 17.552,76.167 17.618 C 76.417 17.684,76.500 17.846,76.500 18.269 C 76.500 18.722,76.566 18.833,76.833 18.833 C 77.105 18.833,77.167 18.944,77.167 19.432 C 77.167 19.891,77.245 20.052,77.500 20.118 C 77.745 20.182,77.833 20.346,77.833 20.732 C 77.833 21.053,77.964 21.371,78.167 21.545 C 78.350 21.702,78.500 21.983,78.500 22.170 C 78.500 22.357,78.612 22.554,78.750 22.606 C 78.887 22.659,79.000 22.797,79.000 22.912 C 79.000 23.027,79.150 23.312,79.333 23.545 C 79.517 23.779,79.667 24.096,79.667 24.250 C 79.667 24.405,79.817 24.570,80.000 24.618 C 80.448 24.735,80.511 26.667,80.068 26.667 C 79.922 26.667,79.763 26.817,79.715 27.000 C 79.667 27.183,79.517 27.333,79.382 27.333 C 79.246 27.333,79.096 27.483,79.048 27.667 C 78.986 27.906,78.821 28.000,78.465 28.000 C 78.109 28.000,77.944 28.094,77.882 28.333 C 77.809 28.611,77.665 28.663,77.022 28.644 C 76.598 28.631,76.419 28.589,76.625 28.549 C 76.850 28.506,77.000 28.356,77.000 28.175 C 77.000 28.008,77.150 27.833,77.333 27.785 C 77.617 27.711,77.667 27.558,77.667 26.766 C 77.667 26.080,77.728 25.833,77.899 25.833 C 78.439 25.833,78.519 24.156,78.000 23.711 C 77.781 23.523,77.667 23.220,77.667 22.822 C 77.667 22.430,77.550 22.113,77.333 21.917 C 77.150 21.751,77.000 21.485,77.000 21.327 C 77.000 21.169,76.850 21.000,76.667 20.952 C 76.483 20.904,76.333 20.745,76.333 20.599 C 76.333 20.416,76.180 20.333,75.839 20.333 C 75.516 20.333,75.283 20.218,75.167 20.000 C 74.894 19.490,70.940 19.490,70.667 20.000 C 70.550 20.218,70.318 20.333,69.994 20.333 C 69.653 20.333,69.500 20.416,69.500 20.599 C 69.500 20.745,69.350 20.904,69.167 20.952 C 68.983 21.000,68.833 21.126,68.833 21.232 C 68.833 21.339,68.695 21.545,68.525 21.690 C 68.355 21.835,68.169 22.255,68.110 22.622 C 68.051 22.989,67.890 23.384,67.751 23.499 C 67.338 23.842,67.400 26.174,67.833 26.545 C 68.030 26.713,68.167 27.036,68.167 27.332 C 68.167 27.648,68.252 27.833,68.397 27.833 C 68.524 27.833,68.667 27.983,68.715 28.167 C 68.763 28.350,68.913 28.500,69.048 28.500 C 69.184 28.500,69.334 28.650,69.382 28.833 C 69.430 29.017,69.580 29.167,69.715 29.167 C 69.850 29.167,70.002 29.322,70.051 29.512 C 70.138 29.842,70.218 29.853,71.863 29.752 C 74.668 29.581,77.495 29.573,78.884 29.732 C 80.135 29.875,80.189 29.867,80.279 29.524 C 80.330 29.327,80.483 29.167,80.618 29.167 C 80.754 29.167,80.904 29.017,80.952 28.833 C 81.000 28.650,81.150 28.500,81.285 28.500 C 81.420 28.500,81.570 28.350,81.618 28.167 C 81.666 27.983,81.801 27.833,81.917 27.833 C 82.033 27.833,82.167 27.683,82.215 27.500 C 82.263 27.317,82.422 27.167,82.568 27.167 C 82.758 27.167,82.833 27.008,82.833 26.603 C 82.833 26.179,82.916 26.017,83.167 25.952 C 83.419 25.886,83.500 25.724,83.500 25.285 C 83.500 24.846,83.581 24.684,83.833 24.618 C 84.079 24.554,84.167 24.391,84.167 24.000 C 84.167 23.609,84.255 23.446,84.500 23.382 C 84.708 23.327,84.833 23.154,84.833 22.923 C 84.833 22.719,84.983 22.416,85.167 22.250 C 85.350 22.084,85.500 21.818,85.500 21.659 C 85.500 21.499,85.605 21.329,85.734 21.279 C 85.863 21.230,86.018 20.965,86.078 20.692 C 86.138 20.418,86.285 20.157,86.406 20.111 C 86.526 20.064,86.674 19.765,86.733 19.446 C 86.793 19.127,86.953 18.823,87.088 18.771 C 87.226 18.718,87.333 18.465,87.333 18.191 C 87.333 17.846,87.430 17.680,87.667 17.618 C 87.919 17.552,88.000 17.391,88.000 16.952 C 88.000 16.512,88.081 16.351,88.333 16.285 C 88.586 16.219,88.667 16.058,88.667 15.618 C 88.667 15.179,88.747 15.018,89.000 14.952 C 89.239 14.889,89.333 14.724,89.333 14.368 C 89.333 14.012,89.428 13.848,89.667 13.785 C 89.885 13.728,90.000 13.558,90.000 13.291 C 90.000 13.068,90.150 12.749,90.333 12.583 C 90.517 12.417,90.667 12.174,90.667 12.042 C 90.667 11.910,90.817 11.612,91.000 11.379 C 91.183 11.146,91.333 10.861,91.333 10.745 C 91.333 10.630,91.446 10.492,91.583 10.440 C 91.729 10.384,91.833 10.135,91.833 9.844 C 91.833 9.516,91.947 9.284,92.167 9.167 C 92.382 9.051,92.500 8.818,92.500 8.505 C 92.500 8.169,92.601 7.990,92.833 7.917 C 93.078 7.839,93.167 7.664,93.167 7.258 C 93.167 6.846,93.251 6.683,93.500 6.618 C 93.741 6.555,93.833 6.391,93.833 6.027 C 93.833 5.669,93.930 5.492,94.167 5.417 C 94.350 5.358,94.500 5.203,94.500 5.072 C 94.500 4.941,94.598 4.833,94.719 4.833 C 94.839 4.833,95.093 4.688,95.283 4.511 C 95.473 4.334,95.918 4.165,96.273 4.136 C 97.005 4.076,97.268 3.411,96.760 2.902 C 96.615 2.758,96.540 2.571,96.592 2.487 C 96.644 2.402,96.644 2.333,96.593 2.333 C 96.542 2.333,96.491 2.371,96.479 2.417 M369.194 2.500 C 369.225 2.637,369.167 2.735,369.065 2.716 C 368.952 2.695,368.887 2.952,368.899 3.383 L 368.917 4.083 370.292 4.132 L 371.667 4.180 371.667 16.090 L 371.667 28.000 370.583 28.000 C 369.306 28.000,368.833 28.327,368.833 29.210 L 368.833 29.753 381.604 29.775 C 393.999 29.797,394.376 29.788,394.456 29.482 C 394.519 29.243,394.691 29.167,395.167 29.167 C 395.654 29.167,395.814 29.092,395.882 28.833 C 395.944 28.594,396.109 28.500,396.465 28.500 C 396.821 28.500,396.986 28.406,397.048 28.167 C 397.096 27.983,397.255 27.833,397.401 27.833 C 397.547 27.833,397.667 27.726,397.667 27.595 C 397.667 27.463,397.798 27.314,397.958 27.263 C 398.229 27.177,398.249 26.771,398.232 21.663 L 398.215 16.156 397.661 15.661 C 397.356 15.389,396.963 15.167,396.788 15.167 C 396.609 15.167,396.430 15.020,396.382 14.833 C 396.317 14.586,396.154 14.500,395.750 14.500 C 395.346 14.500,395.183 14.414,395.118 14.167 C 395.051 13.909,394.891 13.833,394.417 13.833 C 394.055 13.833,393.628 13.696,393.379 13.500 C 392.979 13.186,392.703 13.167,388.561 13.167 L 384.167 13.167 384.167 8.667 L 384.167 4.167 385.397 4.167 C 386.507 4.167,386.637 4.132,386.719 3.817 C 386.965 2.877,387.345 2.917,378.000 2.917 C 371.571 2.917,369.417 2.868,369.417 2.722 C 369.417 2.615,369.354 2.465,369.278 2.389 C 369.201 2.313,369.164 2.362,369.194 2.500 M302.833 2.750 C 302.833 2.969,301.833 3.000,294.833 3.000 L 286.833 3.000 286.833 3.583 C 286.833 4.155,286.847 4.167,287.512 4.167 L 288.191 4.167 288.150 5.042 C 288.104 6.022,287.877 6.833,287.650 6.833 C 287.568 6.833,287.500 7.320,287.500 7.915 C 287.500 8.817,287.444 9.032,287.167 9.205 C 286.899 9.373,286.833 9.594,286.833 10.333 C 286.833 11.073,286.768 11.294,286.500 11.461 C 286.226 11.632,286.167 11.850,286.167 12.683 C 286.167 13.445,286.084 13.803,285.833 14.121 C 285.590 14.431,285.500 14.797,285.500 15.482 C 285.500 16.239,285.436 16.460,285.167 16.628 C 284.836 16.835,284.833 16.794,284.833 10.511 L 284.833 4.187 285.458 4.135 C 286.041 4.087,286.087 4.043,286.133 3.500 L 286.182 2.917 278.081 2.961 L 269.979 3.006 270.031 3.545 L 270.083 4.083 271.375 4.132 L 272.667 4.181 272.667 16.132 L 272.667 28.083 271.551 28.026 C 270.264 27.960,270.000 28.154,270.000 29.165 L 270.000 29.765 278.042 29.758 L 286.083 29.750 286.133 29.324 C 286.224 28.540,285.900 28.000,285.337 28.000 L 284.833 28.000 284.833 26.901 C 284.833 26.055,284.910 25.705,285.167 25.379 C 285.384 25.103,285.500 24.703,285.500 24.232 C 285.500 23.802,285.635 23.286,285.833 22.962 C 286.042 22.619,286.166 22.122,286.166 21.620 C 286.166 21.085,286.245 20.793,286.404 20.732 C 286.563 20.671,286.678 20.238,286.756 19.415 C 286.831 18.607,286.949 18.158,287.102 18.099 C 287.268 18.035,287.333 17.688,287.333 16.858 C 287.333 15.855,287.375 15.695,287.659 15.620 C 287.938 15.547,287.993 15.358,288.043 14.309 C 288.074 13.635,288.115 16.440,288.134 20.542 L 288.167 28.000 287.700 28.000 C 287.071 28.000,286.833 28.279,286.833 29.019 L 286.833 29.637 287.875 29.716 C 289.407 29.832,303.110 29.721,303.321 29.591 C 304.149 29.079,302.894 28.000,301.469 28.000 L 300.333 28.000 300.333 16.083 L 300.333 4.167 301.594 4.167 C 303.360 4.167,304.079 3.594,303.208 2.881 C 303.048 2.750,303.022 2.697,303.151 2.763 C 303.305 2.843,303.344 2.819,303.266 2.692 C 303.097 2.419,302.833 2.454,302.833 2.750 M54.887 2.846 C 54.765 2.968,53.335 3.008,50.437 2.971 L 46.166 2.917 46.167 3.349 C 46.167 3.587,46.017 3.917,45.833 4.083 C 45.588 4.305,45.500 4.597,45.500 5.187 C 45.500 5.818,45.429 6.026,45.167 6.167 C 44.919 6.299,44.833 6.516,44.833 7.006 C 44.833 7.369,44.770 7.667,44.693 7.667 C 44.499 7.667,44.167 8.438,44.167 8.889 C 44.167 9.095,44.017 9.557,43.833 9.917 C 43.650 10.276,43.500 10.808,43.500 11.098 C 43.500 11.388,43.387 11.719,43.250 11.833 C 43.112 11.947,43.000 12.283,43.000 12.578 C 43.000 12.903,42.869 13.234,42.667 13.417 C 42.443 13.619,42.333 13.930,42.333 14.359 C 42.333 14.778,42.218 15.116,42.000 15.333 C 41.765 15.568,41.667 15.889,41.667 16.417 C 41.667 16.947,41.599 17.167,41.434 17.167 C 41.142 17.167,41.000 17.530,41.000 18.279 C 41.000 18.612,40.856 19.047,40.667 19.288 C 40.477 19.529,40.333 19.964,40.333 20.296 C 40.333 20.634,40.223 20.960,40.072 21.071 C 39.929 21.176,39.770 21.597,39.719 22.006 C 39.669 22.415,39.524 22.833,39.397 22.935 C 39.270 23.037,39.118 23.487,39.058 23.935 C 38.999 24.383,38.856 24.806,38.741 24.874 C 38.626 24.943,38.481 25.369,38.418 25.820 C 38.354 26.289,38.204 26.681,38.069 26.732 C 37.940 26.782,37.833 26.938,37.833 27.078 C 37.833 27.218,37.714 27.333,37.568 27.333 C 37.422 27.333,37.263 27.483,37.215 27.667 C 37.147 27.928,36.988 28.000,36.481 28.000 C 35.635 28.000,35.127 28.481,35.199 29.214 L 35.250 29.741 39.392 29.747 L 43.534 29.752 43.452 29.022 C 43.350 28.116,43.179 28.006,41.875 28.003 C 41.052 28.001,40.833 27.946,40.833 27.745 C 40.833 27.604,40.719 27.446,40.578 27.392 C 40.352 27.305,40.352 27.273,40.587 27.102 C 40.747 26.984,40.888 26.539,40.948 25.959 C 41.002 25.436,41.105 25.045,41.177 25.090 C 41.249 25.134,41.401 24.739,41.515 24.210 C 41.628 23.682,41.821 23.132,41.944 22.987 C 42.066 22.842,42.167 22.457,42.167 22.131 C 42.167 21.518,42.855 20.797,43.084 21.169 C 43.145 21.266,44.295 21.333,45.912 21.333 L 48.637 21.333 48.750 22.000 C 48.813 22.373,48.957 22.667,49.077 22.667 C 49.213 22.667,49.321 22.981,49.374 23.528 C 49.424 24.054,49.562 24.467,49.728 24.588 C 49.878 24.697,50.001 25.003,50.002 25.268 C 50.006 26.004,50.181 26.500,50.436 26.500 C 50.593 26.500,50.667 26.708,50.667 27.153 C 50.667 27.519,50.758 27.842,50.875 27.890 C 50.990 27.936,50.604 27.980,50.019 27.987 C 48.829 28.002,48.167 28.456,48.167 29.259 C 48.167 29.759,46.998 29.685,55.833 29.741 C 65.544 29.802,66.167 29.772,66.167 29.248 C 66.167 28.318,65.894 28.000,65.095 28.000 C 64.051 28.000,63.500 27.445,63.500 26.393 C 63.500 25.776,63.438 25.619,63.167 25.548 C 62.885 25.475,62.833 25.321,62.833 24.548 C 62.833 23.776,62.782 23.622,62.500 23.548 C 62.224 23.476,62.167 23.321,62.167 22.642 C 62.167 22.083,62.090 21.794,61.927 21.731 C 61.782 21.675,61.643 21.286,61.576 20.747 C 61.514 20.257,61.371 19.819,61.256 19.775 C 61.141 19.731,61.006 19.383,60.955 19.001 C 60.903 18.620,60.743 18.176,60.597 18.016 C 60.452 17.855,60.333 17.487,60.333 17.197 C 60.333 16.850,60.219 16.598,60.000 16.461 C 59.741 16.300,59.667 16.073,59.667 15.444 C 59.667 14.776,59.609 14.620,59.333 14.548 C 59.058 14.476,59.000 14.321,59.000 13.653 C 59.000 13.016,58.930 12.807,58.667 12.667 C 58.401 12.524,58.333 12.318,58.333 11.645 C 58.333 10.942,58.278 10.788,58.000 10.715 C 57.724 10.643,57.667 10.488,57.667 9.820 C 57.667 9.182,57.596 8.974,57.333 8.833 C 57.079 8.697,57.000 8.484,57.000 7.931 C 57.000 7.505,56.901 7.126,56.761 7.009 C 56.629 6.899,56.471 6.408,56.409 5.916 C 56.348 5.424,56.204 4.986,56.090 4.942 C 55.975 4.898,55.839 4.599,55.787 4.277 C 55.734 3.955,55.533 3.533,55.340 3.340 C 55.146 3.146,55.033 2.916,55.087 2.827 C 55.220 2.613,55.110 2.623,54.887 2.846 M114.429 2.813 C 114.339 2.960,112.574 3.008,107.529 3.000 C 103.800 2.994,99.944 2.992,98.958 2.995 L 97.167 3.000 97.167 3.583 L 97.167 4.167 98.417 4.167 L 99.667 4.167 99.667 16.083 L 99.667 28.000 98.617 28.000 C 97.398 28.000,97.167 28.163,97.167 29.022 L 97.167 29.645 98.875 29.712 C 106.561 30.017,115.148 29.686,114.692 29.103 C 114.612 29.000,114.497 28.710,114.436 28.458 C 114.330 28.013,114.295 28.000,113.163 28.000 L 112.000 28.000 112.000 22.167 L 112.000 16.333 112.905 16.333 C 113.664 16.333,113.828 16.387,113.917 16.667 C 113.975 16.850,114.119 17.000,114.237 17.000 C 114.383 17.000,114.484 17.381,114.551 18.186 C 114.611 18.900,114.753 19.486,114.909 19.658 C 115.113 19.883,115.167 20.381,115.167 22.041 C 115.167 24.273,115.232 24.667,115.601 24.667 C 115.772 24.667,115.833 24.913,115.833 25.599 C 115.833 26.391,115.883 26.544,116.167 26.618 C 116.417 26.684,116.500 26.846,116.500 27.269 C 116.500 27.722,116.566 27.833,116.833 27.833 C 117.056 27.833,117.167 27.944,117.167 28.167 C 117.167 28.389,117.278 28.500,117.500 28.500 C 117.722 28.500,117.833 28.611,117.833 28.833 C 117.833 29.027,117.944 29.167,118.099 29.167 C 118.245 29.167,118.399 29.298,118.441 29.458 C 118.556 29.900,127.885 29.892,127.970 29.450 C 128.000 29.294,128.152 29.167,128.309 29.167 C 128.465 29.167,128.701 29.017,128.833 28.833 C 128.965 28.650,129.239 28.500,129.442 28.500 C 129.664 28.500,129.853 28.368,129.917 28.167 C 129.975 27.983,130.092 27.833,130.176 27.833 C 131.049 27.833,131.667 25.833,131.000 25.167 C 130.409 24.576,129.803 24.735,129.172 25.646 C 129.037 25.841,128.791 26.000,128.625 26.000 C 128.458 26.000,128.255 26.169,128.172 26.375 C 128.069 26.630,128.018 26.663,128.011 26.478 C 128.005 26.328,127.850 26.166,127.667 26.118 C 127.360 26.038,127.333 25.891,127.333 24.250 C 127.333 23.011,127.260 22.333,127.092 22.026 C 126.960 21.782,126.804 21.152,126.747 20.625 C 126.674 19.954,126.571 19.667,126.405 19.667 C 126.262 19.667,126.167 19.500,126.167 19.250 C 126.167 19.021,126.030 18.696,125.862 18.529 C 125.695 18.362,125.510 18.099,125.451 17.946 C 125.392 17.792,125.238 17.667,125.108 17.667 C 124.978 17.667,124.833 17.517,124.785 17.333 C 124.737 17.150,124.586 17.000,124.450 17.000 C 124.314 17.000,124.161 16.892,124.110 16.759 C 124.059 16.627,123.756 16.469,123.437 16.409 C 123.118 16.350,122.816 16.195,122.767 16.067 C 122.717 15.938,122.469 15.833,122.214 15.832 C 121.959 15.832,121.525 15.682,121.250 15.500 C 120.841 15.229,120.466 15.169,119.185 15.168 C 117.892 15.167,117.583 15.116,117.408 14.877 C 117.207 14.602,117.181 14.602,116.877 14.877 C 116.701 15.036,116.507 15.167,116.445 15.167 C 116.220 15.167,116.342 14.822,116.667 14.545 C 116.850 14.388,117.000 14.174,117.000 14.069 C 117.000 13.964,117.150 13.688,117.333 13.455 C 117.631 13.077,117.670 12.754,117.694 10.474 C 117.714 8.576,117.746 8.221,117.819 9.096 C 117.885 9.896,118.011 10.369,118.208 10.566 C 118.369 10.726,118.500 10.927,118.500 11.012 C 118.500 11.097,118.612 11.167,118.750 11.167 C 118.888 11.167,119.000 11.282,119.000 11.422 C 119.000 11.562,119.131 11.723,119.292 11.779 C 119.452 11.836,119.698 12.023,119.837 12.195 C 120.237 12.689,124.547 12.671,125.076 12.173 C 125.275 11.986,125.565 11.833,125.719 11.833 C 125.874 11.833,126.000 11.714,126.000 11.568 C 126.000 11.422,126.141 11.265,126.314 11.220 C 126.528 11.164,126.662 10.930,126.733 10.486 C 126.800 10.066,126.926 9.833,127.085 9.833 C 127.527 9.833,127.445 4.572,127.000 4.333 C 126.817 4.235,126.665 4.064,126.664 3.952 C 126.651 3.071,123.069 2.676,117.958 2.992 C 117.890 2.997,117.833 3.104,117.833 3.231 C 117.833 3.357,117.683 3.500,117.500 3.548 C 117.317 3.596,117.167 3.750,117.167 3.890 C 117.167 4.030,117.017 4.192,116.833 4.250 C 116.587 4.328,116.500 4.502,116.500 4.920 C 116.500 5.283,116.397 5.541,116.208 5.646 C 115.958 5.786,115.909 6.124,115.861 8.021 C 115.814 9.895,115.757 10.295,115.486 10.639 C 115.247 10.942,115.167 11.313,115.167 12.106 C 115.167 12.916,115.110 13.167,114.928 13.167 C 114.797 13.167,114.642 13.317,114.583 13.500 C 114.525 13.683,114.333 13.833,114.157 13.833 C 113.980 13.833,113.742 13.983,113.628 14.167 C 113.473 14.415,113.239 14.500,112.710 14.500 L 112.000 14.500 112.000 9.333 L 112.000 4.167 113.250 4.167 C 113.972 4.167,114.500 4.096,114.500 4.000 C 114.500 3.908,114.583 3.852,114.686 3.875 C 114.963 3.937,115.023 3.261,114.771 2.917 C 114.614 2.702,114.516 2.672,114.429 2.813 M332.839 2.989 C 332.371 3.864,332.816 4.167,334.572 4.167 L 335.833 4.167 335.833 16.083 L 335.833 28.000 334.708 28.000 C 333.305 28.000,332.030 29.087,332.844 29.590 C 333.055 29.720,346.791 29.833,348.311 29.716 L 349.373 29.635 349.282 28.960 C 349.185 28.236,348.968 28.007,348.375 28.003 L 348.000 28.000 348.000 22.500 L 348.000 17.000 349.667 17.000 L 351.333 17.000 351.333 22.500 L 351.333 28.000 350.929 28.000 C 350.345 28.000,350.000 28.428,350.000 29.155 L 350.000 29.785 358.042 29.768 L 366.083 29.750 366.133 29.324 C 366.259 28.245,365.944 27.967,364.665 28.028 L 363.499 28.083 363.500 16.132 L 363.500 4.181 364.792 4.132 L 366.083 4.083 366.132 3.500 L 366.181 2.917 364.132 2.948 C 363.005 2.965,359.360 2.984,356.031 2.989 L 349.979 3.000 350.031 3.542 C 350.079 4.036,350.138 4.088,350.708 4.135 L 351.333 4.187 351.333 9.677 L 351.333 15.167 349.667 15.167 L 348.000 15.167 348.000 9.677 L 348.000 4.187 348.625 4.135 C 349.196 4.088,349.254 4.037,349.302 3.539 L 349.355 2.994 341.176 3.039 C 334.686 3.074,333.013 3.040,333.076 2.875 C 333.201 2.549,333.031 2.631,332.839 2.989 M141.667 3.522 C 141.667 3.988,141.590 4.148,141.333 4.215 C 141.051 4.289,141.000 4.442,141.000 5.215 C 141.000 5.988,140.949 6.141,140.667 6.215 C 140.359 6.295,140.181 7.190,140.327 7.917 C 140.346 8.008,140.306 8.028,140.239 7.961 C 140.033 7.755,139.678 8.384,139.672 8.965 C 139.669 9.277,139.523 9.668,139.333 9.872 C 139.124 10.096,139.000 10.460,139.000 10.847 C 139.000 11.222,138.909 11.499,138.767 11.554 C 138.633 11.605,138.483 12.016,138.414 12.520 C 138.348 13.002,138.190 13.501,138.063 13.627 C 137.937 13.754,137.833 14.140,137.833 14.486 C 137.833 14.903,137.721 15.217,137.500 15.417 C 137.270 15.625,137.167 15.930,137.167 16.402 C 137.167 16.906,137.079 17.141,136.833 17.295 C 136.576 17.455,136.500 17.683,136.500 18.295 C 136.500 18.906,136.424 19.134,136.167 19.295 C 135.914 19.453,135.833 19.683,135.833 20.251 C 135.833 20.778,135.765 21.000,135.603 21.000 C 135.341 21.000,135.172 21.499,135.169 22.283 C 135.168 22.598,135.057 22.878,134.899 22.967 C 134.734 23.059,134.597 23.429,134.542 23.933 C 134.493 24.382,134.353 24.809,134.231 24.880 C 134.110 24.952,133.961 25.383,133.900 25.839 C 133.829 26.376,133.710 26.667,133.562 26.667 C 133.436 26.667,133.333 26.817,133.333 27.000 C 133.333 27.194,133.222 27.333,133.068 27.333 C 132.922 27.333,132.763 27.483,132.715 27.667 C 132.647 27.928,132.488 28.000,131.981 28.000 C 131.162 28.000,130.667 28.459,130.667 29.216 L 130.667 29.766 134.708 29.732 C 136.931 29.713,138.806 29.691,138.875 29.682 C 139.139 29.649,138.985 28.652,138.667 28.333 C 138.411 28.078,138.110 28.000,137.375 27.999 C 136.400 27.997,135.756 27.477,136.191 27.042 C 136.273 26.960,136.387 26.392,136.444 25.780 C 136.517 25.005,136.617 24.667,136.774 24.667 C 136.925 24.667,137.000 24.454,137.000 24.026 C 137.000 23.597,137.110 23.285,137.333 23.083 C 137.555 22.883,137.667 22.570,137.667 22.152 C 137.667 21.669,137.744 21.498,138.000 21.417 C 138.183 21.358,138.333 21.232,138.333 21.135 C 138.333 21.022,138.419 21.030,138.572 21.157 C 138.735 21.293,139.588 21.348,141.280 21.333 C 142.639 21.320,143.837 21.315,143.944 21.322 C 144.050 21.328,144.188 21.633,144.250 22.000 C 144.319 22.410,144.453 22.667,144.598 22.667 C 144.766 22.667,144.833 22.882,144.833 23.417 C 144.833 23.944,144.932 24.265,145.167 24.500 C 145.373 24.706,145.500 25.056,145.500 25.417 C 145.500 25.778,145.627 26.127,145.833 26.333 C 146.037 26.537,146.167 26.889,146.167 27.236 C 146.167 27.549,146.260 27.843,146.375 27.890 C 146.490 27.936,146.090 27.980,145.487 27.987 C 144.567 27.998,144.333 28.062,144.029 28.386 C 143.743 28.691,143.511 29.623,143.708 29.679 C 143.985 29.757,158.834 29.766,160.000 29.689 L 161.583 29.583 161.543 28.927 C 161.495 28.152,161.315 28.006,160.394 28.003 C 159.847 28.001,159.688 27.932,159.618 27.667 C 159.570 27.483,159.412 27.333,159.266 27.333 C 159.057 27.333,159.000 27.150,159.000 26.484 C 159.000 25.776,158.945 25.621,158.667 25.548 C 158.385 25.475,158.333 25.321,158.333 24.548 C 158.333 23.776,158.282 23.622,158.000 23.548 C 157.724 23.476,157.667 23.321,157.667 22.653 C 157.667 22.016,157.596 21.807,157.333 21.667 C 157.079 21.530,157.000 21.318,157.000 20.765 C 157.000 20.325,156.902 19.959,156.750 19.833 C 156.612 19.719,156.500 19.471,156.500 19.282 C 156.500 19.093,156.358 18.634,156.183 18.261 C 156.009 17.888,155.820 17.310,155.762 16.975 C 155.705 16.641,155.547 16.275,155.412 16.163 C 155.277 16.051,155.167 15.750,155.167 15.493 C 155.167 14.858,155.010 14.500,154.732 14.500 C 154.565 14.500,154.500 14.269,154.500 13.673 C 154.500 13.016,154.431 12.808,154.167 12.667 C 153.901 12.524,153.833 12.318,153.833 11.645 C 153.833 10.942,153.778 10.788,153.500 10.715 C 153.223 10.643,153.167 10.488,153.167 9.798 C 153.167 9.109,153.110 8.954,152.833 8.882 C 152.552 8.808,152.500 8.654,152.500 7.903 C 152.500 7.182,152.436 6.978,152.167 6.833 C 151.921 6.702,151.833 6.484,151.833 6.006 C 151.833 5.649,151.721 5.245,151.583 5.107 C 151.446 4.970,151.333 4.683,151.333 4.470 C 151.333 4.257,151.202 3.834,151.041 3.530 L 150.750 2.977 146.208 2.947 L 141.667 2.917 141.667 3.522 M180.125 2.960 C 173.406 3.002,173.167 3.015,173.167 3.322 C 173.167 4.081,173.312 4.167,174.601 4.167 L 175.833 4.167 175.833 16.076 L 175.833 27.985 174.631 28.034 L 173.428 28.083 173.278 28.722 C 173.172 29.168,173.186 29.419,173.322 29.555 C 173.517 29.750,188.629 29.901,189.119 29.713 C 189.750 29.471,189.213 28.000,188.494 28.000 L 188.000 28.000 188.000 26.704 C 188.000 25.614,188.053 25.362,188.333 25.122 C 188.602 24.892,188.667 24.630,188.667 23.771 C 188.667 22.846,188.711 22.694,189.000 22.618 C 189.294 22.542,189.333 22.391,189.333 21.349 C 189.333 20.449,189.389 20.167,189.566 20.167 C 189.892 20.167,190.000 19.790,190.000 18.653 C 190.000 17.921,190.060 17.667,190.232 17.667 C 190.538 17.667,190.667 17.298,190.667 16.423 C 190.667 16.003,190.766 15.625,190.907 15.508 C 191.039 15.399,191.178 15.108,191.215 14.863 C 191.253 14.617,191.295 17.473,191.308 21.208 L 191.333 28.000 190.839 28.000 C 190.259 28.000,190.000 28.377,190.000 29.221 L 190.000 29.797 198.085 29.774 C 207.091 29.747,206.589 29.820,206.084 28.610 L 205.829 28.000 204.664 28.000 L 203.500 28.000 203.500 16.090 L 203.500 4.181 204.792 4.132 L 206.083 4.083 206.136 3.542 L 206.188 3.000 198.083 3.000 L 189.979 3.000 190.031 3.542 C 190.079 4.036,190.138 4.088,190.708 4.135 L 191.333 4.187 191.333 5.140 C 191.333 5.886,191.261 6.154,191.000 6.378 C 190.730 6.609,190.667 6.870,190.667 7.748 C 190.667 8.565,190.609 8.833,190.434 8.833 C 190.108 8.833,190.000 9.210,190.000 10.347 C 190.000 11.079,189.940 11.333,189.768 11.333 C 189.465 11.333,189.333 11.700,189.333 12.542 C 189.333 12.917,189.221 13.348,189.084 13.499 C 188.947 13.651,188.787 14.257,188.728 14.846 C 188.670 15.435,188.525 16.029,188.407 16.167 C 188.288 16.304,188.161 16.717,188.124 17.083 C 188.086 17.450,188.043 14.698,188.028 10.968 L 188.000 4.187 188.625 4.135 C 189.196 4.088,189.255 4.036,189.302 3.542 L 189.354 3.000 188.469 2.987 C 187.982 2.980,187.471 2.961,187.333 2.946 C 187.196 2.930,183.952 2.936,180.125 2.960 M223.278 2.971 C 223.125 3.000,223.000 3.126,223.000 3.251 C 223.000 3.376,222.850 3.525,222.667 3.583 C 222.425 3.660,222.333 3.836,222.333 4.221 C 222.333 4.573,222.220 4.824,222.000 4.961 C 221.696 5.151,221.667 5.350,221.667 7.251 C 221.667 9.111,221.702 9.369,222.000 9.667 C 222.183 9.850,222.333 10.136,222.333 10.303 C 222.333 10.742,223.363 11.833,223.776 11.833 C 223.988 11.833,224.163 11.966,224.215 12.167 C 224.297 12.481,224.442 12.500,226.750 12.500 C 229.058 12.500,229.203 12.481,229.285 12.167 C 229.333 11.982,229.512 11.833,229.686 11.833 C 229.882 11.833,230.000 11.716,230.000 11.519 C 230.000 11.346,230.149 11.167,230.333 11.118 C 230.517 11.070,230.667 10.912,230.667 10.766 C 230.667 10.620,230.774 10.500,230.904 10.500 C 231.035 10.500,231.177 10.369,231.218 10.208 C 231.260 10.048,231.303 10.498,231.314 11.208 C 231.330 12.261,231.395 12.562,231.667 12.833 C 231.873 13.040,232.000 13.389,232.000 13.750 C 232.000 14.173,232.073 14.333,232.266 14.333 C 232.412 14.333,232.569 14.479,232.616 14.658 C 232.663 14.836,232.824 15.015,232.975 15.055 C 233.156 15.103,233.118 15.135,232.864 15.147 C 232.652 15.158,232.318 15.081,232.122 14.976 C 231.855 14.833,231.750 14.833,231.702 14.976 C 231.660 15.102,231.078 15.167,229.986 15.167 C 228.556 15.167,228.289 15.211,228.000 15.500 C 227.793 15.707,227.444 15.833,227.078 15.833 C 226.709 15.833,226.454 15.926,226.394 16.083 C 226.341 16.221,226.170 16.333,226.014 16.333 C 225.857 16.333,225.569 16.483,225.372 16.667 C 225.175 16.850,224.949 17.000,224.870 17.000 C 224.668 17.000,223.667 17.915,223.667 18.100 C 223.667 18.184,223.517 18.347,223.333 18.461 C 223.131 18.588,223.000 18.850,223.000 19.128 C 223.000 19.406,222.869 19.668,222.667 19.795 C 222.365 19.983,222.333 20.183,222.333 21.926 C 222.333 23.294,222.262 23.987,222.088 24.324 C 221.953 24.585,221.794 25.102,221.735 25.474 C 221.666 25.906,221.529 26.170,221.355 26.205 C 221.028 26.271,220.167 25.872,220.167 25.654 C 220.167 25.570,220.057 25.500,219.923 25.500 C 219.788 25.500,219.598 25.350,219.500 25.167 C 219.289 24.773,218.792 24.731,218.500 25.083 C 218.386 25.221,218.189 25.333,218.063 25.333 C 217.599 25.333,217.764 26.976,218.250 27.197 C 218.479 27.301,218.667 27.441,218.667 27.507 C 218.667 27.572,218.892 27.719,219.167 27.833 C 219.442 27.947,219.667 28.144,219.667 28.270 C 219.667 28.397,219.817 28.500,220.000 28.500 C 220.222 28.500,220.333 28.611,220.333 28.833 C 220.333 29.040,220.444 29.167,220.627 29.167 C 220.788 29.167,221.002 29.298,221.102 29.458 C 221.365 29.880,230.551 29.870,230.635 29.448 C 230.664 29.304,230.851 29.164,231.052 29.135 C 231.281 29.103,231.530 28.851,231.722 28.458 C 231.890 28.115,232.134 27.833,232.264 27.833 C 232.394 27.833,232.500 27.683,232.500 27.500 C 232.500 27.317,232.604 27.167,232.732 27.167 C 233.028 27.167,233.167 26.802,233.167 26.026 C 233.167 25.594,233.265 25.352,233.500 25.205 C 233.802 25.017,233.833 24.817,233.833 23.076 C 233.833 21.539,233.891 21.067,234.120 20.717 C 234.327 20.402,234.425 19.825,234.472 18.654 C 234.529 17.232,234.577 17.019,234.852 16.947 C 235.025 16.902,235.167 16.745,235.167 16.599 C 235.167 16.400,235.334 16.333,235.833 16.333 L 236.500 16.333 236.500 22.167 L 236.500 28.000 235.678 28.000 C 234.488 28.000,234.067 28.206,233.938 28.852 C 233.754 29.771,233.540 29.749,242.707 29.768 C 252.459 29.788,251.833 29.842,251.833 28.986 C 251.833 28.190,251.531 28.000,250.261 28.000 L 249.333 28.000 249.333 22.167 L 249.333 16.333 250.000 16.333 C 250.525 16.333,250.667 16.396,250.667 16.627 C 250.667 16.788,250.817 17.013,251.000 17.128 C 251.299 17.315,251.333 17.517,251.333 19.085 C 251.333 20.611,251.376 20.876,251.667 21.167 C 251.960 21.460,252.000 21.722,252.000 23.349 C 252.000 25.058,252.025 25.204,252.333 25.285 C 252.610 25.357,252.667 25.512,252.667 26.191 C 252.667 26.756,252.742 27.039,252.910 27.104 C 253.044 27.155,253.199 27.341,253.255 27.515 C 253.310 27.690,253.448 27.833,253.560 27.833 C 253.672 27.833,253.836 28.077,253.924 28.375 C 254.043 28.781,254.218 28.956,254.619 29.074 C 254.914 29.161,255.176 29.340,255.202 29.471 C 255.270 29.813,264.497 29.870,264.627 29.529 C 264.674 29.407,264.889 29.240,265.106 29.158 C 265.323 29.076,265.500 28.894,265.500 28.754 C 265.500 28.614,265.596 28.500,265.713 28.500 C 265.830 28.500,266.052 28.369,266.207 28.208 C 266.830 27.563,267.112 27.346,267.546 27.181 C 268.112 26.966,268.238 25.577,267.708 25.382 C 267.548 25.323,267.357 25.176,267.283 25.054 C 267.108 24.764,266.677 24.773,266.347 25.076 C 266.202 25.209,265.909 25.477,265.696 25.671 C 264.278 26.965,263.500 25.790,263.500 22.358 C 263.500 20.370,263.469 20.137,263.167 19.878 C 262.983 19.721,262.833 19.425,262.833 19.219 C 262.833 19.014,262.695 18.712,262.527 18.548 C 262.358 18.384,262.173 18.119,262.115 17.958 C 262.058 17.798,261.896 17.667,261.755 17.667 C 261.615 17.667,261.500 17.556,261.500 17.420 C 261.500 17.284,261.313 17.126,261.083 17.068 C 260.854 17.011,260.667 16.906,260.667 16.835 C 260.667 16.765,260.423 16.608,260.125 16.486 C 259.827 16.365,259.508 16.177,259.417 16.069 C 259.325 15.961,258.925 15.832,258.529 15.784 C 258.132 15.735,257.719 15.579,257.612 15.437 C 257.454 15.227,256.941 15.169,254.917 15.131 C 253.542 15.105,252.585 15.059,252.792 15.030 C 252.998 15.001,253.167 14.863,253.167 14.723 C 253.167 14.583,253.317 14.430,253.500 14.382 C 253.781 14.308,253.833 14.154,253.833 13.397 C 253.833 12.741,253.896 12.500,254.066 12.500 C 254.379 12.500,254.500 12.129,254.500 11.169 C 254.500 10.447,254.534 10.373,254.833 10.452 C 255.018 10.500,255.167 10.679,255.167 10.853 C 255.167 11.056,255.285 11.167,255.500 11.167 C 255.722 11.167,255.833 11.278,255.833 11.500 C 255.833 11.715,255.944 11.833,256.147 11.833 C 256.320 11.833,256.499 11.980,256.546 12.158 C 256.694 12.725,261.397 12.746,261.545 12.180 C 261.589 12.009,261.845 11.839,262.148 11.779 C 262.563 11.696,262.694 11.569,262.773 11.175 C 262.830 10.893,263.009 10.633,263.187 10.577 C 263.359 10.522,263.500 10.333,263.500 10.155 C 263.500 9.978,263.650 9.683,263.833 9.500 C 264.130 9.204,264.167 8.944,264.167 7.173 C 264.167 5.349,264.138 5.163,263.833 5.000 C 263.600 4.875,263.500 4.651,263.500 4.255 C 263.500 3.836,263.414 3.662,263.167 3.583 C 262.983 3.525,262.833 3.370,262.833 3.239 C 262.833 3.107,262.702 2.995,262.542 2.990 C 260.835 2.929,254.317 2.990,254.191 3.068 C 254.100 3.125,253.976 3.395,253.916 3.669 C 253.856 3.943,253.719 4.170,253.612 4.173 C 253.216 4.186,252.661 5.705,252.664 6.766 C 252.666 7.572,252.598 7.844,252.333 8.083 C 252.033 8.355,252.000 8.597,252.000 10.506 C 252.000 12.488,251.978 12.634,251.667 12.715 C 251.424 12.778,251.333 12.942,251.333 13.318 C 251.333 13.757,251.272 13.833,250.915 13.833 C 250.685 13.833,250.368 13.983,250.211 14.167 C 249.375 15.143,249.333 14.912,249.333 9.333 L 249.333 4.167 250.583 4.167 L 251.833 4.167 251.833 3.583 L 251.833 3.000 243.083 3.000 C 238.271 3.000,234.285 2.981,234.226 2.958 C 233.976 2.861,233.752 3.501,233.935 3.792 C 234.076 4.016,234.392 4.095,235.309 4.132 L 236.500 4.181 236.500 9.341 L 236.500 14.500 236.083 14.500 C 235.838 14.500,235.667 14.404,235.667 14.268 C 235.667 14.013,235.316 13.833,234.820 13.833 C 234.611 13.833,234.500 13.717,234.500 13.500 C 234.500 13.317,234.355 13.022,234.178 12.844 C 233.904 12.570,233.850 12.246,233.816 10.664 C 233.784 9.157,233.718 8.732,233.471 8.418 C 233.242 8.126,233.167 7.742,233.167 6.855 C 233.167 5.849,233.118 5.653,232.833 5.500 C 232.616 5.384,232.500 5.151,232.500 4.833 C 232.500 4.516,232.384 4.283,232.167 4.167 C 231.983 4.069,231.833 3.850,231.833 3.681 C 231.833 3.034,231.494 2.977,227.455 2.947 C 225.311 2.930,223.431 2.941,223.278 2.971 M141.667 14.510 C 141.667 14.964,141.771 15.259,142.000 15.455 C 142.213 15.637,142.333 15.947,142.333 16.310 C 142.333 16.640,142.446 16.962,142.600 17.075 C 142.749 17.184,142.906 17.613,142.954 18.044 C 143.013 18.566,143.129 18.840,143.312 18.889 C 143.461 18.929,142.533 18.970,141.249 18.981 L 138.914 19.000 138.974 18.250 C 139.011 17.782,139.114 17.500,139.247 17.500 C 139.488 17.500,139.661 16.988,139.664 16.268 C 139.666 16.003,139.789 15.697,139.938 15.588 C 140.105 15.467,140.242 15.054,140.293 14.528 C 140.349 13.949,140.451 13.667,140.605 13.667 C 140.730 13.667,140.833 13.506,140.833 13.309 C 140.833 12.968,140.852 12.972,141.250 13.401 C 141.549 13.723,141.667 14.038,141.667 14.510 M45.977 13.667 C 46.087 13.667,46.167 13.946,46.167 14.333 C 46.167 14.778,46.278 15.111,46.500 15.333 C 46.718 15.551,46.833 15.889,46.833 16.308 C 46.833 16.737,46.943 17.048,47.167 17.250 C 47.388 17.450,47.500 17.763,47.500 18.180 C 47.500 18.639,47.579 18.830,47.792 18.885 C 47.952 18.927,47.033 18.970,45.749 18.981 L 43.414 19.000 43.474 18.250 C 43.511 17.779,43.614 17.500,43.749 17.500 C 44.028 17.500,44.167 17.123,44.167 16.360 C 44.167 15.927,44.265 15.686,44.500 15.539 C 44.761 15.376,44.833 15.150,44.833 14.499 C 44.833 13.870,44.895 13.667,45.083 13.667 C 45.221 13.667,45.336 13.535,45.339 13.375 C 45.344 13.097,45.354 13.097,45.565 13.375 C 45.687 13.535,45.872 13.667,45.977 13.667 M386.222 15.360 C 386.266 15.529,386.422 15.667,386.568 15.667 C 386.758 15.667,386.833 15.825,386.833 16.228 C 386.833 16.536,386.983 16.979,387.167 17.212 C 387.479 17.610,387.500 17.888,387.500 21.735 C 387.500 25.611,387.482 25.851,387.167 26.167 C 386.932 26.401,386.833 26.722,386.833 27.250 L 386.833 28.000 385.500 28.000 L 384.167 28.000 384.167 21.491 L 384.167 14.983 385.154 15.018 C 385.955 15.047,386.157 15.112,386.222 15.360 M398.718 18.542 C 398.477 18.914,398.463 23.680,398.700 24.475 C 398.894 25.124,398.917 24.842,398.917 21.766 C 398.917 19.878,398.902 18.333,398.885 18.333 C 398.867 18.333,398.792 18.427,398.718 18.542 M73.017 30.181 C 72.377 30.437,72.706 30.515,73.662 30.334 C 74.740 30.130,76.200 30.124,77.049 30.321 C 77.583 30.445,77.651 30.432,77.487 30.234 C 77.257 29.957,73.682 29.915,73.017 30.181 M121.191 30.220 C 121.012 30.436,121.076 30.447,121.701 30.302 C 122.403 30.138,124.344 30.212,125.167 30.433 C 125.517 30.527,125.549 30.509,125.367 30.314 C 125.039 29.963,121.471 29.883,121.191 30.220 M224.000 30.258 C 223.598 30.496,223.607 30.500,224.250 30.377 C 225.117 30.212,227.070 30.214,227.917 30.382 L 228.583 30.515 228.106 30.257 C 227.456 29.907,224.593 29.908,224.000 30.258 M257.908 30.150 C 257.821 30.233,257.600 30.342,257.417 30.392 C 257.233 30.442,257.421 30.430,257.833 30.366 C 258.813 30.214,260.741 30.220,261.583 30.376 L 262.250 30.500 261.750 30.258 C 261.186 29.984,258.172 29.900,257.908 30.150 M314.250 30.245 C 313.768 30.467,313.779 30.471,314.583 30.365 C 315.683 30.220,319.985 30.220,321.250 30.365 C 322.191 30.473,322.220 30.466,321.750 30.247 C 321.040 29.917,314.966 29.916,314.250 30.245 "
                                  stroke="none" fill-rule="evenodd"></path>
                            <path id="path3"
                                  d="M119.257 1.822 C 119.143 2.006,119.406 2.205,119.560 2.051 C 119.719 1.893,119.689 1.667,119.510 1.667 C 119.424 1.667,119.310 1.736,119.257 1.822 M306.889 1.893 C 306.889 2.134,307.912 2.103,308.917 1.832 C 309.299 1.729,309.118 1.693,308.153 1.682 C 307.192 1.670,306.889 1.721,306.889 1.893 M314.417 2.000 C 314.125 2.322,314.126 2.333,314.419 2.333 C 314.586 2.333,314.673 2.284,314.613 2.224 C 314.552 2.163,314.586 2.013,314.689 1.890 C 314.982 1.537,314.752 1.630,314.417 2.000 M1.020 3.208 C 1.009 3.749,1.073 4.167,1.167 4.167 C 1.356 4.167,1.356 3.493,1.167 2.750 C 1.062 2.338,1.036 2.420,1.020 3.208 M122.094 12.683 C 122.145 12.766,122.365 12.833,122.583 12.833 C 122.802 12.833,123.022 12.766,123.073 12.683 C 123.124 12.601,122.904 12.533,122.583 12.533 C 122.263 12.533,122.043 12.601,122.094 12.683 M253.045 14.969 C 252.926 15.044,253.114 15.096,253.486 15.091 C 253.842 15.087,254.099 15.027,254.057 14.958 C 253.957 14.795,253.307 14.802,253.045 14.969 M398.910 19.619 C 398.800 21.235,398.920 25.142,399.085 25.307 C 399.635 25.857,400.006 19.113,399.481 18.131 C 399.160 17.531,399.029 17.872,398.910 19.619 M0.989 29.291 L 1.061 30.583 1.219 29.552 C 1.373 28.549,1.312 28.000,1.047 28.000 C 0.975 27.999,0.949 28.581,0.989 29.291 M73.667 30.333 C 73.307 30.409,73.947 30.457,75.333 30.458 C 76.689 30.460,77.385 30.410,77.083 30.333 C 76.450 30.172,74.432 30.172,73.667 30.333 M121.583 30.333 C 121.272 30.413,121.838 30.461,123.083 30.461 C 124.329 30.461,124.895 30.413,124.583 30.333 C 124.308 30.263,123.633 30.206,123.083 30.206 C 122.533 30.206,121.858 30.263,121.583 30.333 M224.583 30.333 C 224.272 30.413,224.838 30.461,226.083 30.461 C 227.329 30.461,227.895 30.413,227.583 30.333 C 227.308 30.263,226.633 30.206,226.083 30.206 C 225.533 30.206,224.858 30.263,224.583 30.333 M258.250 30.333 C 257.934 30.414,258.454 30.462,259.667 30.464 C 260.858 30.466,261.426 30.416,261.167 30.333 C 260.642 30.165,258.910 30.165,258.250 30.333 M315.167 30.333 C 314.646 30.397,315.833 30.448,317.917 30.451 C 320.251 30.454,321.281 30.408,320.750 30.326 C 319.756 30.171,316.455 30.175,315.167 30.333 "
                                  stroke="none" fill-rule="evenodd"></path>
                            <path id="path4"
                                  d="M0.448 2.458 C 0.335 2.655,0.413 3.728,0.556 3.958 C 0.832 4.399,1.000 4.130,1.000 3.250 C 1.000 2.402,0.715 1.993,0.448 2.458 M0.679 28.375 C 0.734 28.799,0.662 29.017,0.500 28.917 C 0.308 28.798,0.289 29.071,0.438 29.813 C 0.641 30.830,1.021 30.438,0.983 29.250 C 0.963 28.654,0.881 28.167,0.800 28.167 C 0.719 28.167,0.664 28.260,0.679 28.375 M72.833 30.667 C 72.833 30.770,73.750 30.833,75.250 30.833 C 76.750 30.833,77.667 30.770,77.667 30.667 C 77.667 30.563,76.750 30.500,75.250 30.500 C 73.750 30.500,72.833 30.563,72.833 30.667 M121.000 30.667 C 121.000 30.769,121.833 30.833,123.167 30.833 C 124.500 30.833,125.333 30.769,125.333 30.667 C 125.333 30.564,124.500 30.500,123.167 30.500 C 121.833 30.500,121.000 30.564,121.000 30.667 M223.667 30.667 C 223.667 30.770,224.556 30.833,226.000 30.833 C 227.444 30.833,228.333 30.770,228.333 30.667 C 228.333 30.563,227.444 30.500,226.000 30.500 C 224.556 30.500,223.667 30.563,223.667 30.667 M257.333 30.667 C 257.333 30.770,258.222 30.833,259.667 30.833 C 261.111 30.833,262.000 30.770,262.000 30.667 C 262.000 30.563,261.111 30.500,259.667 30.500 C 258.222 30.500,257.333 30.563,257.333 30.667 M314.000 30.667 C 314.000 30.773,315.444 30.833,318.000 30.833 C 320.556 30.833,322.000 30.773,322.000 30.667 C 322.000 30.560,320.556 30.500,318.000 30.500 C 315.444 30.500,314.000 30.560,314.000 30.667 "
                                  stroke="none" fill-rule="evenodd"></path>
                        </g>
                    </svg>