  <svg version="1.0" xmlns="http://www.w3.org/2000/svg"
                         viewBox="0 0 528.000000 120.000000"
                         preserveAspectRatio="xMidYMid meet">
                        <metadata>
                            Created by potrace 1.10, written by Peter Selinger 2001-2011
                        </metadata>
                        <g transform="translate(0.000000,120.000000) scale(0.100000,-0.100000)"
                           stroke="none">
                            <path d="M558 1170 c-16 -28 -16 -31 2 -52 17 -22 19 -22 37 -5 24 21 76 22
93 2 7 -8 18 -15 26 -15 7 0 29 -20 50 -45 20 -25 42 -45 49 -45 16 0 27 42
18 67 -10 29 -76 83 -100 83 -13 0 -28 9 -35 20 -10 16 -24 20 -68 20 -50 0
-56 -3 -72 -30z"/>
                            <path d="M270 1085 c-14 -8 -32 -14 -41 -15 -9 0 -39 -21 -68 -48 -41 -38 -51
-54 -51 -79 0 -18 3 -34 8 -36 15 -9 51 13 68 42 10 16 34 37 53 47 20 9 45
21 55 27 11 5 49 12 84 15 80 6 153 -17 240 -75 35 -24 67 -43 71 -43 5 0 14
-7 21 -15 7 -8 20 -15 30 -15 10 0 23 -7 30 -15 20 -24 63 -18 93 13 15 15 27
31 27 34 0 4 9 23 21 42 18 31 23 34 44 24 14 -6 37 -36 55 -72 26 -53 30 -72
30 -142 0 -72 2 -82 19 -87 38 -10 44 6 43 113 0 69 -5 107 -14 118 -7 10 -22
33 -32 52 -32 57 -80 100 -113 100 -35 0 -61 -26 -93 -92 -25 -52 -39 -57 -81
-30 -83 53 -152 91 -218 119 -66 29 -84 33 -165 33 -60 -1 -100 -6 -116 -15z"/>
                            <path d="M1544 1035 c-3 -8 -3 -19 1 -24 7 -12 2290 -16 2319 -5 21 8 21 30 0
38 -8 3 -533 6 -1165 6 -992 0 -1150 -2 -1155 -15z"/>
                            <path d="M420 963 c-25 -9 -60 -22 -78 -29 -18 -8 -42 -14 -53 -14 -12 0 -33
-6 -47 -14 -15 -7 -48 -23 -73 -35 -111 -51 -169 -136 -169 -249 0 -62 13 -74
91 -83 36 -4 68 -14 80 -25 25 -23 48 -74 60 -133 15 -72 46 -93 68 -45 12 27
7 51 -28 139 -33 82 -62 106 -150 120 l-66 11 -3 35 c-2 23 3 40 12 49 9 7 16
17 16 23 0 12 65 77 95 94 46 28 112 50 245 83 57 14 114 37 118 48 5 16 -28
42 -51 41 -12 -1 -42 -8 -67 -16z"/>
                            <path d="M901 864 c-20 -15 -22 -22 -16 -68 3 -28 13 -73 20 -101 12 -42 21
-54 58 -76 41 -25 98 -42 142 -43 47 -2 18 -102 -47 -161 -44 -40 -134 -83
-203 -95 -37 -7 -56 -13 -145 -46 -19 -7 -43 -15 -52 -18 -24 -7 -11 -45 19
-52 13 -4 41 0 61 8 20 9 62 23 92 32 85 27 185 66 220 87 8 5 22 12 30 16 24
10 70 65 91 107 12 26 19 61 19 102 0 58 -2 62 -27 72 -16 6 -52 13 -80 16
-90 9 -118 43 -130 158 -7 69 -20 84 -52 62z"/>
                            <path d="M264 800 c-26 -10 -96 -127 -92 -154 2 -14 11 -22 28 -24 22 -2 30 5
50 43 38 71 47 86 59 98 6 6 11 19 11 29 0 19 -21 22 -56 8z"/>
                            <path d="M1613 794 c-58 -29 -68 -56 -68 -179 0 -130 14 -161 89 -189 43 -16
48 -17 83 -1 69 31 78 53 78 192 l0 123 -31 31 c-39 38 -102 48 -151 23z m108
-63 c28 -28 29 -34 29 -116 0 -124 -28 -160 -107 -139 -32 9 -46 70 -41 168 4
68 8 81 29 97 34 26 56 24 90 -10z"/>
                            <path d="M4487 802 c-20 -4 -21 -15 -6 -43 8 -16 19 -20 52 -17 l42 3 1 -147
c1 -81 4 -154 7 -163 8 -20 46 -20 54 0 3 9 6 82 7 163 l1 147 42 -3 c38 -3
44 0 55 22 6 15 9 29 6 32 -7 6 -234 11 -261 6z"/>
                            <path d="M4797 802 c-4 -6 -11 -332 -8 -369 3 -35 61 6 61 43 0 10 19 39 41
64 22 25 50 60 62 77 39 58 48 44 46 -71 -1 -57 2 -109 5 -115 11 -17 44 -13
53 7 4 9 7 95 5 190 l-3 172 -29 0 c-26 0 -30 -4 -30 -28 0 -16 -8 -38 -17
-49 -10 -12 -36 -43 -58 -69 -56 -67 -73 -84 -86 -84 -6 0 -8 8 -5 18 3 9 7
59 8 110 2 74 0 95 -12 102 -18 12 -27 12 -33 2z"/>
                            <path d="M4158 628 c-2 -95 1 -181 5 -190 10 -22 46 -23 54 -2 3 8 6 45 7 82
l1 67 70 0 70 0 1 -67 c1 -37 4 -74 7 -82 8 -21 44 -20 54 2 4 9 7 95 5 190
l-3 172 -29 0 -30 0 0 -85 0 -85 -75 0 -75 0 0 85 0 85 -30 0 -29 0 -3 -172z"/>
                            <path d="M1888 679 c-14 -8 -18 -24 -18 -79 0 -44 -6 -82 -16 -104 -18 -37
-13 -86 9 -86 23 0 47 64 55 145 l7 80 38 3 37 3 0 -109 c0 -60 3 -111 6 -115
3 -3 17 -1 30 5 23 11 24 14 24 133 l0 122 -37 7 c-56 9 -116 7 -135 -5z"/>
                            <path d="M2127 683 c-4 -3 -7 -62 -7 -130 l0 -123 25 0 c18 0 28 8 38 33 17
39 67 97 84 97 19 0 22 -12 13 -60 -9 -47 6 -80 37 -80 7 0 13 8 14 18 2 69
-1 245 -5 249 -10 11 -45 -10 -52 -30 -8 -27 -72 -107 -85 -107 -5 0 -9 32 -9
70 0 67 -1 70 -23 70 -13 0 -27 -3 -30 -7z"/>
                            <path d="M2405 680 c-9 -15 -11 -233 -1 -248 4 -6 16 -12 27 -12 17 0 19 7 19
61 0 66 17 78 32 22 11 -44 58 -57 58 -16 0 9 11 26 25 39 l26 24 -6 -38 c-4
-20 -9 -44 -11 -54 -5 -17 33 -51 48 -42 4 3 8 66 8 140 0 109 -3 134 -14 134
-28 0 -46 -12 -46 -32 0 -11 -6 -32 -14 -46 -8 -15 -18 -38 -23 -50 -8 -23 -9
-23 -29 -5 -12 10 -29 44 -40 76 -13 40 -23 57 -35 57 -10 0 -21 -5 -24 -10z"/>
                            <path d="M2718 683 l-28 -4 0 -124 c0 -115 1 -124 20 -130 11 -3 24 -3 30 0 6
3 10 51 10 111 l0 105 43 -3 42 -3 1 -95 c2 -121 1 -120 18 -120 32 0 40 29
37 143 -1 62 -4 114 -6 116 -7 6 -138 10 -167 4z"/>
                            <path d="M2957 684 c-14 -14 -8 -239 7 -259 13 -18 14 -17 29 11 26 50 97 135
108 129 5 -4 9 -35 7 -70 -2 -70 4 -85 30 -69 15 10 17 29 17 135 0 119 -1
124 -21 127 -16 2 -23 -4 -28 -23 -7 -26 -32 -60 -76 -103 l-25 -24 -5 73 c-4
56 -9 75 -20 77 -9 1 -19 0 -23 -4z"/>
                            <path d="M3232 681 c-8 -5 -12 -17 -10 -27 4 -19 23 -22 64 -9 27 8 70 -25 61
-48 -4 -12 -18 -17 -44 -17 -21 0 -53 -9 -70 -20 -27 -16 -33 -26 -33 -53 0
-61 17 -72 115 -72 88 -1 112 8 95 35 -6 8 -10 42 -10 76 0 72 -15 121 -40
134 -23 12 -110 13 -128 1z m116 -162 c2 -9 -5 -24 -14 -33 -35 -35 -105 2
-74 39 18 21 84 17 88 -6z"/>
                            <path d="M3523 683 c-22 -4 -23 -9 -23 -104 0 -95 -1 -100 -24 -108 -34 -14
-53 -119 -21 -122 8 -1 21 -2 28 -3 7 -1 14 16 17 39 l5 40 88 3 87 3 0 -40
c0 -45 7 -53 39 -44 21 5 23 10 17 52 -4 29 -14 52 -27 64 -20 16 -21 26 -20
116 2 83 -1 99 -14 105 -18 7 -116 6 -152 -1z m112 -128 l0 -80 -45 0 c-42 0
-45 2 -42 25 2 14 6 51 9 83 l5 58 36 -3 37 -3 0 -80z"/>
                            <path d="M3771 676 c-9 -11 -9 -20 -2 -35 10 -18 13 -19 42 -4 24 12 36 13 56
4 33 -15 29 -55 -7 -59 -58 -6 -97 -23 -110 -47 -12 -23 -12 -30 4 -60 21 -39
43 -46 143 -42 68 2 94 16 68 37 -11 9 -15 31 -15 82 0 66 -15 109 -45 130
-19 14 -122 9 -134 -6z m114 -171 c0 -28 -2 -30 -40 -30 -35 0 -40 3 -43 24
-5 29 13 42 53 39 26 -3 30 -7 30 -33z"/>
                            <path d="M953 533 c-10 -16 -20 -30 -23 -33 -3 -3 -20 -24 -38 -46 -73 -95
-13 -113 70 -21 63 70 76 127 28 127 -11 0 -27 -12 -37 -27z"/>
                            <path d="M84 489 c-4 -6 -7 -53 -7 -103 0 -85 2 -95 33 -151 69 -125 135 -158
182 -93 35 50 48 71 54 91 10 29 25 24 129 -40 11 -7 54 -29 95 -49 41 -20 88
-43 104 -52 39 -20 219 -21 244 0 9 8 34 23 55 33 62 33 99 77 95 115 -5 49
-24 48 -73 -6 -61 -66 -122 -94 -207 -94 -37 0 -82 6 -100 14 -18 8 -40 17
-48 20 -8 4 -28 15 -45 26 -16 11 -39 24 -50 30 -11 6 -33 19 -50 30 -16 11
-42 25 -57 31 -16 6 -28 15 -28 20 0 5 -15 9 -33 9 -38 0 -70 -30 -103 -93
-10 -21 -22 -41 -26 -43 -17 -11 -51 26 -78 84 -25 52 -30 74 -30 141 0 63 -3
80 -16 85 -23 9 -32 7 -40 -5z"/>
                            <path d="M350 151 c-17 -33 -12 -49 31 -90 43 -41 67 -49 162 -58 65 -5 99 12
90 47 -7 26 -33 33 -53 15 -21 -19 -74 -19 -90 0 -7 8 -18 15 -26 15 -7 0 -29
20 -50 45 -41 50 -49 53 -64 26z"/>
                        </g>
                    </svg>