 <svg
                            xmlns:dc="http://purl.org/dc/elements/1.1/"
                            xmlns:cc="http://creativecommons.org/ns#"
                            xmlns:rdf="http://www.w3.org/1999/02/22-rdf-syntax-ns#"
                            xmlns="http://www.w3.org/2000/svg"
                            xmlns:sodipodi="http://sodipodi.sourceforge.net/DTD/sodipodi-0.dtd"
                            xmlns:inkscape="http://www.inkscape.org/namespaces/inkscape"
                            viewBox="0 0 107 28"
                            version="1.1"
                            id="svg889"
                            inkscape:version="0.92.2 5c3e80d, 2017-08-06"
                            sodipodi:docname="drawing.svg">
                        <defs
                                id="defs883"/>
                        <sodipodi:namedview
                                id="base"
                                pagecolor="#ffffff"
                                bordercolor="#666666"
                                borderopacity="1.0"
                                inkscape:pageopacity="0.0"
                                inkscape:pageshadow="2"
                                inkscape:zoom="2.8"
                                inkscape:cx="138.61024"
                                inkscape:cy="87.731587"
                                inkscape:document-units="mm"
                                inkscape:current-layer="layer1"
                                showgrid="false"
                                inkscape:window-width="2536"
                                inkscape:window-height="1544"
                                inkscape:window-x="10"
                                inkscape:window-y="10"
                                inkscape:window-maximized="0"/>
                        <metadata
                                id="metadata886">
                            <rdf:RDF>
                                <cc:Work
                                        rdf:about="">
                                    <dc:format>image/svg+xml</dc:format>
                                    <dc:type
                                            rdf:resource="http://purl.org/dc/dcmitype/StillImage"/>
                                    <dc:title></dc:title>
                                </cc:Work>
                            </rdf:RDF>
                        </metadata>
                        <g
                                inkscape:label="Layer 1"
                                inkscape:groupmode="layer"
                                id="layer1"
                                transform="translate(0,-269)">
                            <path
                                    inkscape:connector-curvature="0"
                                    style="display:block;fill-rule:evenodd;stroke:none;stroke-width:0.26458332"
                                    id="path1"
                                    d="m 0.43669382,270.82177 v 1.23454 h 0.35269 0.35295998 v 4.16719 4.16719 h -0.35295998 -0.35269 v 1.10278 1.10278 l 2.61276008,-0.0114 2.61276,-0.0114 v -1.08028 -1.0803 l -0.27569,-0.0132 -0.27543,-0.0132 v -4.16507 -4.16507 h 1.38906 1.38906 v 4.16269 4.16243 l -0.3548,0.0161 c -0.25268,0.0114 -0.36645,0.0349 -0.39609,0.0818 -0.0545,0.086 -0.0542,1.94204 2.7e-4,2.02803 0.0548,0.0868 5.3493501,0.12515 5.4522701,0.0397 0.0823,-0.0683 0.0897,-2.02142 0.008,-2.10344 -0.0323,-0.032 -0.18812,-0.0529 -0.39688,-0.0529 h -0.34392 v -4.16534 -4.16533 l 0.36195,-0.013 0.36222,-0.0127 0.0339,-0.15425 c 0.0188,-0.0849 0.0325,-0.63553 0.0307,-1.2237 l -0.003,-1.06944 H 6.5406839 0.43727382 v 1.23481 m 16.26447018,1.68698 c -0.0558,0.0206 -0.0804,0.0582 -0.0648,0.0992 0.0217,0.0561 -0.0495,0.0659 -0.47678,0.0659 -0.50165,0 -0.66013,0.0225 -0.61965,0.0881 0.0238,0.0386 -0.0743,0.0672 -0.38444,0.11191 -0.1143,0.0164 -0.23337,0.0625 -0.26459,0.1024 -0.0516,0.0659 -0.0487,0.0664 0.0317,0.006 0.0818,-0.0614 0.0839,-0.0606 0.0278,0.0111 -0.0333,0.0423 -0.11774,0.0773 -0.18759,0.0773 -0.0698,0 -0.12673,0.0209 -0.12673,0.0466 0,0.0257 -0.0214,0.0336 -0.0476,0.0172 -0.0262,-0.0161 -0.077,0.0124 -0.11271,0.0638 -0.036,0.0511 -0.1061,0.0929 -0.15611,0.0929 -0.0691,0 -0.0852,0.0212 -0.0677,0.0881 0.0188,0.072 10e-4,0.0884 -0.0942,0.0889 -0.10636,8e-4 -0.30718,0.0852 -0.20611,0.0868 0.0238,5.3e-4 -0.0307,0.0511 -0.12118,0.11271 -0.0905,0.0614 -0.16457,0.14023 -0.16457,0.17515 0,0.0352 -0.0495,0.0963 -0.11033,0.136 -0.0664,0.0437 -0.11007,0.11377 -0.11007,0.17727 0,0.0759 -0.0249,0.1053 -0.0884,0.1053 -0.0579,0 -0.0881,0.0294 -0.0881,0.0857 0,0.0471 -0.0418,0.11483 -0.0929,0.15081 -0.0513,0.0357 -0.0799,0.0865 -0.0638,0.11271 0.0164,0.0262 0.009,0.0476 -0.0172,0.0476 -0.0257,0 -0.0466,0.0413 -0.0466,0.0921 0,0.0508 -0.0384,0.12515 -0.0852,0.16537 -0.0643,0.0553 -0.0897,0.14764 -0.10398,0.37968 -0.0156,0.25188 -0.0357,0.31776 -0.1135,0.36909 -0.0939,0.0627 -0.0942,0.0691 -0.0942,2.01613 0,1.98305 0.006,2.09285 0.11482,2.09285 0.0339,0 0.0643,0.0249 0.068,0.055 0.004,0.0304 0.0106,0.0849 0.0156,0.12144 0.005,0.0362 0.0119,0.15029 0.0154,0.25347 0.006,0.15584 0.0214,0.18733 0.0947,0.18733 0.0735,0 0.0884,0.0294 0.0884,0.17568 0,0.14632 0.0167,0.17965 0.10134,0.20109 0.0794,0.0198 0.10372,0.0598 0.11218,0.18441 0.0124,0.18441 0.0405,0.24421 0.0982,0.20876 0.0227,-0.014 0.0611,0.0272 0.0857,0.0915 0.0246,0.0646 0.0839,0.12753 0.13229,0.14023 0.0481,0.0127 0.0876,0.0601 0.0876,0.10583 0,0.0521 0.0312,0.0831 0.0831,0.0831 0.0468,0 0.0934,0.0399 0.1069,0.0915 0.0132,0.0503 0.0632,0.10186 0.11139,0.1143 0.0481,0.0127 0.0974,0.0614 0.1098,0.10821 0.0122,0.0471 0.0389,0.0826 0.059,0.0788 0.17304,-0.0304 0.32358,0.0114 0.32358,0.0894 0,0.0571 0.05,0.10346 0.15187,0.14023 0.0836,0.0302 0.14341,0.0691 0.13256,0.0865 -0.0302,0.049 0.10107,0.0847 0.31141,0.0847 0.1532,0 0.19765,0.018 0.21987,0.0884 0.0156,0.0484 0.0664,0.0905 0.11325,0.0937 0.0468,0.003 0.10503,0.0103 0.12938,0.0164 0.0243,0.006 0.15081,0.0135 0.28151,0.0167 0.19871,0.005 0.2413,0.0201 0.26062,0.0947 0.036,0.13732 3.06969,0.13415 3.10568,-0.003 0.0183,-0.0696 0.0616,-0.0863 0.22674,-0.0865 0.3474,-7.9e-4 0.54478,-0.0489 0.56833,-0.13864 0.0167,-0.0635 0.0635,-0.0815 0.21458,-0.0815 0.16007,0 0.19314,-0.0143 0.19314,-0.0831 0,-0.0648 0.0439,-0.0897 0.19844,-0.11298 0.1569,-0.0236 0.19844,-0.0476 0.19844,-0.11535 0,-0.055 0.0304,-0.0855 0.0857,-0.0855 0.0471,0 0.0974,-0.0188 0.11165,-0.0421 0.0143,-0.0233 0.0542,-0.0312 0.0889,-0.018 0.041,0.0156 0.0728,-0.0151 0.0913,-0.0886 0.0156,-0.0622 0.041,-0.11113 0.0569,-0.10901 0.0907,0.0116 0.14393,-0.0135 0.12832,-0.0609 -0.0241,-0.0717 0.0619,-0.16087 0.12965,-0.13494 0.0302,0.0116 0.0661,-0.0291 0.082,-0.0921 0.0156,-0.0622 0.041,-0.11113 0.0569,-0.10901 0.0987,0.0127 0.14526,-0.0148 0.12303,-0.073 -0.014,-0.0362 -0.006,-0.0661 0.0172,-0.0661 0.0236,0 0.0429,-0.0495 0.0429,-0.11006 0,-0.081 0.0236,-0.11034 0.0881,-0.11034 0.0728,0 0.0881,-0.0294 0.0881,-0.16933 0,-0.13785 0.0206,-0.17859 0.11033,-0.2196 0.0878,-0.0399 0.11033,-0.0823 0.11033,-0.20929 0,-0.10821 0.0294,-0.18309 0.0918,-0.23389 0.18601,-0.15055 0.17754,-4.85643 -0.009,-4.85643 -0.0693,0 -0.0833,-0.0331 -0.0833,-0.19553 0,-0.24315 -0.0651,-0.42174 -0.15345,-0.42174 -0.0487,0 -0.0672,-0.0476 -0.0672,-0.17357 0,-0.13123 -0.0201,-0.17965 -0.0833,-0.19976 -0.0458,-0.0145 -0.0939,-0.0669 -0.1069,-0.11668 -0.013,-0.0495 -0.0648,-0.10054 -0.11509,-0.11377 -0.0516,-0.0135 -0.0915,-0.0601 -0.0915,-0.10689 0,-0.0527 -0.031,-0.0831 -0.0849,-0.0831 -0.0548,0 -0.0902,-0.0355 -0.0992,-0.0992 -0.009,-0.0638 -0.0497,-0.10425 -0.11351,-0.11351 -0.0622,-0.009 -0.0992,-0.0444 -0.0992,-0.096 0,-0.0513 -0.0373,-0.0878 -0.0992,-0.0971 -0.0545,-0.008 -0.0945,-0.0389 -0.0886,-0.068 0.0106,-0.0521 -0.12832,-0.15028 -0.19605,-0.13891 -0.10478,0.0175 -0.18918,-0.0122 -0.18918,-0.0661 0,-0.0733 -0.0947,-0.11483 -0.26114,-0.11483 -0.087,0 -0.136,-0.0315 -0.17198,-0.11033 -0.0455,-0.0997 -0.0751,-0.11033 -0.31565,-0.11033 -0.23627,0 -0.26564,-0.01 -0.26564,-0.0881 0,-0.0831 -0.0294,-0.0881 -0.50562,-0.0881 -0.43021,0 -0.50191,-0.01 -0.48048,-0.0659 0.0138,-0.0362 -0.002,-0.0759 -0.0344,-0.0884 -0.0984,-0.0373 -1.75604,-0.0471 -1.85314,-0.0109 m 53.5255,-0.0225 c -0.078,0.0111 -0.13493,0.0503 -0.14843,0.10266 -0.0177,0.0669 -0.0619,0.0849 -0.21034,0.0849 -0.14764,0 -0.19288,0.018 -0.21008,0.0833 -0.0148,0.0569 -0.078,0.0929 -0.19923,0.11325 -0.12277,0.0209 -0.18442,0.0564 -0.19976,0.11509 -0.013,0.05 -0.0603,0.0852 -0.11457,0.0852 -0.0616,0 -0.0923,0.028 -0.0923,0.0847 0,0.058 -0.041,0.0937 -0.13097,0.11351 -0.12382,0.027 -0.40957,0.26908 -0.45746,0.38708 -0.0119,0.0296 -0.0236,-5.3e-4 -0.0254,-0.0672 -0.003,-0.0908 -0.0257,-0.12118 -0.0916,-0.12118 -0.0804,0 -0.0884,-0.0294 -0.0884,-0.32729 0,-0.17992 -0.0119,-0.35851 -0.0267,-0.39687 -0.0238,-0.0622 -0.23998,-0.0696 -1.98438,-0.0696 h -1.95765 v 1.1639 c 0,1.30916 -0.0267,1.21735 0.3564,1.21735 h 0.21696 v 4.0804 4.08014 l -0.16537,-0.002 c -0.27649,-0.003 -0.32253,0.003 -0.29898,0.0413 0.0127,0.0204 -0.007,0.0482 -0.0431,0.0622 -0.0452,0.0175 -0.0661,0.0908 -0.0672,0.23601 -0.001,0.17198 -0.12329,0.4826 -0.13388,0.34079 -0.0114,-0.15214 -0.0796,0.18626 -0.082,0.40745 -0.003,0.22887 -0.0169,0.27702 -0.0881,0.29951 -0.1008,0.032 -0.12991,0.85328 -0.0323,0.9152 0.0611,0.0389 4.70932,0.0458 4.80986,0.007 0.0471,-0.018 0.0698,-0.0825 0.0698,-0.19844 0,-0.11906 0.0193,-0.17172 0.0627,-0.17172 0.0574,0 0.17066,-0.24659 0.15425,-0.33655 -0.0384,-0.21193 0.0106,-0.4572 0.0918,-0.4572 0.0794,0 0.0881,-0.0294 0.0881,-0.29871 0,-0.24447 0.0161,-0.31274 0.0881,-0.37439 0.10637,-0.091 0.11642,-0.30665 0.019,-0.40401 -0.073,-0.073 -0.13123,-0.0818 -0.47095,-0.0698 l -0.20955,0.007 v -0.63659 -0.63659 l 0.10636,0.0204 c 0.0585,0.0111 0.11589,0.0574 0.12779,0.10292 0.0148,0.0564 0.0775,0.0916 0.1987,0.11086 0.12145,0.0193 0.18363,0.0542 0.19871,0.11139 0.0167,0.0643 0.0624,0.0831 0.20002,0.0831 0.10319,0 0.19315,0.0251 0.21352,0.0598 0.0815,0.13785 0.22886,0.15531 1.34435,0.15928 1.13189,0.004 1.3589,-0.0214 1.3589,-0.15187 0,-0.0508 0.0513,-0.0672 0.21219,-0.0672 0.14738,0 0.23945,-0.0254 0.30189,-0.0836 0.0495,-0.046 0.12753,-0.0908 0.17383,-0.0998 0.0466,-0.009 0.09,-0.0595 0.0979,-0.11456 0.0109,-0.0762 0.0431,-0.099 0.14023,-0.099 0.12224,0 0.26459,-0.0963 0.26459,-0.17939 0,-0.0225 0.0397,-0.041 0.0881,-0.041 0.0487,0 0.0884,-0.0275 0.0884,-0.0611 0,-0.0336 0.0495,-0.0937 0.11006,-0.13335 0.0609,-0.0397 0.11034,-0.10213 0.11034,-0.13864 0,-0.0365 0.0291,-0.0778 0.0646,-0.0913 0.0651,-0.0251 0.12726,-0.15743 0.15054,-0.32015 0.003,-0.0214 0.045,-0.0492 0.0937,-0.0619 0.0701,-0.0185 0.0881,-0.0603 0.0881,-0.20505 0,-0.11562 0.0225,-0.1905 0.0622,-0.20585 0.063,-0.0241 0.16934,-0.23442 0.15558,-0.30797 -0.0445,-0.23389 0.0108,-0.62733 0.091,-0.64823 0.13705,-0.036 0.13864,-4.21852 0.002,-4.3143 -0.0741,-0.0519 -0.0878,-0.11853 -0.0947,-0.45746 -0.008,-0.39423 -0.0537,-0.55113 -0.16007,-0.55113 -0.0365,0 -0.0556,-0.0683 -0.0556,-0.19844 0,-0.16906 -0.013,-0.19843 -0.0881,-0.19843 -0.0619,0 -0.0884,-0.0296 -0.0889,-0.0992 -0.001,-0.18653 -0.0521,-0.29766 -0.13679,-0.29766 -0.0526,0 -0.0831,-0.0312 -0.0831,-0.0852 0,-0.0471 -0.0376,-0.0974 -0.0833,-0.11192 -0.046,-0.0146 -0.0937,-0.0654 -0.1061,-0.11324 -0.0135,-0.0513 -0.0603,-0.0865 -0.1151,-0.0865 -0.063,0 -0.0923,-0.0281 -0.0923,-0.0884 0,-0.0484 -0.0267,-0.0881 -0.0593,-0.0881 -0.0325,0 -0.11694,-0.0495 -0.18732,-0.11007 -0.0979,-0.0841 -0.1778,-0.11033 -0.33761,-0.11033 -0.17621,0 -0.20955,-0.0135 -0.20955,-0.0836 0,-0.0458 -0.0302,-0.095 -0.0672,-0.10927 -0.0736,-0.028 -2.30267,-0.0233 -2.5064,0.005 m 19.2529,0.0282 c -0.1606,0.0521 -0.17436,0.0685 -0.0976,0.11721 0.0418,0.0262 -0.16854,0.041 -0.58949,0.0415 -0.61728,7.9e-4 -0.65591,0.006 -0.6776,0.0889 -0.0214,0.0817 -0.26273,0.12435 -0.52599,0.0926 -0.10081,-0.0122 -0.28073,0.0833 -0.28073,0.14896 0,0.0519 -0.0545,0.0672 -0.24235,0.0672 -0.14129,0 -0.24263,0.0193 -0.24263,0.0466 0,0.0257 -0.0198,0.0344 -0.0442,0.0196 -0.0241,-0.0151 -0.0439,0.004 -0.0439,0.0413 0,0.0466 -0.0415,0.0688 -0.12885,0.0688 -0.18441,0 -0.26802,0.0418 -0.26802,0.13414 0,0.0497 -0.0378,0.0857 -0.0992,0.0945 l -0.0992,0.014 -0.013,1.12448 c -0.007,0.61833 -10e-4,1.18957 0.0135,1.26947 l 0.0259,0.14473 1.44198,-0.0124 1.44198,-0.0127 0.0124,-0.47228 0.0124,-0.47228 0.15134,-0.0286 c 0.0831,-0.0156 0.17674,-0.0609 0.20796,-0.10081 0.0519,-0.0662 0.049,-0.0667 -0.0315,-0.006 -0.0818,0.0614 -0.0839,0.0606 -0.0278,-0.0111 0.0852,-0.10848 1.10807,-0.11748 1.10807,-0.01 0,0.0796 0.12489,0.1352 0.33682,0.14949 0.0272,0.002 0.0603,0.0431 0.073,0.0915 0.0138,0.0527 0.0601,0.0881 0.11536,0.0881 0.0799,0 0.0923,0.0265 0.0923,0.19844 0,0.16906 0.013,0.19843 0.0881,0.19843 0.0799,0 0.0881,0.0294 0.0881,0.30877 v 0.30877 h -0.36963 c -0.33258,0 -0.372,0.009 -0.39264,0.0881 -0.0204,0.0775 -0.0624,0.0886 -0.34687,0.0929 -0.65854,0.01 -1.00674,0.0934 -0.77602,0.18653 0.0304,0.0124 -0.14578,0.0238 -0.39158,0.0259 -0.40825,0.003 -0.449,0.0108 -0.4699,0.0915 -0.0196,0.0749 -0.0603,0.0881 -0.26776,0.0881 -0.20399,0 -0.41698,0.0505 -0.51197,0.12171 -0.0114,0.008 0.008,0.0339 0.0439,0.0566 0.0444,0.028 -0.0164,0.041 -0.19262,0.0415 -0.22039,5.3e-4 -0.26114,0.0135 -0.28072,0.0889 -0.0175,0.0664 -0.0603,0.0881 -0.1733,0.0881 -0.11748,0 -0.16113,0.0241 -0.20029,0.11033 -0.0455,0.0998 -0.13097,0.13362 -0.28734,0.11404 -0.0291,-0.004 -0.0738,0.0323 -0.0992,0.0799 -0.0254,0.0476 -0.086,0.0992 -0.13467,0.11483 -0.0484,0.0154 -0.0881,0.0648 -0.0881,0.11007 0,0.0516 -0.037,0.0873 -0.099,0.0963 -0.0564,0.008 -0.10583,0.0513 -0.11536,0.10107 -0.009,0.0479 -0.0489,0.11086 -0.0886,0.1397 -0.0741,0.0545 -0.0791,0.0691 -0.0884,0.26246 -0.004,0.0757 -0.0365,0.12251 -0.0963,0.13812 -0.0537,0.014 -0.0812,0.0482 -0.0675,0.0841 0.0127,0.0331 0.004,0.0603 -0.0196,0.0603 -0.0265,0 -0.0429,0.44291 -0.0429,1.16549 v 1.16549 l 0.0992,0.014 c 0.0892,0.0127 0.10054,0.0423 0.11245,0.28734 0.0103,0.21749 0.0291,0.2786 0.0923,0.29845 0.0439,0.014 0.10213,0.0746 0.12938,0.13467 0.0275,0.0603 0.0802,0.10954 0.11695,0.10954 0.0378,0 0.0672,0.0386 0.0672,0.0881 0,0.0577 0.0294,0.0881 0.0849,0.0881 0.0548,0 0.0902,0.0355 0.0992,0.0992 0.009,0.0622 0.0497,0.10424 0.109,0.11271 0.0521,0.007 0.10478,0.0521 0.11695,0.0992 0.0177,0.0675 0.0614,0.0857 0.20294,0.0857 0.1479,0 0.18071,0.0154 0.18071,0.0836 0,0.095 0.082,0.13705 0.26802,0.13705 0.0873,0 0.12885,0.0222 0.12885,0.0688 0,0.0376 0.0198,0.0564 0.0439,0.0413 0.0243,-0.0148 0.0442,-0.006 0.0442,0.0196 0,0.10028 2.26192,0.0603 2.34897,-0.0415 0.0524,-0.0611 0.13018,-0.0881 0.25321,-0.0881 0.14684,0 0.18653,-0.0193 0.22807,-0.11033 0.0413,-0.0905 0.0815,-0.11033 0.22357,-0.11033 0.13653,0 0.1786,-0.0188 0.19659,-0.0881 0.0127,-0.0484 0.0466,-0.0881 0.0754,-0.0881 0.10662,0 0.28945,-0.11218 0.26961,-0.16536 -0.0114,-0.0304 0.009,-0.0577 0.0439,-0.0606 0.0357,-0.003 0.0876,-0.008 0.11562,-0.0111 0.0278,-0.003 0.0661,-0.0452 0.0849,-0.0937 0.0209,-0.0537 0.0357,0.0611 0.0376,0.29289 0.002,0.29607 0.0177,0.38682 0.0693,0.4064 0.16748,0.0643 3.99309,0.007 4.03569,-0.0601 0.0545,-0.086 0.0548,-1.94204 2.6e-4,-2.02803 -0.0296,-0.0468 -0.1434,-0.0704 -0.39608,-0.0818 l -0.3548,-0.0161 v -2.70722 c 0,-1.87616 -0.0143,-2.70748 -0.0466,-2.70748 -0.0257,0 -0.0344,-0.0198 -0.0196,-0.0439 0.0151,-0.0243 -0.004,-0.0442 -0.0413,-0.0442 -0.0378,0 -0.0699,-0.0249 -0.0712,-0.055 -0.0146,-0.35692 -0.0672,-0.56647 -0.13864,-0.55166 -0.0304,0.006 -0.0614,-0.0381 -0.0688,-0.099 -0.0304,-0.24977 -0.0577,-0.3085 -0.14394,-0.3085 -0.0569,0 -0.0873,-0.0296 -0.0873,-0.0852 0,-0.0471 -0.0376,-0.0974 -0.0833,-0.11192 -0.046,-0.0145 -0.0937,-0.0653 -0.1061,-0.11324 -0.0135,-0.0513 -0.0603,-0.0865 -0.11509,-0.0865 -0.0627,0 -0.0923,-0.0283 -0.0923,-0.0873 0,-0.0556 -0.0386,-0.0971 -0.1061,-0.11404 -0.0582,-0.0148 -0.11589,-0.0648 -0.12806,-0.11112 -0.0159,-0.0609 -0.0614,-0.0844 -0.16166,-0.0844 -0.12144,0 -0.33311,-0.12356 -0.23574,-0.13759 0.0749,-0.0109 -0.23469,-0.0728 -0.38867,-0.0778 -0.12118,-0.004 -0.1659,-0.027 -0.18362,-0.0947 -0.0127,-0.0492 -0.04,-0.0865 -0.0601,-0.0828 -0.29845,0.0524 -1.11734,-0.014 -1.11734,-0.0905 0,-0.096 -1.70736,-0.15901 -1.97379,-0.073 m -66.87662,0.18891 c -0.0444,0.0442 -0.0341,2.1881 0.0109,2.25901 0.0288,0.0455 0.13149,0.059 0.39608,0.0527 l 0.35745,-0.008 v 2.69214 2.69213 h -0.32729 c -0.50932,0 -0.46646,-0.1008 -0.46646,1.10252 0,0.91573 0.009,1.05225 0.0696,1.0758 0.18124,0.0693 4.85907,0.0283 4.88659,-0.0431 0.0145,-0.0384 0.0267,-0.50297 0.0267,-1.03267 0,-1.17105 0.0209,-1.10252 -0.33549,-1.10252 h -0.28179 v -2.66779 -2.66779 h 0.99219 0.99219 v 2.66779 2.6678 h -0.35137 c -0.30215,0 -0.35745,0.0119 -0.39687,0.0855 -0.0614,0.11456 -0.0609,1.92008 5.2e-4,2.03491 0.0458,0.0855 4.70297,0.13758 5.01465,0.0558 0.12806,-0.0333 0.15981,-2.12699 0.0325,-2.13757 -0.0365,-0.003 -0.086,-0.0103 -0.11033,-0.0164 -0.0243,-0.006 -0.21272,-0.0135 -0.41883,-0.0167 l -0.37492,-0.006 v -3.78853 c 0,-2.08386 -0.0122,-3.82032 -0.0267,-3.85868 -0.0281,-0.0728 -9.61707,-0.11272 -9.68931,-0.0402 m 10.34521,0.0722 c -0.0579,0.12726 -0.0735,2.09973 -0.0172,2.18625 0.0458,0.0701 0.11457,0.0799 0.61172,0.0876 0.3011,0.005 0.3638,0.0177 0.3638,0.0759 0,0.0386 0.0397,0.0807 0.0881,0.0934 0.0897,0.0236 0.10531,0.0587 0.09,0.20452 -0.0122,0.11351 0.082,0.32624 0.15664,0.35481 0.0397,0.0154 0.0622,0.0902 0.0622,0.20585 0,0.14472 0.018,0.18653 0.0881,0.20505 0.0582,0.0151 0.09,0.0627 0.0934,0.13917 0.01,0.22833 0.0183,0.24897 0.11615,0.29183 0.0831,0.0365 0.0992,0.0781 0.0992,0.254 0,0.15584 0.0227,0.23019 0.0881,0.28602 0.0487,0.0415 0.0884,0.12912 0.0884,0.19447 0,0.17648 0.0434,0.25823 0.13679,0.25823 0.0728,0 0.0836,0.0344 0.0836,0.26167 0,0.22278 0.013,0.26591 0.0881,0.28972 0.0611,0.0193 0.0884,0.0667 0.0884,0.15373 0,0.18309 0.0423,0.26511 0.13679,0.26511 0.0709,0 0.0836,0.0336 0.0836,0.2204 0,0.12144 0.0198,0.22066 0.0442,0.22066 0.0241,0 0.0392,0.0246 0.0331,0.055 -0.006,0.0304 0.0138,0.0503 0.0439,0.0442 0.0341,-0.007 0.0553,0.0384 0.0553,0.11827 0,0.17859 0.0735,0.3556 0.14763,0.3556 0.0434,0 0.068,0.0749 0.0826,0.24923 0.0124,0.15002 0.0468,0.26829 0.0868,0.29766 0.0362,0.0267 0.0804,0.12515 0.0979,0.21881 0.0214,0.11483 0.0595,0.17754 0.11721,0.19262 0.0675,0.0175 0.0852,0.0614 0.0852,0.21034 0,0.15108 0.0175,0.19262 0.0881,0.21114 0.0622,0.0164 0.0884,0.0603 0.0886,0.14843 2.7e-4,0.20452 0.0865,0.45614 0.15611,0.45614 0.0455,0 0.064,0.0521 0.064,0.18071 0,0.14341 0.018,0.18521 0.0881,0.20347 0.0582,0.0151 0.09,0.0627 0.0934,0.13917 0.0132,0.30506 0.0651,0.39449 0.25823,0.44661 0.12489,0.0336 0.1659,0.0659 0.15505,0.12224 -0.008,0.0421 -0.0164,0.12885 -0.0183,0.19262 -0.002,0.0773 -0.0328,0.12382 -0.0915,0.13917 -0.0701,0.0183 -0.0881,0.0601 -0.0881,0.20346 v 0.18071 h -0.30747 -0.30745 l -0.0122,-0.58446 -0.0124,-0.5842 h -1.25677 -1.25677 l -0.0116,1.35281 c -0.0111,1.31101 -0.009,1.35361 0.0749,1.38033 0.0476,0.0151 0.0989,0.0661 0.11404,0.11351 0.0148,0.0471 0.0632,0.0857 0.10715,0.0857 0.0442,0 0.09,0.0376 0.10213,0.0836 0.0148,0.0574 0.0783,0.0929 0.20347,0.11404 0.1389,0.0236 0.18177,0.0505 0.18177,0.11509 0,0.0704 0.0325,0.0841 0.19843,0.0841 0.17939,0 0.20585,0.0164 0.19527,0.11959 -0.006,0.055 0.15054,0.0947 0.38602,0.0979 0.18839,0.003 0.23363,0.0185 0.25665,0.0913 0.0434,0.13706 1.79864,0.13706 1.88436,0 0.0452,-0.0728 0.10266,-0.0881 0.32808,-0.0881 0.31459,0 0.49954,-0.0569 0.49954,-0.15346 0,-0.0587 0.23601,-0.10027 0.40904,-0.072 0.0188,0.003 0.0458,-0.0241 0.0598,-0.0606 0.014,-0.0365 0.0431,-0.0553 0.0648,-0.0421 0.0217,0.0135 0.0394,0.005 0.0394,-0.019 0,-0.0241 0.0447,-0.05 0.0992,-0.0577 0.0638,-0.009 0.10425,-0.0497 0.11351,-0.1135 0.009,-0.0643 0.0444,-0.0992 0.10028,-0.0992 0.0513,0 0.10318,-0.0444 0.12806,-0.1106 0.0233,-0.0606 0.0669,-0.1053 0.0971,-0.0992 0.0304,0.006 0.0619,-0.0331 0.0704,-0.0878 0.009,-0.0608 0.046,-0.0992 0.095,-0.0992 0.0796,0 0.13255,-0.11351 0.13388,-0.28707 2.6e-4,-0.0487 0.0402,-0.11324 0.0886,-0.14367 0.0608,-0.0378 0.0884,-0.10266 0.0884,-0.20902 0,-0.10451 0.0204,-0.15399 0.0635,-0.15399 0.0908,0 0.11826,-0.0624 0.14181,-0.322 0.0145,-0.15954 0.0468,-0.24738 0.1061,-0.28972 0.0595,-0.0421 0.0855,-0.11271 0.0855,-0.23283 0,-0.10874 0.0233,-0.18124 0.063,-0.19658 0.0717,-0.0275 0.15743,-0.24422 0.15743,-0.39847 0,-0.0572 0.0397,-0.1434 0.0881,-0.19182 0.0635,-0.0635 0.0884,-0.14711 0.0884,-0.29819 0,-0.17568 0.0161,-0.21722 0.0992,-0.25373 0.0757,-0.0331 0.10424,-0.0905 0.12118,-0.24183 0.0154,-0.13732 0.0426,-0.19844 0.0881,-0.1987 0.0704,0 0.0751,-0.0193 0.0831,-0.33444 0.005,-0.17065 0.0225,-0.21034 0.11535,-0.25267 0.0939,-0.0429 0.11034,-0.0796 0.11034,-0.2495 0,-0.10981 0.0148,-0.19712 0.0331,-0.19421 0.087,0.0138 0.11456,-0.0109 0.055,-0.0495 -0.0564,-0.0365 -0.0548,-0.0429 0.0111,-0.0434 0.0632,-5.3e-4 0.0773,-0.0408 0.0773,-0.22119 0,-0.19103 0.0116,-0.2204 0.0881,-0.2204 0.0484,0 0.0907,-0.0198 0.0937,-0.0442 0.003,-0.0241 0.0106,-0.0638 0.0167,-0.0881 0.006,-0.0243 0.0135,-0.13335 0.0164,-0.24262 0.005,-0.16722 0.0193,-0.19844 0.0937,-0.19844 0.0751,0 0.0884,-0.0294 0.0884,-0.19844 0,-0.14843 0.0169,-0.19843 0.0672,-0.19843 0.0852,0 0.15319,-0.17648 0.15319,-0.3982 0,-0.12674 0.023,-0.18415 0.0881,-0.21908 0.0653,-0.0349 0.0884,-0.0923 0.0884,-0.21987 0,-0.0984 0.0257,-0.18785 0.0595,-0.20796 0.0942,-0.0556 0.16087,-0.21405 0.16087,-0.38206 0,-0.11509 0.0222,-0.16139 0.0873,-0.18203 0.0479,-0.0154 0.0855,-0.0413 0.0831,-0.0579 -0.0333,-0.23257 0.0156,-0.47705 0.10292,-0.51621 0.0677,-0.0302 0.1016,-0.0902 0.11192,-0.1979 0.0209,-0.21326 0.0442,-0.26723 0.10954,-0.254 0.0399,0.008 0.0603,-0.0691 0.0696,-0.26406 0.0114,-0.23839 0.0246,-0.27569 0.0984,-0.27569 0.0915,0 0.1217,-0.0796 0.14128,-0.37465 l 0.0116,-0.17648 0.24263,-0.0111 c 0.13335,-0.006 0.30691,-0.022 0.38576,-0.0352 l 0.1434,-0.0238 v -1.16653 -1.16655 h -1.58512 -1.58511 l -0.0135,0.20929 c -0.0108,0.17118 -0.0275,0.20716 -0.0905,0.19658 -0.0423,-0.007 -0.0788,0.0127 -0.0807,0.0442 -0.0127,0.19711 -0.0542,0.32887 -0.11986,0.37861 -0.0825,0.063 -0.0847,0.0714 -0.0921,0.3728 -0.004,0.15611 -0.0222,0.20955 -0.0722,0.20955 -0.0704,0 -0.16351,0.18812 -0.14314,0.28919 0.007,0.0323 -0.0259,0.0865 -0.0722,0.12065 -0.0595,0.0442 -0.09,0.13388 -0.10451,0.31115 -0.0135,0.16113 -0.0405,0.24924 -0.0767,0.24924 -0.0691,0 -0.0934,0.0611 -0.13441,0.33602 -0.0196,0.1315 -0.0638,0.2376 -0.11377,0.27279 -0.0553,0.0389 -0.0818,0.11218 -0.0818,0.22595 0,0.12039 -0.0257,0.186 -0.0897,0.22913 -0.0796,0.0537 -0.11377,0.17701 -0.12832,0.46328 -0.001,0.0275 -0.0421,0.0603 -0.0908,0.073 -0.0762,0.0198 -0.0881,0.0601 -0.0881,0.2958 0,0.23257 -0.0127,0.27623 -0.0849,0.29528 -0.0595,0.0153 -0.0945,0.0773 -0.11616,0.20505 -0.0169,0.10081 -0.068,0.20902 -0.11324,0.24077 -0.0455,0.0317 -0.0831,0.11113 -0.0839,0.17648 -10e-4,0.10821 -0.007,0.11192 -0.0601,0.0415 -0.0323,-0.0423 -0.0812,-0.077 -0.10874,-0.077 -0.0302,0 -0.0503,-0.0794 -0.0503,-0.19843 0,-0.16907 -0.0132,-0.19844 -0.0884,-0.19844 -0.0677,0 -0.0881,-0.0294 -0.0881,-0.12674 0,-0.23997 -0.0556,-0.4138 -0.13891,-0.4355 -0.064,-0.0169 -0.0815,-0.0638 -0.0815,-0.21881 0,-0.15716 -0.0172,-0.20188 -0.0841,-0.21934 -0.0624,-0.0164 -0.0905,-0.0751 -0.109,-0.22754 -0.0138,-0.11298 -0.0288,-0.23283 -0.0336,-0.26644 -0.005,-0.0336 -0.045,-0.0706 -0.0894,-0.0823 -0.0611,-0.0161 -0.0807,-0.0635 -0.0807,-0.19659 0,-0.13837 -0.0188,-0.18018 -0.0884,-0.19843 -0.0608,-0.0159 -0.0881,-0.0601 -0.0881,-0.14367 0,-0.16907 -0.0826,-0.38656 -0.15743,-0.4154 -0.0405,-0.0156 -0.063,-0.0892 -0.063,-0.20611 0,-0.14314 -0.0183,-0.1868 -0.086,-0.20426 -0.0646,-0.0169 -0.0892,-0.068 -0.0992,-0.20531 -0.0103,-0.14023 -0.0365,-0.19315 -0.11245,-0.22649 -0.0831,-0.0365 -0.0992,-0.0781 -0.0992,-0.254 0,-0.15584 -0.023,-0.23019 -0.0884,-0.28601 -0.0484,-0.0415 -0.0881,-0.12912 -0.0881,-0.19447 0,-0.17516 -0.0434,-0.25823 -0.13441,-0.25823 -0.0638,0 -0.0839,-0.04 -0.0945,-0.18759 l -0.0138,-0.18733 -1.92193,-0.0114 -1.92193,-0.0116 -0.0468,0.10266 m 11.91789,-0.0601 c -0.0582,0.0945 -0.031,2.26351 0.0288,2.30161 0.032,0.0201 0.19844,0.037 0.37041,0.0373 0.17172,5.3e-4 0.32333,0.0119 0.33682,0.0254 0.0426,0.0423 -0.0175,0.19579 -0.0765,0.19579 -0.0781,0 -0.1098,0.10266 -0.1098,0.35639 0,0.18759 -0.0119,0.21696 -0.0881,0.21696 -0.0534,0 -0.0897,0.0304 -0.0916,0.077 -0.008,0.18495 -0.0484,0.29475 -0.12991,0.3519 -0.0675,0.0471 -0.0873,0.11192 -0.0873,0.2831 0,0.16669 -0.0217,0.23998 -0.087,0.29501 -0.0479,0.0402 -0.0979,0.13812 -0.11087,0.21749 -0.0132,0.0791 -0.0635,0.18336 -0.11165,0.23151 -0.0638,0.0638 -0.0873,0.14685 -0.0873,0.30771 0,0.1868 -0.0127,0.22067 -0.0831,0.22067 -0.0677,0 -0.0889,0.045 -0.11351,0.24315 -0.0167,0.13361 -0.0479,0.2323 -0.0691,0.21907 -0.064,-0.0397 -0.13123,0.13706 -0.13123,0.34555 0,0.15531 -0.0175,0.20055 -0.0833,0.21801 -0.0574,0.0148 -0.0931,0.0783 -0.1143,0.20347 -0.0175,0.10451 -0.055,0.18177 -0.0881,0.18177 -0.0317,0 -0.0691,0.0296 -0.0831,0.0661 -0.0138,0.0362 -10e-4,0.0664 0.0286,0.0669 0.0408,2.7e-4 0.041,0.008 0.002,0.0336 -0.0286,0.0183 -0.0585,0.12223 -0.0661,0.23098 -0.0101,0.13996 -0.0333,0.19764 -0.0802,0.19764 -0.0474,0 -0.0778,0.0778 -0.10689,0.27411 l -0.0405,0.27437 -0.46673,0.0124 -0.46646,0.0124 v 1.0803 1.08029 h 2.05052 2.05053 v -1.07818 c 0,-1.04113 -0.003,-1.07923 -0.0881,-1.10252 -0.0796,-0.0217 -0.0857,-0.05 -0.0624,-0.28866 0.014,-0.14552 0.0288,-0.23971 0.0331,-0.20955 0.004,0.0304 0.0294,0.0553 0.0561,0.0553 0.027,0 0.037,-0.031 0.0225,-0.0685 -0.0151,-0.0392 -0.008,-0.0569 0.0175,-0.0415 0.0265,0.0164 0.0437,-0.0616 0.0437,-0.20029 0,-0.18626 0.0151,-0.23098 0.0841,-0.24923 0.0857,-0.0225 0.13467,-0.13441 0.13573,-0.31142 2.6e-4,-0.0545 0.0214,-0.0992 0.0474,-0.0992 0.0257,0 0.0323,-0.0233 0.0145,-0.0516 -0.0212,-0.0347 -0.008,-0.0423 0.041,-0.0236 0.0402,0.0154 0.0709,0.0138 0.0683,-0.004 -0.0328,-0.22066 0.0151,-0.48657 0.0913,-0.50641 0.068,-0.018 0.0915,-0.077 0.11562,-0.29051 0.0236,-0.20744 0.0492,-0.27438 0.11298,-0.29449 0.0619,-0.0196 0.0844,-0.073 0.0897,-0.21087 0.006,-0.16483 0.009,-0.1688 0.0251,-0.0397 0.01,0.0807 0.0556,0.16854 0.10319,0.19818 0.0643,0.0402 0.0852,0.10318 0.0852,0.25797 0,0.16959 0.0188,0.21722 0.11006,0.27701 0.0603,0.0394 0.10769,0.0865 0.10504,0.10425 -0.0291,0.18944 0.0145,0.37359 0.0937,0.39423 0.0765,0.0201 0.0881,0.0601 0.0881,0.30453 0,0.25215 0.009,0.28152 0.0881,0.28152 0.0487,0 0.0905,0.0249 0.0934,0.055 0.003,0.0304 0.01,0.0751 0.0154,0.0992 0.006,0.0243 0.0132,0.13044 0.0169,0.23575 0.005,0.15134 0.0251,0.19632 0.095,0.21457 0.0712,0.0185 0.0881,0.0601 0.0881,0.21643 v 0.19315 h -0.26588 c -0.23495,0 -0.27066,0.0116 -0.30559,0.0992 -0.072,0.18097 -0.0344,2.01401 0.0423,2.06322 0.0408,0.0259 0.98928,0.0381 2.46936,0.0315 l 2.40347,-0.0111 v -1.08029 -1.0803 l -0.29316,-0.013 c -0.24923,-0.0111 -0.29633,-0.0262 -0.31591,-0.10054 -0.0124,-0.0482 -0.0495,-0.082 -0.0818,-0.0751 -0.041,0.009 -0.0624,-0.0481 -0.0706,-0.18627 -0.0177,-0.30268 -0.0455,-0.38417 -0.13996,-0.40904 -0.0725,-0.0188 -0.0886,-0.0677 -0.0998,-0.30295 -0.01,-0.21378 -0.0288,-0.28019 -0.0794,-0.28019 -0.0471,0 -0.0693,-0.0566 -0.0778,-0.19844 -0.0177,-0.30401 -0.0455,-0.38418 -0.14208,-0.40958 -0.0775,-0.0204 -0.0886,-0.0598 -0.0886,-0.31591 0,-0.25426 -0.0103,-0.29104 -0.0773,-0.27966 -0.0542,0.009 -0.0807,-0.0198 -0.0889,-0.0974 -0.046,-0.43789 -0.0601,-0.48498 -0.14526,-0.48498 -0.0757,0 -0.0855,-0.0323 -0.0855,-0.28363 0,-0.24501 -0.0122,-0.28761 -0.0884,-0.31168 -0.0646,-0.0206 -0.0881,-0.0667 -0.0881,-0.17384 0,-0.27093 -0.0492,-0.42148 -0.13785,-0.42148 -0.0722,0 -0.0826,-0.0357 -0.0826,-0.28363 0,-0.245 -0.0122,-0.2876 -0.0884,-0.31168 -0.0693,-0.022 -0.0881,-0.0669 -0.0886,-0.21246 -10e-4,-0.26935 -0.0415,-0.38285 -0.13679,-0.38285 -0.0709,0 -0.0833,-0.0344 -0.0839,-0.23151 -7.9e-4,-0.24977 -0.0484,-0.37121 -0.12673,-0.32279 -0.0333,0.0206 -0.0492,-0.0376 -0.0495,-0.18177 -8e-4,-0.28813 -0.0362,-0.3982 -0.13573,-0.42439 -0.0696,-0.018 -0.0844,-0.0632 -0.0849,-0.25744 -8e-4,-0.25083 -0.0479,-0.37571 -0.12436,-0.32835 -0.0299,0.0185 -0.0513,-0.0542 -0.0601,-0.204 l -0.0132,-0.23256 -2.43363,-0.0114 c -1.52189,-0.007 -2.44343,0.005 -2.45984,0.031 m 11.11118,0.0466 c -0.0188,0.059 -0.0672,0.0884 -0.14631,0.0886 -0.27728,10e-4 -0.449,0.0537 -0.449,0.13758 0,0.0609 -0.0323,0.0825 -0.1225,0.0825 -0.0675,0 -0.1524,0.0347 -0.18918,0.077 -0.0365,0.0426 -0.11536,0.11298 -0.17515,0.15637 -0.0598,0.0437 -0.0789,0.0661 -0.0423,0.05 0.0363,-0.0161 -0.0183,0.0479 -0.12145,0.14235 -0.11271,0.10345 -0.18732,0.21061 -0.18732,0.26987 0,0.0545 -0.0272,0.0982 -0.0614,0.0982 -0.0743,0 -0.11509,0.095 -0.11509,0.26803 0,0.0968 -0.0206,0.12885 -0.0831,0.12885 -0.12224,0 -0.13124,0.0826 -0.13573,1.25968 -0.005,1.17158 0.009,1.29778 0.13546,1.29778 0.0685,0 0.0833,0.0331 0.0833,0.18389 0,0.10107 0.0124,0.17145 0.0275,0.15637 0.0384,-0.0384 0.13626,0.0685 0.15558,0.17012 0.009,0.0479 0.0595,0.0913 0.11509,0.0992 0.0632,0.009 0.0987,0.0445 0.0987,0.0992 0,0.0545 0.0304,0.0849 0.0852,0.0849 0.0471,0 0.0979,0.0397 0.11324,0.0884 0.0251,0.0791 0.0733,0.10689 0.16272,0.0942 0.0167,-0.002 0.0434,0.0365 0.0593,0.0863 0.0172,0.0542 0.0534,0.081 0.0908,0.0667 0.0341,-0.0132 0.0622,-0.005 0.0622,0.0188 0,0.0236 0.0571,0.0426 0.127,0.0426 0.127,0 0.25056,0.0929 0.19606,0.14737 -0.0161,0.0161 -10e-4,0.0317 0.0333,0.0347 0.30586,0.0275 0.32067,0.0352 0.2794,0.14235 -0.0153,0.0399 -0.0804,0.0749 -0.14446,0.0778 -0.22913,0.01 -0.24898,0.018 -0.26168,0.10716 -0.007,0.0495 -0.0616,0.14684 -0.12118,0.21616 -0.0598,0.0693 -0.10847,0.18204 -0.10847,0.2503 0,0.0921 -0.0169,0.11748 -0.0661,0.0987 -0.0365,-0.014 -0.0685,-0.003 -0.0717,0.0233 -0.003,0.027 -0.0103,0.0688 -0.0164,0.0929 -0.006,0.0243 -0.0135,0.0839 -0.0167,0.13229 -0.003,0.0487 -0.0347,0.0884 -0.0701,0.0884 -0.0812,0 -0.15584,0.13574 -0.15584,0.28364 0,0.0672 -0.0249,0.11324 -0.0614,0.11324 -0.0738,0 -0.1151,0.0947 -0.1151,0.26511 0,0.0966 -0.0227,0.12885 -0.0992,0.1397 -0.0627,0.009 -0.0968,0.0423 -0.0931,0.0913 0.006,0.0683 -0.0402,0.0773 -0.39687,0.0778 -0.22146,2.7e-4 -0.44741,0.0124 -0.50218,0.027 l -0.0992,0.0267 v 1.04802 1.04801 l 0.0992,0.0267 c 0.13017,0.0347 3.26813,0.0357 3.35888,10e-4 0.0384,-0.0148 0.0698,-0.0622 0.0698,-0.1053 0,-0.0431 0.0392,-0.0884 0.0868,-0.10107 0.0614,-0.0159 0.0955,-0.0749 0.11536,-0.19976 0.0193,-0.12145 0.0542,-0.18362 0.11139,-0.19871 0.0646,-0.0169 0.0833,-0.0624 0.0833,-0.20214 0,-0.1479 0.0151,-0.18071 0.0833,-0.18071 0.095,0 0.13706,-0.082 0.13706,-0.26802 0,-0.0995 0.0201,-0.12885 0.0881,-0.12885 0.0807,0 0.12409,-0.1696 0.0934,-0.3638 -0.003,-0.018 0.0444,-0.0331 0.10504,-0.0331 0.0852,0 0.11033,-0.0227 0.11033,-0.0995 0,-0.0548 0.0397,-0.12436 0.0881,-0.15479 0.0574,-0.0357 0.0884,-0.10292 0.0884,-0.19103 0,-0.0987 0.0241,-0.14234 0.0876,-0.15901 0.0482,-0.0127 0.077,-0.0405 0.0635,-0.0622 -0.0132,-0.0214 -0.003,-0.0389 0.0225,-0.0389 0.0259,0 0.0468,-0.0672 0.0468,-0.14922 0,-0.11219 0.022,-0.15505 0.0881,-0.17225 0.064,-0.0169 0.0884,-0.0603 0.0884,-0.15848 0,-0.0958 0.0323,-0.15664 0.11006,-0.2077 0.081,-0.0529 0.11034,-0.11113 0.11034,-0.21855 0,-0.10742 0.0233,-0.15372 0.0881,-0.17436 0.054,-0.0169 0.0905,-0.0698 0.0939,-0.1352 0.003,-0.059 0.008,-0.13203 0.0109,-0.16245 0.003,-0.0302 0.0503,-0.0614 0.10477,-0.0691 l 0.0992,-0.0143 v 0.88499 0.88503 h -0.20135 c -0.38708,0 -0.372,-0.045 -0.372,1.10252 0,0.9599 0.005,1.01335 0.0868,1.05754 0.10768,0.0577 4.78287,0.0564 4.92945,-10e-4 0.12541,-0.0495 0.16034,-2.04973 0.0365,-2.09736 -0.11403,-0.0437 -0.22013,-0.0545 -0.56568,-0.0579 l -0.34184,-0.003 v -2.77634 -2.77653 l 0.38576,-0.0127 0.38603,-0.0127 0.0132,-0.96944 c 0.007,-0.5334 0.002,-1.01467 -0.0119,-1.06944 l -0.0251,-0.0997 h -3.81053 c -3.7719,0 -3.81106,7.9e-4 -3.83857,0.0881 m 19.05714,-0.0587 c -0.0161,0.0161 -0.0294,0.53975 -0.0294,1.16337 v 1.13401 l 0.0992,0.0267 c 0.0548,0.0146 0.23336,0.0267 0.39687,0.027 l 0.29766,7.9e-4 v 2.66779 2.6678 l -0.2204,0.006 c -0.304,0.008 -0.30665,0.008 -0.35374,0.0828 -0.0659,0.10398 -0.055,1.9513 0.0119,2.04205 0.0571,0.0775 4.78551,0.0992 4.86251,0.0225 0.0399,-0.0402 0.0415,-2.05925 0.002,-2.0992 -0.0172,-0.0172 -0.18865,-0.0384 -0.38074,-0.0471 l -0.34925,-0.0159 v -0.89937 -0.89932 h 0.99219 0.99219 v 0.90408 0.90382 h -0.28099 c -0.35243,0 -0.34078,-0.0434 -0.32544,1.19909 0.009,0.762 0.0225,0.92816 0.0773,0.96308 0.0405,0.0254 0.96309,0.0378 2.35929,0.0312 l 2.29315,-0.0106 v -1.08029 -1.0803 l -0.27544,-0.0132 -0.27543,-0.0132 -0.0111,-3.84519 -0.0114,-3.84545 h -2.16091 -2.16059 l -0.0119,1.15755 c -0.008,0.75988 0.004,1.1594 0.0331,1.16311 0.0246,0.003 0.0648,0.0103 0.0889,0.0164 0.0243,0.006 0.1831,0.0135 0.35296,0.0167 l 0.3085,0.006 v 0.68342 0.68342 h -0.99218 -0.99219 v -1.87405 -1.87404 h -2.15344 c -1.18428,0 -2.16641,0.0132 -2.18281,0.0294 m 23.931557,0.0365 c -0.014,0.0362 -0.0431,0.0548 -0.0648,0.0415 -0.0217,-0.0135 -0.0394,-0.003 -0.0394,0.0222 0,0.028 -0.118,0.0468 -0.29766,0.0474 -0.37041,5.3e-4 -0.486037,0.0304 -0.518837,0.13388 -0.0185,0.0585 -0.0775,0.0849 -0.21088,0.0944 -0.12753,0.009 -0.18521,0.0336 -0.18521,0.0783 0,0.0408 -0.0685,0.0783 -0.1852,0.10133 -0.12251,0.0241 -0.19421,0.0648 -0.21167,0.12039 -0.0146,0.046 -0.0654,0.096 -0.11271,0.11112 -0.0471,0.0148 -0.0857,0.0656 -0.0857,0.11245 0,0.0556 -0.0304,0.0852 -0.0878,0.0852 -0.0683,0 -0.0939,0.0394 -0.11616,0.17806 -0.0169,0.10716 -0.0611,0.19553 -0.11059,0.22199 -0.0585,0.0312 -0.0823,0.0931 -0.0823,0.21352 0,0.12673 -0.0251,0.186 -0.0992,0.23521 -0.18997,0.12594 -0.15954,2.28203 0.032,2.28203 0.0492,0 0.0672,0.0482 0.0672,0.18071 0,0.1405 0.0185,0.18521 0.0841,0.20241 0.046,0.0122 0.0942,0.0614 0.10689,0.10927 0.0124,0.0482 0.064,0.0982 0.1143,0.11139 0.0606,0.0159 0.0916,0.0598 0.0916,0.13044 0,0.0585 0.0296,0.11774 0.0659,0.13176 0.0362,0.014 0.0548,0.0431 0.0415,0.0648 -0.0135,0.0217 0.006,0.0418 0.0442,0.045 0.0378,0.003 0.0886,0.0103 0.11298,0.0164 0.0241,0.006 0.0638,0.0135 0.0881,0.0167 0.0243,0.003 0.0442,0.0452 0.0442,0.0937 0,0.0635 0.0294,0.0881 0.10557,0.0881 0.0579,0 0.11641,0.0288 0.12991,0.0638 0.0132,0.0349 0.10477,0.0878 0.2032,0.11721 0.0982,0.0294 0.17859,0.0714 0.17859,0.0934 0,0.0217 0.0177,0.0286 0.0394,0.0151 0.0217,-0.0132 0.0516,0.007 0.0661,0.0453 0.0376,0.0976 0.0347,0.10636 -0.0347,0.10636 -0.0743,0 -0.115087,0.095 -0.115087,0.26829 0,0.0706 -0.0148,0.1262 -0.0331,0.12329 -0.0942,-0.0148 -0.14341,0.0132 -0.14473,0.0825 -0.002,0.0918 -0.10636,0.24104 -0.14341,0.20426 -0.022,-0.022 -0.0572,0.12594 -0.0894,0.37624 -0.004,0.0344 -0.0381,0.0706 -0.0743,0.0807 -0.0577,0.0156 -0.0579,0.0122 -0.001,-0.0273 0.0357,-0.0246 0.0495,-0.0603 0.0307,-0.0791 -0.0484,-0.0484 -0.11615,0.0741 -0.11694,0.21167 -2.7e-4,0.0754 -0.0291,0.12356 -0.0823,0.13732 -0.0556,0.0146 -0.0908,0.0786 -0.11033,0.20082 -0.0198,0.12514 -0.0553,0.18759 -0.11668,0.20717 -0.0484,0.0154 -0.0881,0.0564 -0.0881,0.0913 0,0.0505 -0.0894,0.063 -0.45429,0.063 -0.29449,0 -0.47281,0.0188 -0.50721,0.0529 -0.0812,0.0815 -0.0744,2.03517 0.007,2.10317 0.0431,0.0357 0.54583,0.0466 1.77482,0.0384 l 1.714767,-0.0116 0.014,-0.0992 c 0.009,-0.0638 0.0444,-0.0992 0.0992,-0.0992 0.0775,0 0.11853,-0.14605 0.0902,-0.32068 -0.003,-0.0185 0.0442,-0.0529 0.10477,-0.0759 0.0929,-0.0352 0.110596,-0.0706 0.110596,-0.2196 0,-0.14817 0.0148,-0.17754 0.0884,-0.17754 0.0484,0 0.0881,-0.0288 0.0881,-0.0643 0,-0.0355 0.0418,-0.10345 0.0929,-0.15107 0.0511,-0.0476 0.0796,-0.10795 0.0635,-0.13388 -0.0161,-0.0262 -0.008,-0.0476 0.0175,-0.0476 0.0257,0 0.0466,-0.0447 0.0466,-0.0995 0,-0.0548 0.0397,-0.12436 0.0884,-0.15478 0.0484,-0.0302 0.0881,-0.1016 0.0881,-0.15849 0,-0.0569 0.0497,-0.1569 0.11033,-0.22251 0.0635,-0.0685 0.11007,-0.17172 0.11007,-0.24369 0,-0.0849 0.0265,-0.13176 0.0823,-0.14631 0.0534,-0.014 0.0931,-0.0794 0.11325,-0.18653 0.0206,-0.1098 0.0593,-0.17224 0.11615,-0.18733 0.0664,-0.0172 0.0852,-0.0614 0.0852,-0.19764 0,-0.13705 0.019,-0.18018 0.0865,-0.19791 0.0598,-0.0156 0.0979,-0.0791 0.12277,-0.20505 0.0233,-0.11853 0.0624,-0.18733 0.11192,-0.19685 0.0691,-0.0135 0.0757,0.0476 0.0757,0.694 v 0.70882 l -0.17621,0.006 c -0.0971,0.003 -0.19632,0.0106 -0.22067,0.0167 -0.0241,0.006 -0.0738,0.0135 -0.11006,0.0164 -0.12753,0.0106 -0.0958,2.10423 0.0323,2.13757 0.22463,0.059 4.95882,0.0323 5.00909,-0.0281 0.0659,-0.0796 0.0664,-2.0111 5.3e-4,-2.09047 -0.0323,-0.0389 -0.16775,-0.0577 -0.41884,-0.0577 h -0.37121 l 0.005,-1.00304 c 0.005,-1.02208 -0.008,-1.15755 -0.11668,-1.15755 -0.0516,0 -0.0617,-0.26406 -0.0617,-1.61555 v -1.61558 l 0.29925,0.0214 c 0.53128,0.0381 0.4945,0.12303 0.4945,-1.14591 0,-0.79269 -0.0145,-1.10966 -0.0529,-1.14776 -0.0881,-0.0881 -6.90853,-0.0754 -6.9424,0.013 m -39.659207,2.91624 v 1.21814 l -0.13785,-0.0275 c -0.0757,-0.0153 -0.304,-0.0278 -0.50694,-0.0278 -0.33999,0 -0.36936,-0.007 -0.36936,-0.0881 0,-0.0683 -0.0294,-0.0881 -0.13097,-0.0881 -0.0982,0 -0.12461,-0.0167 -0.10556,-0.0661 0.0227,-0.059 -0.0267,-0.087 -0.12648,-0.0717 -0.018,0.003 -0.0452,-0.0458 -0.0606,-0.10768 -0.018,-0.0714 -0.0505,-0.10398 -0.0892,-0.0894 -0.0609,0.0236 -0.0775,-0.0185 -0.063,-0.16113 0.005,-0.0497 -0.0225,-0.0773 -0.0778,-0.0773 -0.10212,0 -0.13917,-0.11166 -0.13917,-0.41884 0,-0.27702 0.037,-0.4191 0.10954,-0.4191 0.0693,0 0.1098,-0.0987 0.1098,-0.26802 0,-0.0995 0.0201,-0.12885 0.0881,-0.12885 0.0572,0 0.0884,-0.0294 0.0884,-0.0831 0,-0.0606 0.0426,-0.0915 0.15531,-0.11245 0.0855,-0.0161 0.17939,-0.068 0.20902,-0.11536 0.0481,-0.077 0.10557,-0.086 0.55007,-0.086 h 0.49663 v 1.21841 m 42.289127,0.16642 v 1.21709 h -0.30348 c -0.26643,0 -0.30638,-0.0109 -0.32649,-0.0884 -0.0151,-0.0574 -0.063,-0.0899 -0.13759,-0.0937 -0.0627,-0.003 -0.13414,-0.0103 -0.15848,-0.0164 -0.0241,-0.006 -0.0937,-0.0135 -0.15424,-0.0167 -0.0791,-0.004 -0.11033,-0.0304 -0.11033,-0.0937 0,-0.0646 -0.0294,-0.0881 -0.11006,-0.0881 -0.0796,0 -0.11033,-0.0238 -0.11033,-0.0852 0,-0.0471 -0.0397,-0.0979 -0.0881,-0.11325 -0.0688,-0.022 -0.0884,-0.0669 -0.0884,-0.20452 0,-0.19553 -0.0698,-0.36327 -0.13441,-0.32332 -0.0241,0.0148 -0.0418,-0.0603 -0.0418,-0.1778 0,-0.11747 0.0177,-0.19262 0.0418,-0.1778 0.0669,0.0415 0.13441,-0.1307 0.13441,-0.34343 0,-0.15901 0.0167,-0.20055 0.0884,-0.21907 0.0484,-0.0127 0.0881,-0.0548 0.0881,-0.0934 0,-0.0421 0.0373,-0.0704 0.0923,-0.0704 0.0545,0 0.1016,-0.0352 0.11482,-0.0857 0.0275,-0.10609 0.0442,-0.109 0.68421,-0.12779 l 0.51964,-0.0154 v 1.21682 m -83.756493,-0.91466 c -0.006,0.0706 0.0315,0.087 0.37439,0.1643 0.0759,0.0172 0.14155,0.0796 0.1897,0.18098 0.0402,0.0852 0.10002,0.15478 0.13256,0.15478 0.036,0 0.0704,0.0767 0.0886,0.19844 0.0236,0.15663 0.0479,0.19843 0.11536,0.19843 0.0833,0 0.0855,0.0495 0.0855,1.89733 v 1.89733 l -0.11033,0.0418 c -0.0894,0.0341 -0.11007,0.072 -0.11007,0.20135 0,0.1225 -0.0206,0.1651 -0.0884,0.18282 -0.0487,0.0127 -0.0881,0.0601 -0.0881,0.1061 0,0.059 -0.0317,0.0831 -0.11033,0.0831 -0.0606,0 -0.11007,0.019 -0.11007,0.0426 0,0.0236 -0.0272,0.0323 -0.0606,0.0196 -0.0331,-0.0127 -0.0722,0.008 -0.0868,0.0455 -0.045,0.11721 -1.02367,0.0998 -1.08744,-0.0196 -0.0333,-0.0622 -0.0923,-0.0881 -0.20002,-0.0881 -0.12885,0 -0.15293,-0.0156 -0.15346,-0.0992 -5.3e-4,-0.0548 -0.05,-0.14605 -0.11033,-0.2032 -0.0778,-0.0738 -0.10954,-0.15055 -0.10954,-0.26564 0,-0.0892 -0.0291,-0.20347 -0.0646,-0.25427 -0.0355,-0.0508 -0.0521,-0.10477 -0.0368,-0.12012 0.0154,-0.0153 0.005,-0.0278 -0.0236,-0.0278 -0.0381,0 -0.0513,-0.39158 -0.0513,-1.52135 0,-1.12977 0.0132,-1.52136 0.0513,-1.52136 0.0283,0 0.0389,-0.0124 0.0236,-0.0278 -0.0154,-0.0153 0.001,-0.0693 0.0368,-0.12012 0.0354,-0.0508 0.0646,-0.16351 0.0646,-0.25056 0,-0.096 0.0339,-0.19447 0.0865,-0.25082 0.0476,-0.0511 0.0992,-0.1442 0.1151,-0.20691 0.018,-0.0722 0.059,-0.11403 0.11191,-0.11403 0.054,0 0.0833,-0.031 0.0833,-0.0881 0,-0.068 0.0294,-0.0881 0.12886,-0.0881 0.186,0 0.26802,-0.0421 0.26802,-0.13706 0,-0.0743 0.0357,-0.0836 0.32597,-0.0836 0.27675,0 0.3249,0.0111 0.31961,0.0733 m 52.61108,0.23548 c 0.013,0.0487 0.0603,0.0881 0.10609,0.0881 0.0458,0 0.0831,0.0286 0.0831,0.0632 0,0.0347 0.0397,0.0757 0.0881,0.0913 0.0484,0.0154 0.10028,0.0762 0.1151,0.1352 0.0167,0.0664 0.0587,0.10716 0.11033,0.10716 0.0804,0 0.0833,0.0656 0.0833,1.89627 0,1.83118 -0.003,1.89626 -0.0833,1.89626 -0.095,0 -0.13706,0.082 -0.13706,0.26803 0,0.0995 -0.0201,0.12885 -0.0881,0.12885 -0.0571,0 -0.0884,0.0294 -0.0884,0.0831 0,0.0608 -0.0429,0.0915 -0.15901,0.11324 -0.10478,0.0196 -0.16695,0.059 -0.18177,0.1151 -0.0349,0.13414 -1.07024,0.13123 -1.07024,-0.003 0,-0.0484 -0.0299,-0.0905 -0.0661,-0.0937 -0.0365,-0.003 -0.086,-0.0103 -0.11033,-0.0164 -0.0241,-0.006 -0.0836,-0.0135 -0.13229,-0.0167 -0.0569,-0.003 -0.0881,-0.0368 -0.0881,-0.0937 0,-0.0587 -0.0294,-0.0881 -0.0881,-0.0881 -0.0487,0 -0.0886,-0.0249 -0.0892,-0.0553 -8e-4,-0.0468 -2.7e-4,-3.6703 5.3e-4,-3.87536 2.6e-4,-0.0397 0.0405,-0.0825 0.0897,-0.0955 0.0492,-0.0127 0.0841,-0.0492 0.0773,-0.0812 -0.007,-0.0317 0.0323,-0.0646 0.0871,-0.073 0.0598,-0.009 0.0992,-0.046 0.0992,-0.0931 0,-0.0527 0.0561,-0.095 0.17171,-0.12964 0.0945,-0.0283 0.18309,-0.0812 0.19712,-0.11721 0.0164,-0.0431 0.0857,-0.0659 0.20002,-0.0659 0.136,0 0.18098,-0.0196 0.20267,-0.0881 0.0246,-0.0773 0.0669,-0.0881 0.33788,-0.0881 0.27278,0 0.31273,0.0106 0.33284,0.0881 m 20.82668,3.98593 c 0,0.82894 -0.006,0.89853 -0.077,0.89297 -0.049,-0.004 -0.0823,0.0302 -0.0913,0.0931 -0.0119,0.0833 -0.0415,0.0992 -0.18441,0.0992 -0.12727,0 -0.17701,0.0206 -0.19632,0.0818 -0.0548,0.17251 -1.22926,0.16854 -1.2745,-0.004 -0.0124,-0.0476 -0.0429,-0.0741 -0.0675,-0.0587 -0.0489,0.0304 -0.15028,-0.12356 -0.10848,-0.16536 0.014,-0.014 -0.0265,-0.0386 -0.09,-0.0545 -0.17304,-0.0437 -0.17701,-0.7194 -0.005,-0.91943 0.0606,-0.0704 0.11007,-0.16457 0.11007,-0.20928 0,-0.045 0.0315,-0.0815 0.0704,-0.0815 0.0386,0 0.0804,-0.0386 0.0929,-0.086 0.0161,-0.0624 0.0754,-0.0942 0.21458,-0.1151 0.10583,-0.0159 0.19076,-0.0415 0.18864,-0.0571 -0.0159,-0.12488 0.0217,-0.13864 0.38577,-0.13864 0.34184,0 0.38126,-0.008 0.40216,-0.0881 0.0201,-0.0775 0.0601,-0.0881 0.3265,-0.0881 h 0.30344 v 0.89902 m -90.78515018,4.0685 c -0.0421,0.0175 -0.055,0.29713 -0.055,1.18772 v 1.16469 h 0.44106 0.44079998 v 4.27752 4.27752 h -0.44079998 -0.44106 v 1.08029 1.0803 H 2.7281969 c 1.78382,0 2.29817,-0.0122 2.32595,-0.055 0.0199,-0.0304 0.0426,-0.49054 0.0508,-1.02288 0.018,-1.15782 0.0577,-1.08268 -0.57467,-1.08268 h -0.4326 l 0.003,-2.6789 c 0.002,-1.47347 0.0188,-2.63922 0.0381,-2.5908 0.019,0.0484 0.0251,0.1143 0.0132,0.14605 -0.0124,0.0328 0.0185,0.0683 0.0722,0.0823 0.0781,0.0204 0.0939,0.0577 0.0939,0.22198 0,0.16034 0.0164,0.20161 0.0881,0.2204 0.0614,0.0161 0.0881,0.0601 0.0881,0.14473 0,0.23495 0.0561,0.40851 0.13917,0.43021 0.0651,0.0172 0.0815,0.0643 0.0815,0.2368 0,0.11827 0.0198,0.21537 0.0439,0.21537 0.0243,0 0.0418,0.0148 0.0389,0.0331 -0.018,0.11404 0.007,0.16457 0.0495,0.0992 0.032,-0.0497 0.0429,-0.0278 0.0439,0.0881 0.002,0.23707 0.0458,0.3556 0.12673,0.34237 0.0582,-0.01 0.0743,0.0365 0.0849,0.24104 0.01,0.19209 0.0341,0.26723 0.10054,0.31379 0.081,0.0564 0.12753,0.23046 0.13546,0.50298 0.002,0.0669 0.0299,0.0992 0.0863,0.0992 0.0698,0 0.0836,0.0331 0.0836,0.2024 0,0.16114 0.0169,0.20717 0.0828,0.22437 0.0648,0.0169 0.0894,0.0794 0.11298,0.28734 0.0238,0.21114 0.0476,0.27014 0.11562,0.28786 0.0677,0.0177 0.0855,0.0616 0.0855,0.21061 0,0.24448 -0.0254,0.23972 1.16417,0.22913 0.97393,-0.009 0.97446,-0.009 0.98848,-0.10795 0.008,-0.0545 0.0394,-0.0992 0.0701,-0.0992 0.0802,0 0.15848,-0.19579 0.15848,-0.39581 0,-0.13256 0.0199,-0.1778 0.0881,-0.1995 0.0759,-0.0241 0.0881,-0.0667 0.0881,-0.3085 0,-0.25744 0.008,-0.28179 0.0992,-0.29475 0.0873,-0.0124 0.10187,-0.0458 0.12145,-0.27517 0.0151,-0.18124 0.0423,-0.2667 0.0881,-0.27887 0.0577,-0.0156 0.0579,-0.0122 10e-4,0.0273 -0.0357,0.0246 -0.0495,0.0603 -0.0307,0.0791 0.0616,0.0616 0.11615,-0.091 0.11695,-0.32702 5.3e-4,-0.19685 0.013,-0.23151 0.0833,-0.23151 0.0886,0 0.13785,-0.15055 0.13785,-0.42148 0,-0.10716 0.0233,-0.1532 0.0881,-0.17384 0.0762,-0.0241 0.0881,-0.0667 0.0881,-0.31167 0,-0.15611 0.0151,-0.28046 0.0331,-0.27676 0.13044,0.0278 0.18759,-0.0701 0.18759,-0.32014 0,-0.2466 0.0206,-0.2847 0.14314,-0.26512 0.0183,0.003 0.0339,-0.0791 0.0347,-0.1823 0.001,-0.15795 0.12198,-0.44158 0.1352,-0.31723 0.002,0.023 0.0204,-0.008 0.0397,-0.0685 0.0193,-0.0606 0.0373,1.07527 0.0397,2.52439 l 0.005,2.63498 h -0.46038 c -0.25347,0 -0.47228,0.0188 -0.4863,0.0418 -0.0206,0.0331 -0.0352,1.17766 -0.0254,1.97591 l 0.002,0.14367 2.7450501,-0.0114 2.74505,-0.0114 0.0119,-1.06944 0.0116,-1.06919 h -0.39767 -0.39767 v -4.27751 -4.27752 h 0.39688 0.39687 v -1.14486 c 0,-1.07394 -0.005,-1.14776 -0.0825,-1.1893 -0.0521,-0.0278 -0.97604,-0.045 -2.50745,-0.0463 -2.6662101,-0.002 -2.5325901,-0.0161 -2.5426501,0.26485 -0.002,0.0722 -0.0286,0.13123 -0.0582,0.13123 -0.0722,0 -0.14472,0.14447 -0.14472,0.28787 0,0.0643 -0.0381,0.15002 -0.0847,0.19024 -0.0534,0.0463 -0.0934,0.15425 -0.10874,0.29368 -0.0169,0.15426 -0.0513,0.23866 -0.11377,0.28099 -0.073,0.0492 -0.0897,0.10848 -0.0897,0.31459 0,0.21008 -0.0143,0.2577 -0.0815,0.27543 -0.0831,0.0217 -0.13917,0.19526 -0.13917,0.43021 0,0.0847 -0.0267,0.12859 -0.0881,0.14473 -0.072,0.0188 -0.0881,0.0601 -0.0881,0.22569 0,0.13626 -0.0188,0.20241 -0.0571,0.20241 -0.0527,0 -0.1635201,0.31406 -0.1635201,0.46381 0,0.036 -0.0397,0.10504 -0.0881,0.15372 -0.0646,0.0646 -0.0881,0.14685 -0.0881,0.30851 0,0.19129 -0.0119,0.22066 -0.0884,0.22066 -0.0632,0 -0.0897,0.0312 -0.0937,0.11007 -0.003,0.0609 -0.0103,0.13017 -0.0164,0.15451 -0.006,0.0241 -0.0135,0.0849 -0.0167,0.13494 -0.003,0.0497 -0.0244,0.0791 -0.0474,0.0648 -0.0614,-0.0381 -0.11774,0.10319 -0.13097,0.32941 -0.0135,0.23019 -0.002,0.20796 -0.11377,0.22728 -0.0762,0.0132 -0.09,-0.0124 -0.10134,-0.18971 -0.0103,-0.15954 -0.0323,-0.20981 -0.0992,-0.22728 -0.0709,-0.0185 -0.086,-0.0617 -0.086,-0.24368 0,-0.27781 -0.0315,-0.36036 -0.13705,-0.36036 -0.0725,0 -0.0836,-0.0344 -0.0836,-0.26167 0,-0.22278 -0.013,-0.26591 -0.0881,-0.28972 -0.0786,-0.0249 -0.12144,-0.20029 -0.0939,-0.38418 0.0122,-0.0823 -0.0876,-0.25506 -0.14764,-0.25506 -0.0479,0 -0.0688,-0.0503 -0.0725,-0.17647 -0.008,-0.25585 -0.0103,-0.26379 -0.0828,-0.30957 -0.0362,-0.023 -0.0463,-0.0426 -0.022,-0.0431 0.0241,-7.9e-4 0.0188,-0.0175 -0.0122,-0.037 -0.031,-0.0196 -0.059,-0.11033 -0.0624,-0.20161 -0.005,-0.13044 -0.0283,-0.17436 -0.10928,-0.20505 -0.0889,-0.0339 -0.10292,-0.0693 -0.10292,-0.26088 0,-0.15769 -0.0238,-0.24527 -0.0826,-0.30427 -0.068,-0.0677 -0.12832,-0.32835 -0.13679,-0.58976 -5.3e-4,-0.0183 -0.0408,-0.0331 -0.0892,-0.0331 -0.0765,0 -0.0884,-0.0294 -0.0884,-0.22039 0,-0.18045 -0.014,-0.22067 -0.077,-0.2212 -0.0603,-5.2e-4 -0.064,-0.009 -0.0175,-0.0386 0.0418,-0.0265 0.045,-0.0471 0.0111,-0.068 -0.027,-0.0167 -0.05,-0.0143 -0.0513,0.005 -0.001,0.0198 -0.0262,-0.0336 -0.055,-0.11853 l -0.0526,-0.15425 -2.4474,-0.008 c -1.3462,-0.004 -2.47227008,0.002 -2.50269008,0.0148 M 17.843224,286.2567 c -0.0193,0.0738 -0.0616,0.0886 -0.25876,0.0915 -0.41275,0.006 -0.58764,0.0537 -0.55034,0.15134 0.0201,0.0524 -0.0156,0.0659 -0.17595,0.0659 -0.16404,0 -0.20531,0.0161 -0.2241,0.0881 -0.0151,0.0579 -0.0601,0.0881 -0.13097,0.0881 -0.13784,0 -0.28892,0.0799 -0.25505,0.13494 0.027,0.0437 -0.005,0.0598 -0.21273,0.1053 -0.0677,0.0148 -0.11139,0.0463 -0.0968,0.0699 0.0145,0.0236 0.0106,0.0429 -0.009,0.0429 -0.0198,2.6e-4 -0.0862,0.045 -0.14817,0.0992 -0.0616,0.0545 -0.0815,0.0794 -0.0442,0.055 0.0595,-0.0384 0.0606,-0.0341 0.008,0.0331 -0.0333,0.0423 -0.0984,0.0773 -0.14472,0.0773 -0.0463,0 -0.0963,0.0347 -0.11139,0.077 -0.0148,0.0426 -0.0672,0.10954 -0.11642,0.14922 -0.0489,0.0397 -0.096,0.11907 -0.10424,0.17648 -0.0254,0.17542 -0.0516,0.21458 -0.145,0.21458 -0.0749,0 -0.0894,0.0286 -0.0894,0.1733 0,0.13467 -0.0198,0.17965 -0.0884,0.20161 -0.0685,0.0217 -0.0881,0.0667 -0.0881,0.20241 0,0.14631 -0.018,0.1815 -0.11218,0.21722 -0.0619,0.0236 -0.10901,0.0675 -0.10504,0.0982 0.0439,0.33708 -0.0103,0.86281 -0.0915,0.88398 -0.086,0.0225 -0.0881,0.0601 -0.0881,1.57056 0,1.51818 0.002,1.54755 0.0881,1.54755 0.0823,0 0.0884,0.0294 0.0884,0.43736 0,0.49609 0.019,0.57679 0.13679,0.57679 0.0696,0 0.0836,0.0333 0.0836,0.19844 0,0.16721 0.0135,0.19843 0.0857,0.19843 0.0691,0 0.0881,0.036 0.0992,0.18759 0.0111,0.15584 0.0302,0.18971 0.11271,0.20135 0.0611,0.009 0.10134,0.0468 0.10478,0.0992 0.003,0.0468 0.0103,0.10504 0.0164,0.12938 0.006,0.0241 0.0135,0.0659 0.0167,0.0929 0.003,0.0267 0.0304,0.0392 0.0608,0.0275 0.0693,-0.0265 0.15584,0.0616 0.13176,0.13415 -0.0101,0.0296 0.0138,0.054 0.0526,0.054 0.0389,0 0.0937,0.0505 0.12171,0.11192 0.0291,0.064 0.0762,0.10239 0.10927,0.0897 0.0323,-0.0122 0.0585,-0.003 0.0585,0.0204 0,0.0236 0.0481,0.0426 0.10716,0.0426 0.0775,0 0.11112,0.0275 0.12118,0.0992 0.008,0.0548 0.0439,0.10001 0.0802,0.1008 0.0759,0.002 0.26537,0.10504 0.19843,0.10795 -0.12435,0.006 0.11351,0.0881 0.26459,0.0918 0.0971,0.002 0.1516,0.014 0.12144,0.0265 -0.0971,0.0392 -0.0593,0.095 0.0881,0.13018 0.0788,0.0188 0.15822,0.0376 0.17648,0.0421 0.018,0.004 0.0825,0.0103 0.14314,0.0135 0.0683,0.003 0.11033,0.0317 0.11033,0.0743 0,0.0376 0.0198,0.0564 0.0442,0.0413 0.0241,-0.0148 0.0439,-0.006 0.0439,0.0196 0,0.0296 0.16007,0.0466 0.44106,0.0466 0.36565,0 0.44106,0.0116 0.44106,0.0672 0,0.12806 0.22225,0.15028 1.43589,0.14367 1.39541,-0.008 1.47744,-0.0145 1.50733,-0.12833 0.019,-0.0728 0.0677,-0.0825 0.40958,-0.0825 0.39846,0 0.54425,-0.0259 0.50482,-0.0894 -0.0283,-0.0458 0.0651,-0.072 0.39185,-0.10901 0.2032,-0.0233 0.26326,-0.0476 0.28072,-0.11403 0.0175,-0.0669 0.0619,-0.0844 0.21537,-0.0844 0.16378,0 0.19315,-0.0132 0.19315,-0.0881 0,-0.0484 0.0249,-0.0897 0.0553,-0.0915 0.21405,-0.0132 0.34158,-0.0691 0.34158,-0.14949 0,-0.0429 0.0408,-0.0677 0.11112,-0.0677 h 0.11086 l -0.0116,-1.26762 -0.0119,-1.26788 h -1.36683 -1.36711 l -0.0124,0.47413 c -0.01,0.37836 -0.0257,0.47519 -0.0773,0.47943 -0.0354,0.003 -0.0844,0.0106 -0.10874,0.0167 -0.0243,0.006 -0.0725,0.0135 -0.10716,0.0164 -0.0349,0.003 -0.0759,0.0452 -0.0913,0.0937 -0.0421,0.13282 -1.40996,0.13731 -1.44462,0.005 -0.0151,-0.0577 -0.0788,-0.0929 -0.20664,-0.11457 -0.10187,-0.0172 -0.19606,-0.0601 -0.20955,-0.0955 -0.0135,-0.0352 -0.0519,-0.0537 -0.0852,-0.041 -0.0333,0.0127 -0.0603,0.004 -0.0603,-0.0196 0,-0.0236 -0.0497,-0.0426 -0.11033,-0.0426 -0.0923,0 -0.11033,-0.0209 -0.11033,-0.12885 0,-0.17198 -0.0405,-0.26802 -0.11324,-0.26802 -0.0447,0 -0.0627,-0.0971 -0.0725,-0.38603 -0.0119,-0.36195 -0.0188,-0.38656 -0.11192,-0.39979 -0.0857,-0.0122 -0.0992,-0.0405 -0.0992,-0.20928 v -0.195 l 2.87734,-0.0114 2.87734,-0.0114 0.0116,-1.63089 c 0.0116,-1.62216 0.0111,-1.63142 -0.0828,-1.70233 -0.0939,-0.0709 -0.11086,-0.13282 -0.12144,-0.44794 -0.005,-0.13414 -0.0225,-0.16536 -0.0939,-0.16536 -0.068,0 -0.0881,-0.0294 -0.0881,-0.12886 0,-0.18124 -0.0415,-0.26802 -0.12806,-0.26802 -0.0545,0 -0.0775,-0.0437 -0.0855,-0.16166 -0.0124,-0.18706 -0.0405,-0.24712 -0.0984,-0.2114 -0.0225,0.014 -0.0603,-0.0254 -0.0841,-0.0873 -0.0257,-0.068 -0.077,-0.11298 -0.12911,-0.11298 -0.0558,0 -0.091,-0.0349 -0.10028,-0.0992 -0.008,-0.0545 -0.0389,-0.1016 -0.0691,-0.10477 -0.0304,-0.003 -0.0844,-0.008 -0.11986,-0.0109 -0.0378,-0.003 -0.0545,-0.0325 -0.0402,-0.0699 0.0167,-0.0437 -0.0159,-0.0751 -0.10054,-0.0976 -0.14208,-0.0376 -0.17542,-0.0452 -0.23045,-0.0532 -0.0214,-0.003 -0.0497,-0.0463 -0.0627,-0.0963 -0.013,-0.05 -0.05,-0.0873 -0.0823,-0.0831 -0.24977,0.0339 -0.47757,-0.007 -0.47757,-0.086 0,-0.11245 -0.0823,-0.13706 -0.46144,-0.13706 -0.28495,0 -0.32464,-0.01 -0.34501,-0.0881 -0.0225,-0.086 -0.0601,-0.0881 -1.45521,-0.0881 -1.39515,0 -1.43272,0.002 -1.45521,0.0881 m 19.69108,-0.059 c -0.0302,0.0122 -0.055,0.0503 -0.055,0.0847 0,0.0476 -0.0757,0.0638 -0.31961,0.0677 -0.17595,0.003 -0.33973,0.01 -0.3638,0.0154 -0.0243,0.006 -0.0987,0.0132 -0.16537,0.0169 -0.0873,0.005 -0.12144,0.0302 -0.12144,0.0902 0,0.0736 -0.0415,0.0855 -0.35666,0.0997 -0.2749,0.0124 -0.36936,0.0336 -0.41275,0.0929 -0.0307,0.0421 -0.0934,0.0767 -0.13944,0.0773 -0.16166,0.001 -0.27384,0.0526 -0.29554,0.13573 -0.0169,0.0648 -0.0619,0.0841 -0.19764,0.0841 -0.15161,0 -0.17965,0.0153 -0.20399,0.11192 -0.0495,0.19791 -0.0246,2.54767 0.0278,2.61091 0.0489,0.059 2.41458,0.082 2.63075,0.0254 0.0886,-0.0233 0.0942,-0.0516 0.0942,-0.49927 0,-0.44 0.006,-0.47651 0.0894,-0.49821 0.0492,-0.013 0.0839,-0.05 0.077,-0.0823 -0.0236,-0.11324 1.4224,-0.10716 1.45203,0.006 0.0151,0.0582 0.0601,0.0892 0.12832,0.0892 0.063,0 0.10531,0.0259 0.10531,0.0646 0,0.0357 0.0397,0.086 0.0881,0.11192 0.0484,0.0259 0.0881,0.0862 0.0881,0.13388 0,0.0476 0.0151,0.0841 0.0331,0.0815 0.12991,-0.0206 0.1434,0.0169 0.1434,0.4019 v 0.39687 l -0.29765,0.004 c -0.16378,0.002 -0.33735,0.009 -0.38577,0.0138 -0.0487,0.005 -0.13282,0.0132 -0.18759,0.0177 -0.0669,0.006 -0.0992,0.0368 -0.0992,0.0963 0,0.0831 -0.0294,0.0884 -0.50694,0.0884 -0.47784,0 -0.5072,0.005 -0.5072,0.0881 0,0.0802 -0.0294,0.0881 -0.32412,0.0881 -0.35216,0 -0.58102,0.0582 -0.61912,0.15743 -0.0169,0.0442 -0.0971,0.0632 -0.26644,0.0632 -0.18256,0 -0.26167,0.0209 -0.32147,0.0852 -0.0693,0.0744 -0.20426,0.1188 -0.3982,0.1315 -0.0302,0.002 -0.055,0.0434 -0.055,0.0918 0,0.0751 -0.0294,0.0884 -0.19843,0.0884 -0.1659,0 -0.19844,0.0138 -0.19844,0.0841 0,0.0646 -0.0429,0.0915 -0.18177,0.11509 -0.12515,0.0212 -0.18865,0.0566 -0.20346,0.11404 -0.0122,0.046 -0.0497,0.0836 -0.0841,0.0836 -0.0341,0 -0.0799,0.0468 -0.1016,0.10424 -0.0217,0.0571 -0.081,0.11483 -0.13124,0.12806 -0.0698,0.0183 -0.0915,0.0593 -0.0915,0.17198 0,0.11113 -0.0246,0.15875 -0.0992,0.19156 -0.0979,0.0429 -0.1061,0.0635 -0.11615,0.29183 -0.003,0.0765 -0.0352,0.12409 -0.0934,0.13918 -0.0849,0.0222 -0.0881,0.0603 -0.0881,1.04563 0,0.98531 0.003,1.02341 0.0881,1.04563 0.0648,0.0169 0.0897,0.0627 0.0939,0.17225 0.003,0.082 0.0103,0.16906 0.0164,0.19314 0.006,0.0243 0.0135,0.0857 0.0167,0.13653 0.003,0.0524 0.0437,0.10239 0.0937,0.11535 0.0569,0.0148 0.0881,0.0601 0.0881,0.12806 0,0.0579 0.0198,0.10531 0.0442,0.10531 0.0241,0 0.0392,0.0246 0.0331,0.055 -0.006,0.0304 0.0122,0.0505 0.0408,0.0452 0.0286,-0.006 0.0648,0.049 0.0807,0.12118 0.0198,0.09 0.0553,0.13123 0.11351,0.13123 0.0466,0 0.0847,0.0185 0.0847,0.041 0,0.0831 0.14234,0.17939 0.26458,0.17939 0.0971,0 0.12938,0.0227 0.14023,0.099 0.008,0.0564 0.0513,0.10583 0.10133,0.11536 0.0479,0.009 0.1106,0.0487 0.13917,0.0881 0.0389,0.0529 0.14473,0.0757 0.40905,0.0876 0.30692,0.014 0.35666,0.0272 0.35666,0.095 0,0.19394 1.87828,0.18838 1.92908,-0.006 0.0177,-0.0677 0.0643,-0.0826 0.26299,-0.0826 0.18574,0 0.25823,-0.0198 0.31459,-0.0865 0.0614,-0.0728 0.14896,-0.10399 0.36777,-0.13018 0.0167,-0.002 0.0426,-0.0434 0.0582,-0.0918 0.018,-0.0569 0.0667,-0.0884 0.13653,-0.0884 0.0598,0 0.12012,-0.0296 0.13388,-0.0659 0.014,-0.0362 0.0431,-0.0548 0.0648,-0.0415 0.0217,0.0135 0.0394,0.004 0.0394,-0.0212 0,-0.0249 0.0619,-0.0773 0.13731,-0.11642 0.0754,-0.0389 0.12462,-0.0505 0.10928,-0.0259 -0.0558,0.0905 0.0278,0.41408 0.11297,0.4363 0.0505,0.0132 0.0815,0.0614 0.0815,0.127 v 0.10557 l 1.97327,-0.0116 1.97352,-0.0114 0.0116,-1.06945 0.0119,-1.06918 h -0.3976 -0.39766 v -2.81543 c 0,-2.67282 -0.004,-2.81913 -0.0807,-2.88845 -0.0444,-0.0402 -0.0942,-0.0598 -0.11034,-0.0437 -0.0236,0.0236 -0.0526,-0.4027 -0.0354,-0.52282 0.002,-0.0167 -0.0331,-0.0421 -0.0786,-0.0566 -0.0508,-0.0161 -0.0937,-0.0852 -0.11139,-0.18018 -0.0159,-0.0847 -0.046,-0.14341 -0.0669,-0.13044 -0.0209,0.013 -0.0646,-0.0365 -0.0971,-0.10954 -0.0323,-0.0733 -0.0947,-0.14446 -0.13864,-0.15848 -0.0439,-0.014 -0.0998,-0.0691 -0.12409,-0.12224 -0.0243,-0.0532 -0.10266,-0.12277 -0.17409,-0.15425 -0.0712,-0.0318 -0.11854,-0.0757 -0.10478,-0.0979 0.0138,-0.022 -0.0111,-0.0431 -0.0548,-0.0468 -0.0439,-0.004 -0.10001,-0.009 -0.12488,-0.0119 -0.0246,-0.003 -0.0892,-0.0495 -0.14314,-0.10346 -0.0781,-0.0781 -0.14896,-0.0984 -0.33973,-0.0984 -0.19526,0 -0.23627,-0.0124 -0.2159,-0.0656 0.0362,-0.0945 -0.15637,-0.15504 -0.49344,-0.15504 -0.23575,0 -0.29263,-0.0148 -0.33841,-0.0881 -0.0532,-0.0852 -2.86676,-0.13917 -3.06572,-0.059 m 41.88486,0.0556 c -0.0627,0.0627 -0.17039,0.0847 -0.48895,0.0998 -0.35375,0.0169 -0.41936,0.0325 -0.48683,0.11589 -0.0569,0.0704 -0.12621,0.0966 -0.25585,0.0966 -0.0976,0 -0.19024,0.0201 -0.20532,0.0447 -0.0154,0.0246 -0.0463,0.0333 -0.0691,0.0193 -0.0228,-0.014 -0.0534,0.005 -0.068,0.0434 -0.0145,0.0381 -0.0783,0.0691 -0.14288,0.0696 -0.20055,10e-4 -0.31511,0.0497 -0.31511,0.13414 0,0.0632 -0.0402,0.0836 -0.18733,0.0942 l -0.18732,0.0135 -0.0116,1.35096 -0.0116,1.35123 0.11192,0.0281 c 0.19526,0.0489 2.54873,0.0254 2.6109,-0.0262 0.0392,-0.0325 0.0564,-0.18574 0.0564,-0.50165 0,-0.41593 0.008,-0.45694 0.0884,-0.4826 0.0484,-0.0153 0.0881,-0.0553 0.0881,-0.0886 0,-0.13494 1.39092,-0.11086 1.43404,0.0249 0.0209,0.0659 0.0675,0.0857 0.20056,0.0857 0.14287,0 0.1733,0.0154 0.1733,0.0865 0,0.0476 0.0431,0.12647 0.0955,0.17542 0.0818,0.0762 0.0984,0.14975 0.1151,0.50879 l 0.0193,0.4199 -0.36857,0.005 c -0.20267,0.003 -0.38814,0.01 -0.41249,0.0154 -0.0243,0.006 -0.0775,0.0132 -0.11826,0.0169 -0.0408,0.004 -0.0868,0.0463 -0.10213,0.0947 -0.0259,0.0812 -0.0669,0.0884 -0.51012,0.0884 -0.43974,0 -0.48207,0.007 -0.48207,0.0815 0,0.0725 -0.0519,0.0844 -0.47017,0.10821 -0.4527,0.0257 -0.62282,0.0857 -0.48683,0.17224 0.0291,0.0183 -0.0897,0.0339 -0.26379,0.0341 -0.27781,5.3e-4 -0.32014,0.0116 -0.34475,0.0889 -0.0209,0.0653 -0.0667,0.0881 -0.17833,0.0881 -0.11165,0 -0.1688,0.0283 -0.22251,0.11034 -0.0542,0.0825 -0.11086,0.11033 -0.22569,0.11033 -0.11377,0 -0.15902,0.0217 -0.17542,0.0839 -0.014,0.0534 -0.0765,0.0945 -0.17092,0.11218 -0.082,0.0154 -0.17463,0.0643 -0.20585,0.10901 -0.0312,0.0447 -0.0963,0.0886 -0.1442,0.0979 -0.0479,0.009 -0.0947,0.0561 -0.10398,0.10398 -0.009,0.0482 -0.0526,0.11245 -0.0963,0.14287 -0.0437,0.0307 -0.0929,0.11774 -0.10953,0.19342 -0.018,0.0815 -0.0643,0.14631 -0.11378,0.15927 -0.0709,0.0185 -0.0836,0.0643 -0.0836,0.30348 0,0.21564 -0.0148,0.28152 -0.0635,0.28152 -0.10821,0 -0.12329,0.0786 -0.1352,0.69903 -0.0159,0.84031 0.008,1.06468 0.11483,1.06468 0.0741,0 0.0839,0.0344 0.0839,0.28972 0,0.2884 0.0582,0.48366 0.13097,0.43894 0.0212,-0.0132 0.0519,0.0384 0.0685,0.1143 0.018,0.0818 0.0646,0.14685 0.11404,0.15981 0.0458,0.0119 0.0833,0.0593 0.0833,0.10478 0,0.0458 0.0193,0.0831 0.0429,0.0831 0.0236,0 0.0312,0.0296 0.0175,0.0656 -0.0167,0.0434 0.0153,0.081 0.0942,0.11086 0.0751,0.0286 0.11033,0.0683 0.0952,0.10742 -0.0172,0.0447 0.0265,0.0706 0.15531,0.0923 0.12276,0.0209 0.186,0.0566 0.20081,0.11377 0.023,0.0881 0.0243,0.0889 0.17304,0.10477 0.15796,0.0169 0.23548,0.0603 0.23548,0.1315 0,0.0537 0.0585,0.0675 0.28655,0.0675 0.25188,0 0.28654,0.0103 0.28654,0.0836 0,0.1225 0.13467,0.14076 0.99377,0.13494 0.85752,-0.006 0.9324,-0.0164 0.97023,-0.13494 0.0222,-0.0706 0.0706,-0.0836 0.31009,-0.0836 0.25427,0 0.28364,-0.009 0.28364,-0.0881 0,-0.0619 0.0296,-0.0884 0.0992,-0.0889 0.18653,-10e-4 0.29765,-0.0521 0.29765,-0.13679 0,-0.0632 0.0323,-0.0831 0.13441,-0.0831 0.0833,0 0.17119,-0.0389 0.23151,-0.10239 0.15822,-0.16722 0.23786,-0.17489 0.2675,-0.0265 0.0151,0.0749 0.054,0.12885 0.0931,0.12885 0.037,0 0.0696,0.0198 0.0728,0.0442 0.003,0.0243 0.0103,0.064 0.0164,0.0881 0.006,0.0243 0.0135,0.0939 0.0167,0.15478 l 0.006,0.11086 1.9513,-0.0116 1.9513,-0.0114 0.0116,-1.06944 0.0119,-1.06919 h -0.39771 -0.39766 l -8e-4,-2.89956 c -5.3e-4,-2.76358 -0.0132,-3.0607 -0.12647,-2.99059 -0.0325,0.0201 -0.0492,-0.0236 -0.0492,-0.12938 0,-0.18997 -0.0661,-0.33047 -0.15584,-0.33047 -0.0363,0 -0.0646,-0.0408 -0.0646,-0.0923 0,-0.0537 -0.0352,-0.1016 -0.0841,-0.1143 -0.0516,-0.0135 -0.0942,-0.0757 -0.11033,-0.16139 -0.0254,-0.13282 -0.1741,-0.2495 -0.31856,-0.2495 -0.0299,0 -0.0669,-0.0397 -0.0823,-0.0881 -0.0153,-0.0484 -0.0664,-0.0881 -0.11324,-0.0881 -0.054,0 -0.0852,-0.0304 -0.0852,-0.0831 0,-0.0839 -0.11086,-0.13574 -0.29263,-0.13679 -0.0566,-5.3e-4 -0.10319,-0.0357 -0.11694,-0.0889 -0.0177,-0.068 -0.0603,-0.0881 -0.18442,-0.0881 -0.17595,0 -0.34793,-0.0712 -0.31221,-0.12886 0.0296,-0.0476 -0.23971,-0.0908 -0.5715,-0.0913 -0.21801,-2.6e-4 -0.2749,-0.0164 -0.32067,-0.0897 -0.0823,-0.13176 -2.96148,-0.13387 -3.09298,-0.002 m -55.08122,0.16405 c -0.16087,0.0677 -0.17013,0.13599 -0.17013,1.22846 0,1.24857 0.0103,1.28084 0.41195,1.26232 0.37809,-0.0175 0.59638,0.037 0.59638,0.14923 0,0.14631 0.0442,0.24209 0.11191,0.24209 0.032,0 0.0646,0.0447 0.0725,0.0992 0.009,0.0638 0.0495,0.10425 0.11325,0.11324 0.0656,0.009 0.0992,0.0444 0.0992,0.10346 0,0.0521 0.0368,0.0987 0.0881,0.11218 0.0497,0.0132 0.0884,0.0603 0.0884,0.10821 0,0.0468 0.0495,0.13124 0.11006,0.18733 0.0609,0.0564 0.11033,0.13335 0.11033,0.17145 0,0.0381 0.0397,0.0818 0.0881,0.0971 0.0487,0.0154 0.0884,0.0643 0.0884,0.10848 0,0.0489 0.0429,0.0913 0.11007,0.10795 0.081,0.0204 0.11033,0.0572 0.11033,0.13864 0,0.0609 0.0296,0.12197 0.0659,0.136 0.0362,0.014 0.055,0.0431 0.0415,0.0648 -0.0135,0.0217 -0.003,0.0394 0.0233,0.0394 0.0265,0 0.0667,0.0497 0.0897,0.11033 0.0304,0.0794 0.0762,0.11112 0.16431,0.1135 0.0675,0.002 0.0976,0.0135 0.0672,0.0259 -0.0302,0.0122 -0.0556,0.0553 -0.0564,0.0958 -0.002,0.0889 -0.10742,0.23654 -0.14341,0.20056 -0.0143,-0.0143 -0.0394,0.046 -0.0561,0.13414 -0.0164,0.0884 -0.0672,0.17992 -0.11297,0.20453 -0.0569,0.0304 -0.0831,0.0926 -0.0831,0.19711 0,0.10478 -0.0204,0.15293 -0.0646,0.15293 -0.0802,0 -0.15584,0.1352 -0.15584,0.27861 0,0.0709 -0.0304,0.11588 -0.0884,0.13096 -0.0484,0.0127 -0.0881,0.0574 -0.0881,0.0992 0,0.0421 -0.0495,0.12224 -0.11033,0.1786 -0.0619,0.0574 -0.11007,0.15134 -0.11007,0.21431 0,0.0667 -0.0251,0.11245 -0.0616,0.11245 -0.0743,0 -0.11483,0.0953 -0.11483,0.27067 0,0.0722 -0.0151,0.12197 -0.0336,0.11059 -0.0426,-0.0265 -0.19235,0.0815 -0.18336,0.13203 0.0246,0.136 -0.0135,0.24712 -0.0918,0.26776 -0.0487,0.0127 -0.0881,0.0601 -0.0881,0.1061 0,0.0751 -0.0376,0.0831 -0.39767,0.0831 h -0.39766 l 0.0119,1.06918 0.0116,1.06944 1.35599,0.0116 c 0.99933,0.009 1.35598,-0.002 1.35598,-0.0389 0,-0.0281 0.0497,-0.0968 0.11034,-0.15293 0.0712,-0.0659 0.11033,-0.15001 0.11033,-0.23653 0,-0.11986 0.0362,-0.15584 0.14128,-0.14023 0.0172,0.002 0.0442,-0.064 0.0598,-0.14764 0.0156,-0.0839 0.0497,-0.1479 0.0757,-0.14288 0.0259,0.005 0.0701,-0.0698 0.0984,-0.16668 0.0288,-0.0982 0.0791,-0.17648 0.11378,-0.17648 0.037,0 0.0786,-0.0744 0.10318,-0.18441 0.0262,-0.1188 0.0693,-0.19156 0.12118,-0.20532 0.0611,-0.0159 0.0804,-0.0638 0.0804,-0.20135 0,-0.13256 0.0177,-0.18071 0.0672,-0.18071 0.037,0 0.086,-0.0495 0.10901,-0.11007 0.023,-0.0606 0.0746,-0.11033 0.1143,-0.11033 0.0508,0 0.0656,-0.0265 0.0495,-0.0881 -0.0127,-0.0487 -0.005,-0.0884 0.0169,-0.0884 0.022,0 0.0399,-0.0376 0.0399,-0.0833 0,-0.0765 0.0794,-0.13705 0.17992,-0.13705 0.0222,0 0.0405,0.0497 0.0405,0.11033 0,0.0786 0.0238,0.11007 0.0833,0.11007 0.0603,0 0.0913,0.0429 0.11244,0.15557 0.0161,0.0857 0.0463,0.14499 0.0672,0.13203 0.0209,-0.013 0.0646,0.0365 0.0968,0.10954 0.0325,0.0733 0.0915,0.1434 0.1315,0.1561 0.0397,0.0127 0.0831,0.0635 0.096,0.11298 0.013,0.0495 0.0646,0.1008 0.11483,0.11403 0.0603,0.0156 0.0915,0.0598 0.0915,0.12886 0,0.0706 0.0254,0.10556 0.0773,0.10583 0.0659,5.3e-4 0.0675,0.007 0.0109,0.0434 -0.0595,0.0386 -0.032,0.0632 0.0553,0.0495 0.018,-0.003 0.0354,0.0145 0.0386,0.0389 0.003,0.0241 0.0103,0.0638 0.0164,0.0881 0.006,0.0243 0.0135,0.064 0.0167,0.0881 0.003,0.0243 0.045,0.0442 0.0937,0.0442 0.0646,0 0.0881,0.0294 0.0881,0.11033 0,0.0786 0.0238,0.11007 0.0833,0.11007 0.0603,0 0.0913,0.0429 0.11245,0.15557 0.0161,0.0857 0.0431,0.14843 0.0601,0.13944 0.0452,-0.0241 0.16298,0.11324 0.16298,0.19023 0,0.0362 0.0254,0.0609 0.0561,0.0548 0.031,-0.006 0.0741,0.0357 0.096,0.0931 0.0603,0.15928 0.0767,0.1606 1.76504,0.1606 1.33429,0 1.583,-0.01 1.60364,-0.0635 0.0135,-0.0349 0.0204,-0.5162 0.0156,-1.06944 l -0.009,-1.00568 -0.18309,-0.0132 c -0.13997,-0.0103 -0.18812,-0.0344 -0.20612,-0.10266 -0.0127,-0.0489 -0.0624,-0.0995 -0.11059,-0.11192 -0.0577,-0.0151 -0.0971,-0.0754 -0.11642,-0.17806 -0.019,-0.10108 -0.0587,-0.16299 -0.1143,-0.17754 -0.0481,-0.0124 -0.0855,-0.0603 -0.0855,-0.10927 0,-0.0487 -0.037,-0.0971 -0.0841,-0.10928 -0.046,-0.0122 -0.0939,-0.0598 -0.1061,-0.10609 -0.0119,-0.046 -0.0585,-0.099 -0.10318,-0.11721 -0.0447,-0.0183 -0.0812,-0.0627 -0.0812,-0.0992 0,-0.0365 -0.0447,-0.0725 -0.0992,-0.0802 -0.072,-0.0103 -0.0992,-0.0437 -0.0992,-0.12145 0,-0.0587 -0.0198,-0.10715 -0.0442,-0.10715 -0.0243,0 -0.0418,-0.0148 -0.0389,-0.0331 0.018,-0.11351 -0.007,-0.16457 -0.0487,-0.0992 -0.0331,0.0521 -0.0481,0.0354 -0.0709,-0.077 -0.0204,-0.10055 -0.0537,-0.14341 -0.11166,-0.14341 -0.0545,0 -0.0825,-0.0315 -0.0825,-0.0923 0,-0.0548 -0.0354,-0.1016 -0.0873,-0.11509 -0.0574,-0.0151 -0.0968,-0.0754 -0.11615,-0.17807 -0.0177,-0.095 -0.0593,-0.16298 -0.10716,-0.17541 -0.0431,-0.0114 -0.0881,-0.0582 -0.10027,-0.10451 -0.0119,-0.0463 -0.0648,-0.10002 -0.11748,-0.11933 -0.0526,-0.0196 -0.0942,-0.0492 -0.0923,-0.0664 0.014,-0.13176 -0.003,-0.17013 -0.0653,-0.14632 -0.0481,0.0185 -0.0823,-0.0127 -0.11456,-0.1053 -0.0281,-0.081 -0.0767,-0.13203 -0.12568,-0.13203 -0.10689,0 -0.0632,-0.17965 0.0511,-0.20928 0.0489,-0.013 0.0815,-0.0611 0.0815,-0.12145 0,-0.0616 0.0325,-0.10848 0.0852,-0.12223 0.0556,-0.0145 0.0955,-0.0762 0.1143,-0.17754 0.0188,-0.10001 0.059,-0.16272 0.11324,-0.17701 0.0484,-0.0127 0.0841,-0.0606 0.0841,-0.11271 0,-0.05 0.0381,-0.11112 0.0844,-0.13599 0.0466,-0.0251 0.0984,-0.10743 0.1151,-0.18336 0.018,-0.0818 0.0643,-0.14684 0.11377,-0.15981 0.0511,-0.0135 0.0836,-0.0609 0.0836,-0.12197 0,-0.0627 0.0325,-0.10848 0.0881,-0.12303 0.0564,-0.0145 0.0884,-0.0603 0.0889,-0.12621 7.9e-4,-0.12568 0.0405,-0.18891 0.14261,-0.22648 0.0423,-0.0156 0.0773,-0.0698 0.0773,-0.12012 0,-0.0889 0.019,-0.0913 0.67019,-0.0852 0.61462,0.006 0.6731,-5.3e-4 0.70246,-0.0751 0.0413,-0.10452 0.0423,-2.26087 10e-4,-2.36432 -0.0286,-0.0725 -0.13705,-0.0783 -1.50891,-0.0796 -1.62719,-0.001 -1.5838,-0.006 -1.66661,0.18044 -0.032,0.0725 -0.0754,0.12145 -0.0963,0.10848 -0.0209,-0.013 -0.0508,0.0445 -0.0664,0.1278 -0.0183,0.0968 -0.0587,0.15954 -0.11245,0.17356 -0.0651,0.0169 -0.0841,0.0619 -0.0841,0.1995 0,0.14922 -0.0153,0.17965 -0.0974,0.19156 -0.0616,0.009 -0.10689,0.0545 -0.1233,0.12435 -0.0143,0.0606 -0.0548,0.11033 -0.09,0.11033 -0.0624,0 -0.0706,0.0233 -0.0812,0.23231 -0.003,0.0643 -0.0455,0.11588 -0.11721,0.14314 -0.0619,0.0236 -0.10901,0.0675 -0.10504,0.0982 0.0127,0.0984 -0.002,0.16563 -0.0362,0.16033 -0.0873,-0.0138 -0.11483,0.0108 -0.0553,0.0495 0.0566,0.0365 0.055,0.0429 -0.0109,0.0434 -0.0529,5.3e-4 -0.0773,0.0355 -0.0773,0.11086 0,0.0648 -0.0254,0.11034 -0.0614,0.11034 -0.0339,0 -0.0749,0.0347 -0.0913,0.077 -0.0283,0.0736 -0.0317,0.0736 -0.073,0 -0.0238,-0.0423 -0.0688,-0.077 -0.10028,-0.077 -0.0312,0 -0.0794,-0.0497 -0.10715,-0.1106 -0.0275,-0.0609 -0.0749,-0.10557 -0.10531,-0.0992 -0.0302,0.006 -0.0616,-0.0333 -0.0698,-0.0878 -0.009,-0.0548 -0.0317,-0.0992 -0.0521,-0.0992 -0.0204,0 -0.0265,-0.0397 -0.0138,-0.0884 0.0177,-0.0675 10e-4,-0.0881 -0.0704,-0.0881 -0.0701,0 -0.0934,-0.0272 -0.0934,-0.11033 0,-0.0807 -0.0236,-0.11007 -0.0881,-0.11007 -0.0601,0 -0.0881,-0.0294 -0.0881,-0.0923 0,-0.0561 -0.0357,-0.1016 -0.0905,-0.11615 -0.0558,-0.0145 -0.10027,-0.0728 -0.11615,-0.15161 -0.014,-0.0706 -0.0603,-0.1524 -0.10266,-0.18229 -0.0423,-0.0296 -0.0847,-0.0934 -0.0939,-0.14156 -0.01,-0.0497 -0.0585,-0.0939 -0.11271,-0.1016 -0.0598,-0.009 -0.10133,-0.0503 -0.1098,-0.11033 -0.009,-0.0603 -0.0426,-0.0942 -0.091,-0.0902 -0.0537,0.004 -0.077,-0.0259 -0.077,-0.0992 0,-0.0579 -0.0249,-0.10557 -0.0553,-0.1061 -0.0421,-5.2e-4 -0.0426,-0.009 -0.002,-0.0341 0.22516,-0.14314 -3.00646,-0.25267 -3.33851,-0.11324 m 20.46155,-0.0413 c -0.1651,0.0577 -0.17648,0.13732 -0.17648,1.23137 0,0.63289 0.0172,1.08003 0.0421,1.09564 0.0233,0.0143 0.0317,0.0532 0.019,0.0863 -0.0368,0.096 0.0558,0.12303 0.40534,0.11774 l 0.32729,-0.005 v 2.60191 2.60192 h -0.28178 c -0.26617,0 -0.28363,0.006 -0.31035,0.11324 -0.0333,0.13308 -0.0286,1.74889 0.006,1.92616 l 0.0233,0.12118 h 2.41882 c 2.2598,0 2.4212,-0.005 2.45983,-0.0773 0.0606,-0.11297 0.0601,-1.95209 -5.3e-4,-2.02512 -0.0328,-0.0394 -0.1614,-0.0582 -0.39582,-0.0582 h -0.34739 v -0.99219 -0.99218 h 0.99218 0.99219 v 0.99218 0.99219 h -0.28654 -0.28681 v 1.0803 1.08029 h 2.35929 2.35929 v -1.08029 -1.0803 h -0.28681 -0.28654 l -0.006,-3.79254 c -0.006,-4.30847 0.003,-3.87138 -0.0825,-3.92562 -0.11536,-0.0728 -4.16799,-0.0556 -4.2291,0.018 -0.0357,0.0429 -0.0497,0.41646 -0.0471,1.25915 0.005,1.38589 -0.0354,1.28482 0.49318,1.24698 l 0.29924,-0.0214 v 0.62336 0.62336 h -0.99219 -0.99218 v -1.86954 c 0,-1.63592 -0.009,-1.87273 -0.0675,-1.89522 -0.0831,-0.032 -4.03014,-0.0286 -4.12168,0.003 m 10.39204,-0.002 c -0.0161,0.0164 -0.0294,0.55219 -0.0294,1.19063 v 1.16126 h 0.28681 0.28654 l 0.006,2.88845 c 0.006,3.36206 -0.008,2.98794 0.11562,3.04218 0.0825,0.0362 0.0992,0.0781 0.0992,0.25003 0,0.24527 0.0325,0.34581 0.11192,0.34581 0.0323,0 0.0648,0.0447 0.0725,0.0992 0.009,0.0638 0.0495,0.10425 0.11324,0.11324 0.0614,0.009 0.10134,0.0468 0.10478,0.0992 0.003,0.0468 0.0106,0.10504 0.0167,0.12939 0.006,0.0241 0.0135,0.0659 0.0164,0.0929 0.003,0.0267 0.0352,0.0373 0.0717,0.0233 0.0362,-0.0138 0.0661,-0.006 0.0661,0.0175 0,0.0236 0.0497,0.0426 0.11033,0.0426 0.0812,0 0.11007,0.0236 0.11007,0.0894 0,0.0532 0.0421,0.1053 0.10424,0.12885 0.0574,0.0217 0.11642,0.0709 0.13097,0.10927 0.0201,0.0524 0.091,0.0693 0.28972,0.0693 0.21907,0 0.26749,0.014 0.28945,0.0833 0.0145,0.0458 0.0794,0.0934 0.14394,0.10583 0.19711,0.0378 1.79202,0.0265 1.88595,-0.0132 0.0487,-0.0206 0.072,-0.0389 0.0521,-0.0405 -0.13653,-0.0116 0.13229,-0.13546 0.29395,-0.13546 0.23521,0 0.33761,-0.0331 0.33761,-0.10928 0,-0.0312 0.0796,-0.0685 0.18071,-0.0847 0.12832,-0.0206 0.18759,-0.0542 0.20373,-0.11588 0.0145,-0.0558 0.0603,-0.087 0.12779,-0.087 0.0738,0 0.10504,-0.0249 0.10504,-0.0836 0,-0.0603 0.0463,-0.0952 0.16536,-0.12409 0.11457,-0.0278 0.16352,-0.0632 0.15928,-0.11457 -0.005,-0.0654 0.0638,-0.0971 0.17251,-0.0794 0.0185,0.003 0.0529,-0.0442 0.0759,-0.10504 0.0233,-0.0609 0.0706,-0.11059 0.10557,-0.11059 0.0349,0 0.0736,-0.0249 0.086,-0.055 0.0122,-0.0304 0.0262,0.009 0.0312,0.0881 0.005,0.0789 0.0138,0.16324 0.0198,0.18732 0.006,0.0243 0.0135,0.0738 0.0167,0.11033 0.003,0.0365 0.0452,0.0661 0.0937,0.0661 0.0796,0 0.0881,0.0294 0.0881,0.30692 v 0.30692 l 1.93437,0.003 c 1.60258,0.002 1.94283,-0.008 1.98517,-0.059 0.036,-0.0434 0.0476,-0.35534 0.0392,-1.07024 l -0.0119,-1.00859 -0.29766,-0.013 -0.29765,-0.0132 v -2.68791 -2.6879 h 0.25929 c 0.17251,0 0.27675,-0.0212 0.31221,-0.064 0.0603,-0.0728 0.0503,-2.16588 -0.0109,-2.26033 -0.0571,-0.0884 -5.00301,-0.0577 -5.0599,0.0315 -0.0249,0.0386 -0.0378,0.52123 -0.0315,1.1684 l 0.0109,1.10252 0.47387,0.0124 0.47414,0.0127 v 2.00474 c 0,2.02063 -8e-4,2.0328 -0.14341,2.01031 -0.018,-0.003 -0.0331,0.0344 -0.0331,0.0828 0,0.0487 -0.0291,0.0884 -0.0646,0.0884 -0.0357,0 -0.0902,0.0444 -0.12144,0.0992 -0.031,0.0545 -0.0863,0.0992 -0.12251,0.0992 -0.0365,0 -0.0725,0.0445 -0.0804,0.0992 -0.0109,0.077 -0.0429,0.0992 -0.14314,0.0992 -0.0712,0 -0.16906,0.0397 -0.21748,0.0881 -0.0484,0.0484 -0.12303,0.0884 -0.16537,0.0889 -0.16563,10e-4 -0.27569,0.0558 -0.27569,0.13679 0,0.0733 -0.0357,0.0831 -0.30851,0.0831 -0.27834,0 -0.30877,-0.009 -0.30877,-0.0873 0,-0.0556 -0.0386,-0.0971 -0.10609,-0.11404 -0.0582,-0.0148 -0.11589,-0.0648 -0.12806,-0.11112 -0.0122,-0.0466 -0.0537,-0.0844 -0.0923,-0.0844 -0.0635,0 -0.0704,-0.22437 -0.0704,-2.29315 v -2.29314 h 0.39687 0.39688 v -1.1639 c 0,-1.0205 -0.008,-1.16708 -0.0698,-1.19063 -0.0955,-0.0365 -4.80298,-0.0339 -4.83976,0.003 m 11.30221,0.0619 c -0.0548,0.10213 -0.0426,2.39316 0.0127,2.44846 0.0183,0.0183 0.19208,0.0294 0.38602,0.0246 l 0.35243,-0.009 v 2.6027 2.60297 h -0.32227 c -0.50508,0 -0.48207,-0.0537 -0.46434,1.08268 0.008,0.53234 0.031,0.99245 0.0505,1.02288 0.0278,0.0429 0.56833,0.055 2.45639,0.055 h 2.42094 l 0.0259,-0.14314 c 0.014,-0.0788 0.0201,-0.56012 0.013,-1.06945 l -0.013,-0.92604 -0.29766,-0.013 -0.29765,-0.0132 10e-4,-0.53816 c 0.001,-0.42333 0.0119,-0.51938 0.0513,-0.44979 0.0273,0.0484 0.0765,0.10398 0.10874,0.12329 0.0325,0.0196 0.059,0.0638 0.059,0.0982 0,0.0347 0.0497,0.0955 0.11033,0.13521 0.0606,0.0397 0.11033,0.0974 0.11033,0.12832 0,0.0307 0.0397,0.0661 0.0881,0.0789 0.0526,0.0138 0.0881,0.0603 0.0881,0.11536 0,0.0611 0.0283,0.0923 0.0833,0.0923 0.0609,0 0.0913,0.0431 0.11324,0.15928 0.0196,0.10477 0.059,0.16695 0.1151,0.1815 0.0468,0.0124 0.0852,0.0585 0.0852,0.10239 0,0.0442 0.0397,0.0926 0.0884,0.10822 0.0836,0.0265 0.0884,0.0691 0.0937,0.84085 0.003,0.44688 0.0103,0.83264 0.0164,0.85672 0.006,0.0243 0.0135,0.064 0.0167,0.0884 0.009,0.0701 4.15687,0.0593 4.25318,-0.0111 0.068,-0.0497 0.0744,-0.15478 0.0638,-1.06945 l -0.0119,-1.01415 -0.18468,-0.0135 c -0.15029,-0.0109 -0.18733,-0.031 -0.19844,-0.10848 -0.008,-0.0521 -0.0534,-0.10557 -0.10213,-0.11879 -0.0484,-0.013 -0.0881,-0.0534 -0.0881,-0.09 0,-0.0365 -0.0447,-0.0725 -0.0992,-0.0802 -0.0624,-0.009 -0.0992,-0.0447 -0.0992,-0.0963 0,-0.0452 -0.0376,-0.0942 -0.0833,-0.10875 -0.046,-0.0145 -0.0937,-0.0654 -0.1061,-0.11324 -0.0135,-0.0513 -0.0603,-0.0865 -0.11509,-0.0865 -0.0691,0 -0.0923,-0.0278 -0.0923,-0.11033 0,-0.0606 -0.0198,-0.11033 -0.0442,-0.11033 -0.0241,0 -0.0392,-0.0246 -0.0331,-0.055 0.006,-0.0304 -0.0143,-0.05 -0.045,-0.0437 -0.0315,0.006 -0.068,-0.0471 -0.0828,-0.12145 -0.018,-0.0908 -0.0524,-0.13255 -0.10901,-0.13255 -0.0455,0 -0.0828,-0.0296 -0.0828,-0.0659 0,-0.036 -0.0397,-0.0905 -0.0881,-0.12065 -0.0487,-0.0304 -0.0884,-0.0807 -0.0884,-0.11192 0,-0.031 -0.0495,-0.0754 -0.11007,-0.0984 -0.0675,-0.0257 -0.11033,-0.0765 -0.11033,-0.13124 0,-0.0579 -0.0291,-0.0892 -0.0831,-0.0892 -0.0468,0 -0.0934,-0.0399 -0.10689,-0.0915 -0.0132,-0.0503 -0.0651,-0.10212 -0.11536,-0.11535 -0.0519,-0.0135 -0.0915,-0.0601 -0.0915,-0.1069 0,-0.0519 -0.0312,-0.0831 -0.0826,-0.0831 -0.0553,0 -0.091,-0.041 -0.10742,-0.12356 -0.0138,-0.0677 -0.12515,-0.22542 -0.24818,-0.3503 -0.12277,-0.12462 -0.22331,-0.24765 -0.22331,-0.27332 0,-0.0257 -0.0299,-0.0466 -0.0661,-0.0466 -0.0609,0 -0.0825,-0.0463 -0.055,-0.11642 0.006,-0.0153 -0.0336,-0.0444 -0.0884,-0.0646 -0.1262,-0.0468 -0.13388,-0.2151 -0.0109,-0.24738 0.0487,-0.0127 0.0881,-0.0601 0.0881,-0.1061 0,-0.0511 0.031,-0.0831 0.0812,-0.0831 0.0445,0 0.10372,-0.0495 0.13124,-0.11007 0.0275,-0.0606 0.0804,-0.11033 0.11721,-0.11033 0.0378,0 0.0672,-0.0386 0.0672,-0.0881 0,-0.0564 0.0294,-0.0884 0.0812,-0.0884 0.0444,0 0.10371,-0.0495 0.13123,-0.11006 0.0275,-0.0606 0.0804,-0.11034 0.11721,-0.11034 0.0378,0 0.0672,-0.0386 0.0672,-0.0881 0,-0.0564 0.0294,-0.0884 0.0812,-0.0884 0.0444,0 0.10371,-0.0495 0.13123,-0.11006 0.0275,-0.0606 0.0804,-0.11033 0.11721,-0.11033 0.0378,0 0.0672,-0.0386 0.0672,-0.0881 0,-0.0579 0.0294,-0.0884 0.0852,-0.0884 0.0468,0 0.0971,-0.0376 0.11166,-0.0836 0.0347,-0.10875 0.22463,-0.14262 0.76385,-0.13653 0.68024,0.008 0.60484,0.16457 0.60484,-1.25704 0,-1.19194 -0.003,-1.2266 -0.0884,-1.24089 -0.16219,-0.027 -3.94706,-0.0206 -3.99124,0.007 -0.0262,0.0161 -0.0437,0.36777 -0.0437,0.88424 0,0.83132 -0.003,0.85725 -0.0892,0.85725 -0.0548,0 -0.10557,0.0426 -0.13124,0.11006 -0.023,0.0609 -0.0722,0.11034 -0.10927,0.11034 -0.0378,0 -0.0672,0.0386 -0.0672,0.0881 0,0.0571 -0.0294,0.0884 -0.0833,0.0884 -0.0521,0 -0.0937,0.0413 -0.11112,0.11006 -0.0151,0.0609 -0.0587,0.11033 -0.0971,0.11033 -0.0381,0 -0.0796,0.0397 -0.0923,0.0881 -0.0127,0.0487 -0.0513,0.0884 -0.0855,0.0884 -0.0344,0 -0.0804,0.0445 -0.1024,0.0992 -0.0251,0.0624 -0.041,-0.40137 -0.0426,-1.25571 l -0.003,-1.35467 -0.1434,-0.0408 c -0.33126,-0.0945 -4.12697,-0.0572 -4.17963,0.0413 m -46.64524,2.11138 c 0.1225,0.002 0.16933,0.0241 0.19023,0.0905 0.0156,0.0484 0.0553,0.0881 0.0884,0.0881 0.0331,0 0.0728,0.0397 0.0881,0.0884 0.0254,0.0799 0.0743,0.10768 0.16537,0.0934 0.0183,-0.003 0.0331,0.14182 0.0331,0.32173 0,0.36566 0.0249,0.46673 0.11483,0.46673 0.0444,0 0.0616,0.0614 0.0616,0.2204 v 0.22066 h -1.30096 -1.30096 v -0.11033 c 0,-0.0788 0.0238,-0.11033 0.0836,-0.11033 0.0987,0 0.12436,-0.0913 0.13467,-0.47969 0.007,-0.2593 0.081,-0.44106 0.15135,-0.37069 0.0151,0.0151 0.0273,-0.0175 0.0273,-0.0722 0,-0.0627 0.0328,-0.10847 0.0884,-0.12276 0.0995,-0.0262 0.11562,-0.0826 0.0331,-0.11589 -0.0304,-0.0124 -5.3e-4,-0.0238 0.0661,-0.0259 0.0667,-0.002 0.12118,-0.0243 0.12118,-0.05 0,-0.0257 0.0198,-0.0344 0.0442,-0.0196 0.0241,0.0151 0.0439,-0.002 0.0439,-0.0386 0,-0.0754 0.16854,-0.0984 0.61753,-0.0849 0.15743,0.005 0.35957,0.01 0.449,0.0111 m 20.01203,4.25768 c 0,0.86413 -0.004,0.90408 -0.0852,0.90408 -0.0468,0 -0.0979,0.0397 -0.11325,0.0881 -0.0209,0.0659 -0.0667,0.0881 -0.18018,0.0881 -0.11985,0 -0.16324,0.0238 -0.20267,0.11033 -0.0619,0.13573 -1.02764,0.17648 -1.07791,0.0455 -0.0138,-0.0357 -0.0923,-0.0894 -0.17515,-0.11906 -0.12753,-0.0463 -0.15002,-0.0754 -0.15002,-0.19341 0,-0.19368 -0.0849,-0.41646 -0.15875,-0.41646 -0.0942,0 -0.0773,-0.20611 0.019,-0.23151 0.0445,-0.0116 0.0841,-0.0487 0.0878,-0.0823 0.004,-0.0336 0.0154,-0.1106 0.0257,-0.17145 0.0103,-0.0606 0.0204,-0.15663 0.0225,-0.21352 0.002,-0.0643 0.037,-0.11192 0.0918,-0.12647 0.0489,-0.0127 0.0884,-0.0601 0.0884,-0.1061 0,-0.0627 0.032,-0.0831 0.13044,-0.0831 0.0725,0 0.16616,-0.0381 0.21034,-0.0855 0.0564,-0.0603 0.14896,-0.0886 0.31538,-0.0963 0.21934,-0.01 0.35799,-0.0773 0.35799,-0.17409 0,-0.0225 0.17859,-0.041 0.39687,-0.041 h 0.39688 v 0.90408 m 42.11293,0 c 0,0.88794 -0.002,0.90408 -0.0923,0.90408 -0.0553,0 -0.1016,0.0355 -0.11536,0.0881 -0.014,0.0532 -0.0606,0.0884 -0.11721,0.0889 -0.1815,10e-4 -0.29263,0.0529 -0.29263,0.13679 0,0.0765 -0.0397,0.0831 -0.50694,0.0831 -0.42518,0 -0.5072,-0.0109 -0.5072,-0.0672 0,-0.037 -0.0495,-0.0863 -0.11034,-0.10927 -0.0606,-0.023 -0.11006,-0.0656 -0.11006,-0.0945 0,-0.0288 -0.013,-0.0397 -0.0288,-0.0238 -0.0934,0.0934 -0.14499,-0.15584 -0.14632,-0.70776 l -0.001,-0.58341 0.11033,-0.0278 c 0.0688,-0.0172 0.11007,-0.0587 0.11007,-0.11086 0,-0.0664 0.0325,-0.0836 0.15849,-0.0836 0.12144,0 0.16404,-0.0206 0.1815,-0.0881 0.0175,-0.0664 0.0624,-0.0894 0.18336,-0.0929 0.0881,-0.003 0.18997,-0.009 0.22648,-0.0145 0.0362,-0.005 0.10081,-0.0132 0.14314,-0.0172 0.0452,-0.005 0.0773,-0.0442 0.0773,-0.0958 0,-0.082 0.0294,-0.0884 0.41883,-0.0884 h 0.4191 v 0.90408"/>
                        </g>
                    </svg>