<svg version="1.0" xmlns="http://www.w3.org/2000/svg"
                         viewBox="0 0 590.000000 125.000000"
                         preserveAspectRatio="xMidYMid meet">
                        <g transform="translate(0.000000,125.000000) scale(0.100000,-0.100000)" stroke="none">
                            <path d="M10 794 l0 -454 90 0 90 0 0 160 0 160 76 0 c97 0 200 24 257 60 183
116 163 388 -37 485 -67 32 -170 46 -338 44 l-138 -1 0 -454z m375 280 c28
-14 47 -34 63 -67 29 -56 24 -93 -19 -142 -41 -47 -86 -59 -201 -56 l-38 1 0
146 0 146 78 -4 c52 -2 90 -10 117 -24z"/>
                            <path d="M2673 1240 c-82 -9 -179 -49 -234 -98 -82 -72 -131 -217 -133 -397
-3 -282 108 -419 339 -419 114 0 176 23 246 93 74 74 93 130 87 250 -7 129
-58 210 -166 262 -70 33 -193 38 -257 10 -26 -11 -51 -21 -55 -21 -16 0 15 72
47 109 48 57 97 73 237 80 l120 6 23 60 c13 32 23 63 23 67 0 10 -178 8 -277
-2z m59 -446 c105 -54 109 -250 5 -315 -44 -28 -149 -23 -193 9 -90 63 -92
228 -3 294 50 38 130 43 191 12z"/>
                            <path d="M5632 1037 c-45 -116 -146 -383 -226 -592 -79 -209 -147 -388 -151
-398 -6 -15 1 -17 83 -17 l90 0 32 83 c248 643 428 1127 421 1131 -3 2 -43 4
-87 5 l-82 1 -80 -213z"/>
                            <path d="M872 964 c-43 -11 -106 -37 -120 -49 -2 -2 6 -31 18 -64 l22 -60 50
25 c121 61 248 31 248 -58 l0 -28 -72 0 c-135 0 -249 -39 -305 -104 -56 -62
-52 -162 8 -230 71 -82 236 -97 334 -30 44 30 45 30 45 -1 0 -25 1 -25 83 -25
l82 0 -5 227 c-5 226 -5 229 -33 286 -34 69 -79 102 -156 117 -72 13 -135 12
-199 -6z m221 -388 c-5 -81 -65 -129 -155 -123 -67 4 -98 26 -98 69 0 61 77
98 195 95 l60 -2 -2 -39z"/>
                            <path d="M3937 970 c-79 -20 -155 -71 -192 -130 -83 -131 -67 -318 35 -420
100 -100 282 -126 421 -61 54 25 119 78 119 95 0 7 -27 30 -61 51 l-61 37 -14
-21 c-43 -61 -180 -82 -245 -38 -35 24 -79 81 -79 103 0 11 45 14 239 14 l239
0 5 23 c9 35 -9 143 -33 192 -47 97 -141 154 -263 160 -39 3 -89 0 -110 -5z
m169 -136 c33 -16 53 -43 68 -91 l7 -23 -155 0 c-146 0 -156 1 -156 19 0 24
36 69 74 92 39 24 116 25 162 3z"/>
                            <path d="M4748 967 c-26 -8 -62 -25 -81 -40 -37 -28 -47 -26 -47 10 0 22 -3
23 -80 23 l-80 0 0 -465 0 -466 83 3 82 3 3 178 c1 98 6 177 10 175 109 -56
129 -62 202 -62 100 1 164 29 229 100 58 63 82 127 83 217 1 112 -22 174 -89
241 -76 77 -210 112 -315 83z m167 -147 c94 -58 114 -220 36 -303 -39 -43 -74
-57 -136 -57 -93 0 -154 43 -183 129 -33 95 12 200 103 243 50 24 131 18 180
-12z"/>
                            <path d="M1420 650 l0 -310 85 0 85 0 0 181 c0 101 4 179 9 177 5 -1 48 -51
96 -110 54 -67 94 -108 105 -108 12 0 51 41 107 112 l88 112 3 -182 2 -182 90
0 90 0 0 310 0 310 -78 0 -78 0 -109 -130 c-59 -71 -111 -130 -114 -130 -3 0
-56 58 -116 130 l-110 130 -77 0 -78 0 0 -310z"/>
                            <path d="M3195 833 c-26 -70 -79 -208 -116 -307 -38 -98 -69 -180 -69 -182 0
-2 42 -4 93 -4 l92 0 69 200 c38 111 71 198 75 195 3 -3 35 -92 72 -198 l66
-192 95 -3 95 -3 -62 163 c-34 90 -87 228 -116 308 l-55 145 -95 3 -96 3 -48
-128z"/>
                        </g>
                    </svg>