<svg
   xmlns:dc="http://purl.org/dc/elements/1.1/"
   xmlns:cc="http://creativecommons.org/ns#"
   xmlns:rdf="http://www.w3.org/1999/02/22-rdf-syntax-ns#"
   xmlns="http://www.w3.org/2000/svg"
   viewBox="0 0 142.18668 39.52"
   xml:space="preserve"
   id="svg2"
   version="1.1"><metadata
     id="metadata8"><rdf:RDF><cc:Work
         rdf:about=""><dc:format>image/svg+xml</dc:format><dc:type
           rdf:resource="http://purl.org/dc/dcmitype/StillImage" /></cc:Work></rdf:RDF></metadata><defs
     id="defs6" /><g
     transform="matrix(1.3333333,0,0,-1.3333333,0,39.52)"
     id="g10"><g
       transform="scale(0.1)"
       id="g12"><path
         id="path14"
         style="fill-opacity:1;fill-rule:nonzero;stroke:none"
         d="m 264.84,264.16 c -78.762,0 -155.36,0 -232.6212,0 0,-77.5 0,-154.34 0,-231.4295 77.5112,0 154.2932,0 232.1912,0 -2.238,4.8906 -3.922,8.8203 -5.808,12.6406 -14.973,30.2695 -29.723,60.6489 -45.141,90.6879 -4.473,8.703 -4.441,16.043 0.059,24.582 9.652,18.308 18.589,36.988 27.769,55.55 7.672,15.528 15.262,31.079 23.551,47.969 z m 52.351,32.281 c -4.402,-9.191 -8.152,-17.293 -12.132,-25.293 -18.289,-36.718 -36.43,-73.519 -55.11,-110.039 -4.59,-8.968 -4.73,-16.48 -0.09,-25.578 C 270.969,94.1484 291.469,52.4492 312.16,10.8594 313.738,7.67969 315.09,4.37891 317.07,0 210.922,0 105.871,0 0,0 c 0,98.5508 0,197.172 0,296.441 105.398,0 210.551,0 317.191,0" /><path
         id="path16"
         style="fill-opacity:1;fill-rule:nonzero;stroke:none"
         d="m 107.781,156.07 h 23.828 c 8.02,0 13.692,3.059 17.02,9.192 3.332,6.129 3.332,12.258 0,18.379 -3.328,6.129 -9,9.187 -17.02,9.187 H 107.781 Z M 152.27,70.0586 115.051,121.121 h -7.262 V 70.0586 H 66.7188 V 230.73 h 64.2222 c 17.7,0 31.957,-4.308 42.778,-12.929 10.82,-8.621 16.461,-21.942 16.91,-39.942 0,-28.449 -10.52,-45.988 -31.551,-52.648 L 202.879,70.0586 H 152.27" /><path
         id="path18"
         style="fill-opacity:1;fill-rule:nonzero;stroke:none"
         d="m 416.012,151.371 h 17.379 c 5.847,0 9.988,2.238 12.41,6.699 2.429,4.469 2.429,8.942 0,13.41 -2.43,4.469 -6.563,6.7 -12.41,6.7 h -17.379 z m 32.449,-62.7421 -27.152,37.2501 h -5.297 V 88.6289 H 386.051 V 205.82 h 46.847 c 12.911,0 23.313,-3.14 31.204,-9.429 7.886,-6.289 12,-16 12.328,-29.129 0,-20.75 -7.668,-33.551 -23.008,-38.403 l 31.949,-40.2184 h -36.91 v -0.0117" /><path
         id="path20"
         style="fill-opacity:1;fill-rule:nonzero;stroke:none"
         d="m 519.629,205.82 v -77.961 c 0,-3.539 1.16,-6.531 3.48,-9.019 2.313,-2.481 5.102,-3.988 8.36,-4.551 3.25,-0.551 6.543,-0.551 9.851,0 3.309,0.563 6.121,2.07 8.442,4.551 2.308,2.488 3.476,5.488 3.476,9.019 v 77.961 h 29.953 v -77.961 c 0,-5.961 -1.07,-11.398 -3.222,-16.3 -2.149,-4.911 -5.039,-8.969 -8.688,-12.1684 -3.64,-3.1992 -7.812,-5.9414 -12.5,-8.1914 -4.691,-2.2695 -9.601,-3.6094 -14.73,-4.0586 -5.129,-0.4414 -10.289,-0.4414 -15.481,0 -5.191,0.4492 -10.121,1.8008 -14.808,4.0586 -4.692,2.2617 -8.832,4.9922 -12.41,8.1914 -3.59,3.1874 -6.43,7.2574 -8.532,12.1684 -2.101,4.902 -3.14,10.339 -3.14,16.3 v 77.961 h 29.949" /><path
         id="path22"
         style="fill-opacity:1;fill-rule:nonzero;stroke:none"
         d="M 593.301,108.16 612,125.711 c 2.211,-2.762 4.988,-5.082 8.359,-6.949 3.371,-1.871 6.711,-3.102 10.02,-3.641 3.312,-0.562 6.461,-0.691 9.43,-0.41 2.98,0.269 5.461,1.18 7.453,2.719 1.976,1.539 3.027,3.539 3.136,5.968 0.114,3.09 -1.828,5.622 -5.796,7.614 -3.961,1.988 -8.711,3.367 -14.231,4.136 -10.262,1.661 -18.851,5.653 -25.742,12 -6.891,6.34 -10.34,14.762 -10.34,25.243 0,10.918 4.16,19.5 12.492,25.738 8.328,6.242 18.289,9.351 29.879,9.351 16.442,0 29.789,-6.242 40.059,-18.699 l -19.367,-14.902 c -3.973,4.191 -8.614,7.031 -13.911,8.531 -5.3,1.488 -9.91,1.379 -13.832,-0.332 -3.918,-1.707 -5.929,-4.777 -6.039,-9.187 0.328,-5.071 5.52,-8.719 15.559,-10.922 4.75,-0.879 8.891,-1.821 12.41,-2.809 3.539,-1 7.231,-2.512 11.09,-4.558 3.859,-2.043 6.98,-4.411 9.359,-7.114 2.371,-2.707 4.282,-6.238 5.711,-10.597 1.43,-4.36 2.031,-9.301 1.821,-14.813 -0.329,-7.18 -2.899,-13.519 -7.7,-19.027 -4.8,-5.5315 -10.601,-9.5822 -17.379,-12.1721 -6.793,-2.5976 -13.882,-3.8984 -21.269,-3.8984 -7.184,0 -14.301,1.8281 -21.363,5.4687 -7.059,3.6406 -13.219,8.8708 -18.508,15.7108" /><path
         id="path24"
         style="fill-opacity:1;fill-rule:nonzero;stroke:none"
         d="m 720.25,114.621 h 17.219 c 5.621,0 9.57,2.008 11.84,6.039 2.261,4.02 2.242,8.031 -0.079,12 -2.332,3.981 -6.25,5.961 -11.761,5.961 H 720.25 Z m 0,45.359 h 17.219 c 4.519,0 7.75,1.739 9.691,5.211 1.918,3.481 1.949,6.95 0.078,10.43 -1.867,3.481 -5.129,5.207 -9.769,5.207 H 720.25 Z m 55.289,10.09 c -0.117,-3.199 -1.187,-6.679 -3.23,-10.429 -2.039,-3.75 -4.989,-6.621 -8.86,-8.61 7.18,-3.64 11.973,-8.5 14.403,-14.57 2.418,-6.07 3.136,-11.922 2.148,-17.539 -3.199,-20.2032 -17.102,-30.2931 -41.711,-30.2931 h -47.84 V 205.82 h 47.012 c 11.469,0 20.769,-3.23 27.891,-9.679 7.117,-6.45 10.519,-15.141 10.187,-26.071" /><path
         id="path26"
         style="fill-opacity:1;fill-rule:nonzero;stroke:none"
         d="m 825.031,138.461 h 17.539 l -8.109,34.258 h -0.832 z m 22.18,67.359 41.879,-117.1911 h -31.781 l -7.618,23.5121 H 818.41 L 811.121,88.6289 H 779.328 L 820.219,205.82 h 26.992" /><path
         id="path28"
         style="fill-opacity:1;fill-rule:nonzero;stroke:none"
         d="m 887.602,108.16 18.699,17.551 c 2.211,-2.762 4.988,-5.082 8.359,-6.949 3.371,-1.871 6.711,-3.102 10.02,-3.641 3.308,-0.562 6.461,-0.691 9.429,-0.41 2.981,0.269 5.461,1.18 7.45,2.719 1.98,1.539 3.031,3.539 3.14,5.968 0.11,3.09 -1.828,5.622 -5.801,7.614 -3.957,1.988 -8.707,3.367 -14.226,4.136 -10.262,1.661 -18.852,5.653 -25.742,12 -6.891,6.34 -10.34,14.762 -10.34,25.243 0,10.918 4.16,19.5 12.488,25.738 8.332,6.242 18.293,9.351 29.883,9.351 16.437,0 29.789,-6.242 40.059,-18.699 l -19.372,-14.902 c -3.968,4.191 -8.609,7.031 -13.91,8.531 -5.297,1.488 -9.91,1.379 -13.828,-0.332 -3.922,-1.707 -5.93,-4.777 -6.039,-9.187 0.328,-5.071 5.52,-8.719 15.559,-10.922 4.75,-0.879 8.89,-1.821 12.41,-2.809 3.539,-1 7.23,-2.512 11.09,-4.558 3.859,-2.043 6.98,-4.411 9.359,-7.114 2.371,-2.707 4.281,-6.238 5.711,-10.597 1.43,-4.36 2.031,-9.301 1.82,-14.813 -0.332,-7.18 -2.898,-13.519 -7.699,-19.027 -4.801,-5.5315 -10.601,-9.5822 -17.383,-12.1721 -6.789,-2.5976 -13.879,-3.8984 -21.269,-3.8984 -7.18,0 -14.297,1.8281 -21.36,5.4687 -7.058,3.6406 -13.211,8.8708 -18.507,15.7108" /><path
         id="path30"
         style="fill-opacity:1;fill-rule:nonzero;stroke:none"
         d="m 1014.73,178.02 v -18.211 h 47.51 v -25.661 h -47.51 v -17.539 h 51.65 V 88.6289 H 984.77 V 205.82 h 81.61 v -27.808 l -51.65,0.008 v 0" /></g></g>
                    </svg>