<svg xmlns="http://www.w3.org/2000/svg" viewBox="0 0 100 100">
                        <path d="M-.1 43.5l7.5-12.9 7.5 12.9zM22.3 56.5l-7.4-13h14.9zM14.9 69.4L7.4 56.5 0 69.4z"/>
                        <path d="M22.3 56.5l-7.4 12.9-7.5-12.9zM14.9 43.5l-7.5 13-7.4-13zM67.4 69.3H56.6V43.5H67c5 0 8 2.8 8 7.3 0 2.9-1.9 4.7-3.2 5.3 1.6.7 3.6 2.4 3.6 5.8 0 4.8-3.3 7.4-8 7.4M66.6 48h-4.9v5.9h4.9c2.1 0 3.3-1.2 3.3-3 .1-1.7-1.1-2.9-3.3-2.9m.3 10.4h-5.3v6.4h5.3c2.3 0 3.4-1.5 3.4-3.2 0-1.7-1.1-3.2-3.4-3.2M45 59.6h-5v9.7h-5V43.5h10c5.3 0 8.5 3.7 8.5 8.1 0 4.3-3.2 8-8.5 8M44.7 48H40v7h4.7c2.3 0 3.7-1.4 3.7-3.5.1-2.1-1.4-3.5-3.7-3.5M94.1 69.3l-6.6-11.7-3.3 4v7.7h-5.1V43.5h5.1v11.2l9.1-11.2h6.1l-8.6 10.3 9.2 15.5z"/>
                    </svg>