<svg height="47px" class="block_center" xmlns="http://www.w3.org/2000/svg" viewBox="0 0 100 100">
                        <path d="M51.9 13H85c.8.1 1.7.2 2.3.9.5.7.6 1.6.6 2.5 0 .8-.1 1.8-.8 2.4-.7.5-1.6.6-2.4.7H75c-1.1 0-2.3.5-3 1.5-.3.4-.4.9-.3 1.4v8.9c0 .5 0 .9.3 1.3.3.5.7.8 1.2 1.2.8.7 1.7 1.2 2.5 1.9.7.7 1.2 1.7 1.2 2.7v18.8c0 1-.5 1.9-1.2 2.5-.6.5-1.4.6-2.2.6H69c-1.1 0-2.2 0-3.1-.6-.8-.5-.9-1.5-1-2.3V22.7c0-.5.1-1.1-.2-1.5-.3-.7-1-1.2-1.7-1.4-.8-.3-1.6-.2-2.4-.2h-8.4c-.9 0-1.8-.1-2.5-.7-.7-.5-.8-1.4-.8-2.2 0-.9.1-1.8.6-2.5.6-.9 1.6-1.1 2.4-1.2m14.8 1.3c-.2.1-.2.4-.2.6v2.7c0 .2.2.4.4.4h3c.2 0 .4-.2.4-.4v-2.9c0-.2-.1-.5-.4-.4h-3.2m7.4 0c-.2.1-.2.3-.2.5v2.8c0 .2.2.4.4.4h2.8c.2 0 .4 0 .5-.1.1-.1.1-.3.1-.5v-2.8c0-.2-.2-.3-.3-.3h-2.7c-.3 0-.5-.1-.6 0m4.9 0c-.2.1-.2.3-.2.5v2.8c0 .2.2.4.4.4h3.1c.2 0 .4-.2.3-.4v-2.9c0-.2-.1-.5-.3-.4H79M66.7 36c-.2.1-.2.4-.2.6v2.7c0 .2.2.4.4.4h2.9c.2 0 .5-.1.5-.4v-2.9c0-.2-.1-.5-.4-.5h-2.7c-.1 0-.3 0-.5.1m.1 4.7c-.2.1-.2.4-.2.6v2.8c0 .2.2.4.4.4h3c.2 0 .4-.2.4-.4v-2.9c0-.3-.2-.4-.5-.4-1.1-.1-2.1-.1-3.1-.1m5 0c-.2.1-.3.3-.2.5v2.9c0 .2.2.4.4.3h2.9c.3 0 .5-.2.4-.4v-2.9c0-.2-.2-.4-.4-.4h-3.1m-5 4.9c-.2.1-.2.3-.2.5v2.6c0 .2 0 .4.1.6.1.1.3.1.5.1H70c.2 0 .4-.2.3-.4v-2.4-.7c-.1-.3-.5-.2-.7-.2-1-.1-1.9-.2-2.8-.1m4.9.1c-.1.1-.1.3-.1.5v2.9c0 .2.2.4.4.4h3c.2 0 .4-.3.3-.5v-2.9c0-.2-.2-.4-.4-.3h-3.1c0-.2-.1-.1-.1-.1m-5 4.8c-.2.1-.2.4-.2.6v2.7c0 .2.1.4.4.4H70c.2 0 .4-.2.3-.4v-3c0-.3-.2-.5-.5-.4-1 .1-2 0-3.1.1m5.1 0c-.1.1-.2.2-.2.4v3c0 .2.2.4.4.4h3c.2 0 .5-.2.4-.4V51c0-.2-.2-.5-.4-.4-1.1-.1-2.2-.2-3.2-.1m-5.1 4.8c-.2.1-.2.4-.2.6v2.7c0 .3.2.4.5.4h2.8c.2 0 .5-.2.5-.4v-2.9c0-.2-.1-.4-.3-.4h-3.3z"/>
                        <path d="M78.8 50.5H82c.2 0 .5.1.4.4V54c0 .2-.2.4-.3.4H79c-.2 0-.4-.1-.4-.4v-3.2c0-.1.1-.2.2-.3zM78.7 55.6s.1-.1.2-.1h3.2c.2 0 .5.1.4.3V59c0 .2-.1.4-.3.4H79c-.2 0-.4-.2-.4-.4v-3.1c0-.1 0-.3.1-.3zM84 55.5H87.4c.2 0 .4.2.4.4V59c0 .2-.2.4-.4.4h-3.2c-.2 0-.4-.2-.4-.4v-2.9c0-.3 0-.5.2-.6z"/>
                        <g>
                            <path d="M66.7 14.3c.2-.1.3 0 .5 0h2.7c.2 0 .4.2.4.4v2.9c0 .2-.2.4-.4.4h-3c-.2 0-.4-.2-.4-.4v-2.7c0-.2 0-.5.2-.6zM74.1 14.3c.2-.1.3 0 .5-.1h2.7c.2 0 .4.2.3.3v2.8c0 .2 0 .4-.1.5-.1.1-.3.1-.5.1h-2.8c-.2 0-.4-.2-.4-.4v-2.8c.1 0 .1-.3.3-.4zM79 14.3c.2-.1.3 0 .5 0h2.7c.2 0 .4.2.3.4v2.9c0 .2-.1.4-.3.4h-3.1c-.2 0-.4-.2-.4-.4v-2.8c.1-.2.1-.4.3-.5zM66.7 36c.2-.1.3 0 .5-.1h2.7c.2 0 .4.2.4.5v2.9c0 .2-.2.4-.5.4h-2.9c-.2 0-.4-.2-.4-.4v-2.7c0-.2 0-.5.2-.6zM66.8 40.7c1-.1 2.1 0 3.1 0 .2 0 .5.1.5.4V44c0 .2-.1.5-.4.4h-3c-.2 0-.4-.2-.4-.4v-2.8c-.1-.1-.1-.4.2-.5zM71.8 40.7h3.1c.2 0 .5.1.4.4V44c0 .3-.2.5-.4.4H72c-.2 0-.4-.1-.4-.3v-2.9c0-.2 0-.4.2-.5zM66.8 45.6c.9-.1 1.9 0 2.8 0 .2 0 .6-.1.7.2.1.2 0 .5 0 .7v2.4c0 .2-.1.4-.3.4h-2.8c-.2 0-.3 0-.5-.1s-.1-.4-.1-.6V46c-.1-.1 0-.4.2-.4zM71.7 45.7s.1-.1.2-.1H75c.2 0 .4.1.4.3v2.9c0 .2-.1.5-.3.5h-3c-.2 0-.4-.1-.4-.4V46c-.1 0-.2-.2 0-.3zM66.7 50.5c1-.1 2.1 0 3.1 0 .2 0 .5.2.5.4v3c0 .2-.1.4-.3.4h-3.1c-.2 0-.4-.2-.4-.4v-2.7c0-.3 0-.6.2-.7zM71.8 50.5c1-.1 2.1 0 3.1 0 .2 0 .5.2.4.4v2.9c0 .2-.2.4-.4.4h-3c-.2 0-.4-.2-.4-.4v-3c.1-.1.1-.2.3-.3zM66.7 55.3c.2-.1.4 0 .6 0h2.6c.2 0 .4.2.3.4v2.9c0 .3-.2.4-.5.4h-2.8c-.2 0-.5-.1-.5-.4v-2.7c.1-.2.1-.5.3-.6z"/>
                        </g>
                        <g>
                            <path d="M48.9 24.2c.6-.4 1.1-.8 1.6-1.2-13.1 11.7-26.3 23.3-39.4 34.9-.4.4-1 .8-1.1 1.4 0 .4.4.7.7.7 18.9 4.6 37.8 9.2 56.7 13.7 7.1 1.7 14.3 3.5 21.4 5.2.9.2 1.8.5 2.7.2.6-.2.9-.7.9-1.3-.7-15.1-1.5-30.2-2.2-45.4 2.3 16.1 4.6 32.3 6.9 48.4.2 1.2.4 2.5-.2 3.6-.4.8-1.5 1.1-2.3.9C70.4 79.2 46.1 73.1 21.8 67c-5.3-1.3-10.6-2.6-16-3.9-1.2-.3-2.4-.5-3.4-1-.4-.2-.8-.5-1-1-.1-.5.1-.9.4-1.2.4-.5 1-.9 1.6-1.3 15.2-11.5 30.4-22.9 45.5-34.4z"/>
                            <path d="M91 35.1c0 .2.1.4.1.5 1.5 9.6 3.1 19.2 4.6 28.7 1 6.1 1.9 12.2 2.9 18.2v1c-.2.9-.3 1.9-1.1 2.6-.8.8-2 .9-3 .7-2.6-.6-5.2-1.3-7.8-2C59.1 78 31.5 71 3.9 64.1c-.5-.1-1-.2-1.4-.5-.6-.5-.9-1.2-1.1-2v.2-.4c.5.9 1.4 1.3 2.3 1.5l90 22.8c.8.2 1.7.5 2.5.2.7-.2 1.1-.8 1.4-1.4.5-1.3.3-2.8.1-4.1-.9-5.8-1.7-11.6-2.6-17.4-1.4-9.3-2.7-18.6-4.1-27.9zM8.4 52.2c4-2.3 7.9-4.6 11.9-6.9-4 3.1-8 6.1-12 9.1-.3-.3-.7-.6-.7-1.1 0-.5.4-.9.8-1.1z"/>
                            <path d="M59.1 54.7C58 59.9 56.8 65 55.6 70.1c-1.3-.3-2.7-.7-4-1l7.5-14.4z"/>
                        </g>
                        <g>
                            <path d="M47.9 31c.7-.6 1.7-.8 2.6-.8.7 0 1.4.3 1.8.8.4.5.6 1.1.6 1.7v13h10.3V52H52.9v5.4c0 .8-.2 1.7-.9 2.2-.8.5-1.7.6-2.7.6h-5c-.8 0-1.7-.2-2.3-.8-.7-.6-1.1-1.5-1-2.4V38.2c0-1.3.9-2.3 1.8-3.1 1.7-1.3 3.4-2.7 5.1-4.1z"/>
                        </g>
                    </svg>