<svg class="block_center" height="25px" viewBox="0 0 50 26" version="1.1"
                         xmlns="http://www.w3.org/2000/svg"
                         xmlns:sketch="http://www.bohemiancoding.com/sketch/ns">

                        <defs></defs>
                        <g id="Welcome" stroke="none" stroke-width="1" fill-rule="evenodd" sketch:type="MSPage">
                            <g id="Group-40" sketch:type="MSLayerGroup">
                                <path d="M0,0.426947368 L15.919516,0.426947368 L15.919516,5.55031579 L10.7069311,5.55031579 L10.7069311,25.6168421 L4.93082353,25.6168421 L4.93082353,5.55031579 L0,5.55031579 L0,0.426947368 Z"
                                      id="Shape" sketch:type="MSShapeGroup"></path>
                                <path d="M38.9647763,5.31691789 L38.9647763,10.7220716 L40.2566521,10.7220716 C41.2118231,10.7220716 41.9768051,10.4758653 42.5417366,9.97349053 C43.1108945,9.47111579 43.3968823,8.77234526 43.3968823,7.86579368 C43.3968823,7.01189895 43.1771084,6.37147789 42.7375607,5.95022316 C42.298013,5.53039158 41.6513708,5.31691789 40.7708666,5.31691789 L38.9647763,5.31691789 L38.9647763,5.31691789 Z M33.0520145,0.426947368 L42.0106165,0.426947368 C44.3281035,0.426947368 46.096156,0.996210526 47.364082,2.29982316 C48.6700458,3.55789474 49.3082353,5.408 49.3082353,7.62954947 C49.3082353,8.82642526 49.0997319,10.0233011 48.6770899,11.1874442 C48.2572655,12.3885895 47.3739437,13.4303411 46.0243068,14.3212379 C44.67467,15.2050189 42.9812843,15.6518905 40.9441498,15.6518905 L38.9675939,15.6518905 L38.9675939,25.6481516 L33.0548321,25.6481516 L33.0548321,0.451141053 L33.0520145,0.426947368 L33.0520145,0.426947368 L33.0520145,0.426947368 Z"
                                      id="Shape" sketch:type="MSShapeGroup"></path>
                                <path d="M19.6894828,20.0110232 C18.7723496,19.2069389 18.3708397,17.1177432 19.4330799,15.4441095 C19.6387657,15.1182063 19.906439,14.7937263 20.1966532,14.4849011 L22.8268953,20.03664 C21.5505164,20.9218442 20.4276975,20.6357895 19.7232941,20.0110232 L19.6894828,20.0110232 L19.6894828,20.0110232 Z M31.4685158,25.6979621 L29.0679091,20.4337011 C30.5513826,18.2875789 31.4558365,15.4825347 31.4558365,10.7946526 L26.3686354,10.7946526 C26.3686354,11.6485474 26.5095161,13.4787284 26.364409,15.0484716 L26.3615914,15.0968589 L23.7891103,9.10678737 C23.7891103,9.10678737 23.3763299,8.13334737 23.135424,7.46161684 C22.8522538,6.66607158 22.6803794,5.73532632 23.9384438,5.76236632 L25.8910499,5.76236632 L25.8910499,0.601995789 L25.8910499,0.431216842 L23.6214623,0.419831579 C20.3347162,0.419831579 19.228803,1.23103158 18.2355942,2.8392 C17.2790145,4.34205474 17.1198193,5.94737684 17.4635681,7.77471158 C17.6354426,8.62860632 18.0270908,9.76713263 18.1679715,10.2410442 C17.8044994,10.5270989 17.4339832,10.8387705 17.0705111,11.2372547 C15.2137038,12.9564295 13.0117389,15.7515116 13.3512613,19.5698442 C13.6372491,22.8431074 15.8871134,24.9778442 18.1412042,25.7107705 C20.6939619,26.4223495 23.353789,25.7107705 25.0330867,24.5295495 L25.6853642,25.8046989 L31.467107,25.8046989 L31.4685158,25.6979621 L31.4685158,25.6979621 L31.4685158,25.6979621 Z"
                                      id="Shape" sketch:type="MSShapeGroup"></path>
                            </g>
                        </g>
                    </svg>