 <svg version="1.0" xmlns="http://www.w3.org/2000/svg"
                         viewBox="0 0 16000 6100" preserveAspectRatio="xMidYMid meet">
                        <g id="layer1" stroke="none">
                            <path d="M1260 6086 c-192 -36 -345 -183 -401 -386 l-24 -85 -6 -1900 c-6 -2082 -2 -1970 -63 -2050 -30 -38 -129 -102 -184 -117 -20 -6 -64 -23 -98 -39 -33 -16 -64 -29 -68 -29 -4 0 -44 -21 -89 -47 -96 -56 -205 -160 -244 -235 l-28 -53 0 -380 c0 -413 1 -419 58 -505 75 -113 169 -182 278 -205 106 -23 1914 -22 2020 0 105 22 199 87 261 181 72 108 78 148 78 546 0 378 -4 407 -72 486 -50 58 -145 142 -160 142 -6 0 -19 6 -27 14 -32 27 -236 118 -291 130 -44 9 -144 80 -173 123 -16 24 -33 66 -39 100 -8 39 -13 660 -17 1958 l-6 1900 -24 70 c-27 81 -56 141 -82 171 -11 11 -19 25 -19 31 0 20 -121 115 -182 142 -106 48 -261 63 -398 37z m194 -237 c122 -22 202 -92 239 -206 l22 -68 5 -1895 c4 -1464 8 -1903 18 -1930 6 -19 12 -46 12 -60 0 -22 34 -99 75 -169 15 -28 123 -131 136 -131 4 0 32 -14 61 -31 29 -18 80 -40 112 -51 33 -11 82 -30 110 -44 27 -13 55 -24 60 -24 19 0 149 -94 170 -123 20 -27 21 -43 24 -305 2 -152 0 -306 -3 -341 -6 -59 -11 -69 -54 -114 -36 -38 -57 -51 -91 -58 -65 -12 -1825 -11 -1891 1 -60 12 -108 50 -140 112 -18 34 -19 62 -19 352 l0 314 27 32 c44 52 125 106 232 155 56 25 107 45 114 45 6 0 26 7 42 16 17 9 59 31 95 50 121 62 211 187 244 340 33 151 36 296 36 2076 0 1863 -1 1832 41 1910 28 52 67 91 116 114 43 21 69 28 144 43 3 1 31 -4 63 -10z"/>
                            <path d="M2480 6085 c-103 -20 -167 -54 -251 -138 -63 -62 -82 -88 -109 -153 -63 -151 -60 -32 -60 -1902 0 -1221 3 -1725 11 -1755 25 -95 65 -193 91 -223 15 -17 28 -36 28 -41 0 -18 106 -101 170 -133 92 -47 151 -60 266 -60 222 0 403 106 496 291 71 141 68 42 68 1924 0 1951 7 1802 -96 1966 -49 77 -127 148 -204 185 -103 50 -271 66 -410 39z m199 -235 c28 -5 76 -21 105 -36 54 -26 81 -57 132 -154 18 -34 19 -93 19 -1770 l0 -1735 -24 -45 c-39 -74 -79 -116 -139 -146 -50 -25 -68 -29 -147 -29 -79 0 -96 3 -145 28 -50 26 -119 89 -120 110 0 5 -6 23 -14 40 -8 18 -19 50 -25 72 -8 27 -11 565 -11 1705 0 1757 -1 1683 43 1803 31 85 141 154 263 166 6 1 34 -3 63 -9z"/>
                            <path d="M3699 6085 c-104 -21 -200 -79 -280 -170 -40 -45 -102 -168 -119 -235 -8 -32 -10 -547 -8 -1815 l3 -1770 38 -77 c20 -42 37 -81 37 -86 0 -6 33 -44 73 -85 122 -125 246 -172 432 -165 96 3 108 6 180 43 75 38 163 112 200 168 15 23 19 25 38 14 12 -7 31 -20 42 -29 77 -65 301 -161 418 -179 116 -18 294 27 384 98 47 38 153 146 153 157 0 5 7 17 16 27 15 17 20 14 92 -47 155 -132 293 -206 452 -240 182 -39 373 16 529 153 79 69 161 155 161 169 0 4 9 17 19 28 32 34 111 195 143 291 46 135 57 191 59 290 1 50 4 104 8 120 6 27 10 20 38 -65 44 -136 136 -337 200 -438 18 -29 33 -55 33 -59 0 -22 171 -224 257 -303 234 -215 511 -282 818 -200 79 21 201 84 246 126 14 13 29 24 35 24 7 0 76 69 153 155 30 33 121 177 121 191 0 7 5 16 11 19 5 4 21 30 33 58 54 118 106 245 106 257 0 6 15 62 34 123 36 119 94 405 101 497 25 319 26 354 15 478 -12 132 -29 208 -61 279 -10 23 -19 47 -19 53 0 21 -100 157 -147 199 -26 24 -86 62 -133 85 l-85 41 -245 6 c-270 7 -371 15 -395 33 -8 6 -24 43 -36 81 -28 96 -28 261 0 364 23 87 67 141 113 141 33 0 108 -46 187 -113 71 -61 119 -83 209 -99 62 -10 84 -10 152 5 45 9 96 27 117 42 21 14 55 36 76 50 20 14 37 30 37 35 0 6 15 25 33 43 64 64 115 247 102 367 -9 83 -63 249 -104 318 -17 29 -31 57 -31 62 0 5 -16 29 -35 54 -19 26 -35 50 -35 55 0 14 -224 224 -256 241 -16 8 -52 29 -81 46 -67 40 -194 79 -302 93 -320 42 -562 -42 -793 -274 -112 -113 -105 -103 -210 -260 -54 -80 -138 -222 -138 -234 0 -3 -16 -37 -35 -76 -19 -38 -35 -77 -35 -85 -1 -8 -12 -37 -25 -65 l-23 -50 -1 240 c-2 321 -9 388 -58 498 -33 75 -51 101 -118 168 -43 44 -90 82 -105 86 -14 3 -34 12 -46 20 -30 19 -164 43 -242 43 -176 0 -290 -46 -403 -161 -44 -45 -79 -87 -79 -94 0 -8 -9 -29 -19 -47 -11 -18 -29 -61 -40 -95 -21 -61 -21 -77 -21 -1110 -1 -1009 -4 -1169 -32 -1333 l-13 -75 -8 65 c-5 36 -12 587 -16 1225 -8 1251 -4 1167 -59 1310 -41 110 -143 223 -240 265 -109 49 -254 62 -381 35 -216 -45 -358 -215 -401 -479 -6 -37 -10 -456 -10 -1086 -1 -981 -7 -1271 -28 -1292 -11 -11 -18 29 -32 182 -5 58 -10 584 -10 1170 0 741 -3 1077 -11 1105 -10 35 -38 103 -72 173 -22 45 -140 153 -201 183 -111 55 -282 73 -427 44z m213 -236 c107 -23 167 -67 213 -159 45 -88 45 -76 45 -1250 0 -1223 -1 -1208 60 -1392 36 -109 88 -178 148 -196 50 -15 117 -15 145 -1 31 16 107 91 107 106 0 7 9 29 20 50 27 54 56 179 71 308 9 77 14 435 19 1205 6 1085 6 1096 27 1149 39 100 105 158 207 181 123 27 272 -55 307 -170 6 -19 16 -51 22 -70 7 -24 13 -388 17 -1185 7 -1177 8 -1218 47 -1355 19 -67 58 -147 87 -178 52 -57 157 -78 227 -44 76 36 119 116 171 322 22 84 22 98 28 1245 6 1282 1 1193 70 1312 26 45 40 57 105 89 66 33 85 37 148 37 58 0 85 -5 132 -27 79 -36 106 -63 146 -149 l34 -72 3 -1465 c2 -989 -1 -1487 -8 -1534 -32 -205 -150 -444 -275 -554 -61 -54 -149 -98 -220 -112 -52 -9 -69 -8 -130 9 -105 29 -133 42 -210 92 -68 45 -194 163 -285 267 -43 48 -49 52 -90 52 -25 -1 -55 -6 -68 -13 -27 -16 -89 -110 -102 -155 -12 -46 -76 -137 -119 -170 -91 -69 -188 -87 -288 -53 -34 12 -66 21 -71 21 -9 0 -39 17 -136 75 -19 11 -71 47 -117 79 -90 63 -141 81 -204 71 -46 -7 -81 -36 -101 -83 -43 -103 -125 -184 -201 -198 -84 -16 -181 12 -252 72 -39 33 -85 121 -100 194 -9 41 -11 471 -9 1725 l3 1670 22 52 c52 122 101 167 213 197 69 18 77 19 142 5z m4043 1 c301 -39 546 -250 641 -550 45 -144 24 -253 -65 -333 -37 -34 -46 -37 -99 -37 -71 1 -90 11 -212 118 -21 17 -43 32 -50 32 -8 0 -21 7 -30 15 -10 9 -44 25 -76 36 -93 33 -175 20 -296 -47 -31 -17 -98 -95 -123 -144 -58 -112 -87 -333 -66 -495 24 -179 75 -287 167 -354 65 -48 100 -53 404 -60 292 -8 323 -12 382 -53 14 -10 30 -18 35 -18 4 -1 22 -19 38 -42 38 -53 40 -56 58 -98 49 -114 51 -130 55 -335 4 -213 -4 -302 -44 -499 -13 -65 -24 -128 -24 -140 0 -51 -118 -399 -167 -491 -42 -79 -69 -123 -95 -155 -15 -19 -28 -38 -28 -43 0 -5 -34 -42 -76 -82 -205 -197 -466 -230 -703 -90 -244 145 -442 461 -586 935 -53 177 -99 437 -126 715 -15 150 -6 516 16 675 9 63 20 152 25 196 4 45 22 137 39 205 17 68 36 143 41 167 40 169 210 506 328 647 43 52 185 195 193 195 3 0 23 13 43 29 59 47 225 104 316 110 8 0 47 -4 85 -9z"/>
                            <path d="M7751 3391 c-45 -12 -116 -84 -149 -151 -25 -52 -27 -63 -27 -195 0 -124 3 -148 25 -210 58 -163 221 -243 341 -167 48 31 101 87 122 130 50 100 54 296 10 456 -7 27 -81 105 -116 123 -35 17 -158 26 -206 14z m99 -354 c0 -103 -11 -152 -23 -105 -9 30 -9 181 -1 202 14 37 24 -2 24 -97z"/>
                            <path d="M10377 6080 c-49 -10 -94 -23 -100 -28 -7 -5 -25 -12 -42 -16 -16 -4 -55 -23 -87 -42 -31 -18 -59 -34 -62 -34 -16 0 -170 -127 -232 -192 -70 -72 -174 -201 -174 -215 0 -4 -8 -16 -19 -27 -17 -19 -55 -86 -110 -191 -40 -78 -80 -171 -101 -235 -12 -36 -28 -78 -35 -95 -19 -44 -96 -322 -105 -380 -4 -27 -20 -108 -35 -180 -15 -71 -31 -170 -35 -220 -5 -49 -18 -173 -29 -275 -50 -465 -53 -1075 -6 -1540 8 -80 19 -194 25 -255 26 -258 118 -678 196 -893 19 -51 34 -97 34 -102 0 -5 15 -42 34 -82 18 -40 38 -84 44 -98 12 -26 67 -125 116 -206 42 -70 96 -142 137 -183 20 -20 38 -41 40 -48 11 -32 294 -253 325 -253 3 0 31 -12 62 -26 31 -14 68 -31 82 -36 40 -16 208 -37 290 -38 88 0 238 22 295 43 77 29 176 77 209 102 18 14 36 25 40 25 15 0 144 110 203 173 65 70 181 219 191 246 3 9 16 30 28 47 13 16 33 52 45 78 12 27 34 71 50 98 16 27 29 54 29 60 0 6 11 34 24 62 30 64 113 306 125 366 5 25 23 101 39 170 17 69 36 164 43 213 11 88 22 106 39 63 18 -47 128 -152 197 -189 101 -52 162 -67 277 -67 119 1 165 10 255 52 140 65 223 167 294 362 l22 61 5 1240 c5 1226 7 1308 36 1264 5 -8 11 -562 14 -1264 l5 -1250 23 -65 c13 -36 29 -74 36 -85 7 -11 16 -32 19 -46 4 -14 41 -60 82 -103 79 -80 170 -133 266 -155 57 -14 222 -13 279 0 96 22 191 78 269 158 l74 75 42 -47 c22 -26 46 -47 51 -47 6 0 19 -9 30 -21 10 -12 31 -27 46 -35 l27 -14 3 -488 c4 -538 0 -501 72 -653 59 -124 201 -236 335 -266 153 -34 341 -12 451 53 132 77 242 239 261 381 4 38 8 259 9 493 l0 425 86 30 c118 41 237 131 284 216 45 81 58 120 70 211 17 125 2 266 -38 343 -14 28 -32 62 -39 77 -45 88 -202 202 -305 221 l-58 11 0 931 c0 630 4 950 11 990 15 80 56 184 88 219 29 32 114 76 148 76 12 0 24 4 28 9 3 5 18 12 34 16 34 7 125 100 164 165 32 56 56 165 64 291 11 175 -35 306 -144 410 -120 116 -227 157 -426 166 -231 10 -387 -24 -544 -119 -245 -147 -410 -398 -493 -750 -56 -237 -53 -156 -57 -1350 l-4 -1108 -38 -19 c-20 -11 -43 -27 -50 -35 -8 -9 -18 -16 -22 -16 -6 0 -9 597 -9 1463 1 804 -2 1482 -6 1507 -3 25 -26 86 -49 135 -96 200 -269 305 -503 305 -138 0 -292 -48 -356 -111 -16 -16 -33 -29 -37 -29 -5 0 -22 -20 -39 -45 l-31 -45 -52 43 c-48 40 -66 53 -134 98 -14 9 -62 30 -106 45 -79 28 -89 29 -272 29 -177 0 -193 -2 -236 -22 -25 -13 -50 -23 -56 -23 -27 0 -158 -118 -213 -191 -33 -44 -60 -83 -60 -88 0 -4 -14 -34 -32 -66 -30 -56 -40 -86 -89 -265 -27 -100 -39 -228 -47 -505 -7 -223 -8 -228 -21 -170 -18 82 -106 348 -136 413 -14 29 -25 57 -25 61 0 20 -107 212 -177 320 -55 83 -106 144 -188 225 -127 126 -139 135 -250 201 -148 88 -296 125 -490 124 -65 -1 -146 -8 -198 -19z m425 -264 c107 -39 215 -107 309 -193 62 -58 179 -196 179 -212 0 -4 12 -24 28 -43 40 -52 175 -326 193 -393 4 -16 23 -77 42 -135 63 -191 128 -518 166 -835 19 -153 36 -562 35 -850 0 -590 -41 -1043 -130 -1435 -39 -173 -114 -415 -155 -502 -14 -31 -29 -68 -33 -82 -4 -15 -20 -48 -36 -75 -17 -26 -30 -52 -30 -56 0 -15 -131 -203 -181 -261 -53 -59 -129 -130 -160 -149 -10 -5 -38 -25 -63 -43 -26 -17 -51 -32 -55 -32 -5 0 -37 -14 -70 -30 -75 -37 -186 -53 -316 -45 -172 12 -353 110 -510 277 -42 45 -84 93 -93 107 -9 14 -23 35 -33 46 -35 42 -189 342 -189 370 0 6 -16 51 -36 99 -19 49 -39 107 -43 130 -5 22 -22 93 -39 156 -47 176 -89 408 -102 560 -5 58 -16 176 -24 264 -39 399 -39 1005 -1 1401 9 88 20 207 25 266 5 58 22 174 39 257 17 84 31 160 31 170 0 9 16 76 35 147 71 256 136 422 248 630 64 119 188 265 304 361 87 71 214 131 348 164 77 18 211 4 317 -34z m2964 4 c68 -31 98 -64 141 -155 l28 -60 3 -1680 c2 -1256 0 -1694 -9 -1734 -6 -30 -26 -82 -44 -115 -28 -53 -42 -67 -101 -101 -66 -39 -71 -40 -159 -40 -149 0 -230 52 -287 183 l-33 77 -5 1260 c-4 1053 -7 1264 -19 1285 -55 98 -126 161 -204 180 -111 28 -230 -41 -308 -180 -12 -21 -15 -226 -19 -1275 -6 -1355 -2 -1267 -59 -1386 -27 -57 -51 -80 -121 -116 -48 -24 -67 -28 -140 -28 -76 0 -92 4 -153 33 -70 34 -97 65 -139 159 -17 40 -18 103 -18 1557 0 1636 -3 1555 51 1741 33 112 50 154 86 219 47 83 104 139 177 173 55 25 71 28 166 27 88 0 117 -5 180 -27 41 -15 92 -40 114 -55 21 -15 46 -32 55 -37 9 -6 58 -52 110 -103 86 -84 98 -92 133 -92 22 0 49 5 61 11 28 15 66 60 67 79 0 8 17 46 38 84 30 55 48 76 86 100 101 61 210 67 322 16z m1749 -4 c61 -19 91 -35 122 -66 51 -49 57 -60 72 -130 15 -71 -2 -229 -31 -281 -22 -40 -37 -50 -113 -75 -87 -29 -128 -53 -185 -108 -88 -86 -98 -100 -140 -200 -57 -137 -54 -73 -57 -1180 -4 -1151 -8 -1091 70 -1163 39 -36 49 -40 116 -47 84 -7 112 -20 167 -74 67 -64 86 -116 86 -231 0 -86 -4 -105 -26 -149 -14 -27 -43 -65 -65 -84 -41 -35 -137 -71 -221 -84 -57 -8 -96 -28 -112 -57 -10 -17 -14 -146 -18 -547 l-5 -525 -29 -60 c-30 -61 -78 -114 -131 -143 -40 -22 -247 -24 -285 -3 -46 26 -102 76 -118 106 -59 108 -56 75 -62 650 -4 405 -8 535 -18 553 -12 21 -99 72 -122 72 -22 0 -80 53 -109 100 -43 70 -58 154 -42 232 7 34 20 75 29 91 9 16 23 40 30 53 7 13 18 24 24 24 6 0 20 8 30 17 11 10 43 29 71 43 60 30 86 62 98 121 4 24 8 517 9 1096 0 690 4 1078 11 1130 27 200 99 453 158 555 11 18 30 52 43 75 53 95 165 200 273 256 33 17 153 53 200 61 68 10 201 -3 280 -28z"/>
                            <path d="M10530 4902 c-69 -19 -190 -117 -190 -154 0 -7 -16 -49 -35 -93 -19 -44 -35 -91 -35 -105 0 -14 -7 -46 -14 -71 -27 -87 -57 -254 -66 -359 -5 -58 -17 -175 -25 -260 -21 -210 -31 -874 -16 -1140 31 -583 76 -879 176 -1162 58 -162 203 -233 366 -181 141 46 212 212 283 658 46 289 66 635 66 1135 0 469 -20 824 -61 1060 -11 63 -25 144 -30 179 -9 62 -64 247 -96 320 -43 102 -136 170 -243 176 -30 2 -66 1 -80 -3z m87 -283 c19 -41 72 -221 83 -284 70 -408 80 -560 80 -1169 0 -506 -10 -739 -40 -931 -5 -33 -16 -114 -25 -180 -8 -66 -31 -178 -51 -250 -44 -161 -53 -185 -69 -185 -35 0 -126 367 -154 620 -48 441 -48 1443 0 1825 31 246 122 592 153 582 6 -2 16 -14 23 -28z"/>
                        </g>
                    </svg>